<svg width="154" height="41" viewBox="0 0 154 41" xmlns="http://www.w3.org/2000/svg" xmlns:xlink="http://www.w3.org/1999/xlink"><title>Group 19</title><desc>Created using Figma</desc><g transform="translate(56 9)" fill="#54515C"><use xlink:href="#a"/><use xlink:href="#b"/><use xlink:href="#c"/><use xlink:href="#d"/><use xlink:href="#e"/><use xlink:href="#f"/><use xlink:href="#g"/><use xlink:href="#h"/><use xlink:href="#i"/><use xlink:href="#j"/><use xlink:href="#k"/><use xlink:href="#l"/><use xlink:href="#m"/><use xlink:href="#n"/><use xlink:href="#o"/><use xlink:href="#p"/><use xlink:href="#q"/><use xlink:href="#r"/></g><use xlink:href="#s" transform="rotate(-90 20.5 20.5)" fill="url(#t)"/><defs><linearGradient id="t" x2="1" gradientUnits="userSpaceOnUse" gradientTransform="matrix(0 40 -41 0 41 0)"><stop offset="0" stop-color="#5B37BB"/><stop offset="1" stop-color="#AD5FD1"/></linearGradient><path id="a" d="M.788 10.414h2.206V.176H.788v10.238z"/><path id="b" d="M5.5 10.414h2.178V3.905l4.856 6.51h1.877V.174h-2.178V6.48L7.535.176H5.5v10.238z"/><path id="c" d="M19.154 10.414h2.206V2.253h3.051V.176h-8.309v2.077h3.052v8.161z"/><path id="d" d="M26.108 10.414h7.636V8.41H28.3V6.26h4.727V4.256H28.3V2.18h5.372V.176h-7.564v10.238z"/><path id="e" d="M35.705 10.414h7.206V8.367h-5V.176h-2.206v10.238z"/><path id="f" d="M44.575 10.414h7.206V8.367h-5V.176h-2.206v10.238z"/><path id="g" d="M53.545 10.414h2.206V.176h-2.206v10.238z"/><path id="h" d="M63.086 10.59c1.833 0 3.252-.732 4.283-1.624V4.52h-4.355v1.945h2.22v1.463c-.558.41-1.275.614-2.077.614-1.776 0-3.037-1.375-3.037-3.247 0-1.77 1.275-3.218 2.88-3.218 1.16 0 1.847.38 2.621 1.039l1.39-1.712C65.965.497 64.876 0 63.07 0c-3.037 0-5.258 2.384-5.258 5.295 0 3.057 2.15 5.295 5.273 5.295z"/><path id="i" d="M69.492 10.414h7.635V8.41h-5.443V6.26h4.727V4.256h-4.727V2.18h5.372V.176h-7.564v10.238z"/><path id="j" d="M79.09 10.414h2.177V3.905l4.856 6.51H88V.174h-2.178V6.48L81.123.176H79.09v10.238z"/><path id="k" d="M92.742 10.414h2.207V2.253H98V.176h-8.31v2.077h3.052v8.161z"/><path id="l" d="M4.255 26c2.163 0 3.682-1.14 3.682-3.174 0-1.814-1.146-2.56-3.18-3.1-1.734-.454-2.164-.674-2.164-1.347 0-.526.444-.921 1.29-.921.845 0 1.718.38 2.607 1.01l1.146-1.698c-1.017-.833-2.264-1.301-3.725-1.301-2.049 0-3.51 1.228-3.51 3.086 0 2.062 1.304 2.633 3.324 3.16 1.676.438 2.02.73 2.02 1.301 0 .63-.545.995-1.447.995-1.146 0-2.092-.483-2.994-1.244L0 24.362A6.306 6.306 0 0 0 4.255 26z"/><path id="m" d="M9.851 25.854h2.206v-3.072h1.677c2.249 0 4.054-1.229 4.054-3.598 0-2.121-1.447-3.569-3.84-3.569H9.851v10.239zm2.206-5.076v-3.13h1.705c1.103 0 1.791.541 1.791 1.55 0 .907-.645 1.58-1.748 1.58h-1.748z"/><path id="n" d="M19.42 25.854h7.636V23.85h-5.444V21.7h4.728v-2.004h-4.727v-2.077h5.372v-2.004H19.42v10.239z"/><path id="o" d="M28.158 25.854h2.25l.916-2.297h4.24l.918 2.297h2.306l-4.297-10.312h-2.035l-4.298 10.312zm3.954-4.286l1.333-3.32 1.332 3.32h-2.665z"/><path id="p" d="M40.336 25.854h2.206v-3.13l1.16-1.23 3.11 4.36h2.65l-4.27-5.895 4.084-4.344H46.61l-4.069 4.476v-4.476h-2.206v10.239z"/><path id="q" d="M50.8 25.854h7.637V23.85h-5.444V21.7h4.727v-2.004h-4.727v-2.077h5.372v-2.004H50.8v10.239z"/><path id="r" d="M60.398 25.854h2.206v-3.277h1.705l2.178 3.277h2.578l-2.45-3.657c1.276-.483 2.15-1.521 2.15-3.174 0-.995-.301-1.8-.86-2.37-.66-.672-1.648-1.038-2.923-1.038h-4.584v10.239zm2.206-5.266v-2.94h2.192c1.075 0 1.734.497 1.734 1.463 0 .892-.616 1.477-1.69 1.477h-2.236z"/><path id="s" fill-rule="evenodd" d="M33.051 7.917H7.949v24.166h25.102V7.917zM7.949 0C3.559 0 0 3.544 0 7.917v24.166C0 36.456 3.559 40 7.949 40h25.102C37.441 40 41 36.456 41 32.083V7.917C41 3.544 37.441 0 33.051 0H7.949z"/></defs></svg>