<svg><defs>
    <g id="calendar-outline" fill="none"><path fill-rule="evenodd" clip-rule="evenodd" d="M3.833 3A.833.833 0 003 3.833v8.334c0 .46.373.833.833.833h8.334c.46 0 .833-.373.833-.833V3.833A.833.833 0 0012.167 3H3.833zM2 3.833C2 2.821 2.82 2 3.833 2h8.334C13.179 2 14 2.82 14 3.833v8.334C14 13.179 13.18 14 12.167 14H3.833A1.833 1.833 0 012 12.167V3.833z" fill="#8B8E93"/><path fill-rule="evenodd" clip-rule="evenodd" d="M10.5 1a.5.5 0 01.5.5v3a.5.5 0 01-1 0v-3a.5.5 0 01.5-.5zM5.5 1a.5.5 0 01.5.5v3a.5.5 0 01-1 0v-3a.5.5 0 01.5-.5zM2 6.5c0-.276.199-.5.444-.5h11.112c.245 0 .444.224.444.5s-.199.5-.444.5H2.444C2.2 7 2 6.776 2 6.5z" fill="#8B8E93"/></g>
    <g id="check-outline" fill="none"><path fill-rule="evenodd" clip-rule="evenodd" d="M12.485 5.586l-.708-.707-4.949 4.949-2.12-2.121L4 8.414l2.828 2.829 5.657-5.657z" fill="#8B8E93"/></g>
    <g id="checkbox-all-card-outline" fill="none"><g clip-path="url(#clip0)" fill="#9F9F9F"><path fill-rule="evenodd" clip-rule="evenodd" d="M15.854 3.646a.5.5 0 010 .708L8.52 11.687a.5.5 0 01-.707 0L4.48 8.354a.5.5 0 11.707-.708l2.98 2.98 6.98-6.98a.5.5 0 01.707 0z"/><path d="M10.858 5.349a.5.5 0 10-.716-.698l-2.78 2.856.707.707 2.79-2.865zM5.035 11.329L1.354 7.646a.5.5 0 10-.708.708l3.334 3.333a.5.5 0 00.712-.005l.343-.353z"/></g><defs><clipPath id="clip0"><path fill="#fff" d="M0 0h16v16H0z"/></clipPath></defs></g>
    <g id="checkbox-completed-card-outline" fill="none"><path fill-rule="evenodd" clip-rule="evenodd" d="M10.51 2.363A6.167 6.167 0 1014.167 8v-.613a.5.5 0 011 0V8a7.168 7.168 0 11-4.25-6.55.5.5 0 01-.407.913z" fill="#9F9F9F"/><path fill-rule="evenodd" clip-rule="evenodd" d="M15.02 2.313a.5.5 0 010 .707L8.354 9.693a.5.5 0 01-.708 0l-2-2a.5.5 0 01.708-.706L8 8.633l6.313-6.32a.5.5 0 01.707 0z" fill="#9F9F9F"/></g>
    <g id="checkbox-incompleted-card-outline" fill="none"><path fill-rule="evenodd" clip-rule="evenodd" d="M8.087 1.311a.5.5 0 01-.468.53 6.166 6.166 0 00-1.92.434.5.5 0 01-.374-.927A7.166 7.166 0 017.557.843a.5.5 0 01.53.468zm1.136.113a.5.5 0 01.611-.356c.369.098.731.225 1.083.382a.5.5 0 11-.407.913 6.166 6.166 0 00-.932-.328.5.5 0 01-.355-.611zM4.07 2.588a.5.5 0 01-.058.705 6.167 6.167 0 00-1.28 1.496.5.5 0 11-.853-.52 7.166 7.166 0 011.486-1.74.5.5 0 01.705.059zM1.615 6.014a.5.5 0 01.375.6 6.167 6.167 0 00-.13 1.964.5.5 0 11-.995.094 7.166 7.166 0 01.15-2.283.5.5 0 01.6-.375zm13.052.873a.5.5 0 01.5.5v.153a.501.501 0 01-.024.153c.015.049.024.1.024.154V8c0 .385-.032.768-.093 1.144a.5.5 0 01-.987-.16c.053-.324.08-.653.08-.984v-.153c0-.054.008-.105.024-.154a.498.498 0 01-.024-.153v-.153a.5.5 0 01.5-.5zm-12.969 3.34a.5.5 0 01.66.257 6.165 6.165 0 001.071 1.652.5.5 0 11-.741.67 7.163 7.163 0 01-1.246-1.919.5.5 0 01.256-.66zm12.442.414a.5.5 0 01.211.675 7.167 7.167 0 01-1.37 1.833.5.5 0 01-.695-.72 6.162 6.162 0 001.18-1.576.5.5 0 01.674-.212zm-9.855 2.914a.5.5 0 01.682-.19 6.163 6.163 0 001.847.683.5.5 0 11-.192.981 7.177 7.177 0 01-2.147-.793.5.5 0 01-.19-.681zm7.052.234a.5.5 0 01-.234.667 7.162 7.162 0 01-2.194.65.5.5 0 01-.127-.993 6.16 6.16 0 001.888-.558.5.5 0 01.667.234zM15.02 2.313a.5.5 0 010 .707L8.354 9.693a.5.5 0 01-.708 0l-2-2a.5.5 0 01.708-.706L8 8.633l6.313-6.32a.5.5 0 01.707 0z" fill="#9F9F9F"/></g>
    <g id="checkbox-marked-outline" fill="none"><path fill-rule="evenodd" clip-rule="evenodd" d="M8 16A8 8 0 108 0a8 8 0 000 16zm4.485-10.414l-.708-.707-4.949 4.949-2.12-2.121L4 8.414l2.828 2.829 5.657-5.657z" fill="#8B8E93"/></g>
    <g id="checkbox-outline" fill="none"><path d="M11.777 4.879l.708.707-5.657 5.657L4 8.414l.707-.707 2.121 2.121 4.95-4.95z" fill="#8B8E93"/><path fill-rule="evenodd" clip-rule="evenodd" d="M8 16A8 8 0 108 0a8 8 0 000 16zm0-1A7 7 0 108 1a7 7 0 000 14z" fill="#8B8E93"/></g>
    <g id="checked-small-outline" fill="none"><rect width="12" height="12" fill="none"/><path fill-rule="evenodd" clip-rule="evenodd" d="M10.4845 3.58601L9.77734 2.87891L4.8282 7.82805L2.70711 5.70696L2 6.41406L4.8276 9.24287L10.4845 3.58601Z" fill="#8B8E93"/></g>
    <g id="close-outline" fill="none"><path d="M13.3536 3.35355c.1952-.19526.1952-.51184 0-.707s-.512-.19527-.7072 0L8 7.2929 3.35355 2.64645c-.19526-.19527-.51184-.19527-.707 0s-.19527.51184 0 .707L7.2929 8l-4.64644 4.6464c-.19527.1953-.19527.512 0 .7072s.51184.1952.707 0L8 8.7071l4.6464 4.6465c.1953.1952.512.1952.7072 0s.1952-.512 0-.7072L8.7071 8l4.6465-4.64645z" fill="#8B8E93"/></g>
    <g id="custom-field-outline" fill="none"><path d="M2.5 4a.5.5 0 000 1h5a.5.5 0 000-1h-5z" fill="#9F9F9F"/><path fill-rule="evenodd" clip-rule="evenodd" d="M14 11a1 1 0 01-1 1H3a1 1 0 01-1-1V8a1 1 0 011-1h10a1 1 0 011 1v3zm-1 0H3V8h10v3z" fill="#9F9F9F"/></g>
    <g id="custom-filter-outline" fill="none"><path d="M1.713 2.29A.5.5 0 012.167 2h11.666a.5.5 0 01.382.823l-1.31 1.605-.154.193a.507.507 0 01-.79-.634l.026-.033-.004-.001.773-.953H3.244l3.638 4.484A.5.5 0 017 7.807v4.05l2 .834v-2.179a.5.5 0 011 0V13.5a.5.5 0 01-.724.447l-3-1.333A.5.5 0 016 12.167V7.99L1.785 2.823a.5.5 0 01-.072-.533z" fill="#9F9F9F"/><path fill-rule="evenodd" clip-rule="evenodd" d="M9 7.48c0-1.104.893-2 1.995-2h.01c1.102 0 1.995.896 1.995 2 0 1.105-.893 2-1.995 2h-.01A1.997 1.997 0 019 7.48zm1 0c0-.552.447-1 .997-1h.006c.55 0 .997.448.997 1 0 .553-.447 1-.997 1h-.006a.999.999 0 01-.997-1z" fill="#9F9F9F"/></g>
    <g id="dots-horizontal" fill="none"><path d="M5 8C5 8.55228 4.55228 9 4 9C3.44772 9 3 8.55228 3 8C3 7.44772 3.44772 7 4 7C4.55228 7 5 7.44772 5 8Z" fill="#8B8E93"/><path d="M8 9C8.55228 9 9 8.55228 9 8C9 7.44772 8.55228 7 8 7C7.44772 7 7 7.44772 7 8C7 8.55228 7.44772 9 8 9Z" fill="#8B8E93"/><path d="M12 9C12.5523 9 13 8.55228 13 8C13 7.44772 12.5523 7 12 7C11.4477 7 11 7.44772 11 8C11 8.55228 11.4477 9 12 9Z" fill="#8B8E93"/></g>
    <g id="filter-outline" fill="none"><path fill-rule="evenodd" clip-rule="evenodd" d="M1.713 2.29A.5.5 0 012.167 2h11.667a.5.5 0 01.381.823L10 7.99v5.51a.5.5 0 01-.723.447l-3-1.333A.5.5 0 016 12.167V7.99L1.785 2.823a.5.5 0 01-.072-.533zM3.244 3l3.638 4.484A.5.5 0 017 7.807v4.05l2 .834V7.807a.5.5 0 01.118-.323L12.756 3H3.244z" fill="#9F9F9F"/></g>
    <g id="fullscreen-outline" fill="#8B8E93"><path d="M3 3.83333C3 3.373 3.373 3 3.83333 3H6.5c.27614 0 .5-.22386.5-.5S6.77614 2 6.5 2H3.83333C2.8208 2 2 2.8208 2 3.83333v8.33337C2 13.1792 2.8208 14 3.83333 14h8.33337C13.1792 14 14 13.1792 14 12.1667V9.5c0-.27614-.224-.5-.5-.5s-.5.22386-.5.5v2.6667c0 .4602-.373.8333-.8333.8333H3.83333C3.373 13 3 12.627 3 12.1667V3.83333zM9 2.5c0-.27614.22386-.5.5-.5h4c.276 0 .5.22386.5.5v4c0 .27614-.224.5-.5.5s-.5-.22386-.5-.5V3.70715L6.83337 9.87377c-.19526.19523-.51184.19523-.707 0s-.19526-.51184 0-.707L12.293 3H9.5c-.27614 0-.5-.22386-.5-.5z"/></g>
    <g id="help-outline" fill="none"><path fill-rule="evenodd" clip-rule="evenodd" d="M8 14A6 6 0 108 2a6 6 0 000 12zm0 1A7 7 0 108 1a7 7 0 000 14z" fill="#9F9F9F"/><path d="M7.396 12.194h1.208v-1.195H7.396v1.195zM8 4.374c-.641 0-1.256.255-1.71.71a2.426 2.426 0 00-.708 1.713h1.21A1.213 1.213 0 018 5.585a1.207 1.207 0 011.209 1.212c0 1.211-1.813 1.06-1.813 3.029h1.208c0-1.363 1.814-1.515 1.814-3.03 0-.642-.255-1.258-.708-1.713A2.415 2.415 0 008 4.373z" fill="#9F9F9F"/></g>
    <g id="kanban-outline" fill="none"><path fill-rule="evenodd" clip-rule="evenodd" d="M3 3v10h3V3H3zM2 13a1 1 0 001 1h3a1 1 0 001-1V3a1 1 0 00-1-1H3a1 1 0 00-1 1v10zM10 3v6h3V3h-3zM9 9a1 1 0 001 1h3a1 1 0 001-1V3a1 1 0 00-1-1h-3a1 1 0 00-1 1v6z" fill="#8B8E93"/></g>
    <g id="label-outline" fill="none"><path fill-rule="evenodd" clip-rule="evenodd" d="M9.037 13.895l4.86-4.86v-.002a.357.357 0 000-.501L8.367 3H3v5.368l5.532 5.527a.357.357 0 00.505 0zM2 8.783l5.825 5.82a1.356 1.356 0 001.919 0l4.862-4.864a1.357 1.357 0 000-1.913L8.78 2H2v6.783zm2.417-3.116c0-.69.56-1.25 1.25-1.25h.006a1.25 1.25 0 110 2.5h-.006c-.69 0-1.25-.56-1.25-1.25z" fill="#9F9F9F"/></g>
    <g id="layout-hide-left-outline" fill="none"><rect x="1.5" y="1.5" width="13" height="13" rx="1.5" stroke="#9F9F9F"/><path d="M10 2h1v12h-1V2zM4 8L6.83 5.172l.707.707-2.829 2.828z" fill="#9F9F9F"/><path fill="#9F9F9F" d="M4.707 7.293l2.828 2.828-.707.707L4 8z"/></g>
    <g id="layout-hide-right-outline" fill="none"><rect x="-.5" y=".5" width="13" height="13" rx="1.5" transform="matrix(-1 0 0 1 14 1)" stroke="#9F9F9F"/><path d="M6 2H5v12h1V2zM12 8L9.172 5.17l-.708.708 2.829 2.828z" fill="#9F9F9F"/><path fill="#9F9F9F" d="M11.293 7.293L8.465 10.12l.707.707L12 8z"/></g>
    <g id="layout-show-left-outline" fill="none"><rect x="1.5" y="1.5" width="13" height="13" rx="1.5" stroke="#9F9F9F"/><path d="M5 2h1v12H5V2z" fill="#9F9F9F"/></g>
    <g id="layout-show-right-outline" fill="none"><rect x="-.5" y=".5" width="13" height="13" rx="1.5" transform="matrix(-1 0 0 1 14 1)" stroke="#9F9F9F"/><path d="M11 2h-1v12h1V2z" fill="#9F9F9F"/></g>
    <g id="list-outline" fill="none"><path fill-rule="evenodd" clip-rule="evenodd" d="M3 13h10v-3H3v3zm10 1a1 1 0 001-1v-3a1 1 0 00-1-1H3a1 1 0 00-1 1v3a1 1 0 001 1h10zM3 6h10V3H3v3zm10 1a1 1 0 001-1V3a1 1 0 00-1-1H3a1 1 0 00-1 1v3a1 1 0 001 1h10z" fill="#8B8E93"/></g>
    <g id="member-outline" fill="none"><path fill-rule="evenodd" clip-rule="evenodd" d="M2.927 9.928A3.167 3.167 0 015.167 9h5.666A3.167 3.167 0 0114 12.167V13.5a.5.5 0 01-1 0v-1.333A2.167 2.167 0 0010.833 10H5.167A2.167 2.167 0 003 12.167V13.5a.5.5 0 01-1 0v-1.333c0-.84.334-1.646.927-2.24zM8 2c-1.134 0-2 .866-2 2s.866 2 2 2 2-.866 2-2-.866-2-2-2zM5 4a3 3 0 116 0 3 3 0 01-6 0z" fill="#8B8E93"/><path d="M2.526 13h10.948v1H2.526v-1z" fill="#8B8E93"/></g>
    <g id="members-outline" fill="none"><g clip-path="url(#clip0)" fill="#8B8E93"><path fill-rule="evenodd" clip-rule="evenodd" d="M.927 9.928A3.167 3.167 0 013.167 9h5.666A3.167 3.167 0 0112 12.167V13.5a.5.5 0 01-1 0v-1.333A2.167 2.167 0 008.833 10H3.167A2.167 2.167 0 001 12.167V13.5a.5.5 0 01-1 0v-1.333c0-.84.334-1.646.927-2.24zM6 1.947a2.053 2.053 0 100 4.106 2.053 2.053 0 000-4.106zM3 4a3 3 0 116 0 3 3 0 01-6 0zM13.016 9.462a.5.5 0 01.609-.36A3.167 3.167 0 0116 12.166V13.5a.5.5 0 01-1 0v-1.333a2.167 2.167 0 00-1.625-2.096.5.5 0 01-.36-.61zM10.016 1.366a.5.5 0 01.607-.35c.68.169 1.283.554 1.713 1.095.43.54.664 1.205.664 1.889 0 .684-.234 1.349-.664 1.89-.43.54-1.033.925-1.713 1.095a.5.5 0 01-.607-.35.486.486 0 01.36-.593c.465-.116.877-.38 1.171-.75.295-.37.455-.824.455-1.292 0-.468-.16-.923-.455-1.293a2.168 2.168 0 00-1.172-.75.486.486 0 01-.36-.591z"/><path d="M.427 13h11.069v1H.426v-1z"/></g><defs><clipPath id="clip0"><path fill="#fff" d="M0 0h16v16H0z"/></clipPath></defs></g>
    <g id="menu-dots-outline" fill="none"><path d="M5 8a1 1 0 11-2 0 1 1 0 012 0zM8 9a1 1 0 100-2 1 1 0 000 2zM12 9a1 1 0 100-2 1 1 0 000 2z" fill="#8B8E93"/></g>
    <g id="menu-opened-outline" fill="none"><rect x="6" y="3" width="9" height="1" fill="#8B8E93"/><rect x="6" y="7" width="9" height="1" fill="#8B8E93"/><rect x="1" y="7.5" width="4" height="1" transform="rotate(-45 1 7.5)" fill="#8B8E93"/><rect x="1.70709" y="6.79297" width="4" height="1" transform="rotate(45 1.70709 6.79297)" fill="#8B8E93"/><rect x="6" y="11" width="9" height="1" fill="#8B8E93"/></g>
    <g id="menu-outline" fill="none"><path fill="#9F9F9F" d="M2 3h12v1H2zM2 7h12v1H2zM2 11h12v1H2z"/></g>
    <g id="minus-outline" fill="none"><path fill-rule="evenodd" clip-rule="evenodd" d="M2.833 8.5a.5.5 0 01.5-.5h9.334a.5.5 0 110 1H3.333a.5.5 0 01-.5-.5z" fill="#8B8E93"/></g>
    <g id="orientation-bottom-outline" fill="none"><path fill-rule="evenodd" clip-rule="evenodd" d="M14 13V3a1 1 0 00-1-1H3a1 1 0 00-1 1v10a1 1 0 001 1h10a1 1 0 001-1zm1-10a2 2 0 00-2-2H3a2 2 0 00-2 2v10a2 2 0 002 2h10a2 2 0 002-2V3z" fill="#8B8E93"/><path d="M14 10v4H2v-4h12z" fill="#8B8E93"/></g>
    <g id="orientation-left-outline" fill="none"><path fill-rule="evenodd" clip-rule="evenodd" d="M3 2h10a1 1 0 011 1v10a1 1 0 01-1 1H3a1 1 0 01-1-1V3a1 1 0 011-1zm10-1a2 2 0 012 2v10a2 2 0 01-2 2H3a2 2 0 01-2-2V3a2 2 0 012-2h10z" fill="#8B8E93"/><path d="M6 2H2v12h4V2z" fill="#8B8E93"/></g>
    <g id="orientation-right-outline" fill="none"><path fill-rule="evenodd" clip-rule="evenodd" d="M13 2H3a1 1 0 00-1 1v10a1 1 0 001 1h10a1 1 0 001-1V3a1 1 0 00-1-1zM3 1a2 2 0 00-2 2v10a2 2 0 002 2h10a2 2 0 002-2V3a2 2 0 00-2-2H3z" fill="#8B8E93"/><path d="M10 2h4v12h-4V2z" fill="#8B8E93"/></g>
    <g id="plus-outline" fill="none"><path d="M14 9H9v5H7V9H2V7h5V2h2v5h5v2z" fill="#9F9F9F"/></g>
    <g id="plus-rounded-outline" fill="none"><path fill-rule="evenodd" clip-rule="evenodd" d="M8 16C12.4183 16 16 12.4183 16 8C16 3.58172 12.4183 0 8 0C3.58172 0 0 3.58172 0 8C0 12.4183 3.58172 16 8 16ZM8 15C11.866 15 15 11.866 15 8C15 4.13401 11.866 1 8 1C4.13401 1 1 4.13401 1 8C1 11.866 4.13401 15 8 15Z" fill="#8B8E93"/><rect x="7" y="4" width="2" height="8" fill="#8B8E93"/><rect x="12" y="7" width="2" height="8" transform="rotate(90 12 7)" fill="#8B8E93"/></g>
    <g id="settings-outline" fill="none"><path d="M8 10C9.10457 10 10 9.10457 10 8C10 6.89543 9.10457 6 8 6C6.89543 6 6 6.89543 6 8C6 9.10457 6.89543 10 8 10Z" stroke="#9F9F9F" stroke-linecap="round" stroke-linejoin="round"/><path d="M12.9334 10.0001C12.8447 10.2012 12.8182 10.4242 12.8574 10.6405C12.8966 10.8567 12.9997 11.0563 13.1534 11.2134L13.1934 11.2534C13.3174 11.3772 13.4157 11.5243 13.4828 11.6862C13.5499 11.848 13.5845 12.0215 13.5845 12.1967C13.5845 12.372 13.5499 12.5455 13.4828 12.7073C13.4157 12.8692 13.3174 13.0162 13.1934 13.1401C13.0696 13.264 12.9225 13.3624 12.7607 13.4295C12.5988 13.4966 12.4253 13.5311 12.2501 13.5311C12.0749 13.5311 11.9014 13.4966 11.7395 13.4295C11.5776 13.3624 11.4306 13.264 11.3067 13.1401L11.2667 13.1001C11.1096 12.9464 10.9101 12.8433 10.6938 12.8041C10.4775 12.7649 10.2545 12.7913 10.0534 12.8801C9.85623 12.9646 9.68807 13.1049 9.56962 13.2838C9.45117 13.4626 9.3876 13.6722 9.38675 13.8867V14.0001C9.38675 14.3537 9.24627 14.6928 8.99622 14.9429C8.74617 15.1929 8.40704 15.3334 8.05341 15.3334C7.69979 15.3334 7.36065 15.1929 7.11061 14.9429C6.86056 14.6928 6.72008 14.3537 6.72008 14.0001V13.9401C6.71492 13.7194 6.64349 13.5054 6.51509 13.3259C6.38668 13.1464 6.20724 13.0096 6.00008 12.9334C5.799 12.8447 5.57595 12.8182 5.35969 12.8574C5.14343 12.8966 4.94387 12.9997 4.78675 13.1534L4.74675 13.1934C4.62292 13.3174 4.47587 13.4157 4.314 13.4828C4.15214 13.5499 3.97864 13.5845 3.80341 13.5845C3.62819 13.5845 3.45469 13.5499 3.29283 13.4828C3.13096 13.4157 2.98391 13.3174 2.86008 13.1934C2.73611 13.0696 2.63777 12.9225 2.57067 12.7607C2.50357 12.5988 2.46903 12.4253 2.46903 12.2501C2.46903 12.0749 2.50357 11.9014 2.57067 11.7395C2.63777 11.5776 2.73611 11.4306 2.86008 11.3067L2.90008 11.2667C3.05377 11.1096 3.15687 10.9101 3.19608 10.6938C3.2353 10.4775 3.20882 10.2545 3.12008 10.0534C3.03557 9.85623 2.89525 9.68807 2.71639 9.56962C2.53753 9.45117 2.32794 9.3876 2.11341 9.38675H2.00008C1.64646 9.38675 1.30732 9.24627 1.05727 8.99622C0.807224 8.74617 0.666748 8.40704 0.666748 8.05341C0.666748 7.69979 0.807224 7.36065 1.05727 7.11061C1.30732 6.86056 1.64646 6.72008 2.00008 6.72008H2.06008C2.28074 6.71492 2.49475 6.64349 2.67428 6.51509C2.85381 6.38668 2.99056 6.20724 3.06675 6.00008C3.15549 5.799 3.18196 5.57595 3.14275 5.35969C3.10354 5.14343 3.00044 4.94387 2.84675 4.78675L2.80675 4.74675C2.68278 4.62292 2.58443 4.47587 2.51733 4.314C2.45024 4.15214 2.4157 3.97864 2.4157 3.80341C2.4157 3.62819 2.45024 3.45469 2.51733 3.29283C2.58443 3.13096 2.68278 2.98391 2.80675 2.86008C2.93058 2.73611 3.07763 2.63777 3.23949 2.57067C3.40136 2.50357 3.57486 2.46903 3.75008 2.46903C3.9253 2.46903 4.0988 2.50357 4.26067 2.57067C4.42253 2.63777 4.56958 2.73611 4.69341 2.86008L4.73341 2.90008C4.89053 3.05377 5.09009 3.15687 5.30636 3.19608C5.52262 3.2353 5.74567 3.20882 5.94675 3.12008H6.00008C6.19726 3.03557 6.36543 2.89525 6.48388 2.71639C6.60233 2.53753 6.66589 2.32794 6.66675 2.11341V2.00008C6.66675 1.64646 6.80722 1.30732 7.05727 1.05727C7.30732 0.807224 7.64646 0.666748 8.00008 0.666748C8.3537 0.666748 8.69284 0.807224 8.94289 1.05727C9.19294 1.30732 9.33341 1.64646 9.33341 2.00008V2.06008C9.33427 2.27461 9.39784 2.4842 9.51629 2.66306C9.63474 2.84192 9.8029 2.98224 10.0001 3.06675C10.2012 3.15549 10.4242 3.18196 10.6405 3.14275C10.8567 3.10354 11.0563 3.00044 11.2134 2.84675L11.2534 2.80675C11.3772 2.68278 11.5243 2.58443 11.6862 2.51733C11.848 2.45024 12.0215 2.4157 12.1967 2.4157C12.372 2.4157 12.5455 2.45024 12.7073 2.51733C12.8692 2.58443 13.0162 2.68278 13.1401 2.80675C13.264 2.93058 13.3624 3.07763 13.4295 3.23949C13.4966 3.40136 13.5311 3.57486 13.5311 3.75008C13.5311 3.9253 13.4966 4.0988 13.4295 4.26067C13.3624 4.42253 13.264 4.56958 13.1401 4.69341L13.1001 4.73341C12.9464 4.89053 12.8433 5.09009 12.8041 5.30636C12.7649 5.52262 12.7913 5.74567 12.8801 5.94675V6.00008C12.9646 6.19726 13.1049 6.36543 13.2838 6.48388C13.4626 6.60233 13.6722 6.66589 13.8867 6.66675H14.0001C14.3537 6.66675 14.6928 6.80722 14.9429 7.05727C15.1929 7.30732 15.3334 7.64646 15.3334 8.00008C15.3334 8.3537 15.1929 8.69284 14.9429 8.94289C14.6928 9.19294 14.3537 9.33341 14.0001 9.33341H13.9401C13.7256 9.33427 13.516 9.39784 13.3371 9.51629C13.1582 9.63474 13.0179 9.8029 12.9334 10.0001V10.0001Z" stroke="#9F9F9F" stroke-linecap="round" stroke-linejoin="round"/></g>
    <g id="share-outline" fill="none"><path fill-rule="evenodd" clip-rule="evenodd" d="M12 1.833a1.5 1.5 0 100 3 1.5 1.5 0 000-3zm-2.5 1.5a2.5 2.5 0 115 0 2.5 2.5 0 01-5 0zM4 6.5a1.5 1.5 0 100 3 1.5 1.5 0 000-3zM1.5 8a2.5 2.5 0 115 0 2.5 2.5 0 01-5 0zM12 11.167a1.5 1.5 0 100 3 1.5 1.5 0 000-3zm-2.5 1.5a2.5 2.5 0 115 0 2.5 2.5 0 01-5 0z" fill="#9F9F9F"/><path fill-rule="evenodd" clip-rule="evenodd" d="M5.295 8.755a.5.5 0 01.683-.18l4.554 2.653a.5.5 0 01-.504.864L5.475 9.439a.5.5 0 01-.18-.684zM10.705 4.088a.5.5 0 01-.18.684L5.98 7.425a.5.5 0 11-.504-.863l4.546-2.654a.5.5 0 01.684.18z" fill="#9F9F9F"/></g>
    <g id="socket-outline" fill="none"><path d="M10 14H9.00005C6.38761 14 4.16513 12.3304 3.34146 10H1V9H4.10007C4.49775 10.9591 6.04092 12.5023 8.00005 12.9C8.32316 12.9656 8.65758 13 9.00005 13V3C8.65758 3 8.32316 3.03443 8.00005 3.10002C6.04092 3.4977 4.49775 5.04087 4.10007 7H1V6H3.34146C4.16513 3.66962 6.38761 2 9.00005 2H10V5H14V6H10V10H14V11H10V14Z" fill="#8B8E93"/></g>
    <g id="toggle-switch-outline" fill="none"><path fill-rule="evenodd" clip-rule="evenodd" d="M5.333 3.833a4.167 4.167 0 000 8.334h5.334a4.167 4.167 0 000-8.334H5.333zM.167 8a5.167 5.167 0 015.166-5.167h5.334a5.167 5.167 0 110 10.334H5.333A5.167 5.167 0 01.167 8z" fill="#9F9F9F"/><path fill-rule="evenodd" clip-rule="evenodd" d="M10.667 6.5a1.5 1.5 0 100 3 1.5 1.5 0 000-3zM8.167 8a2.5 2.5 0 115 0 2.5 2.5 0 01-5 0z" fill="#9F9F9F"/></g>
    <g id="tree-outline" fill="none"><path d="M6 3.5a1.5 1.5 0 11-3 0 1.5 1.5 0 013 0zM13 12.5a1.5 1.5 0 11-3 0 1.5 1.5 0 013 0zM13 8.5a1.5 1.5 0 11-3 0 1.5 1.5 0 013 0z" fill="#8B8E93"/><path d="M11 8v1H4V8h7z" fill="#8B8E93"/><path fill-rule="evenodd" clip-rule="evenodd" d="M5 3v7.5A1.5 1.5 0 006.5 12H11v1H6.5A2.5 2.5 0 014 10.5V3h1z" fill="#8B8E93"/></g>
</defs></svg>
