<svg width="300" height="300" xmlns="http://www.w3.org/2000/svg" xmlns:xlink="http://www.w3.org/1999/xlink"><defs><path id="a" d="M.049.438H130.95V137.99H.05z"/><path id="c" d="M.018.007H19v62.84H.018z"/></defs><g fill="none" fill-rule="evenodd"><circle fill="#F0BC5C" cx="150" cy="150" r="150"/><path d="M127 214c2.498 10.328 11.841 18 23 18 11.158 0 20.502-7.672 23-18h-46z" fill="#FFF"/><g transform="translate(85 68)"><mask id="b" fill="#fff"><use xlink:href="#a"/></mask><path d="M120.416 119.525c-9.106-9.115-9.672-21.475-9.672-34.366V66.786c0-.104-.006-.202-.006-.3-.13-23.827-17.504-42.708-31.97-49.748.183-.885.28-1.802.28-2.738C79.049 6.51 72.983.438 65.5.438S51.951 6.51 51.951 14c0 .936.098 1.853.28 2.738-14.465 7.04-31.84 25.92-31.97 49.749 0 .097-.006.195-.006.299v18.373c0 12.891-.565 25.251-9.67 34.366l-8.886 8.887c-3.527 3.538-1.026 9.577 3.962 9.577h119.678c4.989 0 7.489-6.04 3.962-9.577l-8.885-8.887z" fill="#FFF" mask="url(#b)"/></g><g transform="translate(225 119)"><mask id="d" fill="#fff"><use xlink:href="#c"/></mask><path d="M6.496.904A2.955 2.955 0 002.455.716L1.038 1.929C-.231 3.015-.334 4.94.828 6.136c6.467 6.65 10.425 15.561 10.425 25.342 0 9.734-3.92 18.606-10.33 25.244-1.158 1.198-1.05 3.117.214 4.2l1.418 1.216a2.956 2.956 0 004.048-.194C14.297 53.93 19 43.224 19 31.478 19 19.677 14.251 8.926 6.496.904" fill="#FFF" mask="url(#d)"/></g><path d="M219.391 128.864c-1.067-1.104-2.808-1.15-3.962-.139l-1.415 1.24c-1.276 1.117-1.362 3.1-.178 4.316 4 4.109 6.458 9.663 6.458 15.771 0 6.062-2.424 11.578-6.369 15.681-1.172 1.218-1.079 3.19.19 4.302l1.413 1.24c1.157 1.013 2.905.965 3.97-.147 5.269-5.503 8.502-12.924 8.502-21.076 0-8.206-3.277-15.672-8.609-21.188M63.755 149.45c0-9.76 3.923-18.655 10.34-25.31 1.157-1.2 1.05-3.125-.215-4.211l-1.42-1.219a2.956 2.956 0 00-4.05.195C60.707 126.94 56 137.673 56 149.45c0 11.832 4.753 22.609 12.517 30.652a2.955 2.955 0 004.044.188l1.418-1.216c1.27-1.089 1.373-3.02.21-4.219-6.472-6.665-10.434-15.6-10.434-25.405" fill="#FFF"/><path d="M86.164 165.719c-4-4.108-6.458-9.663-6.458-15.772 0-6.06 2.424-11.577 6.37-15.68 1.17-1.218 1.08-3.19-.191-4.302l-1.413-1.239c-1.158-1.015-2.905-.966-3.971.147C75.232 134.374 72 141.796 72 149.947c0 8.207 3.277 15.673 8.609 21.188 1.067 1.106 2.808 1.15 3.962.14l1.415-1.24c1.275-1.118 1.362-3.1.178-4.316" fill="#FFF"/></g></svg>