<svg width="553" height="498" fill="none" xmlns="http://www.w3.org/2000/svg"><g clip-path="url(#clip0)"><path d="M553.3 0H-.03v553.3H553.3V0z" fill="#5699FF"/><path d="M355.69 397.87a4.21 4.21 0 00-1.05-2.54 3.86 3.86 0 00-4.96-.75 4.1 4.1 0 00-1.7 2.12 4.03 4.03 0 00-3.12-1.34 3.91 3.91 0 00-3 1.6 4.22 4.22 0 00-.78 3.4 4.27 4.27 0 002 2.82 4.21 4.21 0 00-.01 5.33 3.86 3.86 0 005.07.9 3.05 3.05 0 00.79 2.7 2.83 2.83 0 004.08.01 3.05 3.05 0 00.76-2.8 5.59 5.59 0 005.5-1.41 5.96 5.96 0 00.23-8.17 5.55 5.55 0 00-3.85-1.87h.04zM216.69 376.88a4.21 4.21 0 00-1.04-2.54 3.86 3.86 0 00-4.97-.76 4.1 4.1 0 00-1.7 2.12 4.02 4.02 0 00-3.12-1.34 3.9 3.9 0 00-3 1.59 4.22 4.22 0 00-.78 3.41 4.27 4.27 0 002 2.82 4.22 4.22 0 00-.03 5.35 3.86 3.86 0 005.09.89 3.05 3.05 0 00.79 2.7 2.83 2.83 0 004.08 0 3.05 3.05 0 00.76-2.82 5.52 5.52 0 005.5-1.4 5.97 5.97 0 00.23-8.17 5.54 5.54 0 00-3.85-1.87l.04.02zM372.49 424.65a1.76 1.76 0 00-2.65-1.4c-.34.2-.61.52-.75.9a1.76 1.76 0 00-2.72.1 1.78 1.78 0 00.59 2.66 1.75 1.75 0 00-.3 1.83 1.78 1.78 0 00.95.95 1.72 1.72 0 001.58-.13v.26a1.28 1.28 0 001.27 1.18 1.27 1.27 0 001.27-1.18v-.3c.23.06.47.1.7.1a2.47 2.47 0 002.35-1.48 2.51 2.51 0 00-1.25-3.3 2.5 2.5 0 00-.94-.22l-.1.03zM252.85 386.24a2.4 2.4 0 00-3.62-1.9 2.4 2.4 0 00-1.02 1.22 2.4 2.4 0 00-3.28-.28 2.42 2.42 0 00.33 4.03 2.4 2.4 0 003.06 3.61 1.73 1.73 0 103.38-.06 3.4 3.4 0 101.13-6.63h.02zM218.5 412.82a2.02 2.02 0 00-.45-1.2 1.63 1.63 0 00-2.2-.35 1.9 1.9 0 00-.75 1 1.8 1.8 0 00-.62-.5 1.64 1.64 0 00-1.51.06 1.8 1.8 0 00-.6.55 2.03 2.03 0 00-.33 1.61c.06.28.17.54.33.77.16.23.36.41.6.54a2.1 2.1 0 00-.28 2.07c.14.34.36.63.65.83a1.64 1.64 0 001.86.02v.27a1.51 1.51 0 00.34 1.06c.12.14.27.26.43.33a1.18 1.18 0 001.44-.33 1.52 1.52 0 00.34-1.06l-.03-.33c.23.08.47.12.71.11.66.02 1.3-.25 1.79-.74.48-.5.76-1.2.78-1.92a2.9 2.9 0 00-.68-1.96 2.4 2.4 0 00-1.75-.86l-.06.03zM58.1 170.06a19.8 19.8 0 00-10.17 2.76 20.02 20.02 0 00-9.22-15.5 19.87 19.87 0 00-17.9-1.7 23.22 23.22 0 00-38.73-9.78 23.38 23.38 0 00-6.82 16.5v.98a23.23 23.23 0 00-16.45 6.84 23.38 23.38 0 000 33 23.22 23.22 0 0018.83 6.72h78.28a19.87 19.87 0 0016.25-5.73 20 20 0 000-28.25 19.87 19.87 0 00-14.08-5.84zM502.4 277.56c2.98 0 5.91.8 8.47 2.33a16.6 16.6 0 0122.64-14.31 19.41 19.41 0 0138.04 5.56v.82a19.42 19.42 0 010 38.84c-.66 0-1.32-.04-1.98-.1h-65.39a16.62 16.62 0 11-1.8-33.13h.01zM39.95 296.76c1.64 0 3.24.44 4.65 1.28A9.08 9.08 0 0157 290.2a10.63 10.63 0 0120.8 3.05v.45a10.63 10.63 0 11-1.08 21.2H40.94c-.33.04-.66.06-1 .06a9.1 9.1 0 010-18.2zM448.74 115.83c-2.06-.01-4.08.54-5.85 1.6a11.45 11.45 0 00-15.15-10.02 13.4 13.4 0 00-14.11-9.35 13.39 13.39 0 00-11.93 9.32 11.41 11.41 0 00-15.17 10.02 11.45 11.45 0 10-5.84 21.3c.42 0 .83 0 1.25-.06h17.59c.52.06 1.04.09 1.56.1.46 0 .92 0 1.38-.08h25.12c.26 0 .52.04.77.04.26 0 .51 0 .77-.04h18.34a11.45 11.45 0 101.25-22.84h.02z" fill="#F0F6FF"/><path d="M153.43 468.78l229.92 1.06a34.17 34.17 0 00-31.85-32.78c-5.57-.38-11.16.6-16.27 2.88a20.23 20.23 0 00-19.63-15.34c0-.37-.04-.73-.09-1.08a12.15 12.15 0 00-12.1-13.76c-1.5 0-2.99.28-4.38.82a12.2 12.2 0 00-8.42-9.84L284.63 385h-9.68l-5.86 15.48a10.5 10.5 0 00-12.71 11.73c0 .11-.04.22-.05.34a15.6 15.6 0 00-21.03 14.58 10.02 10.02 0 00-10.74 5.66 34.23 34.23 0 00-53.02 30.06v.5a9.98 9.98 0 00-8.39-4.57c-5.53 0-10.5 5.45-10.5 10.96" fill="#F0F6FF"/><path d="M211.81 479.85c-1.92 0-3.8-.51-5.46-1.5a10.68 10.68 0 01-14.13 9.35 12.5 12.5 0 01-13.16 8.73 12.49 12.49 0 01-11.13-8.7 10.65 10.65 0 01-14.15-9.35 10.68 10.68 0 11-5.45-19.87c.4 0 .78 0 1.16.06h16.41a13.67 13.67 0 012.75-.02h23.43c.24 0 .48-.04.72-.04s.48 0 .72.04h17.1a10.69 10.69 0 111.17 21.3h.02z" fill="#F0F6FF"/><path d="M264.05 471.45c-1.92 0-3.8-.5-5.46-1.5a10.68 10.68 0 01-14.13 9.36 12.49 12.49 0 01-13.16 8.72 12.49 12.49 0 01-11.13-8.7 10.64 10.64 0 01-14.15-9.34 10.7 10.7 0 11-4.29-19.81h16.41a13.67 13.67 0 012.75-.03h23.43l.72-.03c.24 0 .48 0 .72.03h17.1a10.68 10.68 0 111.17 21.3h.02z" fill="#F0F6FF"/><path d="M314.43 485.44c-1.93.01-3.81-.5-5.46-1.5a10.68 10.68 0 01-14.14 9.36 12.48 12.48 0 01-13.16 8.72 12.49 12.49 0 01-11.12-8.7 10.66 10.66 0 01-14.16-9.34 10.7 10.7 0 11-4.28-19.81h16.4a13.67 13.67 0 012.75-.03h23.44c.24 0 .47-.03.71-.03s.48 0 .72.03h17.1a10.68 10.68 0 111.17 21.3h.03z" fill="#F0F6FF"/><path d="M381.6 474.25c-1.93 0-3.82-.51-5.47-1.5A10.69 10.69 0 01362 482.1a12.5 12.5 0 01-13.16 8.73 12.5 12.5 0 01-11.13-8.7 10.64 10.64 0 01-14.15-9.34 10.68 10.68 0 11-4.29-19.82h16.41a13.67 13.67 0 012.75-.02h23.43l.72-.03c.24 0 .48 0 .72.03h17.1a10.68 10.68 0 111.17 21.3h.02z" fill="#F0F6FF"/><path d="M393.72 459.27c-1.92 0-3.81.51-5.46 1.5a10.69 10.69 0 00-14.14-9.35 12.5 12.5 0 00-13.16-8.73c-2.51.16-182.16 1.08-184.15 2.63a12.5 12.5 0 00-4.21 6.07 10.65 10.65 0 00-14.16 9.34 10.67 10.67 0 00-15.75 6.36 10.68 10.68 0 0010.3 13.51c.4 0 .78 0 1.17-.06h16.4c.49.06.98.1 1.46.1.44 0 .86 0 1.3-.07h200.67c.24 0 .47.03.71.03s.48 0 .73-.03h17.1a10.69 10.69 0 101.17-21.3h.02z" fill="#F0F6FF"/><path d="M290.56 350.9h-21.94s-7.17 7.54-6.2 18.62a30.85 30.85 0 013.65-3.5.4.4 0 01.63.4c-.38 2.5-.05 10.01 12.88 22.77 12.92-12.76 13.26-20.26 12.87-22.77a.4.4 0 01.42-.48.4.4 0 01.22.09 30.64 30.64 0 013.65 3.5c1.01-11.1-6.18-18.63-6.18-18.63z" fill="url(#paint0_linear)"/><path d="M279.54 342.36s-14.04 11.14 0 30.34c14.04-19.2 0-30.34 0-30.34z" fill="#FFE697"/><path d="M279.54 349.48s-8.37 6.66 0 18.13c8.39-11.47 0-18.13 0-18.13z" fill="#fff"/><path d="M263.79 345.87l1.59 3.08a3.96 3.96 0 003.5 2.13h21.15a3.96 3.96 0 003.51-2.13l1.6-3.08h-31.35z" fill="#949494" stroke="#424242" stroke-width="1.13" stroke-miterlimit="10"/><path d="M259.27 340.04l2.05 3.96a5.1 5.1 0 004.52 2.75h27.24a5.1 5.1 0 004.52-2.75l2.05-3.96h-40.38z" fill="#4D4D4D" stroke="#424242" stroke-width="1.13" stroke-miterlimit="10"/><path d="M298.93 309.7s34.36 11.8 32.18 46.34c0 0-28.94-29.48-44.68-23.17l12.5-23.17zM260.25 309.7s-34.36 11.8-32.18 46.34c0 0 28.94-29.48 44.68-23.17l-12.5-23.17zM296.15 243.68a108.69 108.69 0 00-16.7-28.68 108.55 108.55 0 00-16.56 28.37 70.66 70.66 0 0133.26.31z" fill="#E02424"/><path d="M296.6 244.85l-.46-1.2c-18.38-4.71-33.27-.3-33.27-.3l-.6 1.48c-15.19 39.33-8.3 82.03-5.86 94.09a4.18 4.18 0 004.09 3.33h37.87a4.18 4.18 0 004.1-3.33c2.43-12.03 9.32-54.73-5.87-94.07z" fill="#fff"/><path d="M278.77 289.56a14.1 14.1 0 100-28.19 14.1 14.1 0 000 28.2z" fill="#043146" stroke="#424242" stroke-width="1.13" stroke-miterlimit="10"/><path d="M283.53 286.12a10.78 10.78 0 10-8.16-19.96 10.78 10.78 0 008.16 19.96z" fill="#7C7C7C" stroke="#424242" stroke-width="1.13" stroke-miterlimit="10"/><path d="M278.77 286.15a10.68 10.68 0 100-21.36 10.68 10.68 0 000 21.36z" fill="#3EC2E5" stroke="#424242" stroke-width="1.13" stroke-miterlimit="10"/><path opacity=".08" d="M279.45 266.6a10.67 10.67 0 019.6 6.03 10.68 10.68 0 10-19.89 7.49 10.65 10.65 0 0110.29-13.52z" fill="#000" stroke="#424242" stroke-width="1.13" stroke-miterlimit="10"/><path d="M279.6 314c-11.52 26.21 0 48.87 0 48.87s11.51-22.66 0-48.87z" fill="#E02424"/></g><defs><linearGradient id="paint0_linear" x1="279.6" y1="350.9" x2="279.6" y2="389.19" gradientUnits="userSpaceOnUse"><stop offset=".01" stop-color="#F7BD6F"/><stop offset=".45" stop-color="#F39958"/><stop offset="1" stop-color="#ED6637"/></linearGradient><clipPath id="clip0"><path fill="#fff" d="M0 0h553v498H0z"/></clipPath></defs></svg>