<svg><defs>
    <g id="calendar-outline" fill="none"><path fill-rule="evenodd" clip-rule="evenodd" d="M13 2h1a2 2 0 012 2v10a2 2 0 01-2 2H2a2 2 0 01-2-2V4c0-1.1.9-2 2-2h1V0h2v2h6V0h2v2zM2 14h12V6H2v8z" fill="#5F6368"/></g>
    <g id="chat-outline-thin" fill="none"><g clip-path="url(#clip0)"><path d="M7.99 16c-1.31 0-2.6-.32-3.76-.94l-.12-.07-4 .9.9-4-.07-.12A8.01 8.01 0 118 16h-.01zm-3.32-1.76c1.02.54 2.16.83 3.32.83H8a7.07 7.07 0 10-6.24-3.74l.23.42-.65 2.9 2.9-.64.43.23zM8 11.81a3.81 3.81 0 01-3.77-3.24l-.03-.2h.94l.02.14a2.89 2.89 0 005.68 0l.02-.14h.94l-.03.2A3.81 3.81 0 018 11.8z" fill="#5F6368"/></g><defs><clipPath id="clip0"><path fill="#fff" d="M0 0h16v16H0z"/></clipPath></defs></g>
    <g id="export" fill="none"><path d="M8 1.5c.28 0 .5.22.5.5v6.8L11 6.3a.5.5 0 11.7.71l-3.33 3.33a.5.5 0 01-.7 0L4.31 7.02a.5.5 0 11.7-.7l2.49 2.47V2c0-.28.22-.5.5-.5z" fill="#8B8E93"/><path d="M3 10.5a.5.5 0 00-1 0v2.67A1.83 1.83 0 003.83 15h8.34A1.83 1.83 0 0014 13.17V10.5a.5.5 0 00-1 0v2.67a.83.83 0 01-.83.83H3.83a.83.83 0 01-.83-.83V10.5z" fill="#8B8E93"/></g>
    <g id="help-outline" fill="none"><path d="M8 15.5a7.5 7.5 0 110-15 7.5 7.5 0 010 15zM8 14A6 6 0 108 2a6 6 0 000 12zm-.75-3.75h1.5v1.5h-1.5v-1.5zm1.5-1.23v.48h-1.5V8.37A.75.75 0 018 7.63a1.12 1.12 0 10-1.1-1.35l-1.47-.3a2.63 2.63 0 113.32 3.04z" fill="#5F6368"/></g>
    <g id="help-outline-thin" fill="none"><g clip-path="url(#clip0)"><path d="M8 16A8 8 0 1111 .6 8 8 0 018 16zM8 1a6.96 6.96 0 00-7 7c0 1.87.72 3.63 2.05 4.95A6.96 6.96 0 008 15.01c1.87 0 3.63-.73 4.95-2.06A6.96 6.96 0 0015.01 8c0-1.87-.73-3.63-2.06-4.95A6.96 6.96 0 008 .99zm-.5 10.83v-1h1v1h-1zm0-2.5v-.91a.5.5 0 01.5-.5A1.59 1.59 0 106.54 5.7l-.98-.2a2.58 2.58 0 113.18 3.3l-.24.08v.45h-1z" fill="#5F6368"/></g><defs><clipPath id="clip0"><path fill="#fff" d="M0 0h16v16H0z"/></clipPath></defs></g>
</defs></svg>
