<svg width="355" height="234" fill="none" xmlns="http://www.w3.org/2000/svg"><rect x="14" y="2" width="319" height="232" rx="2.695" fill="#fff"/><rect x="14" width="319" height="234" rx="3" fill="#fff"/><path fill="#E1E1E1" d="M67 0v234h-1V0z"/><path d="M80.52 17.599l.164 1.125.24-1.014 1.687-5.953h.95l1.646 5.953.234 1.031.182-1.148 1.324-5.836h1.131l-2.068 8.531h-1.026l-1.757-6.217-.135-.65-.135.65-1.822 6.217h-1.026l-2.062-8.531h1.125l1.347 5.842zm11.086 2.806c-.86 0-1.56-.281-2.098-.844-.54-.566-.809-1.322-.809-2.267v-.2c0-.628.12-1.189.358-1.68a2.815 2.815 0 011.007-1.161 2.535 2.535 0 011.407-.422c.824 0 1.465.271 1.922.815.457.542.685 1.32.685 2.331v.452h-4.295c.016.625.198 1.13.545 1.517.352.383.797.574 1.336.574.383 0 .707-.078.973-.234.265-.156.498-.363.697-.621l.662.516c-.531.816-1.328 1.224-2.39 1.224zm-.135-5.683c-.438 0-.805.16-1.102.48-.297.317-.48.762-.55 1.336h3.175v-.082c-.031-.55-.18-.976-.445-1.277-.266-.305-.625-.457-1.078-.457zm6.498 5.683c-.86 0-1.559-.281-2.098-.844-.539-.566-.808-1.322-.808-2.267v-.2c0-.628.119-1.189.357-1.68a2.815 2.815 0 011.008-1.161 2.536 2.536 0 011.406-.422c.824 0 1.465.271 1.922.815.457.542.685 1.32.685 2.331v.452h-4.294c.015.625.197 1.13.544 1.517.352.383.797.574 1.336.574.383 0 .707-.078.973-.234.266-.156.498-.363.697-.621l.662.516c-.53.816-1.328 1.224-2.39 1.224zm-.135-5.683c-.438 0-.805.16-1.102.48-.296.317-.48.762-.55 1.336h3.175v-.082c-.03-.55-.18-.976-.445-1.277-.266-.305-.625-.457-1.078-.457zm5.637 2.63l-.68.71v2.226h-1.084v-9h1.084v5.443l.58-.697 1.975-2.086h1.318l-2.467 2.649 2.754 3.691h-1.271l-2.209-2.936zm10.74 2.936h-1.09v-7.225l-2.185.803v-.984l3.105-1.166h.17v8.572z" fill="#75797E"/><path fill="#E1E1E1" d="M333 84H120v-1h213zM333 167H120v-1h213z"/><path fill="#E1E1E1" d="M205 0v234h-1V0zM279 0v234h-1V0z"/><path fill="#E1E1E1" d="M333 31H131v-1h202z"/><path d="M141.24 11.18l2.556 6.38 2.557-6.38h1.337V19h-1.031v-3.045l.097-3.287L144.188 19h-.789l-2.562-6.316.102 3.27V19h-1.031v-7.82h1.332zm7.852 4.86c0-.569.111-1.08.333-1.536.226-.454.537-.805.935-1.052.401-.247.857-.37 1.369-.37.792 0 1.431.273 1.918.82.491.549.736 1.277.736 2.187v.07c0 .565-.109 1.074-.328 1.525a2.445 2.445 0 01-.929 1.047 2.56 2.56 0 01-1.386.376c-.788 0-1.427-.273-1.917-.821-.487-.548-.731-1.273-.731-2.176v-.07zm.999.119c0 .644.149 1.162.446 1.552.301.39.702.585 1.203.585.505 0 .906-.197 1.203-.59.298-.398.446-.953.446-1.665 0-.638-.152-1.154-.456-1.547a1.434 1.434 0 00-1.204-.596c-.49 0-.886.195-1.187.585-.3.39-.451.949-.451 1.676zm6.478-2.97l.032.73c.444-.559 1.024-.838 1.74-.838 1.228 0 1.848.693 1.859 2.079V19h-.994v-3.846c-.004-.419-.1-.728-.29-.929-.186-.2-.478-.3-.875-.3-.323 0-.606.085-.849.257a1.745 1.745 0 00-.569.677V19h-.994v-5.812h.94zM167.59 19h-.999v-6.623l-2.003.736v-.902l2.847-1.069h.155V19zm3.368-3.92l.397-3.9h4.007v.918h-3.163l-.237 2.132a2.529 2.529 0 011.306-.338c.712 0 1.278.236 1.697.71.419.468.628 1.104.628 1.906 0 .806-.218 1.441-.655 1.907-.433.462-1.04.692-1.821.692-.691 0-1.255-.191-1.692-.574-.437-.383-.685-.913-.746-1.59h.94c.061.447.22.786.478 1.015.257.226.598.338 1.02.338.462 0 .824-.157 1.085-.472.265-.315.398-.75.398-1.305 0-.523-.144-.942-.43-1.257-.283-.319-.661-.478-1.133-.478-.434 0-.774.095-1.021.284l-.263.215-.795-.204zM219.311 12.028h-2.514V19h-1.026v-6.972h-2.508v-.848h6.048v.848zm4.077 6.397c-.387.455-.955.682-1.703.682-.619 0-1.092-.179-1.418-.537-.322-.361-.485-.895-.489-1.6v-3.781h.994v3.754c0 .88.358 1.321 1.074 1.321.759 0 1.264-.283 1.515-.848v-4.228h.993V19h-.945l-.021-.575zm4.893.682c-.788 0-1.429-.257-1.923-.773-.494-.52-.741-1.212-.741-2.079v-.182c0-.577.109-1.09.327-1.542.222-.455.53-.809.924-1.063a2.325 2.325 0 011.289-.387c.756 0 1.343.249 1.762.747.419.497.628 1.21.628 2.137v.414h-3.937c.015.573.181 1.037.5 1.391.322.35.73.526 1.224.526.351 0 .649-.071.892-.215.244-.143.457-.332.639-.569l.607.473c-.487.748-1.217 1.122-2.191 1.122zm-.124-5.21c-.401 0-.737.147-1.01.44-.272.29-.44.7-.504 1.226h2.911v-.076c-.029-.505-.165-.895-.408-1.17-.244-.28-.573-.42-.989-.42zM237.594 19h-.999v-6.623l-2.003.736v-.902l2.846-1.069h.156V19zm6.811-7.826v.844h-.183c-.773.014-1.389.243-1.847.687-.459.444-.724 1.069-.795 1.875.411-.473.974-.71 1.686-.71.68 0 1.223.24 1.628.72.408.48.612 1.1.612 1.859 0 .805-.22 1.45-.661 1.933-.437.484-1.024.725-1.762.725-.748 0-1.355-.286-1.82-.859-.466-.576-.699-1.318-.699-2.224v-.38c0-1.44.307-2.54.919-3.299.616-.763 1.531-1.153 2.745-1.17h.177zm-1.305 3.524c-.341 0-.654.102-.94.306-.287.204-.486.46-.597.768v.365c0 .645.145 1.164.436 1.558.29.394.651.59 1.084.59.448 0 .799-.164 1.053-.494.258-.329.387-.76.387-1.294 0-.537-.131-.97-.392-1.3a1.24 1.24 0 00-1.031-.5zM289.594 16.535l.151 1.03.22-.928 1.547-5.457h.87l1.509 5.457.215.945.166-1.053 1.214-5.35h1.037L294.627 19h-.94l-1.611-5.699-.124-.596-.123.596L290.158 19h-.94l-1.89-7.82h1.031l1.235 5.355zm10.162 2.572c-.787 0-1.428-.257-1.923-.773-.494-.52-.741-1.212-.741-2.079v-.182c0-.577.109-1.09.328-1.542.222-.455.53-.809.924-1.063a2.323 2.323 0 011.289-.387c.755 0 1.343.249 1.762.747.418.497.628 1.21.628 2.137v.414h-3.937c.014.573.181 1.037.499 1.391.323.35.731.526 1.225.526.351 0 .648-.071.892-.215.243-.143.456-.332.639-.569l.607.473c-.487.748-1.218 1.122-2.192 1.122zm-.123-5.21c-.401 0-.738.147-1.01.44-.272.29-.44.7-.505 1.226h2.911v-.076c-.028-.505-.164-.895-.408-1.17-.243-.28-.573-.42-.988-.42zm8.465 2.262c0 .888-.204 1.602-.613 2.143-.408.537-.956.805-1.643.805-.734 0-1.302-.26-1.703-.778l-.048.671h-.913v-8.25h.993v3.078c.401-.498.955-.747 1.66-.747s1.259.267 1.66.8c.404.534.607 1.264.607 2.192v.086zm-.994-.113c0-.677-.131-1.2-.392-1.569-.261-.368-.637-.553-1.128-.553-.655 0-1.126.305-1.413.913v2.514c.305.609.779.913 1.424.913.476 0 .847-.184 1.112-.553.265-.369.397-.924.397-1.665zM315.247 19h-.999v-6.623l-2.004.736v-.902l2.847-1.069h.156V19zm7.96-7.262L319.968 19h-1.042l3.228-7.004h-4.233v-.816h5.286v.558z" fill="#75797E"/><path d="M205 31h128v28H205V31z" fill="#E2D9F7"/><rect opacity=".4" x="211" y="38" width="50" height="5" rx="2.5" fill="#675299"/><rect opacity=".2" x="211" y="48" width="31.844" height="4" rx="2" fill="#675299"/><path d="M131 84h73v28h-73V84z" fill="#FFF1C9"/><rect opacity=".4" x="139" y="91" width="40" height="5" rx="2.5" fill="#ED8D0A"/><rect opacity=".2" x="139" y="101" width="27" height="4" rx="2" fill="#ED8D0A"/><path d="M205 114h150v28H205v-28z" fill="#FFF1C9"/><rect opacity=".4" x="213" y="121" width="80" height="5" rx="2.5" fill="#ED8D0A"/><rect opacity=".2" x="213" y="131" width="46" height="4" rx="2" fill="#ED8D0A"/><path d="M131 167h147v28H131v-28z" fill="#F5DDED"/><rect opacity=".55" x="137" y="174" width="76" height="5" rx="2.5" fill="#E964BE"/><rect opacity=".25" x="137" y="184" width="28" height="4" rx="2" fill="#E964BE"/><path d="M14 2.68C14 1.2 15.2 0 16.68 0H131v234H16.68a2.68 2.68 0 01-2.68-2.68V2.68z" fill="#3C4043"/><path d="M117.921 14L119 15.062 115 19l-1.079-1.062 4-3.938z" fill="#fff"/><path d="M116.079 17.938L115 19l-4-3.938L112.079 14l4 3.938z" fill="#fff"/><path opacity=".2" fill="#fff" d="M14 30h117v1H14z"/><path d="M24.867 51v-8.531h2.924c.965 0 1.7.193 2.203.58.504.386.756.963.756 1.728 0 .391-.105.742-.316 1.055-.211.313-.52.555-.926.727.46.125.816.36 1.066.709.254.343.381.757.381 1.242 0 .8-.258 1.416-.773 1.846-.512.43-1.246.644-2.203.644h-3.112zm1.483-3.85v2.666h1.646c.465 0 .828-.115 1.09-.345.262-.23.393-.551.393-.961 0-.887-.454-1.34-1.36-1.36h-1.77zm0-1.09h1.453c.46 0 .82-.103 1.078-.31.262-.21.392-.508.392-.89 0-.422-.12-.727-.363-.915-.238-.187-.611-.28-1.119-.28H26.35v2.395zm6.083 1.712c0-.622.123-1.18.37-1.676.245-.5.591-.883 1.037-1.149.445-.27.956-.404 1.535-.404.855 0 1.548.275 2.08.826.535.55.824 1.281.867 2.191l.006.334c0 .626-.121 1.184-.364 1.676a2.64 2.64 0 01-1.03 1.143c-.446.27-.962.404-1.548.404-.894 0-1.611-.297-2.15-.89-.535-.598-.803-1.393-.803-2.385v-.07zm1.424.123c0 .652.135 1.164.404 1.535.27.367.645.55 1.125.55s.854-.187 1.12-.562c.269-.375.404-.924.404-1.646 0-.641-.139-1.149-.416-1.524a1.312 1.312 0 00-1.12-.563c-.464 0-.833.186-1.107.557-.273.367-.41.918-.41 1.653zM43.72 51c-.063-.121-.117-.318-.164-.592a2.216 2.216 0 01-1.664.71c-.637 0-1.157-.183-1.559-.546a1.744 1.744 0 01-.603-1.347c0-.676.25-1.194.75-1.553.504-.363 1.222-.545 2.156-.545h.873v-.416c0-.328-.092-.59-.275-.785-.184-.2-.463-.299-.838-.299-.325 0-.59.082-.797.246a.745.745 0 00-.31.615h-1.425c0-.347.116-.672.346-.972.23-.305.543-.543.938-.715a3.324 3.324 0 011.33-.258c.742 0 1.334.188 1.775.563.441.37.668.894.68 1.57v2.86c0 .57.08 1.024.24 1.364v.1H43.72zm-1.564-1.025c.28 0 .544-.069.79-.206.25-.136.438-.32.563-.55v-1.196h-.768c-.527 0-.923.092-1.189.276a.892.892 0 00-.398.78c0 .273.09.491.269.655.184.16.428.24.733.24zm7.987-4.014a3.53 3.53 0 00-.58-.047c-.652 0-1.092.25-1.318.75V51H46.82v-6.34h1.36l.035.71c.343-.552.82-.827 1.43-.827.202 0 .37.027.503.082l-.006 1.336zm.916 1.822c0-.976.227-1.76.68-2.35.453-.593 1.06-.89 1.822-.89.672 0 1.215.234 1.629.703V42h1.424v9h-1.29l-.07-.656c-.425.515-.994.773-1.705.773-.742 0-1.343-.299-1.804-.896-.457-.598-.686-1.41-.686-2.438zm1.424.123c0 .645.123 1.149.369 1.512.25.36.604.539 1.06.539.583 0 1.008-.26 1.278-.78v-2.706c-.262-.508-.684-.762-1.266-.762-.46 0-.816.184-1.066.55-.25.364-.375.913-.375 1.647zm9.57 1.371a.644.644 0 00-.317-.58c-.207-.133-.552-.25-1.037-.351a5.35 5.35 0 01-1.213-.387c-.71-.344-1.066-.842-1.066-1.494 0-.547.23-1.004.691-1.371.461-.367 1.047-.551 1.758-.551.758 0 1.37.188 1.834.563.469.374.703.86.703 1.459h-1.424c0-.274-.101-.5-.304-.68-.203-.184-.473-.276-.809-.276-.312 0-.568.073-.767.217a.685.685 0 00-.293.58c0 .219.091.389.275.51.184.121.555.244 1.113.37.559.12.996.267 1.313.439.32.168.556.37.709.609.156.238.234.527.234.867 0 .57-.236 1.033-.709 1.389-.472.351-1.092.527-1.857.527-.52 0-.983-.094-1.389-.281a2.286 2.286 0 01-.95-.773 1.831 1.831 0 01-.339-1.061h1.383c.02.336.146.596.38.78.235.179.546.269.932.269.375 0 .66-.07.856-.211a.67.67 0 00.293-.563z" fill="#B3B3B3"/><path d="M26.79 11.469l2.46 6.539 2.455-6.54h1.916V20h-1.477v-2.813l.147-3.761L29.771 20h-1.06l-2.514-6.568.147 3.755V20h-1.477v-8.531h1.922zm8.185 5.303c0-.622.123-1.18.369-1.676.246-.5.591-.883 1.037-1.149.445-.27.957-.404 1.535-.404.856 0 1.549.275 2.08.826.535.55.824 1.281.867 2.192l.006.334c0 .625-.121 1.183-.363 1.675a2.64 2.64 0 01-1.031 1.143c-.446.27-.961.404-1.547.404-.895 0-1.612-.297-2.15-.89-.536-.598-.803-1.393-.803-2.385v-.07zm1.423.123c0 .652.135 1.164.405 1.535.27.367.644.55 1.125.55.48 0 .853-.187 1.119-.562.27-.375.404-.924.404-1.646 0-.641-.139-1.149-.416-1.524a1.312 1.312 0 00-1.119-.563c-.465 0-.834.186-1.107.557-.274.367-.41.918-.41 1.652zm11.239 0c0 .984-.221 1.767-.662 2.35-.438.581-1.041.872-1.81.872-.743 0-1.321-.267-1.735-.803l-.07.686h-1.29v-9h1.424v3.27c.41-.485.963-.727 1.658-.727.774 0 1.381.287 1.823.861.441.575.662 1.377.662 2.409v.082zm-1.424-.123c0-.688-.121-1.204-.363-1.547-.243-.344-.594-.516-1.055-.516-.617 0-1.05.27-1.3.809v2.613c.253.55.69.826 1.312.826.445 0 .789-.166 1.03-.498.243-.332.368-.834.376-1.506v-.181zM50.35 20h-1.424v-6.34h1.424V20zm-1.512-7.986c0-.22.068-.4.205-.545.14-.145.34-.217.598-.217.257 0 .457.072.597.217a.75.75 0 01.211.545c0 .215-.07.394-.21.539-.141.14-.34.21-.598.21-.258 0-.457-.07-.598-.21a.754.754 0 01-.205-.54zM53.42 20h-1.424v-9h1.424v9zm4.348.117c-.903 0-1.635-.283-2.198-.85-.558-.57-.838-1.328-.838-2.273v-.176c0-.633.121-1.197.364-1.693.246-.5.59-.889 1.031-1.166a2.718 2.718 0 011.476-.416c.864 0 1.53.275 1.999.826.472.55.709 1.33.709 2.338v.574h-4.143c.043.524.217.938.522 1.242.308.305.695.457 1.16.457.652 0 1.183-.263 1.593-.79l.768.732a2.58 2.58 0 01-1.02.885c-.422.207-.896.31-1.423.31zm-.17-5.432c-.391 0-.707.137-.95.41-.238.274-.39.655-.457 1.143h2.713v-.105c-.031-.477-.158-.836-.38-1.078-.223-.246-.532-.37-.926-.37z" fill="#fff"/><rect x="24" y="95" width="14" height="14" rx="2" fill="#F4C038"/><path fill-rule="evenodd" clip-rule="evenodd" d="M29.986 105.714l5.68-5.681-1.143-1.144-4.537 4.528-2.508-2.499-1.145 1.144 3.653 3.652z" fill="#fff"/><path d="M50.594 103.535l.15 1.031.22-.929 1.548-5.457h.87l1.51 5.457.214.945.166-1.053 1.214-5.35h1.037L55.627 106h-.94l-1.611-5.699-.124-.596-.123.596-1.67 5.699h-.94l-1.891-7.82h1.03l1.236 5.355zm10.756 2.572c-.788 0-1.429-.257-1.923-.773-.494-.519-.741-1.212-.741-2.079v-.182c0-.577.11-1.091.328-1.542.222-.455.53-.809.923-1.063a2.323 2.323 0 011.29-.387c.755 0 1.342.249 1.761.747.42.497.629 1.21.629 2.137v.414H59.68c.014.573.18 1.037.5 1.391.322.351.73.526 1.224.526.35 0 .648-.071.891-.214.244-.144.457-.333.64-.57l.606.473c-.486.748-1.217 1.122-2.19 1.122zm-.123-5.21a1.32 1.32 0 00-1.01.441c-.272.29-.44.698-.505 1.224h2.911v-.075c-.029-.505-.165-.895-.408-1.171-.244-.279-.573-.419-.988-.419zm9.058 2.262c0 .888-.204 1.602-.612 2.143-.408.537-.956.805-1.644.805-.734 0-1.301-.259-1.702-.778l-.049.671h-.913v-8.25h.994v3.078c.4-.498.954-.747 1.66-.747.705 0 1.258.267 1.66.8.404.534.606 1.264.606 2.192v.086zm-.993-.113c0-.677-.131-1.2-.393-1.568-.261-.369-.637-.554-1.127-.554-.656 0-1.127.305-1.413.913v2.514c.304.609.779.913 1.423.913.477 0 .847-.184 1.112-.553.265-.369.397-.924.397-1.665zm6.227 1.412a.723.723 0 00-.306-.623c-.2-.15-.553-.279-1.058-.386-.501-.108-.9-.237-1.198-.387-.293-.15-.511-.329-.655-.537a1.298 1.298 0 01-.21-.741c0-.477.201-.879.602-1.209.405-.329.92-.494 1.547-.494.66 0 1.193.17 1.6.51.413.34.619.776.619 1.305h-1c0-.272-.116-.506-.349-.703-.229-.197-.519-.296-.87-.296-.361 0-.644.079-.848.237a.742.742 0 00-.307.617c0 .24.095.421.285.543.19.122.532.238 1.026.349.498.111.9.244 1.209.398.307.153.535.34.682.558.15.215.225.478.225.79 0 .519-.208.936-.623 1.251-.415.312-.954.467-1.617.467-.465 0-.877-.082-1.235-.247a2.035 2.035 0 01-.843-.687c-.2-.297-.301-.618-.301-.962h.994c.018.333.15.598.397.795.25.194.58.29.988.29.376 0 .677-.075.903-.225.229-.154.343-.358.343-.613zM79.481 106h-.994v-5.812h.994V106zm-1.074-7.353a.6.6 0 01.145-.408c.1-.111.247-.167.44-.167.194 0 .34.056.44.167.1.11.151.247.151.408 0 .161-.05.295-.15.403-.1.107-.248.16-.44.16-.194 0-.341-.053-.441-.16a.58.58 0 01-.145-.403zm4.611.134v1.407h1.085v.769h-1.085v3.604c0 .232.048.408.145.526.097.114.261.172.494.172.115 0 .272-.022.473-.065V106a2.864 2.864 0 01-.763.107c-.444 0-.779-.134-1.004-.402-.226-.269-.339-.65-.339-1.144v-3.604h-1.058v-.769h1.058v-1.407h.994zm5.256 7.326c-.788 0-1.429-.257-1.923-.773-.494-.519-.741-1.212-.741-2.079v-.182c0-.577.11-1.091.328-1.542.221-.455.53-.809.923-1.063a2.323 2.323 0 011.29-.387c.755 0 1.342.249 1.761.747.42.497.628 1.21.628 2.137v.414h-3.937c.015.573.181 1.037.5 1.391.322.351.73.526 1.225.526.35 0 .648-.071.891-.214.244-.144.457-.333.64-.57l.606.473c-.487.748-1.217 1.122-2.191 1.122zm-.124-5.21c-.4 0-.737.147-1.01.441-.272.29-.44.698-.504 1.224h2.91v-.075c-.028-.505-.164-.895-.407-1.171-.244-.279-.573-.419-.989-.419z" fill="#B3B3B3"/><rect x="24" y="155" width="14" height="14" rx="2" fill="#5F6368"/><path d="M49.939 162.938V166h-1.031v-7.82h2.884c.856 0 1.525.218 2.009.655.487.437.73 1.015.73 1.735 0 .759-.238 1.344-.714 1.756-.473.408-1.151.612-2.036.612H49.94zm0-.843h1.853c.551 0 .974-.129 1.268-.387.293-.261.44-.637.44-1.127 0-.466-.147-.838-.44-1.118-.294-.279-.697-.424-1.209-.435H49.94v3.067zm9.155-1.015a2.983 2.983 0 00-.489-.038c-.651 0-1.093.278-1.326.833V166h-.994v-5.812h.967l.016.672c.326-.519.788-.779 1.386-.779.193 0 .34.025.44.075v.924zm1.142 1.961c0-.57.11-1.082.333-1.537a2.53 2.53 0 01.934-1.052 2.559 2.559 0 011.37-.371c.791 0 1.43.274 1.917.822.491.548.736 1.276.736 2.186v.07c0 .565-.109 1.074-.327 1.525a2.44 2.44 0 01-.93 1.047 2.556 2.556 0 01-1.385.376c-.788 0-1.427-.274-1.918-.821-.487-.548-.73-1.273-.73-2.176v-.069zm.999.118c0 .644.148 1.162.446 1.552.3.39.702.585 1.203.585.505 0 .906-.197 1.203-.59.297-.398.446-.953.446-1.665 0-.638-.153-1.153-.457-1.547a1.433 1.433 0 00-1.203-.597c-.49 0-.886.196-1.187.586-.3.39-.451.949-.451 1.676zm5.89-.113c0-.892.21-1.608.633-2.149.423-.544.976-.816 1.66-.816.68 0 1.22.233 1.617.698v-3.029h.993V166h-.913l-.048-.623c-.398.487-.95.73-1.66.73-.673 0-1.223-.275-1.649-.827-.422-.551-.633-1.271-.633-2.159v-.075zm.993.113c0 .659.136 1.174.408 1.547.273.372.648.558 1.128.558.63 0 1.09-.283 1.38-.848v-2.67c-.297-.548-.753-.822-1.369-.822-.487 0-.867.188-1.139.564-.272.376-.408.933-.408 1.671zm9.639 2.266c-.387.455-.954.682-1.703.682-.62 0-1.092-.179-1.418-.537-.322-.361-.485-.895-.489-1.6v-3.782h.994v3.755c0 .881.358 1.321 1.074 1.321.76 0 1.264-.283 1.515-.848v-4.228h.994V166h-.946l-.021-.575zm5.406-.129c.355 0 .664-.107.93-.322.264-.215.411-.483.44-.806h.94c-.018.333-.133.65-.344.951a2.257 2.257 0 01-.849.72c-.35.179-.723.268-1.117.268-.791 0-1.421-.263-1.89-.789-.466-.53-.699-1.253-.699-2.17v-.167c0-.565.104-1.068.312-1.509.207-.44.505-.782.891-1.026.39-.243.85-.365 1.38-.365.652 0 1.193.195 1.623.586.433.39.664.896.693 1.52h-.94a1.355 1.355 0 00-.43-.924 1.312 1.312 0 00-.945-.366c-.505 0-.897.183-1.177.548-.275.362-.413.887-.413 1.574v.188c0 .67.138 1.185.413 1.547.276.362.67.542 1.182.542zm5.369-6.515v1.407h1.085v.769h-1.085v3.604c0 .232.048.408.145.526.096.114.261.172.494.172.114 0 .272-.022.473-.065V166a2.864 2.864 0 01-.763.107c-.444 0-.779-.134-1.005-.402-.225-.269-.338-.65-.338-1.144v-3.604H86.48v-.769h1.058v-1.407h.994z" fill="#B3B3B3"/><rect x="24" y="65" width="14" height="14" rx="2" fill="#C377E0"/><path fill-rule="evenodd" clip-rule="evenodd" d="M29.986 75.714l5.68-5.681-1.143-1.144-4.537 4.528-2.508-2.5-1.145 1.145 3.653 3.652z" fill="#fff"/><path d="M50.24 68.18l2.556 6.38 2.557-6.38h1.337V76h-1.03v-3.045l.096-3.287L53.188 76h-.79l-2.561-6.316.102 3.27V76h-1.031v-7.82h1.332zm8.446 4.86c0-.569.111-1.08.333-1.536.226-.454.537-.805.935-1.052.4-.247.857-.37 1.37-.37.79 0 1.43.273 1.917.82.49.549.736 1.277.736 2.187v.07c0 .565-.11 1.074-.328 1.525a2.447 2.447 0 01-.93 1.047c-.4.251-.862.376-1.385.376-.788 0-1.427-.273-1.918-.821-.486-.548-.73-1.273-.73-2.176v-.07zm1 .119c0 .644.148 1.162.445 1.552.3.39.702.585 1.203.585.505 0 .906-.197 1.203-.59.297-.398.446-.953.446-1.666 0-.637-.152-1.153-.457-1.546a1.434 1.434 0 00-1.203-.597c-.49 0-.886.196-1.187.586-.3.39-.45.949-.45 1.676zm11.05 0c0 .888-.204 1.602-.612 2.143-.408.537-.956.805-1.643.805-.735 0-1.302-.26-1.703-.778l-.049.671h-.913v-8.25h.994v3.078c.401-.498.954-.747 1.66-.747.705 0 1.258.267 1.66.8.404.534.606 1.264.606 2.192v.086zm-.993-.113c0-.677-.131-1.2-.392-1.569-.262-.368-.638-.553-1.128-.553-.656 0-1.126.305-1.413.913v2.514c.304.609.779.913 1.423.913.477 0 .847-.184 1.112-.553.265-.369.398-.924.398-1.665zM73.667 76h-.994v-5.811h.993V76zm-1.075-7.353a.6.6 0 01.145-.408c.1-.111.247-.167.44-.167.194 0 .34.056.441.167.1.11.15.247.15.408 0 .161-.05.295-.15.403-.1.107-.247.16-.44.16-.194 0-.34-.053-.44-.16a.58.58 0 01-.146-.403zM76.935 76h-.994v-8.25h.994V76zm4.6.107c-.787 0-1.428-.257-1.922-.773-.494-.52-.741-1.212-.741-2.079v-.182c0-.577.109-1.09.327-1.542.222-.455.53-.809.924-1.063a2.324 2.324 0 011.29-.387c.755 0 1.342.249 1.76.747.42.497.63 1.21.63 2.137v.414h-3.938c.015.573.181 1.036.5 1.391.322.35.73.526 1.224.526.351 0 .648-.071.892-.215a2.24 2.24 0 00.64-.569l.606.473c-.487.748-1.217 1.122-2.191 1.122zm-.123-5.21c-.4 0-.738.147-1.01.44-.272.29-.44.7-.505 1.225h2.912v-.075c-.03-.505-.165-.895-.409-1.17-.243-.28-.573-.42-.988-.42z" fill="#B3B3B3"/><rect x="24" y="125" width="14" height="14" rx="2" fill="#E15845"/><path fill-rule="evenodd" clip-rule="evenodd" d="M29.986 135.714l5.68-5.681-1.143-1.144-4.537 4.528-2.508-2.499-1.145 1.144 3.653 3.652z" fill="#fff"/><path d="M48.908 136v-7.82h2.207c.68 0 1.282.15 1.805.451.523.301.925.729 1.208 1.284.287.555.432 1.192.435 1.912v.499c0 .738-.143 1.384-.43 1.939-.282.555-.689.981-1.218 1.278-.527.298-1.14.45-1.843.457h-2.164zm1.031-6.972v6.129h1.085c.795 0 1.413-.247 1.853-.741.444-.495.666-1.198.666-2.111v-.457c0-.888-.21-1.577-.628-2.068-.416-.494-1.007-.745-1.773-.752H49.94zm9.037 7.079c-.788 0-1.429-.257-1.923-.773-.494-.519-.741-1.212-.741-2.079v-.182c0-.577.11-1.091.328-1.542.222-.455.53-.809.923-1.063a2.322 2.322 0 011.29-.387c.755 0 1.342.249 1.761.747.42.497.629 1.21.629 2.137v.414h-3.937c.014.573.18 1.037.5 1.391.321.351.73.526 1.224.526.35 0 .648-.071.891-.214.244-.144.457-.333.64-.57l.606.473c-.486.748-1.217 1.122-2.19 1.122zm-.123-5.21a1.32 1.32 0 00-1.01.441c-.272.29-.44.698-.505 1.224h2.911v-.075c-.029-.505-.165-.895-.408-1.171-.244-.279-.573-.419-.989-.419zm7.522 3.561a.723.723 0 00-.306-.623c-.2-.15-.553-.279-1.058-.386-.502-.108-.9-.237-1.198-.387-.294-.15-.512-.329-.655-.537a1.298 1.298 0 01-.21-.741c0-.477.2-.879.602-1.209.404-.329.92-.494 1.547-.494.659 0 1.192.17 1.6.51.412.34.618.776.618 1.305h-1c0-.272-.115-.506-.348-.703-.23-.197-.52-.296-.87-.296-.362 0-.645.079-.849.237a.742.742 0 00-.306.617c0 .24.095.421.285.543.19.122.531.238 1.025.349.498.111.901.244 1.209.398.308.153.535.34.682.558.15.215.226.478.226.79 0 .519-.208.936-.623 1.251-.416.312-.955.467-1.617.467-.466 0-.877-.082-1.235-.247a2.035 2.035 0 01-.844-.687c-.2-.297-.3-.618-.3-.962h.993c.018.333.15.598.398.795.25.194.58.29.988.29.376 0 .677-.075.902-.225.23-.154.344-.358.344-.613zm4.504-1.149l-.623.65V136h-.994v-8.25h.994v4.99l.532-.639 1.81-1.913h1.208l-2.261 2.428L74.069 136h-1.165l-2.025-2.691zm5.895-4.528v1.407h1.085v.769h-1.085v3.604c0 .232.048.408.145.526.097.114.261.172.494.172.115 0 .272-.022.473-.065V136a2.864 2.864 0 01-.763.107c-.444 0-.779-.134-1.004-.402-.226-.269-.339-.65-.339-1.144v-3.604h-1.058v-.769h1.058v-1.407h.994zm2.474 4.26c0-.57.11-1.082.333-1.537a2.53 2.53 0 01.934-1.052 2.559 2.559 0 011.37-.371c.791 0 1.43.274 1.917.822.49.548.736 1.276.736 2.186v.07c0 .565-.11 1.074-.328 1.525a2.44 2.44 0 01-.929 1.047 2.556 2.556 0 01-1.386.376c-.787 0-1.426-.274-1.917-.821-.487-.548-.73-1.273-.73-2.176v-.069zm.999.118c0 .644.148 1.162.445 1.552.301.39.702.585 1.204.585.504 0 .905-.197 1.203-.59.297-.398.445-.953.445-1.665 0-.638-.152-1.153-.456-1.547a1.433 1.433 0 00-1.203-.597c-.49 0-.886.196-1.187.586-.301.39-.451.949-.451 1.676zm11.04 0c0 .884-.202 1.597-.607 2.137-.404.541-.952.811-1.643.811-.706 0-1.26-.223-1.665-.671v2.798h-.994v-8.046h.908l.048.645c.405-.501.967-.752 1.686-.752.699 0 1.25.263 1.655.79.408.526.612 1.258.612 2.196v.092zm-.994-.113c0-.655-.14-1.173-.419-1.552-.279-.38-.662-.57-1.149-.57-.601 0-1.053.267-1.353.801v2.776c.297.53.752.795 1.364.795.476 0 .854-.188 1.133-.564.283-.379.424-.941.424-1.686z" fill="#B3B3B3"/><path fill-rule="evenodd" clip-rule="evenodd" d="M273.375 179h-9.75c-.897 0-1.625.728-1.625 1.625v9.75c0 .897.728 1.625 1.625 1.625h9.75c.897 0 1.625-.728 1.625-1.625v-9.75c0-.897-.728-1.625-1.625-1.625zm-.845 1.688h-2.405a.78.78 0 00-.78.78v4.128c0 .43.349.78.78.78h2.405a.78.78 0 00.78-.78v-4.128a.78.78 0 00-.78-.78zm-8.06 0h2.405a.78.78 0 01.78.78v7.378a.78.78 0 01-.78.78h-2.405a.78.78 0 01-.78-.78v-7.378a.78.78 0 01.78-.78z" fill="#EE9AD3"/><path fill-rule="evenodd" clip-rule="evenodd" d="M350.375 126h-9.75c-.897 0-1.625.728-1.625 1.625v9.75c0 .897.728 1.625 1.625 1.625h9.75c.897 0 1.625-.728 1.625-1.625v-9.75c0-.897-.728-1.625-1.625-1.625zm-.845 1.688h-2.405a.78.78 0 00-.78.78v4.128c0 .43.349.78.78.78h2.405a.78.78 0 00.78-.78v-4.128a.78.78 0 00-.78-.78zm-8.06 0h2.405a.78.78 0 01.78.78v7.378a.78.78 0 01-.78.78h-2.405a.78.78 0 01-.78-.78v-7.378a.78.78 0 01.78-.78zM199.375 96h-9.75c-.897 0-1.625.728-1.625 1.625v9.75c0 .897.728 1.625 1.625 1.625h9.75c.897 0 1.625-.728 1.625-1.625v-9.75c0-.897-.728-1.625-1.625-1.625zm-.845 1.688h-2.405a.78.78 0 00-.78.78v4.128c0 .43.349.78.78.78h2.405a.78.78 0 00.78-.78v-4.128a.78.78 0 00-.78-.78zm-8.06 0h2.405c.431 0 .78.35.78.78v7.378a.78.78 0 01-.78.78h-2.405a.78.78 0 01-.78-.78v-7.378c0-.43.349-.78.78-.78z" fill="#F8C97D"/><g opacity=".6" fill="#fff"><path d="M114.4 44h1.2v6h-1.2v-6z"/><path d="M118 46.4v1.2h-6v-1.2h6z"/></g><circle opacity=".6" cx="115" cy="47" r="5.4" stroke="#fff" stroke-width="1.2"/></svg>