<svg><defs>
    <g id="align-right-outline" fill="none"><path d="M5 6.5h14v2H5v-2zm6 7v-2h8v2h-8zm-4 5v-2h12v2H7z" fill="#5F6368"/></g>
    <g id="arrow-left" fill="none"><path d="M6.83 13H20.5v-2H6.83l3.58-3.59L9 6l-6 6 6 6 1.41-1.41L6.83 13z" fill="#5F6368"/></g>
    <g id="arrow-right" fill="none"><path d="M16.67 11H3v2h13.67l-3.58 3.59L14.5 18l6-6-6-6-1.41 1.41L16.67 11z" fill="#5F6368"/></g>
    <g id="briefcase-outline" fill="none"><path d="M20 6c.58 0 1.05.2 1.42.59.38.41.58.86.58 1.41v11c0 .55-.2 1-.58 1.41-.37.39-.84.59-1.42.59H4c-.58 0-1.05-.2-1.42-.59A1.99 1.99 0 012 19V8c0-.55.2-1 .58-1.41C2.95 6.2 3.42 6 4 6h4V4c0-.58.2-1.05.58-1.42A1.9 1.9 0 0110 2h4c.58 0 1.05.2 1.42.58.38.37.58.84.58 1.42v2h4zM4 8v11h16V8H4zm10-2V4h-4v2h4z" fill="#5F6368"/></g>
    <g id="calendar-outline" fill="none"><path fill-rule="evenodd" clip-rule="evenodd" d="M19 3h1a2 2 0 012 2v16a2 2 0 01-2 2H4a2 2 0 01-2-2V5c0-1.1.9-2 2-2h1V1h2v2h10V1h2v2zM4 21h16V8H4v13z" fill="#5F6368"/></g>
    <g id="check" fill="none"><path d="M21 7L9 19l-5.5-5.5 1.41-1.41L9 16.17 19.59 5.59 21 7z" fill="#5F6368"/></g>
    <g id="check-all" fill="none"><path d="M.41 13.41L6 19l1.41-1.42L1.83 12 .41 13.41zm21.83-7.83L11.66 16.17 7.5 12l-1.43 1.41L11.66 19l12-12-1.42-1.42zM18 7l-1.41-1.42-6.35 6.35 1.42 1.41L18 7z" fill="#5F6368"/></g>
    <g id="chevron" fill="none"><path d="M7 10l5 5 5-5H7z" fill="#5F6368"/></g>
    <g id="chevron-down" fill="none"><path d="M16.59 8.59L12 13.17 7.41 8.59 6 10l6 6 6-6-1.41-1.41z" fill="#000"/><mask id="a" maskUnits="userSpaceOnUse" x="6" y="8" width="12" height="8"><path d="M16.59 8.59L12 13.17 7.41 8.59 6 10l6 6 6-6-1.41-1.41z" fill="#fff"/></mask><g mask="url(#a)"><path fill="#4C4C4C" d="M0 0h24v24H0z"/></g></g>
    <g id="chevron-left" fill="none"><path d="M15.41 16.59L10.83 12l4.58-4.59L14 6l-6 6 6 6 1.41-1.41z" fill="#000"/><mask id="a" maskUnits="userSpaceOnUse" x="8" y="6" width="8" height="12"><path d="M15.41 16.59L10.83 12l4.58-4.59L14 6l-6 6 6 6 1.41-1.41z" fill="#fff"/></mask><g mask="url(#a)"><path fill="#4C4C4C" d="M24 0v24H0V0z"/></g></g>
    <g id="chevron-right" fill="none"><path d="M8.59 7.41L13.17 12l-4.58 4.59L10 18l6-6-6-6-1.41 1.41z" fill="#000"/><mask id="a" maskUnits="userSpaceOnUse" x="8" y="6" width="8" height="12"><path d="M8.59 7.41L13.17 12l-4.58 4.59L10 18l6-6-6-6-1.41 1.41z" fill="#fff"/></mask><g mask="url(#a)"><path fill="#4C4C4C" d="M0 24V0h24v24z"/></g></g>
    <g id="chevron-up" fill="none"><path d="M12 8l-6 6 1.41 1.41L12 10.83l4.59 4.58L18 14l-6-6z" fill="#fff"/><mask id="a" maskUnits="userSpaceOnUse" x="6" y="8" width="12" height="8"><path d="M12 8l-6 6 1.41 1.41L12 10.83l4.59 4.58L18 14l-6-6z" fill="#fff"/></mask><g mask="url(#a)"><path fill="#4C4C4C" d="M0 0h24v24H0z"/></g></g>
    <g id="clock-four-outline" fill="none"><mask id="a" maskUnits="userSpaceOnUse" x="4" y="4" width="16" height="16"><path fill-rule="evenodd" clip-rule="evenodd" d="M12 4a8 8 0 100 16 8 8 0 000-16zm0 14.4a6.4 6.4 0 110-12.8 6.4 6.4 0 010 12.8zM11.2 8h1.2v4.2l3.6 2.14-.6.98-4.2-2.52V8z" fill="#fff"/></mask><g mask="url(#a)"><path fill="#5F6368" d="M0 0h24.03v24.03H0z"/></g></g>
    <g id="cube-outline" fill="none"><path d="M21 16.5a1 1 0 01-.53.88l-7.9 4.44A.94.94 0 0112 22a.94.94 0 01-.57-.18l-7.9-4.44A1 1 0 013 16.5v-9a1 1 0 01.53-.88l7.9-4.44A.94.94 0 0112 2c.21 0 .41.06.57.18l7.9 4.44a1 1 0 01.53.88v9zM12 4.15L6.04 7.5 12 10.85l5.96-3.35L12 4.15zM5 15.91l6 3.38v-6.71L5 9.21v6.7zm14 0v-6.7l-6 3.37v6.71l6-3.38z" fill="#5F6368"/></g>
    <g id="dots-vertical" fill="none"><path fill-rule="evenodd" clip-rule="evenodd" d="M12 8a2 2 0 002-2 2 2 0 00-2-2 2 2 0 00-2 2c0 1.1.9 2 2 2zm0 2a2 2 0 00-2 2c0 1.1.9 2 2 2a2 2 0 002-2 2 2 0 00-2-2zm-2 8c0-1.1.9-2 2-2a2 2 0 012 2 2 2 0 01-2 2 2 2 0 01-2-2z" fill="#5F6368"/></g>
    <g id="filter" fill="none"><path fill-rule="evenodd" clip-rule="evenodd" d="M14.71 20.71a.96.96 0 00.29-.83v-9.13l4.79-6.13a1 1 0 00-.17-1.4c-.19-.14-.4-.22-.62-.22H5c-.22 0-.43.08-.62.22a1 1 0 00-.17 1.4L9 10.75v5.12c-.04.29.06.6.29.83l4.01 4.01a1 1 0 001.41 0zM11 10.06L7.04 5h9.92L13 10.05v7.53l-2-2v-5.52z" fill="#5F6368"/></g>
    <g id="list-outline" fill="none"><path d="M8.5 5.5h11v2h-11v-2zm0 7v-2h11v2h-11zM5.5 5a1.5 1.5 0 110 3 1.5 1.5 0 010-3zm0 5a1.5 1.5 0 110 3 1.5 1.5 0 010-3zm3 7.5v-2h11v2h-11zm-3-2.5a1.5 1.5 0 110 3 1.5 1.5 0 010-3z" fill="#5F6368"/></g>
    <g id="magnifier" fill="none"><path fill-rule="evenodd" clip-rule="evenodd" d="M11 4a7 7 0 100 14 7 7 0 000-14zm-9 7a9 9 0 1118 0 9 9 0 01-18 0z" fill="#5F6368"/><path fill-rule="evenodd" clip-rule="evenodd" d="M15.94 15.94a1 1 0 011.42 0l4.35 4.35a1 1 0 01-1.42 1.42l-4.35-4.35a1 1 0 010-1.42z" fill="#5F6368"/></g>
    <g id="message-outline" fill="none"><path fill-rule="evenodd" clip-rule="evenodd" d="M9.67 20.06c0 .52.42.94.94.94h.47c.24 0 .48-.1.66-.27l3.5-3.5h3.87c1.04 0 1.89-.85 1.89-1.9V5.9C21 4.85 20.15 4 19.11 4H5.9C4.85 4 4 4.84 4 5.89v9.44c0 1.05.85 1.9 1.89 1.9h3.78v2.83zm1.89-1.82v-2.9H5.89V5.88H19.1v9.44h-4.65l-2.9 2.91z" fill="#5F6368"/></g>
    <g id="play" fill="none"><path d="M12 20a8.01 8.01 0 010-16 8.01 8.01 0 010 16zm0-18a10 10 0 100 20 10 10 0 000-20zm-2 14.5l6-4.5-6-4.5v9z" fill="#5F6368"/></g>
    <g id="plus" fill="none"><mask id="a" maskUnits="userSpaceOnUse" x="5" y="5" width="14" height="14"><path d="M19 13h-6v6h-2v-6H5v-2h6V5h2v6h6v2z" fill="#fff"/></mask><g mask="url(#a)"><path fill="#5F6368" d="M0 0h24v24H0z"/></g></g>
    <g id="settings" fill="none"><path fill-rule="evenodd" clip-rule="evenodd" d="M10.18 20a.4.4 0 01-.4-.34l-.3-2.12c-.5-.2-.93-.47-1.34-.79l-2 .81a.4.4 0 01-.48-.18l-1.6-2.76a.4.4 0 01.1-.52l1.68-1.32-.06-.78.06-.8-1.69-1.3a.4.4 0 01-.1-.52l1.6-2.76c.1-.18.32-.25.5-.18l1.99.8a5.8 5.8 0 011.35-.78l.3-2.12a.4.4 0 01.4-.34h3.2c.2 0 .36.14.4.34l.29 2.12c.5.2.94.47 1.35.78l2-.8a.4.4 0 01.48.18l1.6 2.76c.1.18.06.4-.1.52l-1.68 1.3.05.8-.05.8 1.69 1.3c.15.12.2.34.1.52l-1.6 2.76c-.1.18-.32.25-.5.18l-1.99-.8a5.8 5.8 0 01-1.35.78l-.3 2.12a.4.4 0 01-.4.34h-3.2zm4.8-8a3.2 3.2 0 10-6.4 0 3.2 3.2 0 006.4 0zm-4.8 0a1.6 1.6 0 113.2 0 1.6 1.6 0 01-3.2 0zm.7-4.31l.3-2.09h1.2l.3 2.1c.96.19 1.8.7 2.42 1.41l1.93-.83.6 1.04-1.69 1.24c.32.94.32 1.95 0 2.89l1.7 1.24-.6 1.04-1.94-.83a4.41 4.41 0 01-2.41 1.41l-.3 2.09h-1.21l-.3-2.1c-.95-.19-1.8-.7-2.4-1.4l-1.95.83-.6-1.04 1.7-1.25a4.44 4.44 0 010-2.88l-1.7-1.24.6-1.04 1.93.83A4.4 4.4 0 0110.9 7.7z" fill="#5F6368"/></g>
    <g id="share" fill="none"><path d="M17 15.26c-.6 0-1.15.24-1.57.62l-5.7-3.32c.04-.18.07-.37.07-.56 0-.2-.03-.38-.07-.56l5.64-3.29A2.39 2.39 0 0019.4 6.4a2.4 2.4 0 10-4.73.56l-5.64 3.29A2.39 2.39 0 005 12a2.4 2.4 0 004.03 1.75l5.7 3.32a2.33 2.33 0 102.27-1.8z" fill="#5F6368"/></g>
    <g id="star" fill="none"><path d="M12 16.66L17.56 20l-1.47-6.29L21 9.48l-6.47-.56L12 3 9.47 8.92 3 9.48l4.9 4.23L6.45 20 12 16.66z" fill="#5F6368"/></g>
    <g id="timeline" fill="none"><path d="M10 4h2v16h-2v-3H8v-2h2v-2H6v-2h4V9H4V7h6V4zM16 7v2h-2V7h2zM18 11v2h-4v-2h4zM20 17v-2h-6v2h6z" fill="#5F6368"/></g>
    <g id="tree" fill="none"><path d="M3 3h6v4H3V3zm12 7h6v4h-6v-4zm0 7h6v4h-6v-4zm-2-4H7v5h6v2H5V9h2v2h6v2z" fill="#5F6368"/></g>
    <g id="user-outline" fill="none"><path fill-rule="evenodd" clip-rule="evenodd" d="M9 7a3 3 0 116 0 3 3 0 01-6 0zm3-5a5 5 0 100 10 5 5 0 000-10zM8 14c-1.27 0-2.52.42-3.47 1.2A4.08 4.08 0 003 18.34V20a1 1 0 102 0v-1.67c0-.55.26-1.13.81-1.59A3.44 3.44 0 018 16h8c.85 0 1.63.28 2.19.74.55.46.81 1.04.81 1.6V20a1 1 0 102 0v-1.67c0-1.21-.58-2.33-1.53-3.12A5.44 5.44 0 0016 14H8z" fill="#5F6368"/></g>
    <g id="user-plus-outline" fill="none"><path fill-rule="evenodd" clip-rule="evenodd" d="M1.46 15.46A5 5 0 015 14h7a5 5 0 015 5v2a1 1 0 11-2 0v-2a3 3 0 00-3-3H5a3 3 0 00-3 3v2a1 1 0 11-2 0v-2a5 5 0 011.46-3.54zM8.5 4a3 3 0 100 6 3 3 0 000-6zm-5 3a5 5 0 1110 0 5 5 0 01-10 0zM20 7a1 1 0 011 1v6a1 1 0 11-2 0V8a1 1 0 011-1z" fill="#5F6368"/><path fill-rule="evenodd" clip-rule="evenodd" d="M16 11a1 1 0 011-1h6a1 1 0 110 2h-6a1 1 0 01-1-1z" fill="#5F6368"/></g>
    <g id="users-outline" fill="none"><path fill-rule="evenodd" clip-rule="evenodd" d="M6 7a3 3 0 116 0 3 3 0 01-6 0zm3-5a5 5 0 100 10A5 5 0 009 2zM5 14a5 5 0 00-5 5v2a1 1 0 102 0v-2a3 3 0 013-3h8a3 3 0 013 3v2a1 1 0 102 0v-2a5 5 0 00-5-5H5zm14.03.88a1 1 0 011.22-.72A5 5 0 0124 19v2a1 1 0 11-2 0v-2a3 3 0 00-2.25-2.9 1 1 0 01-.72-1.22zM16.25 2.16a1 1 0 10-.5 1.94 3 3 0 010 5.81 1 1 0 10.5 1.94 5 5 0 000-9.69z" fill="#5F6368"/></g>
</defs></svg>
