<svg width="339" height="229" fill="none" xmlns="http://www.w3.org/2000/svg"><rect x="30" width="258" height="185" rx="3" fill="#fff"/><path fill="#E1E1E1" d="M163 0v195h-1V0zM229 0v195h-1V0zM97 0v195h-1V0z"/><path fill="#E1E1E1" d="M288 31H30v-1h258zM288 95H30v-1h258zM288 159H30v-1h258z"/><path d="M40.24 12.18l2.556 6.38 2.557-6.38h1.337V20h-1.03v-3.045l.096-3.287L43.188 20h-.79l-2.561-6.316.102 3.27V20h-1.031v-7.82h1.332zm7.852 4.86c0-.569.111-1.08.333-1.536.226-.454.537-.805.935-1.052.4-.247.857-.37 1.37-.37.79 0 1.43.273 1.917.82.49.549.736 1.277.736 2.187v.07c0 .565-.11 1.074-.328 1.525a2.447 2.447 0 01-.929 1.047 2.56 2.56 0 01-1.386.376c-.788 0-1.427-.273-1.917-.821-.487-.548-.73-1.273-.73-2.176v-.07zm1 .119c0 .644.148 1.162.445 1.552.3.39.702.585 1.203.585.505 0 .906-.197 1.203-.59.298-.398.446-.953.446-1.665 0-.638-.152-1.154-.456-1.547a1.433 1.433 0 00-1.203-.596c-.491 0-.887.195-1.188.585-.3.39-.45.949-.45 1.676zm6.477-2.97l.032.73c.444-.559 1.024-.838 1.74-.838 1.228 0 1.848.693 1.859 2.079V20h-.994v-3.846c-.004-.419-.1-.728-.29-.929-.186-.2-.478-.3-.875-.3-.323 0-.606.085-.85.257a1.75 1.75 0 00-.568.677V20h-.994v-5.812h.94zM39.106 45.08l.398-3.9h4.007v.918h-3.164l-.236 2.133a2.524 2.524 0 011.305-.339c.713 0 1.278.236 1.697.71.42.468.629 1.104.629 1.906 0 .805-.219 1.441-.656 1.907-.433.462-1.04.692-1.82.692-.691 0-1.255-.191-1.692-.574-.437-.383-.686-.913-.747-1.59h.94c.061.448.22.786.478 1.015.258.226.598.338 1.02.338.462 0 .824-.157 1.086-.472.265-.315.397-.75.397-1.305 0-.523-.143-.942-.43-1.257-.282-.319-.66-.478-1.133-.478-.433 0-.773.095-1.02.284l-.264.215-.795-.204zM41.916 113h-1v-6.623l-2.003.736v-.902l2.847-1.069h.156V113zm8.035 0h-5.124v-.714l2.707-3.008c.4-.455.676-.824.827-1.107.154-.286.23-.581.23-.886 0-.408-.123-.743-.37-1.004-.247-.262-.576-.392-.988-.392-.494 0-.88.141-1.155.424-.272.279-.408.67-.408 1.171h-.994c0-.72.231-1.302.693-1.746.466-.444 1.087-.666 1.864-.666.727 0 1.302.192 1.724.575.423.38.634.886.634 1.52 0 .77-.49 1.687-1.472 2.75l-2.095 2.272h3.927V113zM41.916 177h-1v-6.623l-2.003.736v-.902l2.847-1.069h.156V177zm6.719-3.438a2.42 2.42 0 01-.747.597c-.286.15-.601.225-.945.225-.451 0-.845-.111-1.182-.333a2.173 2.173 0 01-.773-.934 3.218 3.218 0 01-.274-1.338c0-.522.098-.993.295-1.412.2-.419.484-.74.849-.962.365-.222.791-.333 1.278-.333.774 0 1.382.29 1.826.87.448.577.672 1.365.672 2.364v.29c0 1.522-.301 2.633-.903 3.335-.601.698-1.509 1.056-2.723 1.074h-.193v-.838h.21c.82-.014 1.45-.227 1.89-.639.44-.415.68-1.07.72-1.966zm-1.531 0c.333 0 .64-.102.919-.306.282-.204.488-.456.617-.757v-.397c0-.652-.141-1.182-.424-1.59-.283-.408-.641-.613-1.074-.613-.437 0-.788.169-1.053.505-.265.333-.398.774-.398 1.322 0 .533.127.974.382 1.321.258.344.601.515 1.031.515zM109.549 41.174v.844h-.182c-.774.014-1.39.243-1.848.687-.458.444-.723 1.069-.795 1.875.412-.473.974-.71 1.687-.71.68 0 1.222.24 1.627.72.408.48.612 1.1.612 1.859 0 .805-.22 1.45-.66 1.933-.437.484-1.024.725-1.762.725-.748 0-1.355-.286-1.821-.859-.465-.576-.698-1.318-.698-2.224v-.38c0-1.44.306-2.54.918-3.299.616-.762 1.531-1.153 2.745-1.17h.177zm-1.305 3.524c-.34 0-.653.102-.94.306-.286.204-.485.46-.596.768v.365c0 .645.145 1.164.435 1.558.29.394.652.59 1.085.59.448 0 .799-.164 1.053-.493.258-.33.386-.761.386-1.295 0-.537-.13-.97-.392-1.3a1.237 1.237 0 00-1.031-.5zM108.916 113h-.999v-6.623l-2.004.736v-.902l2.847-1.069h.156V113zm4.355-4.394h.747c.469-.007.838-.13 1.107-.37.268-.24.402-.564.402-.972 0-.917-.456-1.375-1.369-1.375-.43 0-.774.123-1.032.37-.254.244-.381.568-.381.972h-.994c0-.619.226-1.133.677-1.541.455-.412 1.031-.618 1.73-.618.737 0 1.316.195 1.735.586.419.39.628.932.628 1.627 0 .34-.111.67-.333.988a1.975 1.975 0 01-.897.715c.43.136.761.361.994.677.236.315.354.7.354 1.154 0 .702-.229 1.259-.687 1.671-.459.412-1.055.617-1.789.617s-1.332-.198-1.794-.596c-.458-.397-.687-.922-.687-1.573h.999c0 .411.134.741.402.988.269.247.629.37 1.08.37.48 0 .847-.125 1.101-.376.254-.25.382-.61.382-1.079 0-.455-.14-.804-.419-1.048-.28-.243-.683-.368-1.209-.376h-.747v-.811zM110.774 177h-5.124v-.714l2.707-3.008c.401-.455.677-.824.827-1.107.154-.286.231-.581.231-.886 0-.408-.123-.743-.371-1.004-.247-.262-.576-.392-.988-.392-.494 0-.879.141-1.155.424-.272.279-.408.67-.408 1.171h-.993c0-.72.23-1.302.692-1.746.466-.444 1.087-.666 1.864-.666.727 0 1.302.192 1.724.575.423.38.634.886.634 1.52 0 .77-.49 1.687-1.472 2.75l-2.094 2.272h3.926V177zm5.956-3.335c0 1.163-.198 2.028-.596 2.594-.397.566-1.018.848-1.863.848-.835 0-1.452-.275-1.854-.827-.401-.555-.608-1.382-.623-2.481v-1.327c0-1.149.199-2.003.597-2.562.397-.558 1.02-.838 1.869-.838.841 0 1.461.271 1.858.811.398.537.602 1.368.612 2.492v1.29zm-.993-1.359c0-.842-.118-1.454-.355-1.837-.236-.387-.61-.58-1.122-.58-.509 0-.879.191-1.112.574-.233.384-.353.973-.36 1.767v1.59c0 .845.122 1.47.365 1.875.247.401.62.601 1.118.601.49 0 .854-.189 1.09-.569.24-.38.365-.977.376-1.794v-1.627zM176.699 41.738L173.46 49h-1.042l3.228-7.004h-4.232v-.816h5.285v.558zM242.393 43.22c0 .391-.104.738-.312 1.043a2.085 2.085 0 01-.832.714c.408.176.73.431.966.768.24.337.36.718.36 1.144 0 .677-.229 1.216-.687 1.617-.455.4-1.055.601-1.8.601-.752 0-1.355-.2-1.81-.601-.451-.405-.676-.944-.676-1.617 0-.422.114-.804.343-1.144.233-.34.554-.598.962-.773a2.042 2.042 0 01-.822-.715 1.838 1.838 0 01-.301-1.036c0-.66.211-1.182.634-1.569.422-.386.979-.58 1.67-.58.688 0 1.243.194 1.665.58.427.387.64.91.64 1.569zm-.811 3.648c0-.437-.14-.794-.419-1.07-.276-.275-.638-.413-1.085-.413-.448 0-.808.136-1.08.409-.269.272-.403.63-.403 1.074 0 .444.131.793.392 1.047.265.254.632.381 1.101.381.466 0 .831-.127 1.096-.381.265-.258.398-.607.398-1.047zm-1.494-4.98c-.39 0-.707.122-.95.366-.24.24-.36.568-.36.983 0 .397.118.72.354.967.24.243.559.365.956.365.398 0 .715-.122.951-.365.24-.248.36-.57.36-.967 0-.398-.124-.722-.371-.972-.247-.251-.56-.376-.94-.376zM174.916 113h-.999v-6.623l-2.004.736v-.902l2.847-1.069h.156V113zm7.105-2.626h1.085v.811h-1.085V113h-.999v-1.815h-3.561v-.586l3.502-5.419h1.058v5.194zm-3.432 0h2.433v-3.835l-.118.214-2.315 3.621zM240.916 113h-.999v-6.623l-2.004.736v-.902l2.847-1.069h.156V113zm3.367-3.921l.398-3.899h4.007v.918h-3.164l-.236 2.132a2.528 2.528 0 011.305-.338c.712 0 1.278.236 1.697.709.419.469.628 1.105.628 1.907 0 .805-.218 1.441-.655 1.907-.433.461-1.04.692-1.821.692-.691 0-1.255-.191-1.692-.574-.436-.383-.685-.913-.746-1.59h.94c.061.447.22.786.478 1.015.258.226.598.338 1.02.338.462 0 .824-.157 1.085-.472.265-.315.398-.75.398-1.305 0-.523-.143-.942-.43-1.257-.283-.319-.661-.478-1.133-.478-.433 0-.774.095-1.021.284l-.263.215-.795-.204zM176.774 177h-5.124v-.714l2.707-3.008c.401-.455.677-.824.827-1.107.154-.286.231-.581.231-.886 0-.408-.123-.743-.371-1.004-.247-.262-.576-.392-.988-.392-.494 0-.879.141-1.155.424-.272.279-.408.67-.408 1.171h-.993c0-.72.23-1.302.692-1.746.466-.444 1.087-.666 1.864-.666.727 0 1.302.192 1.724.575.423.38.634.886.634 1.52 0 .77-.49 1.687-1.472 2.75l-2.094 2.272h3.926V177zm4.318 0h-.999v-6.623l-2.003.736v-.902l2.847-1.069h.155V177zM111.311 13.028h-2.514V20h-1.026v-6.972h-2.508v-.848h6.048v.848zm4.077 6.397c-.387.455-.955.682-1.703.682-.619 0-1.092-.179-1.418-.537-.322-.361-.485-.895-.489-1.6v-3.781h.994v3.754c0 .88.358 1.321 1.074 1.321.759 0 1.264-.283 1.515-.848v-4.228h.993V20h-.945l-.021-.575zm4.893.682c-.788 0-1.429-.257-1.923-.773-.494-.52-.741-1.212-.741-2.079v-.182c0-.577.109-1.09.327-1.542.222-.455.53-.809.924-1.063a2.325 2.325 0 011.289-.387c.756 0 1.343.249 1.762.747.419.497.628 1.21.628 2.137v.414h-3.937c.015.573.181 1.037.5 1.391.322.35.73.526 1.224.526.351 0 .649-.071.892-.215.244-.143.457-.332.639-.569l.607.473c-.487.748-1.217 1.122-2.191 1.122zm-.124-5.21c-.401 0-.737.147-1.01.44-.272.29-.44.7-.504 1.226h2.911v-.076c-.029-.505-.165-.895-.408-1.17-.244-.28-.573-.42-.989-.42zM173.594 17.535l.151 1.03.22-.928 1.547-5.457h.87l1.509 5.457.215.945.166-1.053 1.214-5.35h1.037L178.627 20h-.94l-1.611-5.699-.124-.596-.123.596L174.158 20h-.94l-1.89-7.82h1.031l1.235 5.355zm10.162 2.572c-.787 0-1.428-.257-1.923-.773-.494-.52-.741-1.212-.741-2.079v-.182c0-.577.109-1.09.328-1.542.222-.455.53-.809.924-1.063a2.323 2.323 0 011.289-.387c.755 0 1.343.249 1.762.747.418.497.628 1.21.628 2.137v.414h-3.937c.014.573.181 1.037.499 1.391.323.35.731.526 1.225.526.351 0 .648-.071.892-.215.243-.143.456-.332.639-.569l.607.473c-.487.748-1.218 1.122-2.192 1.122zm-.123-5.21c-.401 0-.738.147-1.01.44-.272.29-.44.7-.505 1.226h2.911v-.076c-.028-.505-.164-.895-.408-1.17-.243-.28-.573-.42-.988-.42zm3.303 2.149c0-.892.211-1.608.634-2.148.422-.545.976-.817 1.659-.817.681 0 1.22.233 1.617.698V11.75h.994V20h-.913l-.049-.623c-.397.487-.95.73-1.659.73-.673 0-1.223-.275-1.649-.827-.423-.551-.634-1.27-.634-2.159v-.075zm.994.113c0 .659.136 1.174.408 1.547.272.372.648.558 1.128.558.63 0 1.09-.283 1.38-.848v-2.67c-.297-.548-.754-.822-1.369-.822-.487 0-.867.188-1.139.564-.272.376-.408.933-.408 1.67zM243.311 13.028h-2.514V20h-1.026v-6.972h-2.508v-.848h6.048v.848zm1.998 1.864c.441-.54 1.013-.81 1.719-.81 1.228 0 1.847.692 1.858 2.078V20h-.993v-3.846c-.004-.419-.101-.728-.29-.929-.187-.2-.478-.3-.876-.3-.322 0-.605.085-.849.257a1.754 1.754 0 00-.569.677V20h-.994v-8.25h.994v3.142zm8.653 4.533c-.387.455-.954.682-1.703.682-.619 0-1.092-.179-1.418-.537-.322-.361-.485-.895-.488-1.6v-3.781h.993v3.754c0 .88.358 1.321 1.074 1.321.76 0 1.264-.283 1.515-.848v-4.228h.994V20h-.946l-.021-.575z" fill="#75797E"/><path d="M0 56h68v28H0V56z" fill="#F5DDED"/><rect opacity=".4" x="6" y="63" width="43" height="5" rx="2.5" fill="#DE38A8"/><rect opacity=".25" x="6" y="73" width="25" height="4" rx="2" fill="#E964BE"/><path d="M163 56h65v28h-65V56z" fill="#F5DDED"/><rect opacity=".4" x="169" y="63" width="43" height="5" rx="2.5" fill="#DE38A8"/><rect opacity=".25" x="169" y="73" width="25" height="4" rx="2" fill="#E964BE"/><path d="M20 120h68v28H20v-28z" fill="#F5DDED"/><rect opacity=".4" x="26" y="127" width="43" height="5" rx="2.5" fill="#DE38A8"/><rect opacity=".25" x="26" y="137" width="25" height="4" rx="2" fill="#E964BE"/><path d="M163 120h65v28h-65v-28z" fill="#F5DDED"/><rect opacity=".4" x="169" y="127" width="43" height="5" rx="2.5" fill="#DE38A8"/><rect opacity=".25" x="169" y="137" width="25" height="4" rx="2" fill="#E964BE"/><g filter="url(#filter0_d)"><rect x="88" y="156" width="248" height="61" rx="3" fill="#fff"/></g><path d="M106.335 176.439h-1.79V180h-1.606v-9.242h3.25c1.067 0 1.89.239 2.47.717.579.478.869 1.17.869 2.076 0 .618-.15 1.136-.45 1.555-.297.415-.711.734-1.245.958l2.076 3.853V180h-1.72l-1.854-3.561zm-1.79-1.289h1.651c.541 0 .965-.135 1.269-.406.305-.275.457-.649.457-1.123 0-.496-.141-.878-.425-1.149-.279-.271-.698-.411-1.257-.419h-1.695v3.097zm9.382 4.977c-.977 0-1.771-.307-2.38-.92-.605-.618-.908-1.439-.908-2.463v-.191c0-.685.131-1.297.394-1.834a3.028 3.028 0 011.117-1.263 2.94 2.94 0 011.6-.451c.935 0 1.656.298 2.164.895.512.597.768 1.441.768 2.533v.622h-4.488c.047.567.235 1.015.565 1.345.335.33.754.496 1.257.496.707 0 1.282-.286 1.727-.857l.831.793c-.275.411-.643.73-1.104.959a3.458 3.458 0 01-1.543.336zm-.184-5.884c-.423 0-.766.148-1.028.444-.258.296-.423.709-.495 1.238h2.939v-.114c-.034-.517-.172-.906-.413-1.168-.241-.267-.575-.4-1.003-.4zm6.964 4.653c.385 0 .704-.113.958-.337.254-.224.389-.501.406-.831h1.454c-.017.427-.15.827-.4 1.199-.25.368-.588.66-1.016.876a3.02 3.02 0 01-1.383.324c-.961 0-1.723-.311-2.286-.933-.562-.622-.844-1.481-.844-2.577v-.159c0-1.045.279-1.881.838-2.507.559-.631 1.32-.946 2.285-.946.817 0 1.481.239 1.993.717.517.474.788 1.098.813 1.873h-1.454c-.017-.394-.152-.718-.406-.971-.25-.254-.569-.381-.958-.381-.5 0-.885.182-1.156.546-.271.359-.408.907-.412 1.644v.247c0 .745.133 1.301.4 1.67.27.364.66.546 1.168.546zm8.144.431c-.453.533-1.096.8-1.93.8-.745 0-1.31-.218-1.695-.654-.381-.436-.571-1.066-.571-1.891v-4.45h1.542v4.43c0 .872.362 1.308 1.086 1.308.749 0 1.254-.269 1.517-.806v-4.932h1.542V180h-1.453l-.038-.673zm6.658-4.786a3.793 3.793 0 00-.628-.051c-.707 0-1.183.271-1.428.813V180h-1.543v-6.868h1.473l.038.768c.372-.597.889-.895 1.549-.895.22 0 .402.03.546.089l-.007 1.447zm4.571 0a3.814 3.814 0 00-.629-.051c-.707 0-1.183.271-1.428.813V180h-1.543v-6.868h1.473l.038.768c.373-.597.889-.895 1.549-.895.22 0 .402.03.546.089l-.006 1.447zm3.872 5.586c-.978 0-1.771-.307-2.381-.92-.605-.618-.907-1.439-.907-2.463v-.191c0-.685.131-1.297.393-1.834a3.035 3.035 0 011.117-1.263 2.945 2.945 0 011.6-.451c.935 0 1.657.298 2.164.895.513.597.769 1.441.769 2.533v.622h-4.488c.046.567.235 1.015.565 1.345.334.33.753.496 1.257.496.706 0 1.282-.286 1.726-.857l.832.793a2.8 2.8 0 01-1.105.959 3.457 3.457 0 01-1.542.336zm-.184-5.884c-.424 0-.766.148-1.029.444-.258.296-.423.709-.495 1.238h2.939v-.114c-.034-.517-.171-.906-.412-1.168-.242-.267-.576-.4-1.003-.4zm5.573-1.111l.044.793c.508-.613 1.175-.92 2-.92 1.43 0 2.158.819 2.183 2.456V180h-1.542v-4.45c0-.436-.095-.757-.286-.965-.186-.211-.493-.317-.92-.317-.622 0-1.086.281-1.39.844V180h-1.543v-6.868h1.454zm8.626 5.764c.385 0 .705-.113.959-.337.254-.224.389-.501.406-.831h1.454a2.287 2.287 0 01-.4 1.199c-.25.368-.588.66-1.016.876a3.025 3.025 0 01-1.384.324c-.96 0-1.722-.311-2.285-.933-.563-.622-.844-1.481-.844-2.577v-.159c0-1.045.279-1.881.838-2.507.558-.631 1.32-.946 2.285-.946.817 0 1.481.239 1.993.717.516.474.787 1.098.813 1.873h-1.454c-.017-.394-.152-.718-.406-.971-.25-.254-.569-.381-.959-.381-.499 0-.884.182-1.155.546-.271.359-.408.907-.413 1.644v.247c0 .745.134 1.301.4 1.67.271.364.66.546 1.168.546zm7.008 1.231c-.977 0-1.771-.307-2.38-.92-.605-.618-.908-1.439-.908-2.463v-.191c0-.685.131-1.297.394-1.834a3.028 3.028 0 011.117-1.263 2.939 2.939 0 011.599-.451c.936 0 1.657.298 2.165.895.512.597.768 1.441.768 2.533v.622h-4.488c.047.567.235 1.015.565 1.345.334.33.753.496 1.257.496.707 0 1.282-.286 1.727-.857l.831.793c-.275.411-.643.73-1.104.959a3.462 3.462 0 01-1.543.336zm-.184-5.884c-.423 0-.766.148-1.028.444-.258.296-.423.709-.495 1.238h2.939v-.114c-.034-.517-.172-.906-.413-1.168-.241-.267-.576-.4-1.003-.4zm10.975.298a3.793 3.793 0 00-.628-.051c-.707 0-1.183.271-1.429.813V180h-1.542v-6.868h1.473l.038.768c.372-.597.888-.895 1.549-.895.22 0 .402.03.545.089l-.006 1.447zm5.135 4.786c-.452.533-1.096.8-1.929.8-.745 0-1.31-.218-1.695-.654-.381-.436-.571-1.066-.571-1.891v-4.45h1.542v4.43c0 .872.362 1.308 1.085 1.308.75 0 1.255-.269 1.518-.806v-4.932h1.542V180h-1.454l-.038-.673zm4.704.673h-1.543v-9.75h1.543V180zm4.71.127c-.978 0-1.771-.307-2.38-.92-.606-.618-.908-1.439-.908-2.463v-.191c0-.685.131-1.297.393-1.834a3.03 3.03 0 011.118-1.263 2.939 2.939 0 011.599-.451c.935 0 1.657.298 2.165.895.512.597.768 1.441.768 2.533v.622h-4.488c.047.567.235 1.015.565 1.345.334.33.753.496 1.257.496.707 0 1.282-.286 1.726-.857l.832.793c-.275.411-.643.73-1.105.959a3.457 3.457 0 01-1.542.336zm-.184-5.884c-.423 0-.766.148-1.028.444-.259.296-.424.709-.496 1.238h2.939v-.114c-.033-.517-.171-.906-.412-1.168-.241-.267-.576-.4-1.003-.4z" fill="#3C4043"/><path d="M126.812 198.057h-3.697v3.023h4.295v.92h-5.42v-8.531h5.362v.926h-4.237v2.742h3.697v.92zm3.768 2.472l1.57-4.869h1.108l-2.274 6.34h-.826l-2.297-6.34h1.108l1.611 4.869zm6.27 1.588c-.86 0-1.559-.281-2.098-.844-.539-.566-.809-1.322-.809-2.267v-.199c0-.629.119-1.19.358-1.682a2.81 2.81 0 011.008-1.16 2.535 2.535 0 011.406-.422c.824 0 1.465.271 1.922.814.457.543.685 1.321.685 2.332v.452h-4.295c.016.625.198 1.13.545 1.517.352.383.797.574 1.336.574.383 0 .707-.078.973-.234.265-.156.498-.363.697-.621l.662.516c-.531.816-1.328 1.224-2.39 1.224zm-.135-5.683c-.438 0-.805.16-1.102.48-.297.316-.48.762-.551 1.336h3.176v-.082c-.031-.551-.179-.977-.445-1.277-.266-.305-.625-.457-1.078-.457zm6.931.199a3.17 3.17 0 00-.533-.041c-.711 0-1.193.303-1.447.908v4.5h-1.084v-6.34h1.055l.017.733c.356-.567.86-.85 1.512-.85.211 0 .371.027.48.082v1.008zm3.182 3.779l1.477-4.752h1.16l-2.549 7.319c-.395 1.054-1.021 1.582-1.881 1.582l-.205-.018-.404-.076v-.879l.293.023c.367 0 .652-.074.855-.222.207-.149.377-.42.51-.815l.24-.644-2.262-6.27h1.184l1.582 4.752zm12.199.094l1.219-4.846h1.084l-1.846 6.34h-.879l-1.541-4.805-1.5 4.805h-.878l-1.84-6.34h1.078l1.248 4.746 1.476-4.746h.873l1.506 4.846zm6.041 1.611c-.859 0-1.558-.281-2.097-.844-.539-.566-.809-1.322-.809-2.267v-.199c0-.629.119-1.19.358-1.682a2.814 2.814 0 011.007-1.16 2.54 2.54 0 011.407-.422c.824 0 1.464.271 1.921.814.457.543.686 1.321.686 2.332v.452h-4.295c.016.625.197 1.13.545 1.517.352.383.797.574 1.336.574.383 0 .707-.078.973-.234.265-.156.498-.363.697-.621l.662.516c-.531.816-1.328 1.224-2.391 1.224zm-.134-5.683c-.438 0-.805.16-1.102.48-.297.316-.48.762-.551 1.336h3.176v-.082c-.031-.551-.18-.977-.445-1.277-.266-.305-.625-.457-1.078-.457zm6.498 5.683c-.86 0-1.559-.281-2.098-.844-.539-.566-.809-1.322-.809-2.267v-.199c0-.629.12-1.19.358-1.682a2.81 2.81 0 011.008-1.16 2.535 2.535 0 011.406-.422c.824 0 1.465.271 1.922.814.457.543.685 1.321.685 2.332v.452h-4.295c.016.625.198 1.13.545 1.517.352.383.797.574 1.336.574.383 0 .707-.078.973-.234.266-.156.498-.363.697-.621l.662.516c-.531.816-1.328 1.224-2.39 1.224zm-.135-5.683c-.438 0-.805.16-1.102.48-.297.316-.48.762-.55 1.336h3.175v-.082c-.031-.551-.179-.977-.445-1.277-.266-.305-.625-.457-1.078-.457zm5.637 2.63l-.68.709V202h-1.084v-9h1.084v5.443l.58-.697 1.975-2.086h1.318l-2.467 2.649 2.754 3.691h-1.271l-2.209-2.936zm7.002-.293c0-.621.121-1.179.363-1.675a2.765 2.765 0 011.019-1.149 2.797 2.797 0 011.494-.404c.864 0 1.561.299 2.092.896.535.598.803 1.393.803 2.385v.076c0 .618-.119 1.172-.357 1.664-.235.489-.573.87-1.014 1.143-.438.273-.941.41-1.512.41-.859 0-1.556-.299-2.092-.896-.531-.598-.796-1.389-.796-2.373v-.077zm1.089.129c0 .704.163 1.268.487 1.694.328.426.765.638 1.312.638.551 0 .988-.214 1.313-.644.324-.434.486-1.039.486-1.817 0-.695-.166-1.257-.498-1.687a1.563 1.563 0 00-1.313-.65c-.535 0-.966.212-1.294.638-.329.426-.493 1.035-.493 1.828zm7.067-3.24l.035.797c.484-.609 1.117-.914 1.898-.914 1.34 0 2.016.756 2.028 2.268V202h-1.084v-4.195c-.004-.457-.11-.795-.317-1.014-.203-.219-.521-.328-.955-.328-.351 0-.66.094-.926.281a1.928 1.928 0 00-.621.738V202h-1.084v-6.34h1.026zm10.195-2.191l2.789 6.961 2.789-6.961h1.459V202h-1.125v-3.322l.106-3.586-2.801 6.908h-.861l-2.795-6.891.111 3.569V202h-1.125v-8.531h1.453zm8.567 5.302c0-.621.121-1.179.363-1.675a2.765 2.765 0 011.019-1.149 2.797 2.797 0 011.494-.404c.864 0 1.561.299 2.092.896.535.598.803 1.393.803 2.385v.076c0 .618-.119 1.172-.357 1.664-.235.489-.573.87-1.014 1.143-.438.273-.942.41-1.512.41-.859 0-1.556-.299-2.092-.896-.531-.598-.796-1.389-.796-2.373v-.077zm1.089.129c0 .704.162 1.268.487 1.694.328.426.765.638 1.312.638.551 0 .988-.214 1.313-.644.324-.434.486-1.039.486-1.817 0-.695-.166-1.257-.498-1.687a1.563 1.563 0 00-1.313-.65c-.535 0-.966.212-1.294.638-.329.426-.493 1.035-.493 1.828zm7.067-3.24l.035.797c.484-.609 1.117-.914 1.898-.914 1.34 0 2.016.756 2.028 2.268V202h-1.084v-4.195c-.004-.457-.11-.795-.317-1.014-.203-.219-.521-.328-.955-.328-.351 0-.66.094-.926.281a1.928 1.928 0 00-.621.738V202h-1.084v-6.34h1.026zm5.332 3.117c0-.972.23-1.754.691-2.343.461-.594 1.065-.891 1.811-.891.742 0 1.33.254 1.763.762V193h1.084v9h-.996l-.052-.68c-.434.532-1.038.797-1.811.797-.734 0-1.334-.301-1.799-.902-.461-.602-.691-1.387-.691-2.356v-.082zm1.084.123c0 .719.148 1.282.445 1.688.297.406.707.609 1.231.609.687 0 1.189-.308 1.505-.926v-2.912c-.324-.597-.822-.896-1.494-.896-.531 0-.945.205-1.242.615-.297.41-.445 1.018-.445 1.822zm9.867 3.1c-.063-.125-.113-.348-.152-.668-.504.523-1.106.785-1.805.785-.625 0-1.139-.176-1.541-.527a1.728 1.728 0 01-.598-1.348c0-.66.25-1.172.75-1.535.504-.367 1.211-.551 2.121-.551h1.055v-.498c0-.379-.113-.679-.34-.902-.226-.227-.56-.34-1.002-.34-.386 0-.711.098-.972.293-.262.195-.393.432-.393.709h-1.09c0-.316.112-.621.334-.914.227-.297.531-.531.914-.703a3.097 3.097 0 011.272-.258c.73 0 1.302.184 1.716.551.415.363.629.865.645 1.506v2.918c0 .582.074 1.044.223 1.388V202h-1.137zm-1.799-.826c.34 0 .662-.088.967-.264.305-.176.525-.404.662-.685v-1.301h-.85c-1.328 0-1.992.388-1.992 1.166 0 .34.114.605.34.797.227.191.518.287.873.287zm6.393-.762l1.476-4.752h1.16l-2.548 7.319c-.395 1.054-1.022 1.582-1.881 1.582l-.205-.018-.405-.076v-.879l.293.023c.368 0 .653-.074.856-.222.207-.149.377-.42.51-.815l.24-.644-2.262-6.27h1.184l1.582 4.752zm2.941 3.287l-.615-.422c.367-.511.558-1.039.574-1.582v-.978h1.061v.849c0 .395-.098.789-.293 1.184a2.74 2.74 0 01-.727.949zm7.377-4.388l.164 1.125.24-1.014 1.688-5.953h.949l1.647 5.953.234 1.031.182-1.148 1.324-5.836h1.131L255.695 202h-1.025l-1.758-6.217-.135-.65-.134.65L250.82 202h-1.025l-2.063-8.531h1.125l1.348 5.842zm11.086 2.806c-.859 0-1.559-.281-2.098-.844-.539-.566-.808-1.322-.808-2.267v-.199c0-.629.119-1.19.357-1.682a2.81 2.81 0 011.008-1.16 2.537 2.537 0 011.406-.422c.824 0 1.465.271 1.922.814.457.543.686 1.321.686 2.332v.452h-4.295c.015.625.197 1.13.545 1.517.351.383.797.574 1.336.574.382 0 .707-.078.972-.234.266-.156.498-.363.698-.621l.662.516c-.532.816-1.328 1.224-2.391 1.224zm-.135-5.683c-.437 0-.804.16-1.101.48-.297.316-.481.762-.551 1.336h3.176v-.082c-.032-.551-.18-.977-.446-1.277-.265-.305-.625-.457-1.078-.457zm3.604 2.343c0-.972.23-1.754.691-2.343.461-.594 1.065-.891 1.811-.891.742 0 1.33.254 1.763.762V193h1.084v9h-.996l-.052-.68c-.434.532-1.038.797-1.811.797-.734 0-1.334-.301-1.799-.902-.461-.602-.691-1.387-.691-2.356v-.082zm1.084.123c0 .719.148 1.282.445 1.688.297.406.707.609 1.231.609.687 0 1.189-.308 1.505-.926v-2.912c-.324-.597-.822-.896-1.494-.896-.531 0-.945.205-1.242.615-.297.41-.445 1.018-.445 1.822zm6.978-3.24l.035.797c.485-.609 1.118-.914 1.899-.914 1.34 0 2.015.756 2.027 2.268V202h-1.084v-4.195c-.004-.457-.109-.795-.316-1.014-.203-.219-.522-.328-.955-.328-.352 0-.66.094-.926.281a1.91 1.91 0 00-.621.738V202h-1.084v-6.34h1.025zm8.227 6.457c-.86 0-1.559-.281-2.098-.844-.539-.566-.808-1.322-.808-2.267v-.199c0-.629.119-1.19.357-1.682a2.81 2.81 0 011.008-1.16 2.535 2.535 0 011.406-.422c.824 0 1.465.271 1.922.814.457.543.685 1.321.685 2.332v.452h-4.294c.015.625.197 1.13.544 1.517.352.383.797.574 1.336.574.383 0 .707-.078.973-.234.266-.156.498-.363.697-.621l.662.516c-.531.816-1.328 1.224-2.39 1.224zm-.135-5.683c-.437 0-.805.16-1.102.48-.296.316-.48.762-.55 1.336h3.176v-.082c-.032-.551-.18-.977-.446-1.277-.265-.305-.625-.457-1.078-.457zm7.559 3.884a.788.788 0 00-.334-.679c-.219-.164-.604-.305-1.155-.422-.546-.117-.982-.258-1.306-.422-.321-.164-.559-.359-.715-.586a1.419 1.419 0 01-.229-.809c0-.519.219-.959.657-1.318.441-.359 1.004-.539 1.687-.539.719 0 1.301.186 1.746.557.449.371.674.845.674 1.423h-1.09c0-.296-.127-.552-.381-.767-.25-.215-.566-.322-.949-.322-.394 0-.703.086-.926.257a.814.814 0 00-.334.674c0 .262.104.459.311.592.207.133.58.26 1.119.381.543.121.982.266 1.318.433.336.168.584.372.745.61.164.234.246.521.246.861 0 .567-.227 1.022-.68 1.365-.453.34-1.041.51-1.764.51-.508 0-.957-.09-1.347-.269a2.22 2.22 0 01-.92-.75 1.84 1.84 0 01-.328-1.049h1.084c.019.363.164.652.433.867.274.211.633.316 1.078.316.41 0 .739-.082.985-.246.25-.168.375-.39.375-.668zm2.232-1.541c0-.972.231-1.754.691-2.343.461-.594 1.065-.891 1.811-.891.742 0 1.33.254 1.764.762V193h1.084v9h-.996l-.053-.68c-.434.532-1.037.797-1.811.797-.734 0-1.334-.301-1.799-.902-.46-.602-.691-1.387-.691-2.356v-.082zm1.084.123c0 .719.149 1.282.445 1.688.297.406.707.609 1.231.609.687 0 1.189-.308 1.506-.926v-2.912c-.325-.597-.823-.896-1.494-.896-.532 0-.946.205-1.243.615-.296.41-.445 1.018-.445 1.822zm9.867 3.1c-.062-.125-.113-.348-.152-.668-.504.523-1.106.785-1.805.785-.625 0-1.138-.176-1.541-.527a1.73 1.73 0 01-.597-1.348c0-.66.25-1.172.75-1.535.503-.367 1.21-.551 2.121-.551h1.054v-.498c0-.379-.113-.679-.34-.902-.226-.227-.56-.34-1.001-.34-.387 0-.711.098-.973.293-.262.195-.393.432-.393.709h-1.09c0-.316.112-.621.334-.914a2.32 2.32 0 01.915-.703c.386-.172.81-.258 1.271-.258.73 0 1.303.184 1.717.551.414.363.629.865.644 1.506v2.918c0 .582.075 1.044.223 1.388V202h-1.137zm-1.799-.826c.34 0 .663-.088.967-.264a1.59 1.59 0 00.662-.685v-1.301h-.849c-1.328 0-1.992.388-1.992 1.166 0 .34.113.605.339.797.227.191.518.287.873.287zm6.393-.762l1.477-4.752h1.16l-2.549 7.319c-.395 1.054-1.022 1.582-1.881 1.582l-.205-.018-.404-.076v-.879l.293.023c.367 0 .652-.074.855-.222.207-.149.377-.42.51-.815l.24-.644-2.262-6.27h1.184l1.582 4.752z" fill="#75797E"/><path d="M320.917 196.833L318 199.75l-2.916-2.917h5.833z" fill="#5F6368"/><path d="M111.75 194.167h-8.125a.542.542 0 00-.542.541v3.792h1.083v-3.25h7.584v1.625l2.708-2.167-2.708-2.166v1.625zm-6.5 8.666h8.125a.545.545 0 00.383-.158.545.545 0 00.158-.383V198.5h-1.083v3.25h-7.583v-1.625l-2.709 2.167 2.709 2.166v-1.625z" fill="#75797E"/><path d="M62.25 71.833h-6.875a.458.458 0 00-.458.458V75.5h.917v-2.75h6.416v1.375l2.292-1.834-2.292-1.833v1.375zm-5.5 7.333h6.875a.458.458 0 00.459-.458V75.5h-.917v2.75H56.75v-1.375l-2.291 1.833 2.291 1.833v-1.375zM82.25 135.833h-6.875a.458.458 0 00-.458.458v3.209h.917v-2.75h6.416v1.375l2.292-1.834-2.292-1.833v1.375zm-5.5 7.333h6.875a.458.458 0 00.459-.458V139.5h-.917v2.75H76.75v-1.375l-2.291 1.833 2.291 1.833v-1.375zM222.25 71.833h-6.875a.459.459 0 00-.458.458V75.5h.917v-2.75h6.416v1.375l2.292-1.834-2.292-1.833v1.375zm-5.5 7.333h6.875a.457.457 0 00.459-.458V75.5h-.917v2.75h-6.417v-1.375l-2.291 1.833 2.291 1.833v-1.375zM222.25 135.833h-6.875a.459.459 0 00-.458.458v3.209h.917v-2.75h6.416v1.375l2.292-1.834-2.292-1.833v1.375zm-5.5 7.333h6.875a.457.457 0 00.459-.458V139.5h-.917v2.75h-6.417v-1.375l-2.291 1.833 2.291 1.833v-1.375z" fill="#D97CBB"/><g filter="url(#filter1_d)" fill-rule="evenodd" clip-rule="evenodd"><path d="M310.349 222.83c.21.19.355.326.804.752.44.418.653.615.847.78.081.069.15.251.178.523a3.48 3.48 0 01-.037.884.525.525 0 00.511.619 129.206 129.206 0 011.416.023c1.625.028 2.454.02 3.05-.055.636-.08 1.292-.848 1.858-1.813.481.854 1.147 1.687 1.819 1.795.214.034.472.045.772.038a10.839 10.839 0 001.107-.084.525.525 0 00.438-.66 5.183 5.183 0 01-.147-.852 2.061 2.061 0 01-.004-.269c.008-.137.01-.214.014-.391l.003-.124c.008-.189.033-.368.115-.759.036-.17.207-.494.476-.896.08-.12.168-.245.261-.374a17.859 17.859 0 01.815-1.034c.415-.594.857-1.567 1.02-2.135.156-.547.28-1.553.357-2.543.042-.561.058-1.013.058-1.723v-.227-.311a32.122 32.122 0 00-.029-.972c-.045-1.139-.669-1.875-1.589-2.017-.782-.121-1.735.529-1.735.529s-.212-.732-.355-.958c-.233-.363-.832-.826-1.29-.916-.471-.092-1.029-.081-1.542.009-.449.081-.897.482-1.156.914-.185.309-.011-.016-.196-.335-.256-.44-.853-.834-1.421-.95a3.24 3.24 0 00-1.537.088c-.648.194-.752.687-.777.546-.087-.474-.095-.442-.148-.78-.2-1.254-.423-2.121-.762-2.878.019.044-.124-.283-.176-.395a6.491 6.491 0 00-.28-.541c-.306-.523-.657-.915-1.097-1.138-.764-.386-1.908-.198-2.451.435-.539.63-.629 1.682-.493 2.985.052.506.233 1.429.398 2.111.058.237.109.453.203.852l.032.136c.073.302.136.55.212.823-.008-.028.136.482.166.595l.021.075a22.534 22.534 0 01.34 1.517c.124.658.125.521.005.38-.082-.096-.16-.184-.235-.266a4.127 4.127 0 00-.39-.375c-.889-.726-1.433-1.047-2.18-1.118-1.226-.118-2.389.748-2.563 1.917-.108.716-.073 1.046.258 1.679.182.342.491.755 1.066 1.466l.071.087c.706.871.783.967.951 1.211.454.659 1.56 2.551 1.761 2.805l1.187 1.315z" fill="#000"/><path d="M307.266 216.836l-.07-.086c-.528-.652-.818-1.04-.954-1.296-.214-.409-.226-.519-.149-1.033.091-.605.745-1.092 1.426-1.027.471.045.883.288 1.615.886.079.065.174.158.284.276.064.07.133.147.207.234.111.13.486.589.431.522.081.098.139.174.206.267.131.188.206.292.306.426-.047-.063.301.418.374.488.39.372.955.059.92-.437a1.921 1.921 0 00-.066-.329c-.161-1.147-.218-1.515-.346-2.194a23.532 23.532 0 00-.357-1.591l-.022-.081c-.032-.119-.178-.637-.168-.602a20.181 20.181 0 01-.202-.786l-.032-.133a86.015 86.015 0 00-.204-.859c-.154-.637-.328-1.522-.374-1.97-.106-1.014-.033-1.868.246-2.194.217-.254.835-.356 1.18-.181.225.114.45.366.664.731.08.138.156.285.234.453l.17.382c.294.658.497 1.443.683 2.614.055.346.123.739.211 1.22l.052.284c.422 2.29.391 2.116.397 2.299.022.666 1.006.681 1.049.016.014-.211.009-.399-.016-.94l-.006-.152c-.022-.499-.021-.785.009-.948.054-.297.32-.63.566-.704a2.216 2.216 0 011.026-.066c.29.06.628.283.725.449.117.202.217.509.294.89a8.8 8.8 0 01.135.988l.025.334.008.107.007.063a.704.704 0 00.025.095c.01.193.01.193.785.264.231-.28.231-.28.225-.329a5.43 5.43 0 00.094-.697l.044-.452c.052-.476.117-.778.197-.911.099-.166.448-.396.604-.424.393-.07.824-.077 1.157-.013.151.03.519.314.606.45.179.282.353 1.192.451 2.095-.016.059-.016.059.225.402.826-.094.826-.094.803-.243.022-.053.039-.115.064-.21.059-.224.098-.354.156-.499.04-.101.083-.187.127-.256.169-.265.606-.446.989-.387.412.064.675.373.7 1.021a26.987 26.987 0 01.028 1.239v.23c0 .684-.015 1.111-.055 1.643-.071.915-.19 1.88-.32 2.334-.132.463-.527 1.331-.839 1.783a18.618 18.618 0 00-.834 1.057c-.102.14-.197.276-.285.407-.341.51-.56.925-.631 1.266-.093.443-.126.678-.136.933l-.004.142a8.93 8.93 0 01-.013.353c-.007.127-.005.262.005.405.014.204 0 .483 0 .483s-.177-.016-.375-.012a3.323 3.323 0 01-.581-.025c-.201-.032-.741-.709-1.018-1.236-.423-.807-1.451-.768-1.872-.055-.38.647-.923 1.284-1.085 1.304-.524.066-1.336.074-2.9.047l-.299-.005c-.601-.011-.578.09-.565-.018.035-.308.031-.25 0-.559-.052-.517-.212-.938-.544-1.218a21.69 21.69 0 01-.792-.73 25.455 25.455 0 00-.802-.747l-1.122-1.247c-.123-.158-1.204-2.008-1.697-2.724-.192-.278-.264-.368-1-1.276zm13.31.007v4.843c0 .7 1.05.7 1.05 0v-4.843c0-.7-1.05-.7-1.05 0zm-2.844-.002l.023 4.862c.003.7 1.053.695 1.05-.005l-.023-4.862c-.003-.7-1.053-.695-1.05.005zm-1.692 4.835l-.029-4.796c-.004-.7-1.054-.694-1.05.006l.029 4.797c.005.7 1.055.693 1.05-.007z" fill="#fff"/></g><defs><filter id="filter0_d" x="82.5" y="151" width="256" height="69" filterUnits="userSpaceOnUse" color-interpolation-filters="sRGB"><feFlood flood-opacity="0" result="BackgroundImageFix"/><feColorMatrix in="SourceAlpha" values="0 0 0 0 0 0 0 0 0 0 0 0 0 0 0 0 0 0 127 0"/><feOffset dx="-1.5" dy="-1"/><feGaussianBlur stdDeviation="2"/><feColorMatrix values="0 0 0 0 0.174392 0 0 0 0 0.184317 0 0 0 0 0.204167 0 0 0 0.2 0"/><feBlend in2="BackgroundImageFix" result="effect1_dropShadow"/><feBlend in="SourceGraphic" in2="effect1_dropShadow" result="shape"/></filter><filter id="filter1_d" x="303.923" y="203.461" width="23.235" height="24.581" filterUnits="userSpaceOnUse" color-interpolation-filters="sRGB"><feFlood flood-opacity="0" result="BackgroundImageFix"/><feColorMatrix in="SourceAlpha" values="0 0 0 0 0 0 0 0 0 0 0 0 0 0 0 0 0 0 127 0"/><feOffset dy=".539"/><feGaussianBlur stdDeviation=".539"/><feColorMatrix values="0 0 0 0 0 0 0 0 0 0 0 0 0 0 0 0 0 0 0.298656 0"/><feBlend in2="BackgroundImageFix" result="effect1_dropShadow"/><feBlend in="SourceGraphic" in2="effect1_dropShadow" result="shape"/></filter></defs></svg>