<svg width="1365" height="664" fill="none" xmlns="http://www.w3.org/2000/svg"><path d="M1365 0H1v663h1364V0z" fill="#fff"/><path fill-rule="evenodd" clip-rule="evenodd" d="M1237.7 37a1 1 0 00.3-.8v-9.1l4.6-6.2c.3-.4.2-1-.2-1.4a1 1 0 00-.6-.2h-13.5a1 1 0 00-.6.2 1 1 0 00-.2 1.4l4.7 6.2v5.1c0 .3 0 .6.2.8l4 4c.3.4.9.4 1.3 0zm-3.6-10.6l-3.8-5h9.5l-3.8 5v7.5l-2-2v-5.5z" fill="#B3B3B3" opacity=".8"/><path d="M1287.6 32c-.7 0-1.3.3-1.8.8l-6.6-3.8v-.6-.7l6.5-3.7c.5.5 1.2.7 1.9.7a2.8 2.8 0 002.8-2.7c0-1.5-1.3-2.7-2.8-2.7a2.8 2.8 0 00-2.8 2.7l.1.7-6.6 3.7a2.8 2.8 0 00-1.9-.7 2.8 2.8 0 00-2.7 2.7c0 1.5 1.2 2.7 2.7 2.7a2.8 2.8 0 002-.7l6.6 3.7a2.7 2.7 0 002.6 3.2c1.5 0 2.7-1.1 2.7-2.6a2.7 2.7 0 00-2.7-2.6z" fill="#B3B3B3" opacity=".8"/><g opacity=".8"><path fill="#B3B3B3" d="M1321.7 30.9h22v2.6h-22zm0-9h22v2.6h-22z"/><circle cx="1329.5" cy="23.2" r="3.9" fill="#B3B3B3"/><circle cx="1329.5" cy="23.2" r="1.3" fill="#fff"/><circle cx="1335.9" cy="32.2" r="3.9" fill="#B3B3B3"/><circle cx="1335.9" cy="32.2" r="1.3" fill="#fff"/></g><path opacity=".3" fill="#F5F5F5" d="M84 84h1281v64H84z"/><path d="M595 84h255v579H595V84z" fill="#F5F9FD"/><path fill="#E1E1E1" d="M83 55h1282v1H83zm512 1v607h-1V56zm256 0v607h-1V56zm255 0v607h-1V56zm-767 0v607h-1V56zM84 56v607h-1V56z"/><path fill="#E1E1E1" d="M84 83h1281v1H84zm0 65h1281v1H84zm0 192h1281v1H84zm0 193h1281v1H84zm0-322h1281v1H84zm0 193h1281v1H84zm0 193h1281v1H84zm0-322h1281v1H84zm0 194h1281v1H84zm.6 192.7H1055v1.3H84.6z"/><path d="M357.5 64.7H354v9.8h-1.4v-9.8H349v-1.2h8.5v1.2zm6.5 9c-.5.6-1.3 1-2.4 1-.8 0-1.5-.3-2-.8-.4-.5-.7-1.3-.7-2.2v-5.4h1.5v5.3c0 1.3.4 1.9 1.4 1.9 1.1 0 1.8-.4 2.2-1.2v-6h1.4v8.2H364v-.8zm7.6 1c-1 0-2-.4-2.7-1.1a4 4 0 01-1-3v-.2c0-.8.2-1.5.5-2.2.3-.6.7-1.1 1.3-1.5a3.3 3.3 0 011.8-.5c1 0 1.9.3 2.4 1 .7.7 1 1.7 1 3v.6h-5.6c0 .8.3 1.5.7 2 .5.5 1 .7 1.7.7.5 0 1 0 1.3-.3l.9-.8.8.7a3.4 3.4 0 01-3 1.6zm-.1-7.4c-.6 0-1 .2-1.4.7-.4.4-.7 1-.7 1.7h4v-.1a2.6 2.6 0 00-.5-1.7c-.4-.4-.8-.6-1.4-.6zm16.8-1c0 .6-.1 1.1-.4 1.6a3 3 0 01-1.2 1c.6.2 1 .6 1.4 1 .3.5.5 1 .5 1.6 0 1-.3 1.7-1 2.3-.6.6-1.5.9-2.5.9a3.7 3.7 0 01-2.5-.9 2.9 2.9 0 01-1-2.3c0-.6.2-1 .5-1.6.3-.4.8-.8 1.3-1a2.9 2.9 0 01-1.1-1 2.6 2.6 0 01-.4-1.5c0-1 .3-1.7.9-2.2.6-.6 1.3-.8 2.3-.8 1 0 1.8.2 2.3.8.6.5 1 1.3 1 2.2zm-1.1 5.2a2 2 0 00-2.1-2 2 2 0 00-1.5.5 2 2 0 00-.6 1.5c0 .6.2 1.1.6 1.5.3.3.8.5 1.5.5s1.2-.2 1.5-.5c.4-.4.6-.9.6-1.5zm-2.1-7c-.6 0-1 .2-1.3.5-.4.4-.5.8-.5 1.4 0 .6.1 1 .5 1.4.3.3.7.5 1.3.5s1-.2 1.3-.5c.4-.4.5-.8.5-1.4 0-.5-.1-1-.5-1.3a1.8 1.8 0 00-1.3-.6zm-288.3-1l3.6 9 3.6-9h1.9v11h-1.5v-4.3l.1-4.6-3.6 8.9h-1l-3.7-8.9.2 4.6v4.3h-1.5v-11h1.9zm11.8 6.9c0-.9.1-1.6.5-2.2.3-.6.7-1.1 1.3-1.5.5-.3 1.2-.5 1.9-.5 1.1 0 2 .4 2.7 1.1.7.8 1 1.9 1 3.1v.1a5 5 0 01-.4 2.2 3.4 3.4 0 01-3.3 2c-1.1 0-2-.4-2.7-1.2a4.4 4.4 0 01-1-3v-.2zm1.4.1c0 1 .2 1.6.6 2.2.4.6 1 .8 1.7.8a2 2 0 001.7-.8c.4-.6.6-1.4.6-2.4 0-.9-.2-1.6-.6-2.1a2 2 0 00-1.7-.9 2 2 0 00-1.7.9 3.8 3.8 0 00-.6 2.3zm9.9-4.2v1a3 3 0 012.4-1.1c1.8 0 2.6 1 2.7 3v5.3h-1.4v-5.4c0-.6-.2-1-.4-1.3-.3-.3-.7-.4-1.3-.4a2 2 0 00-1.2.3l-.8 1v5.8h-1.4v-8.2h1.3zm19.5-2l-4.6 10.2h-1.5l4.6-9.8h-6v-1.2h7.5v.8zM30.7 165.1c0 1.6-.3 2.8-.9 3.6-.5.8-1.4 1.2-2.6 1.2-1.1 0-2-.4-2.6-1.1a6 6 0 01-.9-3.5v-1.9c0-1.6.3-2.8.9-3.6.5-.8 1.4-1.2 2.6-1.2 1.2 0 2 .4 2.6 1.2.6.7.9 1.9.9 3.5v1.8zm-1.4-2a5.1 5.1 0 00-.5-2.5c-.3-.5-.9-.8-1.6-.8-.7 0-1.2.3-1.6.8a5 5 0 00-.5 2.5v2.2c0 1.2.2 2 .5 2.6.4.6 1 .9 1.6.9.7 0 1.2-.3 1.6-.8a5 5 0 00.5-2.5v-2.3zm9.3 1.9l-1 .8-1.4.3a3 3 0 01-1.7-.5 3 3 0 01-1-1.3 4.5 4.5 0 01-.4-1.9c0-.7.1-1.4.4-2a3.1 3.1 0 013-1.8c1 0 2 .4 2.5 1.3.7.8 1 1.9 1 3.3v.4c0 2.1-.4 3.7-1.3 4.7-.8 1-2.1 1.5-3.8 1.5h-.3v-1.2h.3a3.9 3.9 0 002.7-.9c.6-.6 1-1.5 1-2.8zm-2.2 0c.5 0 1-.2 1.3-.5.4-.3.7-.6.9-1v-.6c0-1-.2-1.7-.6-2.2-.4-.6-1-.9-1.5-.9-.6 0-1.1.2-1.5.7a2.9 2.9 0 00-.6 1.9c0 .7.2 1.3.6 1.8.3.5.8.7 1.4.7zm6.4 4c0-.2 0-.4.2-.6l.6-.2c.3 0 .5 0 .7.2l.2.6a.8.8 0 01-.2.6c-.2.2-.4.3-.7.3-.3 0-.5-.1-.6-.3a.8.8 0 01-.2-.6zm0-6.6c0-.3 0-.5.2-.6.1-.2.3-.3.6-.3s.5.1.7.3l.2.6a.8.8 0 01-.2.6l-.7.2c-.3 0-.5 0-.6-.2a.8.8 0 01-.2-.6zM54 165c0 1.6-.3 2.8-.9 3.6-.5.8-1.4 1.2-2.6 1.2-1.2 0-2-.4-2.6-1.1a6 6 0 01-.9-3.5v-1.9c0-1.6.3-2.8.9-3.6.5-.8 1.4-1.2 2.6-1.2 1.2 0 2 .4 2.6 1.2.6.7.8 1.9.9 3.5v1.8zm-1.4-2a5.1 5.1 0 00-.5-2.5c-.4-.5-.9-.8-1.6-.8-.7 0-1.2.3-1.6.8a5 5 0 00-.5 2.5v2.2c0 1.2.2 2 .5 2.6.4.6.9.9 1.6.9.7 0 1.2-.3 1.5-.8a5 5 0 00.6-2.5v-2.3zm10.8 2c0 1.6-.3 2.8-.8 3.6-.6.8-1.5 1.2-2.7 1.2-1.1 0-2-.4-2.6-1.1a6 6 0 01-.8-3.5v-1.9c0-1.6.2-2.8.8-3.6.6-.8 1.4-1.2 2.6-1.2 1.2 0 2 .4 2.6 1.2.6.7.9 1.9.9 3.5v1.8zm-1.4-2a5.1 5.1 0 00-.5-2.5c-.3-.5-.8-.8-1.6-.8-.7 0-1.2.3-1.5.8a5 5 0 00-.5 2.5v2.2c0 1.2.1 2 .5 2.6.3.6.8.9 1.5.9s1.2-.3 1.6-.8a5 5 0 00.5-2.5v-2.3zm-31.4-62.4c0 1.7-.3 2.9-.9 3.7-.5.8-1.4 1.2-2.6 1.2-1.1 0-2-.4-2.6-1.2a6 6 0 01-.9-3.5V99c0-1.6.3-2.8.9-3.6.5-.7 1.4-1.1 2.6-1.1 1.2 0 2 .3 2.6 1.1.6.8.9 2 .9 3.5v1.8zm-1.4-1.9a5.1 5.1 0 00-.5-2.6c-.3-.5-.9-.8-1.6-.8-.7 0-1.2.3-1.6.8a5 5 0 00-.5 2.5v2.2c0 1.2.2 2.1.5 2.7.4.5 1 .8 1.6.8.7 0 1.2-.3 1.6-.8a5 5 0 00.5-2.5v-2.3zm10.6-1.5c0 .5-.2 1-.4 1.4a3 3 0 01-1.2 1c.6.3 1 .7 1.3 1.1.4.5.5 1 .5 1.6 0 1-.3 1.7-1 2.3-.6.6-1.4.9-2.5.9a3.7 3.7 0 01-2.5-.9 2.9 2.9 0 01-1-2.3c0-.6.2-1 .5-1.6.4-.4.8-.8 1.4-1a2.9 2.9 0 01-1.2-1 2.6 2.6 0 01-.4-1.5c0-1 .3-1.7 1-2.2.5-.6 1.3-.8 2.2-.8 1 0 1.8.2 2.4.8.6.5.9 1.3.9 2.2zm-1.1 5.1a2 2 0 00-2.1-2 2 2 0 00-1.6.5c-.4.4-.6.9-.6 1.5s.2 1.1.6 1.5c.4.3.9.5 1.5.5s1.2-.2 1.6-.5c.4-.4.5-.9.5-1.5zm-2.1-7c-.6 0-1 .2-1.4.5-.3.4-.5.8-.5 1.4 0 .6.2 1 .5 1.4.3.3.8.5 1.3.5s1-.2 1.4-.5c.3-.4.5-.8.5-1.4s-.2-1-.5-1.4a1.8 1.8 0 00-1.4-.5zm6 9.3c0-.3.1-.5.3-.6.1-.2.3-.3.6-.3s.5.1.7.3l.2.6a.8.8 0 01-.2.5c-.2.2-.4.3-.7.3-.3 0-.5 0-.6-.2a.8.8 0 01-.2-.6zm0-6.7l.3-.6.6-.2c.3 0 .5 0 .7.2l.2.6a.8.8 0 01-.2.6c-.2.2-.4.2-.7.2-.3 0-.5 0-.6-.2a.8.8 0 01-.2-.6zm11.4 2.7c0 1.7-.3 2.9-.9 3.7-.5.8-1.4 1.2-2.6 1.2-1.2 0-2-.4-2.6-1.2a6 6 0 01-.9-3.5V99c0-1.6.3-2.8.9-3.6.5-.7 1.4-1.1 2.6-1.1 1.2 0 2 .3 2.6 1.1.6.8.8 2 .9 3.5v1.8zm-1.4-1.9a5.1 5.1 0 00-.5-2.6c-.4-.5-.9-.8-1.6-.8-.7 0-1.3.3-1.6.8a5 5 0 00-.5 2.5v2.2c0 1.2.2 2.1.5 2.7.4.5.9.8 1.6.8.7 0 1.2-.3 1.5-.8a5 5 0 00.6-2.5v-2.3zm10.8 2c0 1.6-.3 2.8-.8 3.6-.6.8-1.5 1.2-2.7 1.2-1.1 0-2-.4-2.6-1.2a6 6 0 01-.8-3.5V99c0-1.6.2-2.8.8-3.6.6-.7 1.4-1.1 2.6-1.1 1.2 0 2 .3 2.6 1.1.6.8.9 2 .9 3.5v1.8zm-1.4-2a5.1 5.1 0 00-.5-2.6c-.3-.5-.8-.8-1.6-.8-.7 0-1.2.3-1.5.8a5 5 0 00-.5 2.5v2.2c0 1.2.1 2.1.5 2.7.3.5.8.8 1.5.8s1.2-.3 1.6-.8a5 5 0 00.5-2.5v-2.3zM28.4 427.2H27V418l-2.8 1v-1.3l4-1.5h.2v11zm6.8-6.1h1.1a2.3 2.3 0 001.6-.5c.3-.4.5-.8.5-1.4 0-1.3-.6-2-1.9-2a2 2 0 00-1.4.6c-.4.3-.6.8-.6 1.3h-1.4c0-.8.3-1.6 1-2.1a3.5 3.5 0 012.4-.9c1 0 1.9.3 2.4.8.6.6 1 1.3 1 2.3a2.9 2.9 0 01-1.7 2.4c.5.2 1 .5 1.3 1 .3.4.5 1 .5 1.6a3 3 0 01-1 2.3c-.6.6-1.5.9-2.5.9a3.7 3.7 0 01-2.5-.8 2.8 2.8 0 01-1-2.2h1.4c0 .5.2 1 .6 1.3.4.4.9.6 1.5.6.7 0 1.2-.2 1.6-.6.3-.3.5-.8.5-1.5 0-.6-.2-1.1-.6-1.5-.4-.3-1-.5-1.7-.5h-1v-1.1zm7.6 5.4c0-.2 0-.4.2-.6.1-.2.3-.2.6-.2s.5 0 .7.2l.2.6a.8.8 0 01-.2.6l-.7.2c-.3 0-.5 0-.6-.2a.8.8 0 01-.2-.6zm0-6.6c0-.3 0-.5.2-.6.1-.2.3-.3.6-.3s.5 0 .7.2l.2.6a.8.8 0 01-.2.6c-.2.2-.4.3-.7.3-.3 0-.5-.1-.6-.3a.8.8 0 01-.2-.5zm11.3 2.7c0 1.6-.3 2.8-.9 3.6-.5.8-1.4 1.2-2.6 1.2-1.2 0-2-.4-2.6-1.2-.6-.7-.9-1.9-.9-3.5V421c0-1.6.3-2.8.9-3.6.5-.8 1.4-1.2 2.6-1.2 1.2 0 2 .4 2.6 1.1.6.8.8 2 .9 3.5v1.9zm-1.4-2a5.1 5.1 0 00-.5-2.5c-.4-.6-.9-.8-1.6-.8-.7 0-1.3.2-1.6.8a5 5 0 00-.5 2.4v2.3c0 1.2.2 2 .5 2.6.4.6.9.9 1.6.9.7 0 1.2-.3 1.5-.8.4-.6.5-1.4.6-2.6v-2.2zm10.8 2c0 1.6-.3 2.8-.8 3.6-.6.8-1.5 1.2-2.7 1.2-1.1 0-2-.4-2.6-1.2-.5-.7-.8-1.9-.8-3.5V421c0-1.6.2-2.8.8-3.6.6-.8 1.4-1.2 2.6-1.2 1.2 0 2 .4 2.6 1.1.6.8.9 2 .9 3.5v1.9zm-1.4-2a5.1 5.1 0 00-.5-2.5c-.3-.6-.8-.8-1.6-.8-.7 0-1.2.2-1.5.8a5 5 0 00-.5 2.4v2.3c0 1.2.1 2 .5 2.6.3.6.8.9 1.5.9s1.2-.3 1.6-.8c.3-.6.5-1.4.5-2.6v-2.2zm-33.7-122H27v-9.4l-2.8 1V289l4-1.5h.2v11zm9.4 0h-1.4v-9.4l-2.8 1V289l4-1.5h.2v11zm5-.8c0-.3 0-.5.2-.6.1-.2.3-.3.6-.3s.5.1.7.3l.2.6a.8.8 0 01-.2.6l-.7.2c-.3 0-.5 0-.6-.2a.8.8 0 01-.2-.6zm0-6.7c0-.2 0-.4.2-.6l.6-.2c.3 0 .5 0 .7.2l.2.6a.8.8 0 01-.2.6c-.2.2-.4.2-.7.2-.3 0-.5 0-.6-.2a.8.8 0 01-.2-.6zm11.3 2.7c0 1.7-.3 2.9-.9 3.7-.5.8-1.4 1.2-2.6 1.2-1.2 0-2-.4-2.6-1.2a6 6 0 01-.9-3.5v-1.9c0-1.6.3-2.8.9-3.6.5-.7 1.4-1.1 2.6-1.1 1.2 0 2 .4 2.6 1.1.6.8.8 2 .9 3.5v1.8zm-1.4-1.9a5 5 0 00-.5-2.6c-.4-.5-.9-.8-1.6-.8-.7 0-1.3.3-1.6.8a5 5 0 00-.5 2.5v2.2c0 1.2.2 2.1.5 2.7.4.5.9.8 1.6.8.7 0 1.2-.2 1.5-.8.4-.5.5-1.4.6-2.5v-2.3zm10.8 2c0 1.6-.3 2.8-.8 3.6-.6.8-1.5 1.2-2.7 1.2-1.1 0-2-.4-2.6-1.2a6 6 0 01-.8-3.5v-1.9c0-1.6.2-2.8.8-3.6.6-.7 1.4-1.1 2.6-1.1 1.2 0 2 .4 2.6 1.1.6.8.9 2 .9 3.5v1.8zm-1.4-2c0-1.2-.2-2-.5-2.6-.3-.5-.8-.8-1.6-.8-.7 0-1.2.3-1.5.8a5 5 0 00-.5 2.5v2.2c0 1.2.1 2.1.5 2.7.3.5.8.8 1.5.8s1.2-.2 1.6-.8c.3-.5.5-1.4.5-2.5v-2.3zM28.4 556H27v-9.2l-2.8 1v-1.3l4-1.4h.2v11zm5.5-5.4l.5-5.5H40v1.3h-4.4l-.3 3a3.5 3.5 0 011.8-.5c1 0 1.8.3 2.4 1 .6.7.9 1.6.9 2.7s-.3 2-1 2.7c-.5.6-1.4 1-2.5 1-1 0-1.8-.3-2.4-.9a3.2 3.2 0 01-1-2.2h1.3c0 .6.3 1.1.7 1.4.3.3.8.5 1.4.5.7 0 1.2-.2 1.5-.7.4-.4.6-1 .6-1.8 0-.7-.2-1.3-.6-1.8a2 2 0 00-1.6-.6c-.6 0-1.1.1-1.4.4l-.4.3-1.1-.3zm8.9 4.8c0-.3 0-.5.2-.6.1-.2.3-.3.6-.3s.5 0 .7.2l.2.6a.8.8 0 01-.2.6c-.2.2-.4.3-.7.3-.3 0-.5-.1-.6-.3a.8.8 0 01-.2-.5zm0-6.7c0-.3 0-.5.2-.6.1-.2.3-.3.6-.3s.5.1.7.3l.2.6a.8.8 0 01-.2.6l-.7.2c-.3 0-.5 0-.6-.2a.8.8 0 01-.2-.6zm11.3 2.7c0 1.6-.3 2.9-.9 3.7-.5.8-1.4 1.1-2.6 1.1-1.2 0-2-.3-2.6-1.1-.6-.8-.9-2-.9-3.5v-1.9c0-1.6.3-2.8.9-3.6.5-.7 1.4-1.1 2.6-1.1 1.2 0 2 .3 2.6 1 .6.9.8 2 .9 3.6v1.8zm-1.4-1.9a5 5 0 00-.5-2.6c-.4-.5-.9-.8-1.6-.8-.7 0-1.3.3-1.6.8a5 5 0 00-.5 2.5v2.2c0 1.2.2 2 .5 2.6.4.6.9.9 1.6.9.7 0 1.2-.3 1.5-.8.4-.5.5-1.4.6-2.5v-2.3zm10.8 1.9c0 1.6-.3 2.9-.8 3.7-.6.8-1.5 1.1-2.7 1.1-1.1 0-2-.3-2.6-1.1-.5-.8-.8-2-.8-3.5v-1.9c0-1.6.2-2.8.8-3.6.6-.7 1.4-1.1 2.6-1.1 1.2 0 2 .3 2.6 1 .6.9.9 2 .9 3.6v1.8zm-1.4-1.9a5 5 0 00-.5-2.6c-.3-.5-.8-.8-1.6-.8-.7 0-1.2.3-1.5.8a5 5 0 00-.5 2.5v2.2c0 1.2.1 2 .5 2.6.3.6.8.9 1.5.9s1.2-.3 1.6-.8c.3-.5.5-1.4.5-2.5v-2.3zm-33.7 71H27V611l-2.8 1v-1.3l4-1.5h.2v11zm10.3-11v1.2h-.3a3.7 3.7 0 00-2.6 1 4 4 0 00-1 2.6 3 3 0 012.3-1c1 0 1.7.3 2.3 1 .6.6.8 1.5.8 2.6s-.3 2-.9 2.7a3.2 3.2 0 01-2.5 1c-1 0-1.9-.4-2.5-1.2a4.8 4.8 0 01-1-3.1v-.6c0-2 .4-3.5 1.3-4.6.9-1 2.1-1.6 3.8-1.6h.3zm-1.8 5c-.5 0-1 0-1.4.3-.4.3-.6.7-.8 1.1v.5c0 1 .2 1.7.6 2.2.4.6 1 .8 1.5.8.7 0 1.2-.2 1.5-.6.4-.5.6-1.1.6-1.9s-.2-1.3-.6-1.8c-.4-.5-.8-.7-1.4-.7zm5.9 5.2c0-.2 0-.4.2-.6l.6-.2c.3 0 .5 0 .7.2l.2.6a.8.8 0 01-.2.6c-.2.2-.4.2-.7.2-.3 0-.5 0-.6-.2a.8.8 0 01-.2-.6zm0-6.6c0-.3 0-.5.2-.6.1-.2.3-.3.6-.3s.5.1.7.3l.2.6a.8.8 0 01-.2.5c-.2.2-.4.3-.7.3-.3 0-.5-.1-.6-.3a.8.8 0 01-.2-.5zm11.3 2.7c0 1.6-.3 2.8-.9 3.6-.5.8-1.4 1.2-2.6 1.2-1.2 0-2-.4-2.6-1.1-.6-.8-.9-2-.9-3.5V614c0-1.6.3-2.8.9-3.6.5-.8 1.4-1.2 2.6-1.2 1.2 0 2 .4 2.6 1.2.6.7.8 1.9.9 3.5v1.8zm-1.4-2a5.1 5.1 0 00-.5-2.5c-.4-.6-.9-.8-1.6-.8-.7 0-1.3.2-1.6.8a5 5 0 00-.5 2.5v2.2c0 1.2.2 2 .5 2.6.4.6.9.9 1.6.9.7 0 1.2-.3 1.5-.8.4-.6.5-1.4.6-2.5v-2.3zm10.8 2c0 1.6-.3 2.8-.8 3.6-.6.8-1.5 1.2-2.7 1.2-1.1 0-2-.4-2.6-1.1-.5-.8-.8-2-.8-3.5V614c0-1.6.2-2.8.8-3.6.6-.8 1.4-1.2 2.6-1.2 1.2 0 2 .4 2.6 1.2.6.7.9 1.9.9 3.5v1.8zm-1.4-2a5.1 5.1 0 00-.5-2.5c-.3-.6-.8-.8-1.6-.8-.7 0-1.2.2-1.5.8a5 5 0 00-.5 2.5v2.2c0 1.2.1 2 .5 2.6.3.6.8.9 1.5.9s1.2-.3 1.6-.8c.3-.6.5-1.4.5-2.5v-2.3zM28.4 234.2H27v-9.3l-2.8 1v-1.2l4-1.5h.2v11zm11.7-4.6c0 1.6-.3 2.8-.8 3.6-.6.8-1.5 1.2-2.6 1.2-1.2 0-2-.4-2.6-1.2a6 6 0 01-1-3.5v-1.8c0-1.6.4-2.8 1-3.6.5-.8 1.3-1.2 2.5-1.2s2 .4 2.6 1.1c.6.8.9 2 1 3.5v1.8zm-1.4-2a5.1 5.1 0 00-.5-2.5c-.3-.6-.8-.8-1.6-.8-.7 0-1.2.2-1.5.8a5 5 0 00-.5 2.4v2.3c0 1.2.1 2 .5 2.6.3.6.9.8 1.6.8.6 0 1.2-.2 1.5-.8a5 5 0 00.5-2.5v-2.3zm4 6c0-.3.1-.5.3-.7.1-.2.3-.2.6-.2s.5 0 .7.2l.2.6a.8.8 0 01-.2.6l-.7.2c-.3 0-.5 0-.6-.2a.8.8 0 01-.2-.6zm0-6.8l.3-.6.6-.2c.3 0 .5 0 .7.2l.2.6a.8.8 0 01-.2.6c-.2.2-.4.3-.7.3-.3 0-.5-.1-.6-.3a.8.8 0 01-.2-.6zm11.4 2.7c0 1.7-.3 3-.9 3.7-.5.8-1.4 1.2-2.6 1.2-1.2 0-2-.4-2.6-1.2a6 6 0 01-.9-3.5v-1.8c0-1.6.3-2.8.9-3.6.5-.8 1.4-1.2 2.6-1.2 1.2 0 2 .4 2.6 1.1.6.8.8 2 .9 3.5v1.8zm-1.4-1.9a5.1 5.1 0 00-.5-2.5c-.4-.6-.9-.8-1.6-.8-.7 0-1.3.2-1.6.8a5 5 0 00-.5 2.4v2.3c0 1.2.2 2 .5 2.6.4.6.9.8 1.6.8.7 0 1.2-.2 1.5-.8.4-.5.5-1.3.6-2.5v-2.3zm10.8 2c0 1.6-.3 2.8-.8 3.6-.6.8-1.5 1.2-2.7 1.2-1.1 0-2-.4-2.6-1.2a6 6 0 01-.8-3.5v-1.8c0-1.6.2-2.8.8-3.6.6-.8 1.4-1.2 2.6-1.2 1.2 0 2 .4 2.6 1.1.6.8.9 2 .9 3.5v1.8zm-1.4-2a5.1 5.1 0 00-.5-2.5c-.3-.6-.8-.8-1.6-.8-.7 0-1.2.2-1.5.8a5 5 0 00-.5 2.4v2.3c0 1.2.1 2 .5 2.6.3.6.8.8 1.5.8s1.2-.2 1.6-.8c.3-.5.5-1.3.5-2.5v-2.3zM28.4 491.6H27v-9.3l-2.8 1v-1.2l4-1.5h.2v11zM39 488h1.5v1.2h-1.5v2.5h-1.4v-2.5h-5v-.9l5-7.6H39v7.3zm-4.8 0h3.4v-5.3l-.2.2-3.2 5.1zm8.5 3c0-.2 0-.4.2-.6.1-.2.3-.3.6-.3s.5.1.7.3l.2.6a.8.8 0 01-.2.6l-.7.2c-.3 0-.5 0-.6-.2a.8.8 0 01-.2-.6zm0-6.7c0-.2 0-.4.2-.6l.6-.2c.3 0 .5 0 .7.2l.2.6a.8.8 0 01-.2.6c-.2.2-.4.2-.7.2-.3 0-.5 0-.6-.2a.8.8 0 01-.2-.6zM54 487c0 1.7-.3 2.9-.9 3.7-.5.8-1.4 1.2-2.6 1.2-1.2 0-2-.4-2.6-1.2-.6-.8-.9-2-.9-3.5v-1.8c0-1.7.3-2.9.9-3.6.5-.8 1.4-1.2 2.6-1.2 1.2 0 2 .4 2.6 1.1.6.8.8 2 .9 3.5v1.8zm-1.4-1.9a5 5 0 00-.5-2.6c-.4-.5-.9-.8-1.6-.8-.7 0-1.3.3-1.6.8a5 5 0 00-.5 2.5v2.3c0 1.1.2 2 .5 2.6.4.6.9.8 1.6.8.7 0 1.2-.2 1.5-.8.4-.5.5-1.3.6-2.5V485zm10.8 2c0 1.6-.3 2.8-.8 3.6-.6.8-1.5 1.2-2.7 1.2-1.1 0-2-.4-2.6-1.2-.5-.8-.8-2-.8-3.5v-1.8c0-1.7.2-2.9.8-3.6.6-.8 1.4-1.2 2.6-1.2 1.2 0 2 .4 2.6 1.1.6.8.9 2 .9 3.5v1.8zm-1.4-2c0-1.2-.2-2-.5-2.6-.3-.5-.8-.8-1.6-.8-.7 0-1.2.3-1.5.8a5 5 0 00-.5 2.5v2.3c0 1.1.1 2 .5 2.6.3.6.8.8 1.5.8s1.2-.2 1.6-.8c.3-.5.5-1.3.5-2.5V485zM28.4 363H27v-9.3l-2.8 1v-1.3l4-1.5h.2v11zm12 0h-7.2v-1l3.8-4.2 1.2-1.6c.2-.4.3-.8.3-1.3s-.2-1-.5-1.4a1.8 1.8 0 00-1.4-.5c-.7 0-1.2.2-1.6.6-.4.4-.6 1-.6 1.6H33c0-1 .3-1.8 1-2.4a3.6 3.6 0 012.6-1c1 0 1.8.3 2.4.9.6.5 1 1.2 1 2 0 1.2-.8 2.5-2.2 4l-2.9 3.1h5.5v1.2zm2.4-.7c0-.3 0-.5.2-.7l.6-.2c.3 0 .5 0 .7.2l.2.6a.8.8 0 01-.2.6c-.2.2-.4.3-.7.3-.3 0-.5-.1-.6-.3a.8.8 0 01-.2-.6zm0-6.7c0-.3 0-.5.2-.6.1-.2.3-.3.6-.3s.5.1.7.3l.2.6a.8.8 0 01-.2.6l-.7.2c-.3 0-.5 0-.6-.2a.8.8 0 01-.2-.6zm11.3 2.7c0 1.6-.3 2.8-.9 3.6-.5.8-1.4 1.2-2.6 1.2-1.2 0-2-.4-2.6-1.1a6 6 0 01-.9-3.5v-1.9c0-1.6.3-2.8.9-3.6.5-.8 1.4-1.2 2.6-1.2 1.2 0 2 .4 2.6 1.2.6.7.8 2 .9 3.5v1.8zm-1.4-2a5.1 5.1 0 00-.5-2.5c-.4-.5-.9-.8-1.6-.8-.7 0-1.2.3-1.6.8a5 5 0 00-.5 2.5v2.2c0 1.2.2 2 .5 2.7.4.5.9.8 1.6.8.7 0 1.2-.3 1.5-.8.4-.5.6-1.4.6-2.5v-2.3zm10.8 2c0 1.6-.3 2.8-.8 3.6-.6.8-1.5 1.2-2.7 1.2-1.1 0-2-.4-2.6-1.1a6 6 0 01-.8-3.5v-1.9c0-1.6.2-2.8.8-3.6.6-.8 1.4-1.2 2.6-1.2 1.2 0 2 .4 2.6 1.2.6.7.9 2 .9 3.5v1.8zm-1.4-2a5.1 5.1 0 00-.5-2.5c-.3-.5-.8-.8-1.6-.8-.7 0-1.2.3-1.5.8a5 5 0 00-.5 2.5v2.2c0 1.2.1 2 .5 2.7.3.5.8.8 1.5.8s1.2-.3 1.6-.8c.3-.5.5-1.4.5-2.5v-2.3zM865.9 64.8h-3.6v9.8H861v-9.8h-3.5v-1.2h8.5v1.2zm3.5 2.6a3 3 0 012.4-1.1c1.8 0 2.6 1 2.6 3v5.3h-1.3v-5.4c0-.6-.2-1-.4-1.3-.3-.3-.7-.4-1.3-.4a2 2 0 00-1.2.3l-.8 1v5.8H868V63h1.4v4.4zm13 6.4c-.6.6-1.4 1-2.5 1-.8 0-1.5-.3-2-.8-.4-.5-.6-1.2-.6-2.2v-5.3h1.4v5.2c0 1.3.5 1.9 1.5 1.9s1.7-.4 2.1-1.2v-6h1.4v8.2h-1.3v-.8zm13.2.8h-1.4v-9.3l-2.8 1V65l4-1.5h.2v11zm11.8-4.7c0 1.7-.3 2.9-.9 3.7-.5.8-1.4 1.2-2.6 1.2-1.2 0-2-.4-2.6-1.2-.6-.8-.8-2-.9-3.5v-1.8c0-1.7.3-2.9.9-3.6.5-.8 1.4-1.2 2.6-1.2 1.2 0 2 .4 2.6 1.1.6.8.8 2 .9 3.5v1.8zM906 68a5 5 0 00-.5-2.6c-.4-.5-.9-.8-1.6-.8-.7 0-1.2.3-1.6.8a5 5 0 00-.5 2.5V70c0 1.2.2 2.1.5 2.7.4.5 1 .8 1.6.8.7 0 1.2-.2 1.5-.8a5 5 0 00.6-2.5v-2.3zm217.8 1.8h-4.6v4.8h-1.5v-11h6.8v1.2h-5.3v3.8h4.6v1.2zm6.8-2.1a4.2 4.2 0 00-.7 0c-1 0-1.6.3-1.9 1.1v5.8h-1.4v-8.1h1.4v.9a2.2 2.2 0 012-1.1l.5.1v1.3zm3.5 6.9h-1.4v-8.2h1.4v8.2zm-1.5-10.3c0-.2 0-.4.2-.6l.6-.2c.2 0 .5 0 .7.2l.2.6a.8.8 0 01-.2.6l-.7.2c-.3 0-.4-.1-.6-.3a.8.8 0 01-.2-.5zm13.6 10.3h-1.4v-9.3l-2.9 1V65l4-1.5h.3v11zm9.4 0h-1.4v-9.3l-2.8 1V65l4-1.5h.2v11z" fill="#8A8C8E"/><path d="M595 148h255v97H595v-97z" fill="#E2D9F7"/><path opacity=".7" d="M613.4 197.3h-1.2v-4.2h-4.6v4.2h-1.2v-9.1h1.2v4h4.6v-4h1.2v9.1zm4.8.2a3 3 0 01-2.3-1 3.4 3.4 0 01-.8-2.4v-.2c0-.7 0-1.3.3-1.8s.7-1 1.1-1.2c.5-.3 1-.5 1.5-.5 1 0 1.6.3 2.1.9.5.6.7 1.4.7 2.5v.5h-4.6c0 .6.2 1.2.6 1.6.4.4.9.6 1.4.6.4 0 .8 0 1-.2.4-.2.6-.4.8-.7l.7.6a2.9 2.9 0 01-2.5 1.3zm-.2-6.1c-.4 0-.8.1-1.2.5-.3.3-.5.8-.5 1.4h3.4a2.2 2.2 0 00-.5-1.4 1.5 1.5 0 00-1.2-.5zm8.4 6a2.5 2.5 0 01-.2-.8 2.6 2.6 0 01-2 .9c-.6 0-1.1-.2-1.6-.6a1.9 1.9 0 01-.6-1.4c0-.7.3-1.3.8-1.7.5-.4 1.3-.6 2.3-.6h1.1v-.5c0-.4-.1-.7-.4-1-.2-.2-.6-.4-1-.4-.5 0-.8.1-1 .4a1 1 0 00-.5.7h-1.2c0-.3.1-.7.4-1 .2-.3.6-.5 1-.7.4-.2.8-.3 1.3-.3.8 0 1.4.2 1.9.6.4.4.7 1 .7 1.6v3.2c0 .6 0 1 .2 1.4v.1h-1.2zm-2-1c.4 0 .8 0 1-.2.4-.2.7-.5.8-.8V194h-1c-1.3 0-2 .5-2 1.3 0 .3 0 .6.3.8.3.2.6.3 1 .3zm4.5-2.5c0-1 .3-1.9.8-2.5.4-.7 1-1 1.9-1s1.4.3 1.9.8v-3.5h1.1v9.6h-1v-.7c-.5.6-1.2.9-2 .9s-1.5-.4-2-1a4 4 0 01-.7-2.5v-.1zm1.2.1c0 .8.1 1.4.4 1.8.4.5.8.7 1.4.7a1.7 1.7 0 001.6-1v-3.1a1.7 1.7 0 00-1.6-1c-.6 0-1 .2-1.4.7-.3.4-.4 1-.4 2zm9.2 3.5a3 3 0 01-2.3-1 3.4 3.4 0 01-.8-2.4v-.2c0-.7 0-1.3.3-1.8s.7-1 1.1-1.2c.5-.3 1-.5 1.5-.5 1 0 1.6.3 2 .9.6.6.8 1.4.8 2.5v.5h-4.6c0 .6.2 1.2.6 1.6.4.4.9.6 1.4.6.4 0 .8 0 1-.2.4-.2.6-.4.8-.7l.7.6a2.9 2.9 0 01-2.5 1.3zm-.2-6.1c-.4 0-.8.1-1.1.5-.4.3-.6.8-.6 1.4h3.4a2.2 2.2 0 00-.5-1.4 1.5 1.5 0 00-1.2-.5zm7.5.2a3.5 3.5 0 00-.6 0c-.8 0-1.3.3-1.6 1v4.7h-1.1v-6.8h1.1v.8c.4-.6 1-.9 1.7-.9l.5.1v1zm8.2 4a.8.8 0 00-.4-.8 3.3 3.3 0 00-1.2-.5 6 6 0 01-1.4-.4 2 2 0 01-.8-.6 1.5 1.5 0 01-.2-.9c0-.6.2-1 .7-1.4a2.8 2.8 0 011.8-.6c.8 0 1.4.2 1.9.6.5.4.7 1 .7 1.5h-1.2a1 1 0 00-.4-.8 1.5 1.5 0 00-1-.3c-.4 0-.7 0-1 .2a.9.9 0 00-.3.8c0 .2 0 .5.3.6l1.2.4a6.3 6.3 0 011.4.5l.8.6c.2.3.3.6.3 1 0 .6-.3 1-.8 1.4a3 3 0 01-1.9.6c-.5 0-1-.1-1.4-.3-.4-.2-.8-.5-1-.8a2 2 0 01-.3-1.2h1.1c0 .4.2.7.5 1 .3.2.7.3 1.1.3.5 0 .8 0 1-.2.4-.2.5-.5.5-.8zm4 1.7h-1.2v-9.6h1.1v9.6zm3 0h-1.1v-6.8h1.2v6.8zm-1.2-8.6a.7.7 0 01.2-.4c.1-.2.3-.2.5-.2s.4 0 .5.2l.2.4c0 .2 0 .4-.2.5l-.5.2c-.2 0-.4 0-.5-.2a.7.7 0 01-.2-.5zm2.9 5.2c0-1 .2-1.9.7-2.5.5-.7 1.1-1 2-1s1.4.3 1.8.8v-3.5h1.2v9.6h-1l-.1-.7c-.5.6-1.1.9-2 .9-.8 0-1.4-.4-2-1a4 4 0 01-.6-2.5v-.1zm1.1.1c0 .8.2 1.4.5 1.8.3.5.8.7 1.3.7a1.7 1.7 0 001.6-1v-3.1a1.7 1.7 0 00-1.6-1c-.5 0-1 .2-1.3.7-.3.4-.5 1-.5 2zm9.2 3.5a3 3 0 01-2.2-1 3.4 3.4 0 01-.9-2.4v-.2c0-.7.1-1.3.4-1.8.3-.5.6-1 1-1.2.5-.3 1-.5 1.6-.5.9 0 1.6.3 2 .9.5.6.8 1.4.8 2.5v.5h-4.6c0 .6.2 1.2.6 1.6.3.4.8.6 1.4.6.4 0 .7 0 1-.2l.8-.7.7.6a2.9 2.9 0 01-2.6 1.3zm-.1-6.1c-.5 0-.9.1-1.2.5-.3.3-.5.8-.6 1.4h3.4a2.2 2.2 0 00-.5-1.4 1.5 1.5 0 00-1.1-.5zm7.4.2a3.5 3.5 0 00-.6 0c-.7 0-1.2.3-1.5 1v4.7h-1.2v-6.8h1.2v.8c.4-.6.9-.9 1.6-.9l.5.1v1zm-69.3 23.7c0 1.4-.2 2.4-.7 3-.5.7-1.2 1-2.2 1-1 0-1.7-.3-2.2-1a5 5 0 01-.7-2.8v-1.6c0-1.3.2-2.3.7-3 .5-.6 1.2-1 2.2-1 1 0 1.7.4 2.2 1 .5.6.7 1.6.7 3v1.4zm-1.2-1.6c0-1-.1-1.7-.4-2.1-.3-.5-.7-.7-1.3-.7-.6 0-1 .2-1.3.7a4.2 4.2 0 00-.4 2v1.9c0 1 .1 1.7.4 2.2.3.5.7.7 1.3.7.6 0 1-.2 1.3-.7.3-.4.4-1.1.4-2v-2zm7.1 1.5l-.8.7a2.5 2.5 0 01-2.5-.1l-1-1.1-.2-1.6c0-.6 0-1.2.3-1.6a2.6 2.6 0 012.5-1.6c.9 0 1.6.4 2.1 1 .5.7.8 1.7.8 2.8v.4c0 1.7-.3 3-1 3.9-.7.8-1.8 1.2-3.2 1.2h-.3v-1h.3a3.2 3.2 0 002.2-.7c.5-.5.8-1.3.8-2.3zm-1.8 0c.5 0 .8-.1 1.1-.4.4-.2.6-.5.8-.9v-.4a3.2 3.2 0 00-.5-1.9c-.4-.5-.8-.7-1.3-.7s-1 .2-1.2.6c-.3.4-.5 1-.5 1.5 0 .7.2 1.2.5 1.6.3.4.7.6 1.2.6zm4.7 3.4c0-.2 0-.4.2-.5l.5-.2c.2 0 .4 0 .6.2l.1.5-.1.5-.6.2c-.2 0-.4 0-.5-.2a.7.7 0 01-.2-.5zm0-5.5c0-.2 0-.4.2-.5.1-.2.3-.2.5-.2.3 0 .4 0 .6.2l.2.5-.2.4c-.2.2-.3.2-.6.2-.2 0-.4 0-.5-.2a.7.7 0 01-.2-.4zm8.8 2.2c0 1.4-.3 2.4-.7 3-.5.7-1.2 1-2.2 1s-1.7-.3-2.2-1a5 5 0 01-.7-2.8v-1.6c0-1.3.2-2.3.7-3 .5-.6 1.2-1 2.2-1 1 0 1.7.4 2.2 1 .4.6.7 1.6.7 3v1.4zm-1.2-1.6c0-1-.1-1.7-.4-2.1-.3-.5-.7-.7-1.3-.7-.6 0-1 .2-1.3.7a4.2 4.2 0 00-.4 2v1.9c0 1 .1 1.7.4 2.2.3.5.7.7 1.3.7.6 0 1-.2 1.3-.7.3-.4.4-1.1.4-2v-2zm8.4 1.6c0 1.4-.2 2.4-.7 3-.5.7-1.2 1-2.2 1-1 0-1.7-.3-2.1-1a5 5 0 01-.8-2.8v-1.6c0-1.3.3-2.3.7-3 .5-.6 1.2-1 2.2-1 1 0 1.7.4 2.2 1 .4.6.7 1.6.7 3v1.4zm-1.2-1.6c0-1-.1-1.7-.4-2.1-.2-.5-.7-.7-1.3-.7-.6 0-1 .2-1.3.7a4.2 4.2 0 00-.4 2v1.9c0 1 .1 1.7.4 2.2.3.5.7.7 1.3.7.6 0 1-.2 1.3-.7.3-.4.4-1.1.4-2v-2zm14.4 1.4h-8.4v-1h8.4v1zm8.6 4.1h-1.2v-7.7l-2.4.8v-1l3.4-1.3h.2v9.2zm9.1-3.9c0 1.4-.2 2.4-.7 3-.5.7-1.2 1-2.2 1-1 0-1.7-.3-2.1-1a5 5 0 01-.8-2.8v-1.6c0-1.3.3-2.3.7-3 .5-.6 1.2-1 2.2-1 1 0 1.7.4 2.2 1 .5.6.7 1.6.7 3v1.4zm-1.2-1.6c0-1-.1-1.7-.4-2.1-.2-.5-.7-.7-1.3-.7-.6 0-1 .2-1.3.7a4.2 4.2 0 00-.4 2v1.9c0 1 .1 1.7.4 2.2.3.5.7.7 1.3.7.6 0 1-.2 1.3-.7.3-.4.4-1.1.4-2v-2zm2.8 5c0-.3 0-.5.2-.6l.5-.2c.2 0 .4 0 .5.2.2.1.2.3.2.5l-.2.5-.5.2c-.2 0-.4 0-.5-.2a.7.7 0 01-.2-.5zm0-5.6c0-.2 0-.4.2-.5 0-.2.3-.2.5-.2s.4 0 .5.2c.2 0 .2.3.2.5l-.2.4c0 .2-.3.2-.5.2s-.4 0-.5-.2a.7.7 0 01-.2-.4zm4.7 1h.9c.5 0 1-.2 1.3-.5.3-.2.4-.6.4-1 0-1.2-.5-1.7-1.6-1.7-.5 0-.9.1-1.2.4-.3.3-.4.7-.4 1.2H672c0-.8.3-1.4.8-1.8a2.9 2.9 0 012-.8c.9 0 1.6.3 2 .7.6.5.8 1.1.8 2a2 2 0 01-.4 1c-.2.5-.6.7-1 1 .5 0 .9.3 1.1.7.3.4.4.8.4 1.4a2.5 2.5 0 01-.8 2 3 3 0 01-2 .6 3.1 3.1 0 01-2.2-.7 2.3 2.3 0 01-.8-1.8h1.2c0 .5.2.9.5 1.2.3.3.7.4 1.2.4.6 0 1-.2 1.3-.4.3-.3.5-.8.5-1.3s-.2-1-.5-1.2c-.3-.3-.8-.5-1.4-.5h-.9v-1zm11.3 1.2c0 1.4-.2 2.4-.7 3-.5.7-1.2 1-2.2 1-1 0-1.7-.3-2.2-1a5 5 0 01-.7-2.8v-1.6c0-1.3.2-2.3.7-3 .5-.6 1.2-1 2.2-1 1 0 1.7.4 2.2 1 .4.6.7 1.6.7 3v1.4zm-1.2-1.6c0-1-.1-1.7-.4-2.1-.3-.5-.7-.7-1.3-.7-.6 0-1 .2-1.3.7a4.2 4.2 0 00-.4 2v1.9c0 1 .1 1.7.4 2.2.3.5.7.7 1.3.7.6 0 1-.2 1.3-.7.3-.4.4-1.1.4-2v-2z" fill="#2C436E"/><path d="M790.9 231h-1.6v-7.3l-2.2.7v-1.3l3.6-1.3h.2v9.2zm4.7-6a2.4 2.4 0 012-1c1.4 0 2.1.9 2.1 2.6v4.4h-1.5v-4.4c0-.5-.1-.8-.3-1-.2-.2-.5-.3-.9-.3-.6 0-1 .3-1.4.8v4.9h-1.5v-9.7h1.5v3.6zm10.6.7h.9c.5 0 .8-.1 1-.3.4-.3.5-.6.5-1 0-.5-.1-.9-.3-1-.3-.3-.6-.5-1-.5-.5 0-.8.2-1 .4-.4.2-.5.5-.5 1h-1.5c0-.5.1-1 .4-1.4l1-.9a3.4 3.4 0 011.5-.3c1 0 1.6.2 2.2.7.5.5.7 1.1.7 2 0 .3 0 .7-.4 1-.2.4-.6.7-1 .9.5.2 1 .4 1.2.8.2.4.4.8.4 1.3 0 .9-.3 1.5-.9 2-.5.5-1.3.7-2.2.7-.9 0-1.6-.2-2.2-.7a2.3 2.3 0 01-.8-1.9h1.5c0 .4.2.8.4 1s.7.4 1.1.4c.5 0 .9-.1 1.1-.4.3-.2.4-.6.4-1 0-.6 0-1-.4-1.2-.3-.2-.7-.4-1.3-.4h-.9v-1.2zm11.5 1.5a5 5 0 01-.8 3c-.5.6-1.2 1-2.2 1-1 0-1.8-.4-2.3-1a4.8 4.8 0 01-.7-3v-1.5a5 5 0 01.7-3c.5-.7 1.3-1 2.3-1 1 0 1.7.3 2.2 1 .5.6.8 1.6.8 2.9v1.5zm-1.6-1.8c0-.8 0-1.5-.3-1.9-.2-.4-.6-.6-1.1-.6-.5 0-.9.2-1.1.6-.3.4-.4 1-.4 1.8v2c0 1 .1 1.6.4 2 .2.4.6.6 1 .6.6 0 1-.2 1.2-.6.2-.4.3-1 .4-1.8v-2zm4.4-1.2l.1.7a2.5 2.5 0 012-.8c.9 0 1.5.3 1.8 1 .5-.7 1.2-1 2.1-1 .8 0 1.3.2 1.7.6.4.4.5 1 .5 1.8v4.5h-1.5v-4.4c0-.5 0-.8-.3-1-.2-.2-.5-.3-.9-.3a1.3 1.3 0 00-1.3 1v4.7h-1.5v-4.5c0-.8-.5-1.2-1.3-1.2-.6 0-1 .3-1.3.8v4.9h-1.5v-6.8h1.5zM832 231h-1.5v-6.8h1.5v6.8zm-1.6-8.6l.2-.6.7-.2c.3 0 .5 0 .6.2a.8.8 0 01.2.6.8.8 0 01-.2.6.9.9 0 01-.6.2.9.9 0 01-.7-.2.8.8 0 01-.2-.6zm4.7 1.8v.8c.6-.6 1.2-1 2-1 1.5 0 2.2.9 2.2 2.5v4.5h-1.5v-4.4c0-.4-.1-.8-.3-1-.2-.2-.5-.3-.9-.3-.6 0-1 .3-1.4.9v4.8h-1.5v-6.8h1.4zm-226.6-60.3l3.6 9 3.6-9h1.9v11h-1.4V166l-3.5 8.9h-1.1l-3.6-8.9.1 4.6v4.3h-1.4v-11h1.8zm16.5 11a3 3 0 01-.2-.9 3.1 3.1 0 01-2.3 1 2.9 2.9 0 01-2-.6 2.2 2.2 0 01-.8-1.8c0-.8.3-1.5 1-2 .6-.4 1.5-.7 2.7-.7h1.4v-.6c0-.5-.2-.9-.5-1.2-.3-.3-.7-.4-1.3-.4a2 2 0 00-1.2.4c-.3.2-.5.5-.5.9h-1.4c0-.4.1-.8.4-1.2a3 3 0 011.2-.9c.5-.2 1-.3 1.6-.3 1 0 1.7.2 2.2.7.6.4.8 1 .9 2v3.7c0 .7 0 1.3.2 1.7v.2H625zm-2.3-1c.4 0 .8-.2 1.2-.4.4-.3.7-.6.9-1V171h-1.1c-1.7 0-2.6.5-2.6 1.5 0 .4.2.8.4 1 .3.3.7.4 1.2.4zm7.2 1h-1.4v-8.2h1.4v8.2zm-1.5-10.4c0-.2 0-.4.2-.5.1-.2.3-.3.6-.3s.5.1.6.3l.2.6a.8.8 0 01-.2.5c-.1.2-.3.2-.6.2s-.5 0-.6-.2a.8.8 0 01-.2-.5zm5 2.2v1a3 3 0 012.5-1.1c1.7 0 2.6 1 2.6 2.9v5.4H637v-5.4c0-.6-.1-1-.4-1.3-.2-.3-.6-.5-1.2-.5a2 2 0 00-1.2.4l-.8 1v5.8H632v-8.2h1.3zm18 4.2c0 1.2-.3 2.2-.9 3a2.7 2.7 0 01-2.3 1.1 3 3 0 01-2.3-1v4h-1.4v-11.3h1.2l.1 1a2.9 2.9 0 012.4-1.1c1 0 1.7.3 2.3 1 .6.8.9 1.8.9 3.2zm-1.4-.2c0-.9-.2-1.6-.6-2.1a1.9 1.9 0 00-1.6-.9 2 2 0 00-2 1.2v3.9a2 2 0 002 1c.6 0 1.2-.2 1.6-.7a4 4 0 00.6-2.4zm8.2 4.2a3 3 0 01-.2-.9 3.1 3.1 0 01-2.3 1 2.9 2.9 0 01-2-.7 2.2 2.2 0 01-.8-1.7c0-.8.3-1.5 1-2 .6-.4 1.5-.7 2.7-.7h1.4v-.6c0-.5-.2-.9-.5-1.2-.3-.3-.7-.4-1.3-.4a2 2 0 00-1.2.4c-.4.2-.5.5-.5.9H653c0-.4.1-.8.4-1.2a3 3 0 011.2-.9c.5-.2 1-.3 1.6-.3 1 0 1.7.2 2.2.7.6.4.8 1 .9 2v3.7c0 .7 0 1.3.2 1.7v.2h-1.4zm-2.3-1c.4 0 .8-.2 1.2-.4.4-.3.7-.6.9-1V171h-1.1c-1.7 0-2.6.5-2.6 1.5 0 .4.1.8.4 1 .3.3.7.4 1.2.4zm5.3-3.2c0-1.2.3-2.3.9-3a2.8 2.8 0 012.3-1.1c1 0 1.8.3 2.4 1v-.9h1.3v8c0 1-.3 1.9-1 2.5-.6.6-1.4.9-2.5.9a4.2 4.2 0 01-1.7-.4 3 3 0 01-1.3-1l.7-.9c.6.8 1.4 1.1 2.2 1.1.7 0 1.2-.1 1.6-.5.4-.4.6-1 .6-1.6v-.7c-.6.6-1.3 1-2.3 1a2.8 2.8 0 01-2.3-1.2 5 5 0 01-.9-3.2zm1.4.2c0 1 .2 1.6.6 2.2.4.5.9.7 1.6.7a2 2 0 001.9-1.2V169a2 2 0 00-2-1.2c-.6 0-1.1.3-1.5.8a4 4 0 00-.6 2.4zm11 4.1c-1.1 0-2-.3-2.7-1a4 4 0 01-1-3v-.2c0-.8.1-1.6.4-2.2.3-.6.8-1.1 1.3-1.5a3.3 3.3 0 011.8-.5c1 0 2 .3 2.5 1 .6.7.9 1.7.9 3v.6h-5.5c0 .8.2 1.5.7 2 .4.5 1 .7 1.7.7.5 0 .9-.1 1.2-.3l1-.8.8.7a3.4 3.4 0 01-3.1 1.5zm-.2-7.3c-.5 0-1 .2-1.4.6-.4.4-.6 1-.7 1.7h4a2.6 2.6 0 00-.5-1.7c-.3-.4-.8-.6-1.4-.6zm8.5 3c0-1.2.3-2.2.9-3a2.8 2.8 0 012.3-1.1c1 0 1.7.3 2.3 1v-4.3h1.4v11.6h-1.3v-.9a2.8 2.8 0 01-2.4 1 2.8 2.8 0 01-2.3-1.1 4.8 4.8 0 01-.9-3v-.2zm1.4.2c0 1 .2 1.6.6 2.2.4.5.9.7 1.6.7a2 2 0 001.9-1.2V169a2 2 0 00-2-1.2c-.6 0-1.1.3-1.5.8a4 4 0 00-.6 2.4zm11 4.1c-1 0-2-.3-2.7-1a4 4 0 01-1-3v-.2c0-.8.2-1.6.5-2.2.3-.6.7-1.1 1.3-1.5a3.3 3.3 0 011.8-.5c1 0 1.9.3 2.4 1 .6.7 1 1.7 1 3v.6h-5.6c0 .8.3 1.5.7 2 .5.5 1 .7 1.7.7.5 0 1-.1 1.3-.3l.9-.8.8.7a3.4 3.4 0 01-3 1.5zm-.1-7.3c-.6 0-1 .2-1.4.6a3 3 0 00-.8 1.7h4.1a2.6 2.6 0 00-.5-1.7c-.4-.4-.8-.6-1.4-.6zm9.7 5a1 1 0 00-.4-.9 4 4 0 00-1.5-.5 7 7 0 01-1.7-.6 2.4 2.4 0 01-1-.7l-.2-1c0-.7.3-1.3.8-1.8.6-.4 1.3-.6 2.2-.6 1 0 1.7.2 2.3.7.5.5.8 1 .8 1.8h-1.4c0-.4-.1-.7-.5-1a1.8 1.8 0 00-1.2-.4 2 2 0 00-1.2.3 1 1 0 00-.4 1c0 .2.1.5.4.7l1.4.5a7 7 0 011.7.5 2 2 0 011.3 1.9c0 .7-.3 1.3-.9 1.8-.6.4-1.3.6-2.2.6a4.1 4.1 0 01-1.8-.3c-.5-.2-.9-.6-1.2-1a2.4 2.4 0 01-.4-1.3h1.4c0 .4.2.8.6 1 .3.4.8.5 1.4.5.5 0 .9-.1 1.2-.3a1 1 0 00.5-.9zm4.7 2.2h-1.4v-8.2h1.4v8.2zm-1.5-10.4c0-.2 0-.4.2-.5l.6-.3c.2 0 .5.1.7.3l.2.5a.8.8 0 01-.2.6c-.2.2-.4.2-.7.2s-.4 0-.6-.2a.8.8 0 01-.2-.6zm3.4 6.2c0-1.2.3-2.3 1-3a2.8 2.8 0 012.3-1.1c1 0 1.7.3 2.3 1v-.9h1.3v8c0 1-.3 1.9-1 2.5-.5.6-1.4.9-2.4.9a4.2 4.2 0 01-1.8-.4 3 3 0 01-1.2-1l.7-.9c.6.8 1.3 1.1 2.2 1.1.7 0 1.2-.1 1.6-.5.3-.4.5-1 .5-1.6v-.7c-.5.6-1.3 1-2.3 1a2.8 2.8 0 01-2.3-1.2 5 5 0 01-.9-3.2zm1.4.2c0 1 .2 1.6.6 2.2.4.5 1 .7 1.6.7a2 2 0 002-1.2V169a2 2 0 00-2-1.2c-.7 0-1.2.3-1.6.8a4 4 0 00-.6 2.4zm9-4.2v1a3 3 0 012.5-1.1c1.7 0 2.6 1 2.6 2.9v5.4h-1.4v-5.4c0-.6-.2-1-.4-1.3-.3-.3-.7-.5-1.3-.5a2 2 0 00-1.2.4c-.3.2-.6.6-.8 1v5.8h-1.4v-8.2h1.4z" fill="#2C436E"/><path d="M772 233.2a7.2 7.2 0 110-14.4 7.2 7.2 0 010 14.4zm.7-7.2v-3.6h-1.4v5h4.3V226h-2.9z" fill="#2C436E" fill-opacity=".2"/><path d="M595 469h255v129H595V469z" fill="#E2D9F7"/><path opacity=".7" d="M607.6 514.8v3.5h-1.2v-9.1h3.3c1 0 1.8.2 2.4.8.6.5.8 1.1.8 2 0 .9-.2 1.6-.8 2-.6.5-1.3.7-2.4.7h-2.1zm0-1h2.1c.7 0 1.2-.2 1.5-.5.4-.3.5-.7.5-1.3 0-.6-.1-1-.5-1.3a2 2 0 00-1.4-.5h-2.2v3.6zm8 4.5h-1.2v-6.8h1.2v6.8zm-1.3-8.6a.7.7 0 01.2-.4c0-.2.3-.3.5-.3s.4.1.5.3l.2.4c0 .2 0 .4-.2.5l-.5.2c-.2 0-.4 0-.5-.2a.7.7 0 01-.2-.5zm5.9 7.8c.4 0 .7-.1 1-.4.4-.2.5-.5.6-1h1c0 .5 0 .8-.3 1.2a2.8 2.8 0 01-2.3 1.2c-1 0-1.7-.3-2.2-1a3.7 3.7 0 01-.9-2.5v-.2c0-.7.2-1.3.4-1.8a2.8 2.8 0 012.7-1.6c.7 0 1.4.2 1.9.7.5.4.7 1 .8 1.8h-1.1a1.6 1.6 0 00-1.6-1.5c-.6 0-1.1.2-1.4.6a3 3 0 00-.5 1.8v.3c0 .7.2 1.3.5 1.8.3.4.8.6 1.4.6zm5.6-7.6v1.6h1.2v1h-1.2v4.1l.1.7.6.2.6-.1v1h-1c-.5 0-.8-.1-1.1-.4a2 2 0 01-.4-1.3v-4.3h-1.2v-.9h1.2V510h1.2zm6.8 7.8c-.5.5-1.1.8-2 .8-.7 0-1.3-.2-1.7-.7-.3-.4-.5-1-.5-1.8v-4.5h1.1v4.4c0 1 .4 1.6 1.3 1.6s1.5-.4 1.8-1v-5h1.1v6.8h-1l-.1-.6zm6.2-5.1a3.5 3.5 0 00-.6 0c-.8 0-1.3.3-1.5 1v4.7h-1.2v-6.8h1.1v.8c.4-.6 1-.9 1.7-.9h.5v1.2zm3.7 5.9a3 3 0 01-2.2-1 3.4 3.4 0 01-.9-2.4v-.2c0-.7.2-1.3.4-1.8.3-.5.6-1 1-1.2.6-.3 1-.5 1.6-.5.9 0 1.6.3 2 .9.6.6.8 1.4.8 2.5v.5h-4.6c0 .6.2 1.2.6 1.6.4.4.8.6 1.4.6.4 0 .8 0 1-.2l.8-.7.7.5a2.9 2.9 0 01-2.6 1.4zm-.1-6.1c-.5 0-.9.1-1.2.5-.3.3-.5.8-.6 1.4h3.4a2.2 2.2 0 00-.4-1.5 1.5 1.5 0 00-1.2-.4zm8.1 4.1a.8.8 0 00-.3-.7 3.3 3.3 0 00-1.3-.5 6 6 0 01-1.4-.4l-.8-.6a1.5 1.5 0 01-.2-.9c0-.6.2-1 .7-1.4a2.8 2.8 0 011.8-.6c.8 0 1.4.2 1.9.6.5.4.7 1 .7 1.5h-1.2a1 1 0 00-.4-.8 1.5 1.5 0 00-1-.3c-.4 0-.7 0-1 .2a.9.9 0 00-.3.8c0 .2 0 .5.3.6l1.2.4a6.3 6.3 0 011.4.5c.4.1.6.4.8.6.2.3.3.6.3 1 0 .5-.3 1-.8 1.4a3 3 0 01-1.8.6c-.6 0-1-.1-1.5-.3l-1-.8a2 2 0 01-.3-1.2h1.1c0 .4.2.7.5 1 .3.2.7.3 1.2.3.4 0 .8 0 1-.3.3-.1.4-.4.4-.7zm-40.6 23.7h-1.2v-7.7l-2.3.8v-1l3.3-1.3h.2v9.2zm8.3-3h1.3v.9h-1.3v2.1H617v-2.1H613v-.7l4-6.3h1.3v6zm-4 0h2.8v-4.6l-.1.3-2.7 4.2zm6.4 2.4c0-.2 0-.4.2-.5l.5-.2c.2 0 .4 0 .6.2l.1.5-.1.5-.6.2c-.2 0-.4 0-.5-.2a.7.7 0 01-.2-.5zm0-5.5c0-.2 0-.4.2-.5.1-.2.3-.2.5-.2.3 0 .4 0 .6.2l.2.5-.2.4c-.2.2-.3.2-.6.2-.2 0-.4 0-.5-.2a.7.7 0 01-.2-.4zm8.8 2.2c0 1.4-.3 2.4-.7 3-.5.7-1.2 1-2.2 1s-1.7-.3-2.2-1a5 5 0 01-.7-2.8v-1.6c0-1.3.2-2.3.7-3 .5-.6 1.2-1 2.2-1 1 0 1.7.4 2.2 1 .4.6.7 1.6.7 3v1.4zm-1.2-1.6c0-1-.1-1.7-.4-2.1-.3-.5-.7-.7-1.3-.7-.6 0-1 .2-1.3.7a4.2 4.2 0 00-.4 2v1.9c0 1 .1 1.7.4 2.2.3.5.7.7 1.3.7.6 0 1-.2 1.3-.7.3-.4.4-1.1.4-2v-2zm8.4 1.6c0 1.4-.2 2.4-.7 3-.5.7-1.2 1-2.2 1-1 0-1.7-.3-2.1-1a5 5 0 01-.8-2.8v-1.6c0-1.3.3-2.3.7-3 .5-.6 1.2-1 2.2-1 1 0 1.7.4 2.2 1 .4.6.7 1.6.7 3v1.4zm-1.2-1.6c0-1-.1-1.7-.4-2.1-.2-.5-.7-.7-1.3-.7-.6 0-1 .2-1.3.7a4.2 4.2 0 00-.4 2v1.9c0 1 .1 1.7.4 2.2.3.5.7.7 1.3.7.6 0 1-.2 1.3-.7.3-.4.4-1.1.4-2v-2zm14.4 1.4h-8.4v-1h8.4v1zm8.6 4.1h-1.2v-7.7l-2.4.8v-1l3.4-1.3h.2v9.2zm8-9.1v1h-.3c-.9 0-1.6.2-2.2.8a3.3 3.3 0 00-.9 2.2 2.5 2.5 0 012-.9c.8 0 1.4.3 1.9.9.5.5.7 1.3.7 2.1 0 1-.2 1.7-.7 2.3-.6.6-1.2.8-2.1.8-.9 0-1.6-.3-2.1-1a4 4 0 01-.9-2.6v-.4c0-1.7.4-3 1.1-3.9.7-.9 1.8-1.3 3.2-1.3h.2zm-1.6 4c-.4 0-.8.2-1.1.4a2 2 0 00-.7 1v.4a3 3 0 00.5 1.8c.3.5.8.7 1.3.7s1-.2 1.2-.6c.3-.4.5-.9.5-1.5s-.2-1.1-.5-1.5c-.3-.4-.7-.6-1.2-.6zm4.3 4.5c0-.2 0-.4.2-.5l.5-.2c.2 0 .4 0 .5.2.2.1.2.3.2.5l-.2.5-.5.2c-.2 0-.4 0-.5-.2a.7.7 0 01-.2-.5zm0-5.5c0-.2 0-.4.2-.5 0-.2.3-.2.5-.2s.4 0 .5.2c.2 0 .2.3.2.5l-.2.4c0 .2-.3.2-.5.2s-.4 0-.5-.2a.7.7 0 01-.2-.4zm8.8 2.2c0 1.4-.3 2.4-.7 3-.5.7-1.2 1-2.2 1-1 0-1.7-.3-2.2-1a5 5 0 01-.7-2.8v-1.6c0-1.3.2-2.3.7-3 .4-.6 1.2-1 2.2-1 1 0 1.7.4 2.1 1 .5.6.7 1.6.7 3v1.4zm-1.2-1.6c0-1-.1-1.7-.4-2.1-.3-.5-.7-.7-1.3-.7-.6 0-1 .2-1.3.7a4.2 4.2 0 00-.5 2v1.9c0 1 .2 1.7.5 2.2.3.5.7.7 1.3.7.6 0 1-.2 1.3-.7.2-.4.4-1.1.4-2v-2zm8.4 1.6c0 1.4-.2 2.4-.7 3-.5.7-1.2 1-2.2 1-1 0-1.7-.3-2.2-1a5 5 0 01-.7-2.8v-1.6c0-1.3.2-2.3.7-3 .5-.6 1.2-1 2.2-1 1 0 1.7.4 2.2 1 .4.6.7 1.6.7 3v1.4zm-1.2-1.6c0-1-.1-1.7-.4-2.1-.3-.5-.7-.7-1.3-.7-.6 0-1 .2-1.3.7a4.2 4.2 0 00-.4 2v1.9c0 1 .1 1.7.4 2.2.3.5.7.7 1.3.7.6 0 1-.2 1.3-.7.3-.4.4-1.1.4-2v-2z" fill="#2C436E"/><path d="M832.4 585h-6.2v-1l3-3.4 1-1.2c.2-.3.3-.7.3-1 0-.4-.1-.8-.4-1-.2-.3-.6-.4-1-.4-.5 0-.9.1-1.1.4-.3.3-.4.7-.4 1.2H826c0-.5.2-1 .4-1.5.3-.4.6-.8 1.1-1a3.5 3.5 0 011.6-.4c1 0 1.6.3 2.1.7.6.4.8 1 .8 1.8 0 .5-.1 1-.4 1.5a8.1 8.1 0 01-1.2 1.7l-2.3 2.4h4.3v1.2zm2.7-6c.5-.6 1.2-1 2-1 1.4 0 2.1.9 2.1 2.6v4.4h-1.5v-4.4c0-.5 0-.8-.3-1-.2-.2-.5-.3-.9-.3-.6 0-1 .3-1.4.8v4.9h-1.5v-9.7h1.5v3.6zm-226.7-94.1l3.6 9 3.6-9h1.9v11h-1.4V487l-3.5 8.9h-1.1l-3.6-8.9.1 4.6v4.3h-1.4v-11h1.8zm16.5 11a3 3 0 01-.2-.9 3.1 3.1 0 01-2.3 1 2.9 2.9 0 01-2-.7 2.2 2.2 0 01-.8-1.7c0-.8.3-1.5 1-2 .6-.4 1.5-.7 2.7-.7h1.4v-.6c0-.5-.2-.9-.5-1.2-.3-.3-.7-.4-1.3-.4a2 2 0 00-1.2.4c-.3.2-.5.5-.5.9h-1.4c0-.4.1-.8.4-1.2a3 3 0 011.2-.9c.5-.2 1-.3 1.6-.3 1 0 1.7.2 2.2.7.6.4.8 1 .9 2v3.7c0 .7 0 1.3.2 1.7v.2H625zm-2.3-1a2.4 2.4 0 002-1.3v-1.7h-1c-1.7 0-2.6.5-2.6 1.5 0 .5.2.8.4 1 .3.3.7.4 1.2.4zm7.2 1h-1.4v-8.2h1.4v8.2zm-1.5-10.3c0-.3 0-.5.2-.6.1-.2.3-.3.6-.3s.5.1.6.3l.2.6a.8.8 0 01-.2.5c-.1.2-.3.2-.6.2s-.5 0-.6-.2a.8.8 0 01-.2-.6zm5 2.1v1a3 3 0 012.5-1.1c1.7 0 2.6 1 2.6 2.9v5.4H637v-5.4c0-.6-.1-1-.4-1.3-.2-.3-.6-.4-1.2-.4a2 2 0 00-1.2.3c-.3.2-.6.6-.8 1v5.8H632v-8.2h1.3zm18 4.2c0 1.2-.3 2.2-.9 3a2.7 2.7 0 01-2.3 1.1 3 3 0 01-2.3-1v4h-1.4v-11.3h1.2l.1 1a2.9 2.9 0 012.4-1.1c1 0 1.7.3 2.3 1 .6.8.9 1.8.9 3.1v.2zm-1.4-.2c0-.9-.2-1.6-.6-2.2a1.9 1.9 0 00-1.6-.8 2 2 0 00-2 1.2v3.9a2 2 0 002 1c.6 0 1.2-.2 1.6-.7a4 4 0 00.6-2.4zm8.2 4.2a3 3 0 01-.2-.9 3.1 3.1 0 01-2.3 1 2.9 2.9 0 01-2-.6 2.2 2.2 0 01-.8-1.8c0-.8.3-1.5 1-2 .6-.4 1.5-.7 2.7-.7h1.4v-.6c0-.5-.2-.9-.5-1.2-.3-.3-.7-.4-1.3-.4a2 2 0 00-1.2.4c-.4.2-.5.5-.5.9H653c0-.4.1-.8.4-1.2a3 3 0 011.2-.9 4 4 0 011.6-.3c1 0 1.7.2 2.2.7.6.4.8 1 .9 2v3.7c0 .7 0 1.3.2 1.8h-1.4zm-2.3-1a2.4 2.4 0 002-1.3v-1.7h-1c-1.7 0-2.6.5-2.6 1.5 0 .5.1.8.4 1 .3.3.7.4 1.2.4zm5.3-3.2c0-1.2.3-2.3.9-3a2.8 2.8 0 012.3-1.1c1 0 1.8.3 2.4 1v-.9h1.3v8c0 1-.3 1.9-1 2.5-.6.6-1.4.9-2.5.9a4.2 4.2 0 01-1.7-.4 3 3 0 01-1.3-1l.7-.9c.6.8 1.4 1.1 2.2 1.1.7 0 1.2-.1 1.6-.5.4-.4.6-1 .6-1.6v-.7c-.6.6-1.3 1-2.3 1a2.8 2.8 0 01-2.3-1.2 5 5 0 01-.9-3.2zm1.4.2c0 .9.2 1.6.6 2.2.4.5.9.7 1.6.7a2 2 0 001.9-1.2V490a2 2 0 00-2-1.1c-.6 0-1.1.2-1.5.7a4 4 0 00-.6 2.4zm11 4.1c-1.1 0-2-.3-2.7-1a4 4 0 01-1-3v-.2c0-.8.1-1.6.4-2.2.3-.6.8-1.1 1.3-1.5a3.3 3.3 0 011.8-.5c1 0 2 .3 2.5 1 .6.7.9 1.7.9 3v.6h-5.5c0 .8.2 1.5.7 2 .4.4 1 .7 1.7.7.5 0 .9-.1 1.2-.3l1-.8.8.6a3.4 3.4 0 01-3.1 1.6zm-.2-7.3c-.5 0-1 .2-1.4.6-.4.4-.6 1-.7 1.8h4v-.1a2.6 2.6 0 00-.5-1.7c-.3-.4-.8-.6-1.4-.6zm8.5 3c0-1.2.3-2.2.9-3a2.8 2.8 0 012.3-1.1c1 0 1.7.3 2.3 1v-4.3h1.4v11.6h-1.3v-.9a2.8 2.8 0 01-2.4 1 2.8 2.8 0 01-2.3-1.1 4.8 4.8 0 01-.9-3v-.2zm1.4.2c0 1 .2 1.6.6 2.2.4.5.9.7 1.6.7a2 2 0 001.9-1.2V490a2 2 0 00-2-1.1c-.6 0-1.1.2-1.5.7a4 4 0 00-.6 2.4zm11 4.1c-1 0-2-.3-2.7-1a4 4 0 01-1-3v-.2c0-.8.2-1.6.5-2.2.3-.6.7-1.1 1.3-1.5a3.3 3.3 0 011.8-.5c1 0 1.9.3 2.4 1 .6.7 1 1.7 1 3v.6h-5.6c0 .8.3 1.4.7 2 .5.4 1 .7 1.7.7.5 0 1-.1 1.3-.3l.9-.8.8.6a3.4 3.4 0 01-3 1.6zm-.1-7.3c-.6 0-1 .2-1.4.6a3 3 0 00-.8 1.7h4.1a2.6 2.6 0 00-.5-1.7c-.4-.4-.8-.6-1.4-.6zm9.7 5a1 1 0 00-.4-.9c-.3-.2-.8-.4-1.5-.5a7.1 7.1 0 01-1.7-.6 2.4 2.4 0 01-1-.7l-.2-1c0-.7.3-1.3.8-1.8.6-.4 1.3-.6 2.2-.6 1 0 1.7.2 2.3.7.5.5.8 1 .8 1.8h-1.4c0-.4-.1-.7-.5-1a1.8 1.8 0 00-1.2-.4c-.5 0-.9.1-1.2.3a1 1 0 00-.4 1c0 .2.1.5.4.7l1.4.5a7 7 0 011.7.5 2 2 0 011.3 1.9c0 .7-.3 1.3-.9 1.8-.6.4-1.3.6-2.2.6-.7 0-1.3 0-1.8-.3s-.9-.6-1.2-1a2.4 2.4 0 01-.4-1.3h1.4c0 .4.2.8.6 1 .3.3.8.5 1.4.5.5 0 .9-.1 1.2-.3a1 1 0 00.5-.9zm4.7 2.2h-1.4v-8.2h1.4v8.2zm-1.5-10.3c0-.3 0-.5.2-.6l.6-.3c.2 0 .5.1.7.3l.2.6a.8.8 0 01-.2.5c-.2.2-.4.2-.7.2s-.4 0-.6-.2a.8.8 0 01-.2-.6zm3.4 6.1c0-1.2.3-2.3 1-3a2.8 2.8 0 012.3-1.1c1 0 1.7.3 2.3 1v-.9h1.3v8c0 1-.3 1.9-1 2.5-.5.6-1.4.9-2.4.9-.6 0-1.2-.1-1.8-.4s-1-.6-1.2-1l.7-.9c.6.8 1.3 1.1 2.2 1.1.7 0 1.2-.1 1.6-.5.3-.4.5-1 .5-1.6v-.7c-.5.6-1.3 1-2.3 1a2.8 2.8 0 01-2.3-1.2 5 5 0 01-.9-3.2zm1.4.2c0 .9.2 1.6.6 2.2.4.5 1 .7 1.6.7a2 2 0 002-1.2V490a2 2 0 00-2-1.2c-.7 0-1.2.3-1.6.8a4 4 0 00-.6 2.4zm9-4.2v1a3 3 0 012.5-1.1c1.7 0 2.6 1 2.6 2.9v5.4h-1.4v-5.4c0-.6-.2-1-.4-1.3-.3-.3-.7-.5-1.3-.5a2 2 0 00-1.2.4c-.3.2-.6.6-.8 1v5.8h-1.4v-8.2h1.4z" fill="#2C436E"/><path d="M811 587.2a7.2 7.2 0 110-14.4 7.2 7.2 0 010 14.4zm.7-7.2v-3.6h-1.4v5h4.3V580h-2.9z" fill="#2C436E" fill-opacity=".2"/><path d="M339 148h255v258H339V148z" fill="#FDF2D3"/><path opacity=".7" d="M353 193.3a5.7 5.7 0 01-2.2-1.1 2.1 2.1 0 01-.7-1.6c0-.8.3-1.4.8-1.8a3.4 3.4 0 012.3-.7c.6 0 1.2 0 1.7.3s.9.6 1.1 1c.3.5.4 1 .4 1.4h-1.2c0-.5-.1-1-.5-1.3a2.1 2.1 0 00-1.5-.4c-.6 0-1 0-1.4.4-.3.2-.5.6-.5 1s.2.7.5 1c.3.2.8.5 1.6.7.8.2 1.4.4 1.8.7l1 .9c.2.3.3.7.3 1.2 0 .8-.3 1.4-1 1.8-.5.4-1.3.7-2.2.7-.7 0-1.2-.2-1.8-.4a3 3 0 01-1.3-1c-.2-.4-.4-.9-.4-1.4h1.2c0 .5.2 1 .6 1.3.4.3 1 .5 1.7.5.6 0 1-.2 1.4-.4.4-.3.5-.6.5-1 0-.5-.1-.9-.4-1.1a5.4 5.4 0 00-1.7-.7zm6.4-4.4v1.6h1.3v1h-1.3v4.1c0 .3 0 .5.2.7l.5.2.6-.1v1h-.9c-.5 0-.9-.1-1.2-.4-.2-.3-.4-.8-.4-1.4v-4.2H357v-.9h1.2V189h1.2zm4.9 6.7l1.5-5h1.3l-2.7 7.8c-.5 1.1-1.1 1.7-2 1.7h-.3l-.4-.1v-1h.3c.4 0 .7 0 1-.2l.5-.9.2-.6-2.4-6.8h1.3l1.7 5.1zm5.1 1.7h-1.2v-9.6h1.2v9.6zm4.7.2a3 3 0 01-2.3-1 3.4 3.4 0 01-.8-2.4v-.2c0-.7.1-1.3.3-1.8.3-.5.7-1 1.1-1.2.5-.3 1-.5 1.5-.5 1 0 1.6.3 2.1.9.5.6.7 1.4.7 2.5v.5h-4.6c0 .6.2 1.2.6 1.6.4.4.9.6 1.4.6.5 0 .8 0 1-.2.4-.2.6-.4.8-.7l.7.6a2.9 2.9 0 01-2.5 1.3zm-.2-6.1c-.4 0-.8.1-1.1.5-.4.3-.6.8-.6 1.4h3.4a2.2 2.2 0 00-.5-1.5 1.5 1.5 0 00-1.2-.4zm4 2.5c0-1 .2-2 .7-2.6a2.4 2.4 0 011.9-.9c.8 0 1.5.3 2 .9v-.8h1v6.7c0 .8-.2 1.5-.7 2-.6.6-1.3.8-2.1.8-.5 0-1 0-1.5-.3s-.8-.5-1-.9l.6-.7c.5.7 1 1 1.8 1 .6 0 1-.2 1.3-.5.3-.3.5-.8.5-1.4v-.5c-.5.5-1.1.8-2 .8-.7 0-1.4-.4-1.8-1a4.2 4.2 0 01-.8-2.6zm1 .1c0 .8.2 1.4.6 1.8.3.5.7.7 1.3.7a1.7 1.7 0 001.6-1v-3.1a1.7 1.7 0 00-1.6-1c-.6 0-1 .2-1.3.7-.4.4-.5 1-.5 2zm10.6 2.7c-.4.5-1.1.8-2 .8-.7 0-1.2-.2-1.6-.7-.4-.4-.6-1-.6-1.8v-4.5h1.2v4.4c0 1 .4 1.6 1.2 1.6 1 0 1.5-.4 1.8-1v-5h1.2v6.8h-1.1v-.6zm4.2.6h-1.2v-6.8h1.2v6.8zm-1.3-8.6a.7.7 0 01.2-.4c.1-.2.3-.2.5-.2s.4 0 .5.2l.2.4c0 .2 0 .4-.2.5l-.5.2c-.2 0-.4 0-.5-.2a.7.7 0 01-.2-.5zm2.9 5.2c0-1 .2-1.9.7-2.5.5-.7 1.2-1 2-1s1.4.3 1.9.8v-3.5h1.1v9.6h-1l-.1-.7c-.5.6-1.1.9-2 .9-.8 0-1.4-.4-1.9-1a4 4 0 01-.7-2.5v-.1zm1.1.1c0 .8.2 1.4.5 1.8.3.5.8.7 1.3.7a1.7 1.7 0 001.7-1v-3.1a1.7 1.7 0 00-1.6-1c-.6 0-1 .2-1.4.7-.3.4-.5 1-.5 2zm9.2 3.5a3 3 0 01-2.2-1 3.4 3.4 0 01-.9-2.4v-.2c0-.7.2-1.3.4-1.8.3-.5.6-1 1-1.2.6-.3 1-.5 1.6-.5.9 0 1.6.3 2 .9.6.6.8 1.4.8 2.5v.5h-4.6c0 .6.2 1.2.6 1.6.3.4.8.6 1.4.6.4 0 .8 0 1-.2l.8-.7.7.6a2.9 2.9 0 01-2.6 1.3zm-.1-6.1c-.5 0-.9.1-1.2.5-.3.3-.5.8-.6 1.4h3.4a2.2 2.2 0 00-.4-1.4 1.5 1.5 0 00-1.2-.5zm-49.7 24c0 1.3-.2 2.3-.7 3-.5.6-1.2 1-2.2 1-1 0-1.7-.4-2.1-1a5 5 0 01-.8-3V214c0-1.3.3-2.3.7-3 .5-.6 1.2-1 2.2-1 1 0 1.7.4 2.2 1 .4.6.7 1.6.7 3v1.4zm-1.2-1.7c0-1-.1-1.7-.4-2.1-.3-.5-.7-.7-1.3-.7-.6 0-1 .2-1.3.7a4.2 4.2 0 00-.4 2v1.9c0 1 .1 1.7.4 2.2.3.5.7.7 1.3.7.6 0 1-.2 1.3-.7.3-.4.4-1.1.4-2v-2zm7.1 1.5l-.8.7a2.5 2.5 0 01-2.5-.1l-1-1.1-.2-1.6c0-.6 0-1.2.3-1.6a2.6 2.6 0 012.5-1.6c.9 0 1.6.4 2.1 1 .5.7.8 1.7.8 2.8v.4c0 1.7-.3 3-1 3.9-.7.8-1.8 1.2-3.2 1.2h-.2v-1h.2a3.2 3.2 0 002.2-.7c.5-.5.8-1.3.8-2.3zm-1.7 0c.4 0 .7-.1 1-.4.4-.2.6-.5.8-.9v-.4a3.2 3.2 0 00-.5-1.9c-.4-.5-.8-.7-1.3-.7s-1 .2-1.2.6c-.3.4-.5 1-.5 1.5 0 .7.1 1.2.5 1.6.2.4.6.6 1.1.6zm4.6 3.4c0-.2 0-.4.2-.5l.5-.2c.3 0 .4 0 .6.2l.2.5-.2.5-.6.2c-.2 0-.4 0-.5-.2a.7.7 0 01-.2-.5zm0-5.5c0-.2 0-.4.2-.5.1-.2.3-.2.5-.2.3 0 .4 0 .6.2l.2.5-.2.4c-.2.2-.3.2-.6.2-.2 0-.4 0-.5-.2a.7.7 0 01-.2-.4zm8.8 2.2c0 1.4-.3 2.4-.7 3-.5.7-1.2 1-2.2 1-1 0-1.7-.3-2.2-1a5 5 0 01-.7-2.8v-1.6c0-1.3.2-2.3.7-3 .5-.6 1.2-1 2.2-1 1 0 1.7.4 2.2 1 .4.6.7 1.6.7 3v1.4zm-1.2-1.6c0-1-.1-1.7-.4-2.1-.3-.5-.7-.7-1.3-.7-.6 0-1 .2-1.3.7a4.2 4.2 0 00-.4 2v1.9c0 1 .1 1.7.4 2.2.3.5.7.7 1.3.7.6 0 1-.2 1.3-.7.2-.4.4-1.1.4-2v-2zm8.4 1.6c0 1.4-.2 2.4-.7 3-.5.7-1.2 1-2.2 1-1 0-1.7-.3-2.1-1a5 5 0 01-.8-2.8v-1.6c0-1.3.3-2.3.7-3 .5-.6 1.2-1 2.2-1 1 0 1.7.4 2.2 1 .4.6.7 1.6.7 3v1.4zm-1.2-1.6c0-1-.1-1.7-.4-2.1-.3-.5-.7-.7-1.3-.7-.6 0-1 .2-1.3.7a4.2 4.2 0 00-.4 2v1.9c0 1 .1 1.7.4 2.2.3.5.7.7 1.3.7.6 0 1-.2 1.3-.7.3-.4.4-1.1.4-2v-2zm14.4 1.4h-8.4v-1h8.4v1zm8.6 4.1h-1.2v-7.7l-2.4.8v-1l3.4-1.3h.2v9.2zm5-5.1h1c.5 0 1-.2 1.2-.5.3-.2.5-.6.5-1 0-1.2-.5-1.7-1.6-1.7-.5 0-.9.1-1.2.4-.3.3-.5.7-.5 1.2h-1.1c0-.8.2-1.4.8-1.8a2.9 2.9 0 012-.8c.9 0 1.5.3 2 .7.5.5.8 1.1.8 2a2 2 0 01-.4 1c-.3.5-.6.7-1 1 .4 0 .8.3 1 .7.4.4.5.8.5 1.4a2.5 2.5 0 01-.8 2 3 3 0 01-2.1.6 3.1 3.1 0 01-2.1-.7 2.3 2.3 0 01-.8-1.8h1.2c0 .5.1.9.4 1.2.3.3.8.4 1.3.4.6 0 1-.2 1.3-.4.3-.3.4-.8.4-1.3s-.1-1-.5-1.2c-.3-.3-.8-.5-1.4-.5h-.8v-1zm5.7 4.5c0-.2 0-.4.2-.5l.5-.2c.2 0 .4 0 .5.2.2.1.2.3.2.5l-.2.5-.5.2c-.2 0-.4 0-.6-.2a.7.7 0 01-.1-.5zm0-5.5c0-.2 0-.4.2-.5 0-.2.3-.2.5-.2s.4 0 .5.2c.2 0 .2.3.2.5l-.2.4c0 .2-.3.2-.5.2s-.4 0-.5-.2a.7.7 0 01-.2-.4zm8.7 2.2c0 1.4-.2 2.4-.7 3-.4.7-1.1 1-2.1 1s-1.7-.3-2.2-1a5 5 0 01-.7-2.8v-1.6c0-1.3.2-2.3.7-3 .4-.6 1.2-1 2.2-1 1 0 1.7.4 2.1 1 .5.6.7 1.6.7 3v1.4zm-1.1-1.6c0-1-.2-1.7-.4-2.1-.3-.5-.7-.7-1.3-.7-.6 0-1 .2-1.3.7a4.2 4.2 0 00-.5 2v1.9c0 1 .2 1.7.5 2.2.3.5.7.7 1.3.7.5 0 1-.2 1.2-.7.3-.4.5-1.1.5-2v-2zm8.4 1.6c0 1.4-.3 2.4-.7 3-.5.7-1.2 1-2.2 1-1 0-1.7-.3-2.2-1a5 5 0 01-.7-2.8v-1.6c0-1.3.2-2.3.7-3 .5-.6 1.2-1 2.2-1 1 0 1.7.4 2.2 1 .4.6.7 1.6.7 3v1.4zm-1.2-1.6c0-1-.1-1.7-.4-2.1-.3-.5-.7-.7-1.3-.7-.6 0-1 .2-1.3.7a4.2 4.2 0 00-.4 2v1.9c0 1 .1 1.7.4 2.2.3.5.7.7 1.3.7.6 0 1-.2 1.3-.7.3-.4.4-1.1.4-2v-2z" fill="#C28533"/><path d="M575 389.5h1.2v1.2H575v2h-1.5v-2h-4v-1l4-6.1h1.5v5.9zm-3.9 0h2.4v-3.8l-.1.2-2.3 3.6zm7.7-2.8a2.4 2.4 0 011.9-.9c1.4 0 2.2.8 2.2 2.5v4.4h-1.5v-4.4c0-.4-.1-.8-.3-1l-1-.2c-.5 0-1 .2-1.3.8v4.8h-1.5v-9.6h1.5v3.6zM352.9 171.4l.3 1.5.3-1.3 2.1-7.7h1.3l2 7.7.4 1.3.2-1.5 1.7-7.5h1.5l-2.7 11h-1.3l-2.3-8-.1-.9-.2.9-2.4 8h-1.3l-2.6-11h1.4l1.7 7.5zm14.3 3.6c-1 0-2-.3-2.7-1a4 4 0 01-1-3v-.2c0-.8.1-1.6.4-2.2.3-.6.8-1.1 1.3-1.5a3.3 3.3 0 011.8-.5c1.1 0 2 .3 2.5 1 .6.7.9 1.7.9 3v.6h-5.5c0 .8.2 1.5.7 2 .4.5 1 .7 1.7.7.5 0 .9-.1 1.2-.3l1-.8.8.7a3.4 3.4 0 01-3 1.5zm-.2-7.3c-.5 0-1 .2-1.4.6a3 3 0 00-.7 1.8h4.1v-.1a2.6 2.6 0 00-.6-1.7c-.3-.4-.8-.6-1.4-.6zm12 3.2a5 5 0 01-1 3 2.8 2.8 0 01-2.2 1.1 2.9 2.9 0 01-2.4-1l-.1.9H372v-11.6h1.4v4.3a2.8 2.8 0 012.3-1c1 0 1.8.3 2.4 1.1.5.8.8 1.8.8 3v.2zm-1.5-.2c0-1-.2-1.7-.5-2.2-.4-.5-1-.7-1.6-.7a2 2 0 00-2 1.2v3.6c.4.8 1.1 1.2 2 1.2.7 0 1.2-.2 1.6-.7a4 4 0 00.5-2.4zm8 2c0-.4-.2-.7-.5-.9a4 4 0 00-1.5-.5 7 7 0 01-1.7-.6 2.4 2.4 0 01-.9-.7c-.2-.3-.3-.6-.3-1 0-.7.3-1.3.9-1.8.5-.4 1.3-.6 2.1-.6 1 0 1.7.2 2.3.7.6.5.9 1 .9 1.8h-1.4c0-.4-.2-.7-.5-1a1.8 1.8 0 00-1.3-.4 2 2 0 00-1.1.3 1 1 0 00-.5 1l.4.7 1.5.5a7 7 0 011.7.5l1 .8.2 1.1c0 .7-.3 1.3-.8 1.8-.6.4-1.4.6-2.3.6a4.1 4.1 0 01-1.7-.3c-.5-.2-1-.6-1.2-1a2.4 2.4 0 01-.4-1.3h1.4c0 .4.2.8.5 1 .4.4.8.5 1.4.5.5 0 1-.1 1.3-.3a1 1 0 00.4-.9zm4.7 2.2h-1.4v-8.2h1.4v8.2zm-1.5-10.4c0-.2 0-.4.2-.5.1-.2.3-.3.6-.3s.5.1.6.3l.2.5a.8.8 0 01-.2.6c-.1.2-.3.2-.6.2s-.5 0-.6-.2a.8.8 0 01-.2-.6zm5.6.2v2h1.5v1h-1.5v5.2c0 .3 0 .5.2.7.1.2.4.2.7.2h.7v1a4 4 0 01-1.1.2c-.6 0-1.1-.2-1.4-.5a2.4 2.4 0 01-.5-1.6v-5.1h-1.5v-1h1.5v-2h1.4zM401 175c-1.1 0-2-.3-2.7-1a4 4 0 01-1-3v-.2c0-.8 0-1.6.4-2.2.3-.6.7-1.1 1.3-1.5a3.3 3.3 0 011.8-.5c1 0 1.9.3 2.5 1 .5.7.8 1.7.8 3v.6h-5.5c0 .8.3 1.5.7 2 .5.5 1 .7 1.7.7.5 0 1-.1 1.3-.3l.9-.8.8.7a3.4 3.4 0 01-3 1.5zm-.2-7.3c-.6 0-1 .2-1.4.6a3 3 0 00-.7 1.7h4a2.6 2.6 0 00-.5-1.7c-.4-.4-.8-.6-1.4-.6zm12.7.3a4.2 4.2 0 00-.7 0c-.9 0-1.5.3-1.8 1v5.9h-1.4v-8.2h1.3v1c.5-.8 1.2-1.1 2-1.1h.6v1.4zm4.6 7c-1.1 0-2-.3-2.7-1a4 4 0 01-1-3v-.2c0-.8 0-1.6.4-2.2.3-.6.7-1.1 1.3-1.5a3.3 3.3 0 011.8-.5c1 0 1.9.3 2.5 1 .6.7.8 1.7.8 3v.6h-5.5c0 .8.3 1.5.7 2 .5.5 1 .7 1.7.7.5 0 1-.1 1.3-.3l.9-.8.8.7a3.4 3.4 0 01-3 1.5zm-.2-7.3c-.6 0-1 .2-1.4.6a3 3 0 00-.7 1.7h4a2.6 2.6 0 00-.5-1.7c-.4-.4-.8-.6-1.4-.6zm4.6 3c0-1.2.3-2.2 1-3a2.8 2.8 0 012.2-1.1c1 0 1.8.3 2.3 1v-4.3h1.4v11.6H428v-.9a2.8 2.8 0 01-2.4 1 2.8 2.8 0 01-2.3-1.1c-.6-.8-.9-1.8-.9-3v-.2zm1.4.2c0 1 .2 1.6.6 2.2.4.5 1 .7 1.6.7a2 2 0 002-1.2V169a2 2 0 00-2-1.2c-.7 0-1.2.3-1.6.8a4 4 0 00-.6 2.4zm11 4.1c-1 0-2-.3-2.6-1a4 4 0 01-1-3v-.2c0-.8 0-1.6.4-2.2.3-.6.7-1.1 1.3-1.5a3.3 3.3 0 011.8-.5c1 0 1.9.3 2.5 1 .6.7.9 1.7.9 3v.6h-5.6c0 .8.3 1.5.7 2 .5.5 1 .7 1.7.7.5 0 1-.1 1.3-.3l1-.8.8.7a3.4 3.4 0 01-3.1 1.5zm-.1-7.3c-.6 0-1 .2-1.4.6-.4.4-.6 1-.7 1.7h4a2.6 2.6 0 00-.5-1.7c-.4-.4-.8-.6-1.4-.6zm9.7 5a1 1 0 00-.4-.9 4 4 0 00-1.5-.5 7 7 0 01-1.7-.6 2.4 2.4 0 01-.9-.7c-.2-.3-.3-.6-.3-1 0-.7.3-1.3.9-1.8.5-.4 1.3-.6 2.1-.6 1 0 1.7.2 2.3.7.6.5.9 1 .9 1.8h-1.4c0-.4-.2-.7-.5-1a1.8 1.8 0 00-1.3-.4 2 2 0 00-1.2.3 1 1 0 00-.4 1c0 .2.1.5.4.7l1.5.5c.7.1 1.2.3 1.7.5l1 .8.2 1.1c0 .7-.3 1.3-.8 1.8-.6.4-1.4.6-2.3.6a4.1 4.1 0 01-1.8-.3c-.5-.2-.9-.6-1.1-1a2.4 2.4 0 01-.5-1.3h1.4c0 .4.2.8.6 1 .3.4.8.5 1.4.5.5 0 1-.1 1.2-.3a1 1 0 00.5-.9zm4.8 2.2h-1.4v-8.2h1.4v8.2zm-1.5-10.4c0-.2 0-.4.2-.5.1-.2.3-.3.6-.3s.5.1.6.3l.2.5a.8.8 0 01-.2.6c-.1.2-.4.2-.6.2l-.6-.2a.8.8 0 01-.2-.6zm3.4 6.2c0-1.2.3-2.3.9-3a2.8 2.8 0 012.3-1.1c1 0 1.8.3 2.3 1v-.9h1.4v8c0 1-.4 1.9-1 2.5-.6.6-1.4.9-2.5.9a4.2 4.2 0 01-1.7-.4 3 3 0 01-1.3-1l.7-.9c.6.8 1.3 1.1 2.2 1.1.7 0 1.2-.1 1.6-.5.4-.4.6-1 .6-1.6v-.7c-.6.6-1.4 1-2.3 1a2.8 2.8 0 01-2.3-1.2 5 5 0 01-1-3.2zm1.4.2c0 1 .2 1.6.5 2.2.4.5 1 .7 1.6.7a2 2 0 002-1.2V169a2 2 0 00-2-1.2c-.6 0-1.2.3-1.6.8a4 4 0 00-.5 2.4zm8.9-4.2v1a3 3 0 012.5-1.1c1.7 0 2.6 1 2.6 2.9v5.4h-1.4v-5.4c0-.6-.1-1-.4-1.3s-.7-.5-1.2-.5a2 2 0 00-1.2.4c-.4.2-.6.6-.8 1v5.8H460v-8.2h1.3z" fill="#C28533"/><path d="M555 395.2a7.2 7.2 0 110-14.4 7.2 7.2 0 010 14.4zm.7-7.2v-3.6h-1.4v5h4.3V388h-2.9z" fill="#C28533" fill-opacity=".2"/><path d="M84 148h254v193H84V148z" fill="#D8EEDB"/><path opacity=".7" d="M98.3 194.4l.2 1.2.3-1 1.8-6.4h1l1.8 6.4.2 1 .2-1.2 1.4-6.2h1.2l-2.2 9.1h-1l-2-6.6-.1-.7-.1.7-2 6.6h-1.1l-2.2-9.1h1.2l1.4 6.2zm10.6 3h-1.2v-6.9h1.2v6.8zm-1.3-8.7a.7.7 0 01.2-.5l.5-.2.5.2.2.5c0 .2 0 .4-.2.5l-.5.2c-.2 0-.4 0-.5-.2a.7.7 0 01-.2-.5zm6.4 2.9a3.5 3.5 0 00-.5 0c-.8 0-1.3.3-1.6 1v4.7h-1.2v-6.8h1.2v.8c.4-.6 1-.9 1.6-.9l.5.1v1zm3.8 5.9a3 3 0 01-2.3-1 3.4 3.4 0 01-.8-2.4v-.2c0-.7.1-1.3.4-1.8.2-.5.6-1 1-1.2.5-.3 1-.5 1.5-.5 1 0 1.6.3 2.1.9.5.6.7 1.4.7 2.5v.5h-4.6c0 .6.2 1.2.6 1.6.4.4.9.6 1.5.6.4 0 .7 0 1-.2l.8-.7.7.5a2.9 2.9 0 01-2.6 1.4zm-.1-6.1c-.5 0-1 .1-1.2.5-.4.3-.6.8-.6 1.4h3.4a2.2 2.2 0 00-.5-1.5 1.5 1.5 0 00-1.2-.4zm4.7 6v-6h-1.1v-.9h1v-.7c0-.7.3-1.3.7-1.7.3-.4.9-.6 1.6-.6.3 0 .5 0 .8.2v.9h-.7c-.4 0-.7 0-.9.3-.2.2-.3.5-.3 1v.6h1.5v1h-1.5v5.8h-1.1zm7.2-5.8a3.5 3.5 0 00-.6 0c-.8 0-1.3.3-1.6 1v4.7h-1.1v-6.8h1.1v.8a1.8 1.8 0 012.2-.8v1zm5 5.7a2.4 2.4 0 01-.2-.7 2.6 2.6 0 01-2 .9c-.6 0-1.1-.2-1.6-.6a1.9 1.9 0 01-.6-1.5c0-.7.3-1.2.8-1.6.5-.4 1.3-.6 2.3-.6h1.1v-.5c0-.4-.1-.8-.4-1s-.6-.4-1-.4-.8.1-1 .4a1 1 0 00-.5.7h-1.2c0-.3.2-.7.4-1 .2-.3.6-.5 1-.7.4-.2.8-.3 1.3-.3.8 0 1.4.2 1.9.6.4.4.7 1 .7 1.6v3.1c0 .7 0 1.2.2 1.5v.1h-1.2zm-2-.9c.4 0 .8 0 1-.2.4-.2.7-.5.8-.8V194h-.9c-1.4 0-2.1.4-2.1 1.3 0 .3 0 .6.3.8.3.2.6.3 1 .3zm5.9-5.9v.8c.5-.6 1.2-.9 2-.9 1 0 1.6.4 2 1.1a2.6 2.6 0 012.2-1.1c1.4 0 2.2.8 2.2 2.4v4.5h-1.1v-4.5c0-.4-.2-.8-.4-1-.2-.3-.6-.4-1-.4-.5 0-.9.1-1.2.4-.3.2-.4.6-.5 1v4.5h-1.1V193c0-1-.5-1.5-1.5-1.5-.8 0-1.3.3-1.6 1v5h-1.1v-6.9h1zm13 7a3 3 0 01-2.3-1 3.4 3.4 0 01-.8-2.4v-.2c0-.7.1-1.3.4-1.8.2-.5.6-1 1-1.2.5-.3 1-.5 1.5-.5 1 0 1.6.3 2.1.9.5.6.8 1.4.8 2.5v.5h-4.6c0 .6.1 1.2.5 1.6.4.4.9.6 1.5.6.4 0 .7 0 1-.2l.8-.7.7.6a2.9 2.9 0 01-2.6 1.3zm-.1-6.1c-.5 0-1 .1-1.2.5-.3.3-.5.8-.6 1.4h3.4a2.2 2.2 0 00-.5-1.5 1.4 1.4 0 00-1.1-.4zm8 4.1a.8.8 0 00-.3-.7 3.3 3.3 0 00-1.2-.5 6 6 0 01-1.4-.4l-.8-.6a1.5 1.5 0 01-.2-.9c0-.6.2-1 .7-1.4a2.8 2.8 0 011.8-.6c.7 0 1.4.2 1.8.6.5.4.8 1 .8 1.5h-1.2a1 1 0 00-.4-.8 1.5 1.5 0 00-1-.3c-.5 0-.8 0-1 .2a.9.9 0 00-.4.8c0 .2.1.5.3.6l1.2.4 1.5.5.8.6.2 1c0 .5-.2 1-.7 1.4a3 3 0 01-1.9.6c-.5 0-1-.1-1.4-.3-.5-.2-.8-.5-1-.8a2 2 0 01-.4-1.2h1.2c0 .4.2.7.4 1 .3.2.7.3 1.2.3.4 0 .8 0 1-.2.3-.2.5-.5.5-.8zm-57.6 19.8c0 1.4-.2 2.4-.7 3-.5.7-1.2 1-2.2 1-1 0-1.7-.3-2.2-1a5 5 0 01-.7-2.8v-1.6c0-1.3.2-2.3.7-3 .5-.6 1.2-1 2.2-1 1 0 1.7.4 2.2 1 .4.6.7 1.6.7 3v1.4zm-1.2-1.6c0-1-.1-1.7-.4-2.1-.3-.5-.7-.7-1.3-.7-.6 0-1 .2-1.3.7a4.2 4.2 0 00-.4 2v1.9c0 1 .1 1.7.4 2.2.3.5.7.7 1.3.7.6 0 1-.2 1.3-.7.3-.4.4-1.1.4-2v-2zm7.1 1.5l-.8.7a2.5 2.5 0 01-2.5-.1l-1-1.1-.2-1.6c0-.6 0-1.2.3-1.6a2.6 2.6 0 012.5-1.6c.9 0 1.6.4 2.1 1 .6.7.8 1.7.8 2.8v.4c0 1.7-.3 3-1 3.9-.7.8-1.8 1.2-3.2 1.2h-.3v-1h.3a3.2 3.2 0 002.2-.7c.5-.5.8-1.3.8-2.3zm-1.8 0c.4 0 .8-.1 1.1-.4.4-.2.6-.5.7-.9v-.4a3.2 3.2 0 00-.5-1.9c-.3-.5-.7-.7-1.2-.7s-1 .2-1.2.6c-.3.4-.5 1-.5 1.5 0 .7.1 1.2.4 1.6.3.4.7.6 1.2.6zm4.7 3.4c0-.2 0-.4.2-.5l.5-.2c.3 0 .4 0 .6.2l.2.5-.2.5-.6.2c-.2 0-.4 0-.5-.2a.7.7 0 01-.2-.5zm0-5.5c0-.2 0-.4.2-.5.1-.2.3-.2.5-.2.3 0 .4 0 .6.2l.2.5-.2.4c-.2.2-.3.2-.6.2-.2 0-.4 0-.5-.2a.7.7 0 01-.2-.4zm8.8 2.2c0 1.4-.3 2.4-.7 3-.5.7-1.2 1-2.2 1s-1.7-.3-2.2-1a5 5 0 01-.7-2.8v-1.6c0-1.3.2-2.3.7-3 .5-.6 1.2-1 2.2-1 1 0 1.7.4 2.2 1 .4.6.7 1.6.7 3v1.4zm-1.2-1.6c0-1-.1-1.7-.4-2.1-.3-.5-.7-.7-1.3-.7-.6 0-1 .2-1.3.7a4.2 4.2 0 00-.4 2v1.9c0 1 .1 1.7.4 2.2.3.5.7.7 1.3.7.6 0 1-.2 1.3-.7.3-.4.4-1.1.4-2v-2zm8.4 1.6c0 1.4-.2 2.4-.7 3-.5.7-1.2 1-2.2 1-1 0-1.7-.3-2.1-1a5 5 0 01-.8-2.8v-1.6c0-1.3.3-2.3.7-3 .5-.6 1.2-1 2.2-1 1 0 1.7.4 2.2 1 .5.6.7 1.6.7 3v1.4zm-1.2-1.6c0-1-.1-1.7-.4-2.1-.2-.5-.7-.7-1.3-.7-.6 0-1 .2-1.3.7a4.2 4.2 0 00-.4 2v1.9c0 1 .1 1.7.4 2.2.3.5.7.7 1.3.7.6 0 1-.2 1.3-.7.3-.4.4-1.1.4-2v-2zm14.4 1.4h-8.4v-1h8.4v1zm8.6 4.1h-1.2v-7.7l-2.3.8v-1l3.3-1.3h.2v9.2zm9.4 0h-6v-.8l3.1-3.5 1-1.3.3-1c0-.5-.2-1-.5-1.2-.3-.3-.6-.5-1.1-.5a1.8 1.8 0 00-1.4.5c-.3.3-.4.8-.4 1.4h-1.2c0-.9.3-1.6.8-2a3 3 0 012.2-.9c.8 0 1.5.3 2 .7.5.5.7 1 .7 1.8 0 .9-.5 2-1.7 3.2l-2.4 2.7h4.6v1zm1.3-.6l.1-.5.6-.2c.2 0 .4 0 .5.2.2.1.2.3.2.5l-.2.5-.5.2c-.2 0-.4 0-.6-.2a.7.7 0 01-.1-.5zm0-5.5c0-.2 0-.4.2-.5 0-.2.3-.2.5-.2s.4 0 .5.2c.2 0 .2.3.2.5l-.2.4c0 .2-.3.2-.5.2s-.4 0-.5-.2a.7.7 0 01-.2-.4zm8.7 2.2c0 1.4-.2 2.4-.7 3-.4.7-1.1 1-2.1 1s-1.7-.3-2.2-1a5 5 0 01-.7-2.8v-1.6c0-1.3.2-2.3.7-3 .4-.6 1.2-1 2.2-1 1 0 1.7.4 2.1 1 .5.6.7 1.6.7 3v1.4zm-1.1-1.6c0-1-.1-1.7-.4-2.1-.3-.5-.7-.7-1.3-.7-.6 0-1 .2-1.3.7a4.2 4.2 0 00-.5 2v1.9c0 1 .2 1.7.5 2.2.3.5.7.7 1.3.7.6 0 1-.2 1.3-.7.2-.4.4-1.1.4-2v-2zm8.4 1.6c0 1.4-.2 2.4-.7 3-.5.7-1.2 1-2.2 1-1 0-1.7-.3-2.2-1a5 5 0 01-.7-2.8v-1.6c0-1.3.2-2.3.7-3 .5-.6 1.2-1 2.2-1 1 0 1.7.4 2.2 1 .4.6.7 1.6.7 3v1.4zm-1.2-1.6c0-1-.1-1.7-.4-2.1-.3-.5-.7-.7-1.3-.7-.6 0-1 .2-1.3.7a4.2 4.2 0 00-.4 2v1.9c0 1 .1 1.7.4 2.2.3.5.7.7 1.3.7.6 0 1-.2 1.3-.7.3-.4.4-1.1.4-2v-2z" fill="#416241"/><path d="M316 322h1c.4 0 .8 0 1-.3.3-.2.4-.6.4-1 0-.5 0-.8-.3-1-.2-.3-.6-.4-1-.4-.5 0-.8.1-1 .4-.3.2-.5.5-.5.9h-1.5c0-.5.1-1 .4-1.3.2-.4.6-.7 1-.9l1.5-.3c1 0 1.7.2 2.2.7.5.4.8 1 .8 1.9 0 .4-.2.8-.4 1.2l-1 .8c.5.1.8.4 1.1.8.3.4.4.8.4 1.3 0 .8-.3 1.5-.8 2-.6.4-1.3.7-2.3.7-.8 0-1.6-.2-2.1-.7a2.3 2.3 0 01-.9-1.9h1.6c0 .4 0 .7.3 1 .3.2.7.4 1.2.4.4 0 .8-.2 1-.4.3-.3.5-.6.5-1.1 0-.5-.2-.9-.5-1.1-.2-.3-.7-.4-1.2-.4h-1V322zm7.1-.7c.5-.6 1.2-.9 2-.9 1.4 0 2.1.9 2.1 2.5v4.5h-1.5V323c0-.5 0-.8-.3-1-.2-.2-.5-.3-.9-.3-.6 0-1 .3-1.4.8v4.9h-1.5v-9.7h1.5v3.6zM98.4 163.9l3.6 9 3.6-9h1.9v11h-1.4V166l-3.5 8.9h-1.1l-3.6-8.9.1 4.6v4.3h-1.4v-11h1.8zm11 6.8c0-.8.2-1.5.5-2.1.4-.7.8-1.2 1.3-1.5.6-.4 1.2-.5 2-.5 1 0 2 .4 2.7 1.1.7.8 1 1.8 1 3v.2c0 .8-.1 1.5-.5 2.1a3.4 3.4 0 01-3.2 2c-1.1 0-2-.4-2.7-1.1a4.4 4.4 0 01-1-3v-.2zm1.5.2c0 .9.2 1.6.6 2.2.4.5 1 .8 1.7.8a2 2 0 001.7-.8c.4-.6.6-1.4.6-2.4 0-.9-.2-1.6-.6-2.2a2 2 0 00-1.7-.8 2 2 0 00-1.7.8 3.8 3.8 0 00-.6 2.4zm14.7 0a5 5 0 01-.9 3 2.8 2.8 0 01-2.3 1.1 2.8 2.8 0 01-2.4-1v.9h-1.4v-11.6h1.4v4.3a2.8 2.8 0 012.4-1c1 0 1.7.3 2.3 1.1.6.8.9 1.8.9 3v.2zm-1.4-.2c0-1-.2-1.7-.6-2.2-.3-.5-.9-.7-1.6-.7a2 2 0 00-2 1.2v3.6c.5.8 1.1 1.2 2 1.2.7 0 1.2-.2 1.6-.7a4 4 0 00.6-2.4zm4.6 4.2h-1.4v-8.2h1.4v8.2zm-1.5-10.4l.2-.5c.2-.2.4-.3.7-.3s.4.1.6.3l.2.5a.8.8 0 01-.2.6c-.2.2-.4.2-.6.2l-.7-.2a.8.8 0 01-.2-.6zm5.3 10.4h-1.4v-11.6h1.4v11.6zm5.6.1c-1 0-2-.3-2.7-1a4 4 0 01-1-3v-.2c0-.8.1-1.6.5-2.2.3-.6.7-1.1 1.3-1.5a3.3 3.3 0 011.8-.5c1 0 1.8.3 2.4 1 .6.7 1 1.7 1 3v.6h-5.6c0 .8.2 1.5.7 2 .4.5 1 .7 1.7.7.5 0 1-.1 1.3-.3l.9-.8.8.7a3.4 3.4 0 01-3 1.5zm-.1-7.3c-.6 0-1 .2-1.5.6-.4.4-.6 1-.7 1.7h4.1a2.6 2.6 0 00-.6-1.7c-.3-.4-.8-.6-1.4-.6zm13.8 7.2a3 3 0 01-.2-.9 3.1 3.1 0 01-2.3 1 2.9 2.9 0 01-2-.7 2.2 2.2 0 01-.8-1.7c0-.8.4-1.5 1-2 .7-.4 1.6-.7 2.7-.7h1.4v-.6c0-.5-.2-.9-.5-1.2-.3-.3-.7-.4-1.3-.4a2 2 0 00-1.2.4c-.3.2-.5.5-.5.9h-1.4c0-.4.1-.8.4-1.2a3 3 0 011.2-.9c.5-.2 1-.3 1.6-.3 1 0 1.7.2 2.2.7s.9 1 .9 2v3.7c0 .7 0 1.3.3 1.7v.2h-1.5zm-2.3-1c.4 0 .8-.2 1.2-.4.4-.3.7-.6.9-1V171h-1.1c-1.7 0-2.6.5-2.6 1.5 0 .4.2.8.5 1 .3.3.6.4 1 .4zm12.6-3c0 1.2-.3 2.2-.9 3a2.7 2.7 0 01-2.3 1.1 3 3 0 01-2.3-1v4h-1.4v-11.3h1.2l.1 1a2.9 2.9 0 012.4-1.1c1 0 1.7.3 2.3 1 .6.8.9 1.8.9 3.2zm-1.4-.2c0-.9-.2-1.6-.6-2.2a1.9 1.9 0 00-1.6-.8 2 2 0 00-2 1.2v3.9a2 2 0 002 1c.6 0 1.2-.2 1.6-.7a4 4 0 00.6-2.4zm10 .2c0 1.2-.3 2.2-.8 3a2.7 2.7 0 01-2.3 1.1 3 3 0 01-2.4-1v4H164v-11.3h1.3v1a2.9 2.9 0 012.4-1.1c1 0 1.8.3 2.4 1 .5.8.8 1.8.8 3.2zm-1.4-.2c0-.9-.2-1.6-.6-2.2a1.9 1.9 0 00-1.6-.8 2 2 0 00-1.9 1.2v3.9a2 2 0 002 1c.6 0 1.1-.2 1.5-.7.4-.5.6-1.3.6-2.4zm14 .2c0 1.2-.3 2.2-1 3a2.7 2.7 0 01-2.2 1.1 3 3 0 01-2.4-1v4h-1.4v-11.3h1.3v1a2.9 2.9 0 012.5-1.1c1 0 1.7.3 2.3 1 .6.8.8 1.8.8 3.2zm-1.5-.2c0-.9-.2-1.6-.5-2.2a1.9 1.9 0 00-1.7-.8 2 2 0 00-1.9 1.2v3.9a2 2 0 002 1c.6 0 1.2-.2 1.6-.7a4 4 0 00.5-2.4zm7.2-2.7a4.2 4.2 0 00-.7 0c-1 0-1.6.3-1.9 1v5.9h-1.4v-8.2h1.4v1c.5-.8 1.1-1.1 2-1.1h.6v1.4zm.7 2.7c0-.8.2-1.5.5-2.1.3-.7.8-1.2 1.3-1.5a3.6 3.6 0 012-.5c1 0 2 .3 2.6 1.1.7.8 1 1.8 1 3v.2a5 5 0 01-.4 2.1 3.4 3.4 0 01-3.2 2c-1.1 0-2-.4-2.7-1.1a4.4 4.4 0 01-1-3v-.2zm1.4.2c0 .9.2 1.6.7 2.2.4.5 1 .8 1.7.8a2 2 0 001.6-.8c.5-.6.7-1.4.7-2.4 0-.9-.2-1.6-.7-2.2a2 2 0 00-1.7-.8 2 2 0 00-1.6.8 3.8 3.8 0 00-.7 2.4zm9.7-6.2v2h1.5v1H201v5.2c0 .3 0 .5.2.7.1.2.4.2.7.2h.7v1a4 4 0 01-1.1.2c-.6 0-1.1-.2-1.4-.5a2.4 2.4 0 01-.5-1.6v-5.1H198v-1h1.5v-2h1.4zm2.6 6c0-.8.2-1.5.5-2.1.3-.7.8-1.2 1.3-1.5a3.6 3.6 0 012-.5c1 0 2 .3 2.6 1.1.7.8 1 1.8 1 3v.2c0 .8 0 1.5-.4 2.1a3.4 3.4 0 01-3.2 2c-1.1 0-2-.4-2.7-1.1a4.4 4.4 0 01-1-3v-.2zm1.4.2c0 .9.3 1.6.7 2.2.4.5 1 .8 1.7.8a2 2 0 001.7-.8c.4-.6.6-1.4.6-2.4 0-.9-.2-1.6-.7-2.2a2 2 0 00-1.6-.8 2 2 0 00-1.7.8 3.8 3.8 0 00-.6 2.4zm9.7-6.2v2h1.5v1h-1.5v5.2c0 .3 0 .5.2.7.2.2.4.2.7.2h.7v1c-.4.2-.7.2-1 .2-.7 0-1.2-.2-1.5-.5a2.4 2.4 0 01-.5-1.6v-5.1h-1.5v-1h1.5v-2h1.4zm5.9 8.1l1.9-6h1.5l-3.3 9.3c-.5 1.4-1.3 2-2.5 2h-.7v-1.2h.3c.5 0 .9 0 1.1-.2.3-.2.5-.6.7-1l.3-1-2.9-8h1.5l2 6.1zm11.5-2c0 1.3-.3 2.3-.9 3a2.7 2.7 0 01-2.3 1.2 3 3 0 01-2.3-1v4h-1.4v-11.3h1.3v1a2.9 2.9 0 012.4-1.1c1 0 1.8.3 2.3 1 .6.8.9 1.8.9 3.2zm-1.4 0c0-1-.2-1.7-.6-2.3a1.9 1.9 0 00-1.6-.8 2 2 0 00-1.9 1.2v3.9a2 2 0 002 1c.6 0 1.1-.2 1.5-.7.4-.5.6-1.3.6-2.4zm6.6 4.2c-1.1 0-2-.3-2.7-1a4 4 0 01-1-3v-.2c0-.8 0-1.6.4-2.2.3-.6.7-1.1 1.3-1.5a3.3 3.3 0 011.8-.5c1 0 1.9.3 2.5 1 .6.7.9 1.7.9 3v.6h-5.6c0 .8.3 1.5.7 2 .5.5 1 .7 1.7.7.5 0 1-.1 1.3-.3l.9-.8.8.7a3.4 3.4 0 01-3 1.5zm-.2-7.3c-.6 0-1 .2-1.4.6-.4.4-.7 1-.7 1.7h4a2.6 2.6 0 00-.5-1.7c-.4-.4-.8-.6-1.4-.6z" fill="#416241"/><path d="M299 330.2a7.2 7.2 0 110-14.4 7.2 7.2 0 010 14.4zm.7-7.2v-3.6h-1.4v5h4.3V323h-2.9z" fill="#416241" fill-opacity=".2"/><path d="M84 404h254v258H84V404z" fill="#D4EAF6"/><path opacity=".7" d="M96.4 453.3v-9.1h2.5c.8 0 1.5.2 2.2.5.6.4 1 .9 1.4 1.5.3.7.5 1.4.5 2.2v.6a5 5 0 01-.5 2.3c-.3.6-.8 1.1-1.4 1.5-.7.3-1.4.5-2.2.5h-2.5zm1.2-8.1v7.1h1.2c1 0 1.7-.3 2.2-.8.5-.6.8-1.4.8-2.5v-.5c0-1-.3-1.9-.7-2.5a2.6 2.6 0 00-2.1-.8h-1.4zm11.2 8.1a2.5 2.5 0 01-.1-.7 2.6 2.6 0 01-2 .9c-.6 0-1.2-.2-1.6-.6a1.9 1.9 0 01-.7-1.4c0-.8.3-1.3.8-1.7.6-.4 1.3-.6 2.3-.6h1.1v-.5c0-.4 0-.8-.3-1-.3-.2-.6-.4-1.1-.4-.4 0-.8.1-1 .4a1 1 0 00-.5.7h-1.1c0-.3 0-.7.3-1l1-.7c.4-.2.9-.3 1.4-.3.8 0 1.4.2 1.8.6.5.4.7 1 .7 1.6v3.1c0 .7 0 1.2.2 1.5v.1h-1.2zm-1.9-.9a2 2 0 001-.2c.4-.2.6-.5.7-.8V450h-.9c-1.4 0-2.1.4-2.1 1.3 0 .3.1.6.4.8.2.2.5.3.9.3zm8.7-.9a.8.8 0 00-.4-.7 3.3 3.3 0 00-1.2-.5 6 6 0 01-1.4-.4 2 2 0 01-.8-.6 1.5 1.5 0 01-.2-.9c0-.6.2-1 .7-1.4a2.8 2.8 0 011.8-.6c.8 0 1.4.2 1.9.6.4.4.7 1 .7 1.5h-1.2a1 1 0 00-.4-.8 1.5 1.5 0 00-1-.3c-.4 0-.8 0-1 .2a.9.9 0 00-.4.8c0 .2.1.5.4.6l1.2.4a6.3 6.3 0 011.4.5l.8.6c.2.3.2.6.2 1 0 .5-.2 1-.7 1.4a3 3 0 01-1.9.6c-.5 0-1-.1-1.4-.3-.4-.2-.8-.5-1-.8a2 2 0 01-.4-1.2h1.2c0 .4.2.7.5 1 .3.2.6.3 1.1.3.5 0 .8 0 1-.3.4-.1.5-.4.5-.7zm3.8-4.1a2.5 2.5 0 012-1c1.5 0 2.2.8 2.2 2.4v4.5h-1.1v-4.5c0-.5-.2-.8-.4-1-.2-.3-.5-.4-1-.4-.4 0-.7 0-1 .3a2 2 0 00-.7.8v4.8h-1.1v-9.6h1.1v3.7zm11.7 2.6a4 4 0 01-.7 2.5 2.3 2.3 0 01-2 1c-.8 0-1.4-.3-2-1v.8h-1v-9.6h1.1v3.6a2.4 2.4 0 012-.9c.8 0 1.4.3 2 1 .4.6.6 1.4.6 2.5v.1zm-1.1-.1c0-.8-.2-1.4-.5-1.9-.3-.4-.7-.6-1.3-.6a1.7 1.7 0 00-1.7 1v3c.4.7 1 1 1.7 1 .6 0 1-.1 1.3-.6.3-.4.5-1 .5-2zm2.3 0a3.5 3.5 0 011.5-3 3 3 0 011.6-.5c.9 0 1.6.3 2.2 1 .6.6.9 1.5.9 2.5v.1c0 .7-.2 1.3-.4 1.8a2.9 2.9 0 01-2.7 1.7c-1 0-1.7-.4-2.3-1a3.7 3.7 0 01-.8-2.6zm1.2.1c0 .8.1 1.4.5 1.8.3.5.8.7 1.4.7.6 0 1-.2 1.4-.7a3.2 3.2 0 00.5-2c0-.7-.2-1.3-.5-1.7-.4-.5-.8-.7-1.4-.7s-1 .2-1.4.6a3.2 3.2 0 00-.5 2zm10.6 3.3a2.5 2.5 0 01-.1-.7 2.6 2.6 0 01-2 .9c-.6 0-1.2-.2-1.6-.6a1.9 1.9 0 01-.7-1.5c0-.7.3-1.2.8-1.6.6-.4 1.3-.6 2.3-.6h1.2v-.5c0-.4-.2-.8-.4-1-.3-.2-.6-.4-1-.4-.5 0-.9.1-1.1.4a1 1 0 00-.5.7H140c0-.3 0-.7.3-1l1-.7c.4-.2.9-.3 1.4-.3.8 0 1.4.2 1.8.6.5.4.7 1 .7 1.6v3.1c0 .7 0 1.2.3 1.5v.1H144zm-1.9-.9c.4 0 .7 0 1-.2.4-.2.6-.5.7-.8V450h-.9c-1.4 0-2.1.4-2.1 1.3 0 .3.1.6.4.8.2.2.5.3.9.3zm8-4.8a3.4 3.4 0 00-.5 0c-.8 0-1.3.3-1.6 1v4.7h-1.2v-6.8h1.2v.8c.4-.6.9-.9 1.6-.9l.5.1v1zm.7 2.3c0-1 .2-2 .7-2.5.5-.7 1.2-1 2-1s1.4.3 1.9.8v-3.5h1.1v9.6h-1l-.1-.7c-.5.6-1.1.9-2 .9-.7 0-1.4-.4-1.9-1a4 4 0 01-.7-2.5v-.1zm1.2.1c0 .8.1 1.4.4 1.8.3.4.8.7 1.4.7a1.7 1.7 0 001.6-1v-3.2a1.7 1.7 0 00-1.6-1c-.6 0-1 .3-1.4.7-.3.5-.4 1.2-.4 2zm-52.2 25.2h-1.2v-7.7l-2.3.8v-1l3.3-1.3h.2v9.2zm5-5.1h1c.5 0 1-.2 1.2-.5.4-.2.5-.6.5-1 0-1.2-.5-1.7-1.6-1.7-.5 0-.9.1-1.2.4-.3.3-.4.7-.4 1.2h-1.2c0-.8.3-1.4.8-1.8a2.9 2.9 0 012-.8c.9 0 1.6.3 2 .7.5.5.8 1.1.8 2a2 2 0 01-.4 1c-.3.5-.6.7-1 1 .4 0 .8.3 1.1.7.3.4.4.8.4 1.4a2.5 2.5 0 01-.8 2 3 3 0 01-2 .6 3.1 3.1 0 01-2.2-.7 2.3 2.3 0 01-.8-1.8h1.2c0 .5.1.9.5 1.2.3.3.7.4 1.2.4.6 0 1-.1 1.3-.4.3-.3.5-.8.5-1.3s-.2-1-.5-1.2c-.4-.3-.8-.5-1.4-.5h-1v-1zm5.7 4.5c0-.2 0-.4.2-.5l.5-.2c.3 0 .4 0 .6.2l.2.5-.2.5-.6.2c-.2 0-.4 0-.5-.2a.7.7 0 01-.2-.5zm0-5.5c0-.2 0-.4.2-.5.1-.2.3-.2.5-.2.3 0 .4 0 .6.2l.2.5-.2.4c-.2.2-.3.2-.6.2-.2 0-.4 0-.5-.2a.7.7 0 01-.2-.4zm8.8 2.2c0 1.4-.3 2.4-.7 3-.5.7-1.2 1-2.2 1s-1.7-.3-2.2-1a5 5 0 01-.7-2.8v-1.6c0-1.3.2-2.3.7-3 .5-.6 1.2-1 2.2-1 1 0 1.7.4 2.2 1 .4.6.7 1.6.7 3v1.4zm-1.2-1.6c0-1-.1-1.7-.4-2.1-.3-.5-.7-.7-1.3-.7-.6 0-1 .2-1.3.7a4.2 4.2 0 00-.4 2v1.9c0 1 .1 1.7.4 2.2.3.5.7.7 1.3.7.6 0 1-.2 1.3-.7.3-.4.4-1.1.4-2v-2zm8.4 1.6c0 1.4-.2 2.4-.7 3-.5.7-1.2 1-2.2 1-1 0-1.7-.3-2.1-1a5 5 0 01-.8-2.8v-1.6c0-1.3.3-2.3.7-3 .5-.6 1.2-1 2.2-1 1 0 1.7.4 2.2 1 .5.6.7 1.6.7 3v1.4zm-1.2-1.6c0-1-.1-1.7-.4-2.1-.2-.5-.7-.7-1.3-.7-.6 0-1 .2-1.3.7a4.2 4.2 0 00-.4 2v1.9c0 1 .1 1.7.4 2.2.3.5.7.7 1.3.7.6 0 1-.2 1.3-.7.3-.4.4-1.1.4-2v-2zm14.4 1.4h-8.4v-1h8.4v1zm8.6 4.1h-1.2v-7.7l-2.3.8v-1l3.3-1.3h.2v9.2zm9.3-8.5l-3.8 8.5h-1.2l3.7-8.2h-5v-1h6.3v.7zm1.4 8l.1-.6.6-.2c.2 0 .4 0 .5.2.2.1.2.3.2.5l-.2.5-.5.2c-.2 0-.4 0-.6-.2a.7.7 0 01-.1-.5zm0-5.6c0-.2 0-.4.2-.5 0-.2.3-.2.5-.2s.4 0 .5.2c.2 0 .2.3.2.5l-.2.4c0 .2-.3.2-.5.2s-.4 0-.5-.2a.7.7 0 01-.2-.4zm8.7 2.2c0 1.4-.2 2.4-.7 3-.4.7-1.1 1-2.1 1s-1.7-.3-2.2-1a5 5 0 01-.7-2.8v-1.6c0-1.3.2-2.3.7-3 .4-.6 1.2-1 2.2-1 1 0 1.7.4 2.1 1 .5.6.7 1.6.7 3v1.4zm-1.1-1.6c0-1-.1-1.7-.4-2.1-.3-.5-.7-.7-1.3-.7-.6 0-1 .2-1.3.7a4.2 4.2 0 00-.5 2v1.9c0 1 .2 1.7.5 2.2.3.5.7.7 1.3.7.6 0 1-.2 1.3-.7.2-.4.4-1.1.4-2v-2zm8.4 1.6c0 1.4-.2 2.4-.7 3-.5.7-1.2 1-2.2 1-1 0-1.7-.3-2.2-1a5 5 0 01-.7-2.8v-1.6c0-1.3.2-2.3.7-3 .5-.6 1.2-1 2.2-1 1 0 1.7.4 2.2 1 .4.6.7 1.6.7 3v1.4zm-1.2-1.6c0-1-.1-1.7-.4-2.1-.3-.5-.7-.7-1.3-.7-.6 0-1 .2-1.3.7a4.2 4.2 0 00-.4 2v1.9c0 1 .1 1.7.4 2.2.3.5.7.7 1.3.7.6 0 1-.2 1.3-.7.3-.4.4-1.1.4-2v-2z" fill="#314973"/><path d="M319.4 645.5h1.1v1.2h-1.1v2h-1.5v-2h-4v-1l3.9-6.1h1.6v5.9zm-4 0h2.5v-3.9l-.2.2-2.2 3.7zm7.7-2.8a2.4 2.4 0 012-.9c1.4 0 2.1.8 2.1 2.5v4.4h-1.5v-4.4c0-.4 0-.8-.3-1l-.9-.2c-.6 0-1 .2-1.4.8v4.8h-1.5v-9.6h1.5v3.6zM104.6 427.4a4 4 0 01-1.2 2.7c-.8.6-1.7 1-3 1-1.2 0-2.3-.5-3-1.5a5.6 5.6 0 01-1.2-3.7v-1c0-1 .2-2 .5-2.8a4 4 0 014-2.4 4 4 0 012.7 1 4 4 0 011.2 2.7h-1.4c-.1-.9-.4-1.5-.8-1.9-.4-.4-1-.6-1.8-.6a2.6 2.6 0 00-2.2 1 4.7 4.7 0 00-.8 3v1c0 1.2.3 2.2.8 2.9.5.7 1.2 1 2 1 .9 0 1.5-.1 2-.5.4-.4.7-1 .8-2h1.4zm1.5-.7c0-.8.1-1.5.4-2.1.3-.7.8-1.2 1.3-1.5a3.6 3.6 0 012-.5c1 0 2 .3 2.7 1.1.6.8 1 1.8 1 3v.2a5 5 0 01-.5 2.1 3.4 3.4 0 01-3.2 2c-1.1 0-2-.4-2.7-1.1a4.4 4.4 0 01-1-3v-.2zm1.4.2c0 .9.2 1.6.6 2.2.4.5 1 .8 1.7.8a2 2 0 001.7-.8c.4-.6.6-1.4.6-2.4 0-.9-.2-1.6-.7-2.2a2 2 0 00-1.6-.8 2 2 0 00-1.7.8 3.8 3.8 0 00-.6 2.4zm11.7-3a4.2 4.2 0 00-.7 0c-1 0-1.5.4-1.9 1.2v5.8h-1.4v-8.2h1.4v1a2.2 2.2 0 012.6-1v1.3zm8.2 3c0 1.2-.3 2.2-.9 3a2.7 2.7 0 01-2.3 1.1 3 3 0 01-2.3-1v4h-1.4v-11.3h1.2l.1 1a2.9 2.9 0 012.4-1.1c1 0 1.7.3 2.3 1 .6.8.9 1.8.9 3.2zm-1.4-.2c0-.9-.2-1.6-.6-2.2a1.9 1.9 0 00-1.6-.8 2 2 0 00-2 1.2v3.9a2 2 0 002 1c.6 0 1.2-.2 1.6-.7a4 4 0 00.6-2.4zm2.8 0c0-.8.1-1.5.4-2.1.4-.7.8-1.2 1.3-1.5a3.6 3.6 0 012-.5c1 0 2 .3 2.7 1.1.7.8 1 1.8 1 3v.2a5 5 0 01-.5 2.1 3.4 3.4 0 01-3.2 2c-1.1 0-2-.4-2.7-1.1a4.4 4.4 0 01-1-3v-.2zm1.4.2c0 .9.2 1.6.6 2.2.4.5 1 .8 1.7.8a2 2 0 001.7-.8c.4-.6.6-1.4.6-2.4 0-.9-.2-1.6-.6-2.2a2 2 0 00-1.7-.8 2 2 0 00-1.7.8 3.8 3.8 0 00-.6 2.4zm11.7-3a4.2 4.2 0 00-.7 0c-1 0-1.5.4-1.9 1.2v5.8H138v-8.2h1.4v1c.5-.8 1.1-1.1 2-1.1h.6v1.4zm6 7a3 3 0 01-.2-.9 3.1 3.1 0 01-2.3 1 2.9 2.9 0 01-2-.7 2.2 2.2 0 01-.7-1.7c0-.8.3-1.5 1-2 .6-.4 1.5-.7 2.6-.7h1.4v-.6c0-.5-.1-.9-.4-1.2-.3-.3-.8-.4-1.3-.4a2 2 0 00-1.3.4c-.3.2-.5.5-.5.9h-1.4c0-.4.2-.8.4-1.2a3 3 0 011.2-.9 4 4 0 011.7-.3c.9 0 1.6.2 2.2.7.5.4.8 1 .8 2v3.7c0 .7.1 1.3.3 1.8h-1.5zm-2.3-1a2.4 2.4 0 002.1-1.3v-1.7h-1.1c-1.7 0-2.6.5-2.6 1.5 0 .5.2.8.5 1 .3.3.7.4 1.1.4zm7.6-9.2v2h1.5v1h-1.5v5.2c0 .3 0 .5.2.7.1.2.3.2.7.2h.6v1c-.3.2-.7.2-1 .2-.7 0-1.1-.2-1.4-.5a2.4 2.4 0 01-.5-1.6v-5.1h-1.5v-1h1.5v-2h1.4zm6.5 10.3c-1 0-2-.3-2.7-1a4 4 0 01-1-3v-.2c0-.8.1-1.6.4-2.2.4-.6.8-1.1 1.3-1.5a3.3 3.3 0 011.9-.5c1 0 1.8.3 2.4 1 .6.7 1 1.7 1 3v.6h-5.6c0 .8.2 1.4.7 2 .4.4 1 .7 1.7.7.5 0 1-.1 1.3-.3l.9-.8.8.6a3.4 3.4 0 01-3 1.6zm-.1-7.3c-.6 0-1 .2-1.5.6-.3.4-.6 1-.7 1.8h4.1v-.2a2.6 2.6 0 00-.6-1.6c-.3-.4-.8-.6-1.3-.6zm16 5.3l1.6-6.3h1.4l-2.4 8.2H175l-2-6.2-2 6.2H170l-2.4-8.2h1.4l1.6 6.1 2-6h1l2 6.2zm7.8 2c-1.1 0-2-.3-2.7-1a4 4 0 01-1-3v-.2c0-.8 0-1.6.4-2.2.3-.6.7-1.1 1.3-1.5a3.3 3.3 0 011.8-.5c1 0 1.9.3 2.5 1 .6.7.9 1.7.9 3v.6H181c0 .8.3 1.5.7 2 .5.4 1 .7 1.7.7.5 0 1-.1 1.3-.3l.9-.8.8.6a3.4 3.4 0 01-3 1.6zm-.2-7.3c-.6 0-1 .2-1.4.6a3 3 0 00-.7 1.8h4v-.2a2.6 2.6 0 00-.5-1.6c-.4-.4-.8-.6-1.4-.6zM195 427c0 1.2-.3 2.2-.9 3a2.8 2.8 0 01-2.3 1.1 2.9 2.9 0 01-2.4-1v.9h-1.3v-11.6h1.4v4.3a2.8 2.8 0 012.3-1c1 0 1.8.3 2.3 1 .6.8.9 1.9.9 3.2zm-1.4-.2c0-1-.2-1.7-.6-2.2-.3-.5-.9-.8-1.5-.8a2 2 0 00-2 1.3v3.6c.4.8 1 1.2 2 1.2.6 0 1.2-.2 1.5-.7a4 4 0 00.6-2.4zm7.9 2a1 1 0 00-.4-.9c-.3-.2-.8-.4-1.5-.5a7 7 0 01-1.7-.5 2.4 2.4 0 01-1-.8l-.2-1c0-.7.3-1.3.8-1.8.6-.4 1.3-.6 2.2-.6 1 0 1.7.2 2.2.7.6.5 1 1 1 1.8h-1.5c0-.4-.2-.7-.5-1a1.8 1.8 0 00-1.2-.4c-.5 0-.9.1-1.2.3a1 1 0 00-.4 1c0 .2.1.5.4.7l1.4.5a7 7 0 011.7.5c.4.2.8.5 1 .8.2.3.3.7.3 1.1 0 .7-.3 1.3-.9 1.8-.6.4-1.3.6-2.3.6a4.1 4.1 0 01-1.7-.3 3 3 0 01-1.2-1 2.4 2.4 0 01-.4-1.3h1.4c0 .4.2.8.6 1 .3.3.8.5 1.3.5.6 0 1-.1 1.3-.3a1 1 0 00.5-.9zm4.7 2.2H205v-8.2h1.4v8.2zm-1.5-10.3c0-.3 0-.5.2-.6l.6-.3c.2 0 .5.1.7.3l.2.6a.8.8 0 01-.2.5c-.2.2-.4.2-.7.2s-.4 0-.6-.2a.8.8 0 01-.2-.5zm5.7.1v2h1.5v1h-1.5v5.2c0 .3 0 .5.2.7.1.2.3.2.7.2h.6v1a4 4 0 01-1 .2c-.7 0-1.1-.2-1.4-.5a2.4 2.4 0 01-.5-1.6v-5.1h-1.5v-1h1.5v-2h1.4zM217 431c-1 0-2-.3-2.7-1a4 4 0 01-1-3v-.2c0-.8.1-1.6.4-2.2.3-.6.8-1.1 1.3-1.5a3.3 3.3 0 011.8-.5c1.1 0 2 .3 2.5 1 .6.7.9 1.7.9 3v.6h-5.5c0 .8.2 1.5.7 2 .4.4 1 .7 1.7.7.5 0 .9-.1 1.2-.3l1-.8.8.6a3.4 3.4 0 01-3 1.6zm-.2-7.3c-.5 0-1 .2-1.4.6a3 3 0 00-.7 1.8h4.1v-.2a2.6 2.6 0 00-.6-1.6c-.3-.4-.8-.6-1.4-.6z" fill="#314973"/><path d="M299 651.2a7.2 7.2 0 110-14.4 7.2 7.2 0 010 14.4zm.7-7.2v-3.6h-1.4v5h4.3V644h-2.9z" fill="#314973" fill-opacity=".2"/><path d="M595 245h255v160H595V245z" fill="#D4EAF6"/><path opacity=".7" d="M607.6 290.8v3.5h-1.2v-9.1h3.3c1 0 1.8.2 2.4.8.6.5.8 1.1.8 2 0 .9-.2 1.5-.8 2-.6.5-1.3.7-2.4.7h-2.1zm0-1h2.1c.7 0 1.2-.2 1.5-.5.4-.3.5-.7.5-1.3 0-.5-.1-1-.5-1.3a2 2 0 00-1.4-.5h-2.2v3.6zm10-1.2a3.5 3.5 0 00-.6 0c-.8 0-1.3.3-1.5 1v4.7h-1.2v-6.8h1.1v.8c.4-.6 1-.9 1.7-.9h.5v1.2zm.6 2.3c0-.7.2-1.3.4-1.8.3-.6.6-1 1.1-1.3a3 3 0 011.6-.4c1 0 1.7.3 2.3 1 .5.6.8 1.5.8 2.5v.1a4 4 0 01-.4 1.8c-.2.5-.6 1-1 1.2a3 3 0 01-1.7.5c-.9 0-1.6-.4-2.2-1a3.7 3.7 0 01-.9-2.6zm1.2.1c0 .8.2 1.4.5 1.8.4.5.8.7 1.4.7.6 0 1-.2 1.4-.7a3.2 3.2 0 00.6-2c0-.7-.2-1.3-.6-1.7-.3-.5-.8-.7-1.4-.7s-1 .2-1.4.7a3.2 3.2 0 00-.5 2zm6.9 3.3v-5.9h-1.1v-.9h1v-.5c0-.8.3-1.4.7-1.8a2.5 2.5 0 011.9-.6c.4 0 1 0 1.7.3l-.2 1a4 4 0 00-1.5-.3c-.5 0-.8.1-1 .3-.3.3-.4.6-.4 1v.6h1.4v1h-1.4v5.8h-1.1zm4.8 0H630v-6.8h1.2v6.8zm3.2 0H633v-9.6h1.2v9.6zm4.7.2a3 3 0 01-2.3-1 3.4 3.4 0 01-.9-2.4v-.2c0-.7.2-1.3.4-1.8.3-.5.6-1 1.1-1.2.5-.3 1-.5 1.5-.5.9 0 1.6.3 2 .9.6.6.8 1.4.8 2.5v.5H637c0 .6.2 1.2.6 1.6.4.4.9.6 1.4.6.4 0 .8 0 1-.2.4-.2.6-.4.8-.7l.7.6a2.9 2.9 0 01-2.5 1.3zm-.2-6.1c-.4 0-.8.1-1.2.5-.3.3-.5.8-.6 1.4h3.4a2.2 2.2 0 00-.4-1.5 1.5 1.5 0 00-1.2-.4zm-29 27.8h-1v-7.7l-2.4.8v-1l3.3-1.3h.2v9.2zm9.2-3.9c0 1.4-.2 2.4-.7 3-.4.7-1.2 1-2.2 1-1 0-1.7-.3-2.1-1a5 5 0 01-.7-2.8v-1.6c0-1.3.2-2.3.7-3 .4-.6 1.2-1 2.1-1 1 0 1.7.4 2.2 1 .5.6.7 1.6.7 3v1.4zm-1.1-1.6c0-1-.2-1.7-.4-2.1-.3-.5-.8-.7-1.4-.7-.6 0-1 .2-1.3.7a4.2 4.2 0 00-.4 2v1.9c0 1 .2 1.7.4 2.2.3.5.8.7 1.3.7.6 0 1-.2 1.3-.7a4 4 0 00.5-2v-2zm2.7 5c0-.3 0-.5.2-.6l.5-.2c.2 0 .4 0 .6.2l.1.5-.1.5-.6.2c-.2 0-.4 0-.5-.2a.7.7 0 01-.2-.5zm0-5.6c0-.2 0-.4.2-.5.1-.2.3-.2.5-.2.3 0 .4 0 .6.2l.2.5-.2.4c-.2.2-.3.2-.6.2-.2 0-.4 0-.5-.2a.7.7 0 01-.2-.4zm4.7 1h.9c.6 0 1-.2 1.3-.5.3-.2.5-.6.5-1 0-1.2-.6-1.7-1.6-1.7-.5 0-1 .1-1.2.4-.3.3-.5.7-.5 1.2h-1.2c0-.8.3-1.4.8-1.8a2.9 2.9 0 012-.8c1 0 1.6.3 2 .7.6.5.8 1.1.8 2a2 2 0 01-.4 1c-.2.5-.6.7-1 1 .5 0 .9.3 1.1.7.3.4.5.8.5 1.4a2.5 2.5 0 01-.8 2 3 3 0 01-2.1.6 3.1 3.1 0 01-2.1-.7 2.3 2.3 0 01-.8-1.8h1.1c0 .5.2.9.5 1.2.3.3.7.4 1.3.4.5 0 1-.1 1.3-.4.3-.3.4-.8.4-1.3s-.2-1-.5-1.2c-.3-.3-.8-.5-1.4-.5h-.9v-1zm11.3 1.2c0 1.4-.2 2.4-.7 3-.5.7-1.2 1-2.2 1-1 0-1.7-.3-2.1-1a5 5 0 01-.8-2.8v-1.6c0-1.3.3-2.3.7-3 .5-.6 1.2-1 2.2-1 1 0 1.7.4 2.2 1 .5.6.7 1.6.7 3v1.4zm-1.2-1.6c0-1-.1-1.7-.4-2.1-.2-.5-.7-.7-1.3-.7-.6 0-1 .2-1.3.7a4.2 4.2 0 00-.4 2v1.9c0 1 .1 1.7.4 2.2.3.5.7.7 1.3.7.6 0 1-.2 1.3-.7.3-.4.4-1.1.4-2v-2zm14.4 1.4h-8.4v-1h8.4v1zm8.6 4.1h-1.2v-7.7l-2.4.8v-1l3.4-1.3h.2v9.2zm5-5.1h1c.5 0 1-.2 1.2-.5.3-.2.5-.6.5-1 0-1.2-.5-1.7-1.6-1.7-.5 0-1 .1-1.2.4-.3.3-.5.7-.5 1.2h-1.1c0-.8.2-1.4.8-1.8a2.9 2.9 0 012-.8c.9 0 1.5.3 2 .7.5.5.8 1.1.8 2a2 2 0 01-.4 1c-.3.5-.6.7-1 1 .4 0 .8.3 1 .7.4.4.5.8.5 1.4a2.5 2.5 0 01-.8 2 3 3 0 01-2.1.6 3.1 3.1 0 01-2.1-.7 2.3 2.3 0 01-.8-1.8h1.2c0 .5.1.9.4 1.2.3.3.8.4 1.3.4.6 0 1-.1 1.3-.4.3-.3.4-.8.4-1.3s-.1-1-.5-1.2a2 2 0 00-1.4-.5h-.8v-1zm5.7 4.5c0-.2 0-.4.2-.5l.5-.2c.2 0 .4 0 .5.2.2.1.2.3.2.5l-.2.5-.5.2c-.2 0-.4 0-.5-.2a.7.7 0 01-.2-.5zm0-5.5c0-.2 0-.4.2-.5 0-.2.3-.2.5-.2s.4 0 .5.2c.2 0 .2.3.2.5l-.2.4c0 .2-.3.2-.5.2s-.4 0-.5-.2a.7.7 0 01-.2-.4zm8.8 2.2c0 1.4-.3 2.4-.7 3-.5.7-1.2 1-2.2 1-1 0-1.7-.3-2.2-1a5 5 0 01-.7-2.8v-1.6c0-1.3.2-2.3.7-3 .4-.6 1.2-1 2.2-1 1 0 1.7.4 2.1 1 .5.6.7 1.6.7 3v1.4zm-1.2-1.6c0-1-.1-1.7-.4-2.1-.3-.5-.7-.7-1.3-.7-.6 0-1 .2-1.3.7a4.2 4.2 0 00-.5 2v1.9c0 1 .2 1.7.5 2.2.3.5.7.7 1.3.7.6 0 1-.2 1.3-.7.2-.4.4-1.1.4-2v-2zm8.4 1.6c0 1.4-.2 2.4-.7 3-.5.7-1.2 1-2.2 1-1 0-1.7-.3-2.2-1a5 5 0 01-.7-2.8v-1.6c0-1.3.2-2.3.7-3 .5-.6 1.2-1 2.2-1 1 0 1.7.4 2.2 1 .4.6.7 1.6.7 3v1.4zm-1.2-1.6c0-1-.1-1.7-.4-2.1-.3-.5-.7-.7-1.3-.7-.6 0-1 .2-1.3.7a4.2 4.2 0 00-.4 2v1.9c0 1 .1 1.7.4 2.2.3.5.7.7 1.3.7.6 0 1-.2 1.3-.7.3-.4.4-1.1.4-2v-2z" fill="#314973"/><path d="M792.9 392h-6.2v-1l3-3.4 1-1.2a2 2 0 00.3-1c0-.4-.1-.8-.4-1-.2-.3-.6-.5-1-.5-.5 0-.9.2-1.1.5-.3.3-.4.7-.4 1.2h-1.6a3 3 0 01.4-1.5c.3-.4.6-.8 1.1-1a3.5 3.5 0 011.6-.4c1 0 1.6.2 2.1.7.6.4.8 1 .8 1.8 0 .5-.1 1-.4 1.5-.2.5-.7 1-1.2 1.7l-2.3 2.4h4.3v1.2zm2.7-6a2.4 2.4 0 012-1c1.4 0 2.1.9 2.1 2.6v4.4h-1.5v-4.4c0-.5-.1-.8-.3-1-.2-.2-.5-.3-.9-.3-.6 0-1 .3-1.4.8v4.9h-1.5v-9.7h1.5v3.6zm10.6.7h.9c.5 0 .8-.1 1-.3.4-.3.5-.6.5-1 0-.5-.1-.8-.3-1-.3-.3-.6-.4-1-.4-.5 0-.8 0-1 .3-.4.2-.5.5-.5 1h-1.5c0-.5.1-1 .4-1.3.2-.4.6-.7 1-1a3.4 3.4 0 011.5-.3c1 0 1.6.3 2.2.7.5.5.7 1.1.7 2 0 .3 0 .7-.4 1-.2.5-.6.7-1 .9.5.2 1 .5 1.2.8.2.4.4.8.4 1.3 0 .9-.3 1.5-.9 2-.5.5-1.3.7-2.2.7-.9 0-1.6-.2-2.2-.7a2.3 2.3 0 01-.8-1.8h1.5c0 .4.2.7.4 1s.7.3 1.1.3c.5 0 .9-.1 1.1-.4.3-.2.4-.6.4-1 0-.5 0-1-.4-1.2-.3-.2-.7-.4-1.3-.4h-.9v-1.2zm11.5 1.5a5 5 0 01-.8 3c-.5.6-1.2 1-2.2 1-1 0-1.8-.4-2.3-1a4.8 4.8 0 01-.7-3v-1.5a5 5 0 01.7-3c.5-.6 1.3-1 2.3-1 1 0 1.7.3 2.2 1 .5.6.8 1.6.8 2.9v1.6zm-1.6-1.8c0-.8 0-1.5-.3-1.8-.2-.4-.6-.6-1.1-.6-.5 0-.9.1-1.1.5-.3.4-.4 1-.4 1.8v2c0 1 .1 1.6.4 2 .2.4.6.6 1 .6.6 0 1-.2 1.2-.6.2-.4.3-1 .4-1.8v-2zm4.4-1.2l.1.7a2.5 2.5 0 012-.8c.9 0 1.5.3 1.8 1 .5-.7 1.2-1 2.1-1 .8 0 1.3.2 1.7.6.4.4.5 1 .5 1.8v4.5h-1.5v-4.4c0-.5 0-.8-.3-1-.2-.2-.5-.3-.9-.3a1.3 1.3 0 00-1.3 1v4.7h-1.5v-4.5c0-.8-.5-1.2-1.3-1.2-.6 0-1 .3-1.3.8v4.9h-1.5v-6.8h1.5zM832 392h-1.5v-6.8h1.5v6.8zm-1.6-8.6l.2-.5c.2-.2.4-.3.7-.3.3 0 .5 0 .6.3a.8.8 0 01.2.5.8.8 0 01-.2.6.9.9 0 01-.6.2.9.9 0 01-.7-.2.8.8 0 01-.2-.6zm4.7 1.8v.8c.6-.6 1.2-1 2-1 1.5 0 2.2.9 2.2 2.5v4.5h-1.5v-4.4c0-.4-.1-.8-.3-1-.2-.2-.5-.3-.9-.3-.6 0-1 .3-1.4.9v4.8h-1.5v-6.8h1.4zM614.6 268.4a4 4 0 01-1.2 2.7c-.8.6-1.7 1-3 1-1.2 0-2.2-.5-3-1.5a5.6 5.6 0 01-1.2-3.7v-1c0-1 .2-2 .5-2.8a4 4 0 014-2.4 4 4 0 012.7 1 4 4 0 011.2 2.7h-1.4c-.1-.8-.4-1.5-.8-1.9-.4-.4-1-.6-1.8-.6a2.6 2.6 0 00-2.2 1 4.7 4.7 0 00-.8 3v1c0 1.2.3 2.2.8 2.9.5.7 1.2 1 2 1 .9 0 1.5-.1 2-.5.4-.4.7-1 .8-2h1.4zm1.4-.7c0-.8.2-1.5.5-2.1.3-.7.8-1.2 1.3-1.5a3.6 3.6 0 012-.5c1 0 2 .3 2.6 1.1.7.8 1 1.8 1 3v.2c0 .8 0 1.5-.4 2.1a3.4 3.4 0 01-3.2 2c-1.1 0-2-.4-2.7-1.1a4.4 4.4 0 01-1-3v-.2zm1.4.2c0 .9.3 1.6.7 2.2.4.5 1 .8 1.7.8a2 2 0 001.7-.8c.4-.6.6-1.4.6-2.4 0-.9-.2-1.6-.7-2.2a2 2 0 00-1.6-.8 2 2 0 00-1.7.8 3.8 3.8 0 00-.6 2.4zm11.8-3a4.2 4.2 0 00-.7 0c-1 0-1.5.4-1.9 1.2v5.8h-1.4v-8.2h1.4v1c.5-.8 1.1-1.1 2-1.1h.6v1.4zm8.2 3c0 1.2-.3 2.2-.9 3a2.7 2.7 0 01-2.3 1.1 3 3 0 01-2.3-1v4h-1.4v-11.3h1.2l.1 1a2.9 2.9 0 012.4-1.1c1 0 1.7.3 2.3 1 .6.8.9 1.8.9 3.1v.2zm-1.4-.2c0-.9-.2-1.6-.6-2.2a1.9 1.9 0 00-1.6-.8 2 2 0 00-2 1.2v3.9a2 2 0 002 1c.6 0 1.2-.2 1.6-.7.4-.5.6-1.3.6-2.4zm2.8 0c0-.8.1-1.5.4-2.1.3-.7.8-1.2 1.3-1.5a3.6 3.6 0 012-.5c1 0 2 .3 2.7 1.1.6.8 1 1.8 1 3v.2a5 5 0 01-.5 2.1 3.4 3.4 0 01-3.2 2c-1.1 0-2-.4-2.7-1.1a4.4 4.4 0 01-1-3v-.2zm1.4.2c0 .9.2 1.6.6 2.2.4.5 1 .8 1.7.8a2 2 0 001.7-.8c.4-.6.6-1.4.6-2.4 0-.9-.2-1.6-.6-2.2a2 2 0 00-1.7-.8 2 2 0 00-1.7.8 3.8 3.8 0 00-.6 2.4zm11.7-3a4.2 4.2 0 00-.7 0c-1 0-1.5.4-1.9 1.2v5.8H648v-8.2h1.4v1c.5-.8 1.1-1.1 2-1.1h.6v1.4zm6 7a3 3 0 01-.2-.9 3.1 3.1 0 01-2.3 1 2.9 2.9 0 01-2-.6 2.2 2.2 0 01-.8-1.8c0-.8.4-1.5 1-2 .7-.4 1.6-.7 2.7-.7h1.4v-.6c0-.5-.1-.9-.4-1.2-.3-.3-.8-.4-1.3-.4a2 2 0 00-1.3.4c-.3.2-.5.5-.5.9h-1.4c0-.4.2-.8.4-1.2a3 3 0 011.2-.9 4 4 0 011.7-.3c.9 0 1.6.2 2.2.7.5.4.8 1 .8 2v3.7c0 .7.1 1.3.3 1.8h-1.5zm-2.3-1a2.4 2.4 0 002.1-1.3v-1.7h-1.1c-1.7 0-2.6.5-2.6 1.5 0 .5.2.8.5 1 .3.3.7.4 1.1.4zm7.6-9.2v2h1.5v1h-1.5v5.2c0 .3 0 .5.2.7.1.2.4.2.7.2h.6v1c-.3.2-.7.2-1 .2-.7 0-1.1-.2-1.4-.5a2.4 2.4 0 01-.5-1.6v-5.1h-1.5v-1h1.5v-2h1.4zm6.5 10.3c-1 0-2-.3-2.7-1a4 4 0 01-1-3v-.2c0-.8.1-1.6.4-2.2.4-.6.8-1.1 1.3-1.5a3.3 3.3 0 011.8-.5c1.1 0 2 .3 2.5 1 .6.7 1 1.7 1 3v.6h-5.6c0 .8.2 1.5.7 2 .4.4 1 .7 1.7.7.5 0 1-.1 1.3-.3l.9-.8.8.6a3.4 3.4 0 01-3 1.6zm-.2-7.3c-.5 0-1 .2-1.4.6-.3.4-.6 1-.7 1.8h4.1v-.1a2.6 2.6 0 00-.6-1.7c-.3-.4-.8-.6-1.3-.6zm16 5.3l1.7-6.3h1.4l-2.4 8.2H685l-2-6.2-2 6.2H680l-2.4-8.2h1.4l1.6 6.1 2-6h1l2 6.2zm7.9 2c-1.1 0-2-.3-2.7-1a4 4 0 01-1-3v-.2c0-.8 0-1.6.4-2.2.3-.6.7-1.1 1.3-1.5a3.3 3.3 0 011.8-.5c1 0 1.9.3 2.5 1 .6.7.8 1.7.8 3v.6H691c0 .8.3 1.5.7 2 .5.4 1 .7 1.7.7.5 0 1-.1 1.3-.3l.9-.8.8.6a3.4 3.4 0 01-3 1.6zm-.2-7.3c-.6 0-1 .2-1.4.6a3 3 0 00-.7 1.8h4v-.1a2.6 2.6 0 00-.5-1.7c-.4-.4-.8-.6-1.4-.6zM705 268c0 1.2-.3 2.2-.9 3a2.8 2.8 0 01-2.3 1.1 2.9 2.9 0 01-2.4-1v.9h-1.3v-11.6h1.4v4.3a2.8 2.8 0 012.3-1c1 0 1.8.3 2.3 1.1.6.8.9 1.8.9 3v.2zm-1.4-.2c0-1-.2-1.7-.6-2.2-.3-.5-.9-.7-1.5-.7a2 2 0 00-2 1.2v3.6c.4.8 1 1.2 2 1.2.6 0 1.2-.2 1.5-.7a4 4 0 00.6-2.4zm7.9 2a1 1 0 00-.4-.9c-.3-.2-.8-.4-1.5-.5a7.1 7.1 0 01-1.7-.5 2.4 2.4 0 01-1-.8l-.2-1c0-.7.3-1.3.8-1.7.6-.5 1.3-.7 2.2-.7 1 0 1.7.2 2.3.7.5.5.8 1 .8 1.8h-1.4c0-.4-.1-.7-.5-1a1.8 1.8 0 00-1.2-.4c-.5 0-.9.1-1.2.3a1 1 0 00-.4 1c0 .2.1.5.4.7l1.4.5a7 7 0 011.7.5 2 2 0 011.3 1.9c0 .7-.3 1.3-.9 1.8a3.7 3.7 0 01-2.2.6c-.7 0-1.3 0-1.8-.3-.5-.2-.9-.6-1.2-1a2.4 2.4 0 01-.4-1.3h1.4c0 .4.2.8.6 1 .3.3.8.5 1.4.5.5 0 .9-.1 1.2-.3a1 1 0 00.5-.9zm4.7 2.2H715v-8.2h1.4v8.2zm-1.5-10.3c0-.3 0-.5.2-.6l.6-.3c.2 0 .5.1.7.3l.2.6a.8.8 0 01-.2.5c-.2.2-.4.2-.7.2s-.4 0-.6-.2a.8.8 0 01-.2-.5zm5.7.1v2h1.5v1h-1.5v5.2c0 .3 0 .5.2.7.1.2.3.2.7.2h.6v1a4 4 0 01-1 .2c-.7 0-1.1-.2-1.4-.5a2.4 2.4 0 01-.5-1.6v-5.1h-1.5v-1h1.5v-2h1.4zM727 272c-1 0-2-.3-2.7-1a4 4 0 01-1-3v-.2c0-.8.1-1.6.4-2.2.3-.6.8-1.1 1.3-1.5a3.3 3.3 0 011.8-.5c1.1 0 2 .3 2.5 1 .6.7.9 1.7.9 3v.6h-5.5c0 .8.2 1.5.7 2 .4.4 1 .7 1.7.7.5 0 .9-.1 1.2-.3l1-.8.8.7a3.4 3.4 0 01-3 1.5zm-.2-7.3c-.5 0-1 .2-1.4.6a3 3 0 00-.7 1.8h4.1v-.1a2.6 2.6 0 00-.6-1.7c-.3-.4-.8-.6-1.4-.6z" fill="#314973"/><path d="M772 394.2a7.2 7.2 0 110-14.4 7.2 7.2 0 010 14.4zm.7-7.2v-3.6h-1.4v5h4.3V387h-2.9z" fill="#314973" fill-opacity=".2"/><path d="M339 404h255v130H339V404z" fill="#D8EEDB"/><path opacity=".7" d="M355 449.3a5.7 5.7 0 01-2.2-1.2 2.1 2.1 0 01-.7-1.6c0-.7.3-1.3.8-1.7a3.4 3.4 0 012.3-.7c.6 0 1.2 0 1.7.3s.9.6 1.1 1c.3.4.4 1 .4 1.4h-1.2c0-.5-.1-1-.5-1.3a2.1 2.1 0 00-1.5-.5c-.6 0-1 .2-1.4.4-.3.3-.5.7-.5 1.1 0 .4.2.7.5 1 .3.2.8.5 1.6.7.8.2 1.4.4 1.8.7.4.2.7.5 1 .9.2.3.3.7.3 1.2 0 .7-.3 1.3-1 1.8-.5.4-1.3.7-2.2.7-.7 0-1.2-.2-1.8-.4a3 3 0 01-1.3-1c-.2-.4-.4-.9-.4-1.4h1.2c0 .5.2 1 .6 1.3.4.3 1 .5 1.7.5.6 0 1-.2 1.4-.4.4-.3.5-.6.5-1 0-.5-.1-.9-.4-1.1a5.4 5.4 0 00-1.7-.8zm7.6 3.2c.4 0 .7-.1 1-.4.3-.2.5-.5.6-1h1a2.1 2.1 0 01-.3 1.2 2.8 2.8 0 01-2.3 1.2c-1 0-1.7-.3-2.3-1a3.7 3.7 0 01-.8-2.5v-.2c0-.7.1-1.2.4-1.8a2.8 2.8 0 012.7-1.6c.7 0 1.3.2 1.8.7.6.5.8 1 .9 1.8H364a1.6 1.6 0 00-1.6-1.5c-.6 0-1 .2-1.3.6a3 3 0 00-.5 1.8v.3c0 .8.1 1.4.5 1.8.3.4.7.6 1.3.6zm6.8 1a3 3 0 01-2.3-1 3.4 3.4 0 01-.8-2.4v-.2c0-.7.1-1.3.3-1.8a3 3 0 012.6-1.7c1 0 1.6.3 2.1.9.5.6.7 1.4.7 2.5v.5h-4.6c0 .6.2 1.2.6 1.6.4.4.9.6 1.4.6.4 0 .8 0 1-.2.4-.2.6-.4.8-.7l.7.5a2.9 2.9 0 01-2.5 1.4zm-.2-6.1c-.4 0-.8.1-1.1.5-.4.3-.6.8-.6 1.4h3.4a2.2 2.2 0 00-.5-1.5 1.5 1.5 0 00-1.2-.4zm5.3-.9v.9c.6-.7 1.2-1 2-1 1.5 0 2.2.8 2.2 2.4v4.5h-1.1v-4.5c0-.5-.1-.8-.4-1-.2-.3-.5-.4-1-.4-.4 0-.7 0-1 .3a2 2 0 00-.6.8v4.8h-1.2v-6.8h1zm10.2 6.8a2.5 2.5 0 01-.2-.7 2.6 2.6 0 01-2 .9c-.6 0-1.1-.2-1.6-.6a1.9 1.9 0 01-.6-1.4c0-.8.3-1.3.8-1.7.5-.4 1.3-.6 2.3-.6h1.1v-.5c0-.4-.1-.8-.4-1-.2-.2-.6-.4-1-.4-.5 0-.8.1-1 .4a1 1 0 00-.5.7h-1.2c0-.3.2-.7.4-1 .2-.3.6-.5 1-.7.4-.2.8-.3 1.3-.3.8 0 1.4.2 1.9.6.4.4.7 1 .7 1.6v3.1c0 .7 0 1.2.2 1.5v.1h-1.2zm-2-.9a2 2 0 001.8-1V450h-.9c-1.4 0-2.1.4-2.1 1.3 0 .3 0 .6.3.8.3.2.6.3 1 .3zm8-4.8a3.4 3.4 0 00-.5 0c-.8 0-1.3.3-1.5 1v4.7h-1.2v-6.8h1.1v.8c.4-.6 1-.9 1.7-.9l.5.1v1zm2.4 5.7H392v-6.8h1.1v6.8zm-1.2-8.6a.7.7 0 01.1-.5l.5-.2.6.2.1.5-.1.5-.6.2c-.2 0-.4 0-.5-.2a.7.7 0 01-.1-.5zm2.8 5.2a3.5 3.5 0 011.5-3 3 3 0 011.6-.5c.9 0 1.6.3 2.2 1 .6.6.9 1.5.9 2.5v.1c0 .7-.2 1.3-.4 1.8s-.6 1-1.1 1.2a3 3 0 01-1.6.5c-1 0-1.7-.4-2.3-1a3.7 3.7 0 01-.8-2.6zm1.1.1c0 .8.2 1.4.6 1.8.3.5.8.7 1.4.7.6 0 1-.2 1.4-.7a3.2 3.2 0 00.5-2 3 3 0 00-.5-1.7c-.4-.5-.9-.7-1.4-.7s-1 .2-1.4.6a3.2 3.2 0 00-.6 2zm-40 25.2h-1v-7.7l-2.4.8v-1l3.3-1.3h.2v9.2zm5.2-5.1h.9c.5 0 1-.2 1.3-.5.3-.2.4-.6.4-1 0-1.2-.5-1.7-1.6-1.7-.5 0-.9.1-1.2.4-.3.3-.4.7-.4 1.2h-1.2c0-.8.3-1.4.8-1.8a2.9 2.9 0 012-.8c.9 0 1.6.3 2 .7.5.5.8 1.1.8 2a2 2 0 01-.4 1c-.3.5-.6.7-1 1 .5 0 .8.3 1.1.7.3.4.4.8.4 1.4a2.5 2.5 0 01-.8 2 3 3 0 01-2 .6 3.1 3.1 0 01-2.2-.7 2.3 2.3 0 01-.8-1.8h1.2c0 .5.2.9.5 1.2.3.3.7.4 1.2.4.6 0 1-.1 1.3-.4.3-.3.5-.8.5-1.3s-.2-1-.5-1.2c-.4-.3-.8-.5-1.4-.5h-1v-1zm5.6 4.5c0-.2 0-.4.2-.5l.5-.2c.3 0 .4 0 .6.2l.2.5-.2.5-.6.2c-.2 0-.4 0-.5-.2a.7.7 0 01-.2-.5zm0-5.5c0-.2 0-.4.2-.5.1-.2.3-.2.5-.2.3 0 .4 0 .6.2l.2.5-.2.4c-.2.2-.3.2-.6.2-.2 0-.4 0-.5-.2a.7.7 0 01-.2-.4zm8.8 2.2c0 1.4-.3 2.4-.7 3-.5.7-1.2 1-2.2 1-1 0-1.7-.3-2.2-1a5 5 0 01-.7-2.8v-1.6c0-1.3.2-2.3.7-3 .5-.6 1.2-1 2.2-1 1 0 1.7.4 2.2 1 .4.6.7 1.6.7 3v1.4zm-1.2-1.6c0-1-.1-1.7-.4-2.1-.3-.5-.7-.7-1.3-.7-.6 0-1 .2-1.3.7a4.2 4.2 0 00-.4 2v1.9c0 1 .1 1.7.4 2.2.3.5.7.7 1.3.7.6 0 1-.2 1.3-.7.2-.4.4-1.1.4-2v-2zm8.4 1.6c0 1.4-.2 2.4-.7 3-.5.7-1.2 1-2.2 1-1 0-1.7-.3-2.1-1a5 5 0 01-.8-2.8v-1.6c0-1.3.3-2.3.7-3 .5-.6 1.2-1 2.2-1 1 0 1.7.4 2.2 1 .4.6.7 1.6.7 3v1.4zm-1.2-1.6c0-1-.1-1.7-.4-2.1-.3-.5-.7-.7-1.3-.7-.6 0-1 .2-1.3.7a4.2 4.2 0 00-.4 2v1.9c0 1 .1 1.7.4 2.2.3.5.7.7 1.3.7.6 0 1-.2 1.3-.7.3-.4.4-1.1.4-2v-2zm14.4 1.4h-8.4v-1h8.4v1zm8.6 4.1h-1.2v-7.7l-2.4.8v-1l3.4-1.3h.2v9.2zm3.9-4.6l.5-4.5h4.7v1h-3.7l-.3 2.5c.4-.2 1-.4 1.5-.4.8 0 1.5.3 2 .9.5.5.7 1.3.7 2.2 0 1-.2 1.7-.7 2.2-.5.6-1.3.8-2.2.8a2.9 2.9 0 01-2-.6 2.7 2.7 0 01-.8-1.9h1c.1.5.3 1 .6 1.2.3.3.7.4 1.2.4.6 0 1-.2 1.3-.6.3-.3.5-.8.5-1.5 0-.6-.2-1-.5-1.5a1.7 1.7 0 00-1.4-.5 2 2 0 00-1.2.3l-.3.3-.9-.3zm6.8 4c0-.2 0-.4.2-.5l.5-.2c.2 0 .4 0 .5.2.2.1.2.3.2.5l-.2.5-.5.2c-.2 0-.4 0-.6-.2a.7.7 0 01-.1-.5zm0-5.5c0-.2 0-.4.2-.5 0-.2.3-.2.5-.2s.4 0 .5.2c.2 0 .2.3.2.5l-.2.4c0 .2-.3.2-.5.2s-.4 0-.5-.2a.7.7 0 01-.2-.4zm8.7 2.2c0 1.4-.2 2.4-.7 3-.4.7-1.1 1-2.1 1s-1.7-.3-2.2-1a5 5 0 01-.7-2.8v-1.6c0-1.3.2-2.3.7-3 .4-.6 1.2-1 2.2-1 1 0 1.7.4 2.1 1 .5.6.7 1.6.7 3v1.4zm-1.1-1.6c0-1-.2-1.7-.4-2.1-.3-.5-.7-.7-1.3-.7-.6 0-1 .2-1.3.7a4.2 4.2 0 00-.5 2v1.9c0 1 .2 1.7.5 2.2.3.5.7.7 1.3.7.5 0 1-.2 1.2-.7.3-.4.5-1.1.5-2v-2zm8.4 1.6c0 1.4-.3 2.4-.7 3-.5.7-1.2 1-2.2 1-1 0-1.7-.3-2.2-1a5 5 0 01-.7-2.8v-1.6c0-1.3.2-2.3.7-3 .5-.6 1.2-1 2.2-1 1 0 1.7.4 2.2 1 .4.6.7 1.6.7 3v1.4zm-1.2-1.6c0-1-.1-1.7-.4-2.1-.3-.5-.7-.7-1.3-.7-.6 0-1 .2-1.3.7a4.2 4.2 0 00-.4 2v1.9c0 1 .1 1.7.4 2.2.3.5.7.7 1.3.7.6 0 1-.2 1.3-.7.3-.4.4-1.1.4-2v-2z" fill="#416241"/><path d="M576.4 519h-6.2v-1l3-3.4 1-1.2c.2-.3.3-.7.3-1 0-.4-.1-.8-.4-1-.2-.3-.6-.5-1-.5-.5 0-.9.2-1.1.5-.3.3-.4.7-.4 1.2H570a3 3 0 01.4-1.5c.3-.4.6-.8 1.1-1a3.5 3.5 0 011.6-.4c1 0 1.6.2 2.1.7.6.4.8 1 .8 1.8 0 .5-.1 1-.4 1.5a8.1 8.1 0 01-1.2 1.7l-2.3 2.4h4.3v1.2zm2.7-6c.5-.6 1.2-1 2-1 1.4 0 2.1.9 2.1 2.6v4.4h-1.5v-4.4c0-.5 0-.8-.3-1-.2-.2-.5-.3-.9-.3-.6 0-1 .3-1.4.8v4.9h-1.5v-9.7h1.5v3.6zm-224.7-93.1l3.6 9 3.6-9h2v11H362V422l-3.5 8.9h-1.1l-3.6-8.9.1 4.6v4.3h-1.4v-11h1.8zm11 6.8c0-.8.2-1.5.5-2.1.4-.7.8-1.2 1.3-1.5.6-.4 1.2-.5 2-.5 1 0 2 .3 2.7 1.1.7.8 1 1.8 1 3v.2c0 .8-.2 1.5-.5 2.1-.3.6-.7 1.1-1.3 1.5a3.6 3.6 0 01-2 .5c-1 0-2-.4-2.6-1.1a4.4 4.4 0 01-1-3v-.2zm1.5.2c0 .9.2 1.6.6 2.2.4.5 1 .8 1.7.8a2 2 0 001.7-.8c.4-.6.6-1.4.6-2.4 0-.9-.2-1.6-.6-2.2a2 2 0 00-1.7-.8 2 2 0 00-1.7.8 3.8 3.8 0 00-.6 2.4zm14.7 0c0 1.2-.3 2.2-.9 3a2.8 2.8 0 01-2.3 1.1 2.8 2.8 0 01-2.4-1v.9h-1.4v-11.6h1.4v4.3a2.8 2.8 0 012.4-1c1 0 1.7.3 2.3 1 .6.8.9 1.9.9 3.2zm-1.4-.2c0-1-.2-1.7-.6-2.2-.4-.5-.9-.8-1.6-.8a2 2 0 00-2 1.3v3.6c.5.8 1.1 1.2 2 1.2.7 0 1.2-.2 1.6-.7a4 4 0 00.6-2.4zm4.6 4.2h-1.4v-8.2h1.5v8.2zm-1.5-10.4l.2-.5c.2-.2.4-.3.7-.3s.4.1.6.3l.2.5a.8.8 0 01-.2.6c-.2.2-.4.2-.6.2l-.7-.2a.8.8 0 01-.2-.6zm5.3 10.4h-1.4v-11.6h1.4v11.6zm5.6.1c-1 0-2-.3-2.7-1a4 4 0 01-1-3v-.2c0-.8.1-1.6.4-2.2.4-.6.8-1.1 1.3-1.5a3.3 3.3 0 011.8-.5c1.1 0 2 .3 2.5 1 .6.7 1 1.7 1 3v.6h-5.6c0 .8.2 1.4.7 2 .4.4 1 .7 1.7.7.5 0 1-.1 1.3-.3l.9-.8.8.6a3.4 3.4 0 01-3 1.6zm-.1-7.3c-.6 0-1 .2-1.5.6a3 3 0 00-.7 1.7h4.1a2.6 2.6 0 00-.6-1.7c-.3-.4-.8-.6-1.3-.6zm13.8 7.2a3 3 0 01-.2-.9 3.1 3.1 0 01-2.3 1 2.9 2.9 0 01-2-.7 2.2 2.2 0 01-.8-1.7c0-.8.3-1.5 1-2 .6-.4 1.6-.7 2.7-.7h1.4v-.6c0-.5-.2-.9-.4-1.2-.4-.3-.8-.4-1.4-.4a2 2 0 00-1.2.4c-.3.2-.5.5-.5.9h-1.4c0-.4.1-.8.4-1.2.3-.4.7-.7 1.2-.9a4 4 0 011.6-.3c1 0 1.7.2 2.2.7.6.4.9 1 .9 2v3.7c0 .7 0 1.3.3 1.8h-1.5zm-2.3-1c.4 0 .8-.2 1.2-.4.4-.3.7-.6.9-1V427h-1.1c-1.7 0-2.6.5-2.6 1.5 0 .4.2.8.5 1 .3.3.6.4 1 .4zm12.6-3c0 1.2-.3 2.2-.9 3a2.7 2.7 0 01-2.3 1.1 3 3 0 01-2.3-1v4h-1.4v-11.3h1.2l.1 1a2.9 2.9 0 012.4-1.1c1 0 1.7.3 2.3 1 .6.8.9 1.8.9 3.2zm-1.4-.2c0-.9-.2-1.6-.6-2.2a1.9 1.9 0 00-1.6-.8 2 2 0 00-2 1.2v3.9a2 2 0 002 1c.6 0 1.2-.2 1.6-.7a4 4 0 00.6-2.4zm10 .2c0 1.2-.2 2.2-.8 3a2.7 2.7 0 01-2.3 1.1 3 3 0 01-2.4-1v4H420v-11.3h1.3v1a2.9 2.9 0 012.4-1.1c1 0 1.8.3 2.4 1 .5.8.8 1.8.8 3.2zm-1.4-.2c0-.9-.2-1.6-.5-2.2a1.9 1.9 0 00-1.7-.8 2 2 0 00-1.9 1.2v3.9a2 2 0 002 1c.6 0 1.2-.2 1.5-.7a4 4 0 00.6-2.4zm14 .2c0 1.2-.3 2.2-1 3a2.7 2.7 0 01-2.2 1.1 3 3 0 01-2.4-1v4h-1.4v-11.3h1.3v1a2.9 2.9 0 012.5-1.1c1 0 1.7.3 2.3 1 .6.8.8 1.8.8 3.2zm-1.5-.2c0-.9-.2-1.6-.5-2.2a1.9 1.9 0 00-1.7-.8 2 2 0 00-1.9 1.2v3.9a2 2 0 002 1c.6 0 1.2-.2 1.6-.7.4-.5.6-1.3.6-2.4zm7.2-2.7a4.2 4.2 0 00-.7 0c-1 0-1.6.3-1.9 1v5.9h-1.4v-8.2h1.4v1c.5-.8 1.1-1.1 2-1.1h.6v1.4zm.7 2.7c0-.8.2-1.5.5-2.1.3-.7.8-1.2 1.3-1.5a3.6 3.6 0 012-.5c1 0 2 .3 2.6 1.1.7.8 1 1.8 1 3v.2c0 .8 0 1.5-.4 2.1a3.4 3.4 0 01-3.2 2c-1.1 0-2-.4-2.7-1.1a4.4 4.4 0 01-1-3v-.2zm1.4.2c0 .9.2 1.6.7 2.2.4.5 1 .8 1.7.8a2 2 0 001.6-.8c.5-.6.7-1.4.7-2.4 0-.9-.2-1.6-.7-2.2a2 2 0 00-1.7-.8 2 2 0 00-1.6.8 3.8 3.8 0 00-.7 2.4zm9.7-6.2v2h1.5v1H457v5.1c0 .4 0 .6.2.8l.7.2h.7v1c-.4.2-.8.2-1.1.2-.6 0-1-.2-1.4-.5a2.4 2.4 0 01-.5-1.6v-5.1H454v-1h1.5v-2h1.4zm2.6 6c0-.8.2-1.5.5-2.1.3-.7.8-1.2 1.3-1.5.6-.4 1.2-.5 2-.5 1 0 2 .3 2.6 1.1.7.8 1 1.8 1 3v.2c0 .8 0 1.5-.4 2.1a3.4 3.4 0 01-3.2 2c-1.1 0-2-.4-2.7-1.1a4.4 4.4 0 01-1-3v-.2zm1.4.2c0 .9.3 1.6.7 2.2.4.5 1 .8 1.7.8a2 2 0 001.7-.8c.4-.6.6-1.4.6-2.4 0-.9-.2-1.6-.7-2.2a2 2 0 00-1.7-.8 2 2 0 00-1.6.8 3.8 3.8 0 00-.6 2.4zm9.7-6.2v2h1.5v1h-1.5v5.2c0 .3 0 .5.2.7.2.2.4.2.7.2h.7v1c-.4.2-.7.2-1 .2-.7 0-1.2-.2-1.5-.5a2.4 2.4 0 01-.5-1.6v-5.1h-1.5v-1h1.5v-2h1.4zm5.9 8.1l1.9-6h1.5l-3.3 9.3c-.5 1.4-1.3 2-2.5 2h-.7v-1.2h.3c.5 0 .9 0 1.1-.2.3-.2.5-.6.7-1l.3-1-2.9-8h1.5l2 6.1zm11.5-2a5 5 0 01-.9 3 2.7 2.7 0 01-2.3 1.2 3 3 0 01-2.3-1v4h-1.4v-11.3h1.3v1a2.9 2.9 0 012.4-1.1c1 0 1.8.3 2.3 1 .6.8.9 1.8.9 3.2zm-1.4 0c0-1-.2-1.7-.6-2.3a1.9 1.9 0 00-1.6-.8 2 2 0 00-1.9 1.2v3.9a2 2 0 002 1c.6 0 1.1-.2 1.5-.7a4 4 0 00.6-2.4zm6.6 4.2c-1.1 0-2-.3-2.7-1a4 4 0 01-1-3v-.2c0-.8 0-1.6.4-2.2.3-.6.7-1.1 1.3-1.5a3.3 3.3 0 011.8-.5c1 0 1.9.3 2.5 1 .5.7.8 1.7.8 3v.6h-5.5c0 .8.3 1.5.7 2 .5.4 1 .7 1.7.7.5 0 1-.1 1.3-.3l.9-.8.8.6a3.4 3.4 0 01-3 1.6zm-.2-7.3c-.6 0-1 .2-1.4.6a3 3 0 00-.7 1.8h4v-.2a2.6 2.6 0 00-.5-1.6c-.4-.4-.8-.6-1.4-.6z" fill="#416241"/><path d="M555 521.2a7.2 7.2 0 110-14.4 7.2 7.2 0 010 14.4zm.7-7.2v-3.6h-1.4v5h4.3V514h-2.9z" fill="#416241" fill-opacity=".2"/><path d="M607.6 71l.2 1.5.3-1.3 2.2-7.7h1.2l2.2 7.7.3 1.3.2-1.5 1.7-7.5h1.5l-2.7 11h-1.3l-2.3-8-.2-.8-.1.8-2.4 8h-1.3l-2.7-11h1.5l1.7 7.5zm15 3.7c-1 0-2-.4-2.7-1.1a4 4 0 01-1-3v-.2c0-.8.2-1.5.5-2.2.3-.6.7-1.1 1.3-1.5a3.3 3.3 0 011.8-.5c1 0 1.9.3 2.4 1 .6.7 1 1.7 1 3v.6h-5.6c0 .8.3 1.5.7 2 .5.5 1 .7 1.7.7.5 0 1 0 1.3-.3l.9-.8.8.7a3.4 3.4 0 01-3 1.6zm-.1-7.4c-.6 0-1 .2-1.4.7-.4.4-.7 1-.7 1.7h4v-.1a2.6 2.6 0 00-.5-1.7c-.4-.4-.8-.6-1.4-.6zm5.4 3c0-1.2.3-2.2.9-3a2.8 2.8 0 012.3-1.1c1 0 1.7.3 2.3 1v-4.3h1.4v11.6h-1.3v-.9a2.8 2.8 0 01-2.4 1 2.8 2.8 0 01-2.3-1.1 4.8 4.8 0 01-1-3v-.1zm1.4.2c0 1 .2 1.7.6 2.2.3.5.9.8 1.5.8a2 2 0 002-1.2v-3.8a2 2 0 00-2-1.1c-.6 0-1.2.2-1.5.8a4 4 0 00-.6 2.3z" fill="#8A8C8E"/><circle cx="650.5" cy="69.5" r="11.6" fill="#5699FF"/><path d="M651.5 69.8a2.3 2.3 0 01-1.7.7c-.8 0-1.4-.2-2-.8a3.3 3.3 0 01-.7-2.2c0-.6.2-1.2.4-1.7.3-.5.7-.9 1.1-1.2a3 3 0 011.6-.4A2.9 2.9 0 01653 66c.3.5.4 1.2.4 2v.6a5.3 5.3 0 01-1.1 3.6 4.3 4.3 0 01-3.2 1.4h-.5V72h.4c1.6-.1 2.4-.8 2.6-2.3zm-1.2-.7c.3 0 .5 0 .7-.2l.5-.5v-.8c0-.6-.1-1-.3-1.4a1 1 0 00-1.9 0 2.1 2.1 0 00-.3 1.3c0 .5 0 .9.3 1.2.2.3.6.5 1 .5z" fill="#fff"/><path d="M811.4 76.4a6.9 6.9 0 01-6.8-6.9c0-3.8 3-6.9 6.8-6.9a6.9 6.9 0 016.9 6.9c0 3.8-3 6.9-6.9 6.9zm.7-6.9V66h-1.4V71h4.2v-1.4H812z" fill="#505356" fill-opacity=".2"/><path opacity=".9" d="M830.4 63.5V65h-.2c-1 0-1.9.3-2.5.8a3.5 3.5 0 00-1 2.4 3 3 0 012.2-1c1 0 1.7.4 2.3 1 .5.8.8 1.6.8 2.7s-.3 2-1 2.7a3.4 3.4 0 01-2.6 1c-1 0-2-.3-2.6-1.1a4.8 4.8 0 01-1-3.2v-.7c0-1.9.4-3.4 1.4-4.5.9-1 2.2-1.6 4-1.6h.2zm-2 5.2a2 2 0 00-1.8 1.2v.6c0 .8.2 1.5.5 2 .3.4.8.7 1.3.7.6 0 1-.2 1.3-.6.3-.4.5-1 .5-1.6 0-.7-.2-1.2-.5-1.7a1.5 1.5 0 00-1.3-.6zm7.8-1.5c.6-.7 1.3-1 2.2-1 1.8 0 2.7 1 2.7 3v5.3h-1.9v-5.3c0-.5 0-1-.3-1.2-.3-.2-.6-.3-1-.3-.8 0-1.4.3-1.7 1v5.8h-1.9V63h1.9v4.3z" fill="#3C4043"/><path d="M555.4 76.4a6.9 6.9 0 01-6.8-6.9c0-3.8 3-6.9 6.8-6.9a6.9 6.9 0 016.9 6.9c0 3.8-3 6.9-6.9 6.9zm.7-6.9V66h-1.4V71h4.2v-1.4H556z" fill="#505356" fill-opacity=".2"/><path opacity=".9" d="M574.4 63.5V65h-.2c-1 0-1.9.3-2.5.8a3.5 3.5 0 00-1 2.4 3 3 0 012.2-1c1 0 1.7.4 2.3 1 .5.8.8 1.6.8 2.7s-.3 2-1 2.7a3.4 3.4 0 01-2.6 1c-1 0-2-.3-2.6-1.1a4.8 4.8 0 01-1-3.2v-.7c0-1.9.4-3.4 1.4-4.5.9-1 2.2-1.6 4-1.6h.2zm-2 5.2a2 2 0 00-1.8 1.2v.6c0 .8.2 1.5.5 2 .3.4.8.7 1.3.7.6 0 1-.2 1.3-.6.3-.4.5-1 .5-1.6 0-.7-.2-1.2-.5-1.7a1.5 1.5 0 00-1.3-.6zm7.8-1.5c.6-.7 1.3-1 2.2-1 1.8 0 2.7 1 2.7 3v5.3h-1.9v-5.3c0-.5 0-1-.3-1.2-.3-.2-.6-.3-1-.3-.8 0-1.4.3-1.7 1v5.8h-1.9V63h1.9v4.3z" fill="#3C4043"/><path d="M299.4 76.4a6.9 6.9 0 01-6.8-6.9c0-3.8 3-6.9 6.8-6.9a6.9 6.9 0 016.9 6.9c0 3.8-3 6.9-6.9 6.9zm.7-6.9V66h-1.4V71h4.2v-1.4H300z" fill="#505356" fill-opacity=".2"/><path opacity=".9" d="M319.6 66.4c0 .6-.1 1-.4 1.5a3 3 0 01-1.1 1c.5.2 1 .6 1.3 1 .3.5.5 1 .5 1.6a2.9 2.9 0 01-1 2.3c-.7.6-1.5.9-2.6.9a4 4 0 01-2.7-.9 2.9 2.9 0 01-1-2.3c0-.6.2-1.1.5-1.6a3 3 0 011.3-1 2.9 2.9 0 01-1-1 2.6 2.6 0 01-.5-1.5c0-1 .3-1.7 1-2.2a3.5 3.5 0 012.3-.8 3.5 3.5 0 012.5.8c.6.5 1 1.3 1 2.2zm-1.6 5c0-.5-.1-1-.5-1.3-.3-.3-.7-.5-1.2-.5-.6 0-1 .2-1.3.5-.3.3-.5.8-.5 1.3 0 .6.1 1 .5 1.3.3.3.7.5 1.3.5.5 0 1-.2 1.3-.5.3-.3.4-.7.4-1.3zm-.2-5c0-.4-.1-.8-.4-1a1.4 1.4 0 00-1.1-.6c-.5 0-.9.2-1.2.5-.2.3-.4.7-.4 1.2s.2.9.4 1.2c.3.3.7.4 1.2.4.4 0 .8-.1 1-.4.3-.3.5-.7.5-1.2zm6.4.8c.6-.7 1.3-1 2.2-1 1.8 0 2.7 1 2.7 3v5.3h-1.9v-5.3c0-.5 0-1-.3-1.1-.3-.3-.6-.4-1-.4-.8 0-1.4.3-1.7 1v5.8h-1.9V63h1.9v4.3z" fill="#3C4043"/><g filter="url(#filter0_d)"><path d="M1328.1 597.4a3.9 3.9 0 013.9 3.8v23.2a3.9 3.9 0 01-3.9 3.8h-132.5a3.9 3.9 0 01-3.9-3.8v-23.2a3.9 3.9 0 013.9-3.9h132.5z" fill="#fff"/></g><path opacity=".6" d="M1205.8 617.5v-10h2.8c.9 0 1.7.1 2.3.5.7.4 1.2 1 1.6 1.7.4.7.5 1.5.6 2.4v.7c0 .9-.2 1.7-.6 2.5a3.9 3.9 0 01-1.6 1.6c-.6.4-1.4.6-2.3.6h-2.8zm1.3-9v7.9h1.4a3 3 0 002.4-1 4 4 0 00.9-2.7v-.6a4 4 0 00-.9-2.6 2.9 2.9 0 00-2.3-1h-1.5zm13.1 9a3 3 0 01-.1-.8c-.6.6-1.3 1-2.2 1-.7 0-1.3-.3-1.8-.7a2 2 0 01-.7-1.6c0-.8.3-1.4 1-1.8a4.2 4.2 0 012.4-.7h1.2v-.5c0-.5 0-.8-.4-1.1-.2-.3-.6-.4-1.1-.4-.5 0-.9.1-1.2.3-.3.3-.4.6-.4.9h-1.3c0-.4.1-.8.4-1.1.2-.3.6-.6 1-.8l1.5-.3a3 3 0 012 .6c.6.4.8 1 .8 1.8v3.4c0 .7.1 1.3.3 1.7h-1.4zm-2-1c.3 0 .7 0 1-.3.4-.2.7-.5.9-.8v-1.5h-1c-1.6 0-2.4.4-2.4 1.3 0 .4.1.8.4 1 .3.2.6.3 1 .3zm8.2-.9l1.8-5.6h1.4l-3 8.6c-.5 1.3-1.3 2-2.3 2l-.2-.1-.5-.1v-1h.3c.5 0 .8-.1 1-.3s.5-.5.7-1l.2-.7-2.6-7.4h1.4l1.8 5.6z" fill="#3C4043"/><g opacity=".5" fill="#4C4C4C"><path d="M1256.2 609.7l1.8 1.8-6.7 6.8-1.9-1.9 6.8-6.7z"/><path d="M1253 616.4l-1.8 1.9-6.7-6.8 1.8-1.8 6.8 6.7z"/></g><g opacity=".7"><g opacity=".6" fill="#4C4C4C"><path d="M1283.1 606.4h2.6v12.8h-2.6v-12.8z"/><path d="M1290.8 611.5v2.6H1278v-2.6h12.8z"/></g></g><g opacity=".7"><path opacity=".6" d="M1323 611.5v2.6H1310v-2.6h12.9z" fill="#4C4C4C"/></g><path fill="#E1E1E1" d="M1267.7 597.4h1.3v30.9h-1.3zm32.1 0h1.3v30.9h-1.3z"/><g opacity=".3" fill="#4C4C4C"><path d="M101.7 23.6l1.8-1.9 6.7 6.8-1.8 1.8-6.7-6.7z"/><path d="M108.4 26.7l1.8 1.8-6.7 6.7-1.8-1.8 6.7-6.7z"/></g><g opacity=".3" fill="#4C4C4C"><path d="M30.6 33.4l-1.9 1.8-6.7-6.7 1.8-1.8 6.8 6.7z"/><path d="M23.8 30.3L22 28.5l6.8-6.8 1.8 1.9-6.8 6.7z"/></g><path opacity=".6" d="M52.7 23h-3.2v9H48v-9H45v-1h7.8v1zm1 5.2c0-.7.2-1.4.5-2 .3-.6.7-1 1.2-1.3a3.3 3.3 0 011.7-.5c1 0 1.9.3 2.5 1a4 4 0 011 2.8v.1c0 .8-.2 1.4-.5 2a3.1 3.1 0 01-3 1.8 3.2 3.2 0 01-2.4-1 4 4 0 01-1-2.8v-.1zm1.3.1c0 .9.2 1.5.6 2 .4.5.9.8 1.5.8s1.2-.3 1.6-.8c.4-.5.5-1.2.5-2.1 0-.8-.2-1.5-.5-2-.4-.5-1-.8-1.6-.8-.6 0-1.1.3-1.5.8-.4.5-.6 1.2-.6 2.1zm7.6-.1c0-1.2.3-2 .8-2.8a2.6 2.6 0 012.1-1c1 0 1.6.3 2.1.9v-4H69V32h-1.2v-.8a2.6 2.6 0 01-2.2 1c-.8 0-1.5-.4-2-1.1a4.5 4.5 0 01-1-2.8v-.1zm1.3.1c0 .9.1 1.5.5 2 .3.5.8.7 1.4.7.8 0 1.4-.3 1.8-1v-3.5a1.9 1.9 0 00-1.7-1 1.7 1.7 0 00-1.5.7c-.4.5-.5 1.2-.5 2.1zM76.3 32a2.7 2.7 0 01-.2-.8c-.6.6-1.3 1-2.1 1s-1.4-.3-1.9-.7-.6-1-.6-1.6c0-.8.2-1.4.8-1.8.6-.4 1.5-.6 2.5-.6h1.3v-.6c0-.5-.2-.8-.4-1-.3-.4-.7-.5-1.2-.5s-.9.1-1.2.4c-.3.2-.4.5-.4.8h-1.3c0-.4.1-.7.4-1l1-1 1.6-.2a3 3 0 012 .6c.5.5.7 1 .8 1.8v3.4c0 .7 0 1.3.2 1.7v.1h-1.3zM74 31c.4 0 .8 0 1.2-.3.4-.2.6-.5.8-.8v-1.5h-1c-1.6 0-2.4.4-2.4 1.3 0 .4.2.8.4 1 .3.2.6.3 1 .3zm8.4-.9l1.7-5.6h1.4l-3 8.7c-.5 1.2-1.2 1.8-2.3 1.8h-.7v-1.1h.4c.4 0 .7 0 1-.3.2-.1.4-.5.6-1l.3-.7-2.7-7.4h1.4l1.9 5.6zm72-.7h-4.3l-1 2.6H148l3.8-10h1.2l3.8 10h-1.3l-1-2.6zm-3.9-1.1h3.4l-1.7-4.7-1.7 4.7zm12.6 3c-.5.6-1.2.8-2.2.8-.8 0-1.4-.2-1.8-.7-.4-.4-.6-1.1-.6-2v-4.9h1.2v4.8c0 1.2.5 1.8 1.4 1.8 1 0 1.6-.4 2-1.1v-5.5h1.2V32h-1.2v-.7zm3.6-3.1c0-1.2.3-2.1.9-2.8a2.6 2.6 0 012.1-1c1 0 1.6.3 2.1 1l.1-.9h1.2v7.3a3 3 0 01-.9 2.3c-.6.6-1.3.9-2.3.9-.5 0-1-.2-1.6-.4a2.7 2.7 0 01-1.2-1l.7-.7a2.5 2.5 0 002 1c.6 0 1.1-.2 1.5-.5a2 2 0 00.5-1.5v-.6c-.5.6-1.2.8-2.1.8-.9 0-1.6-.3-2.1-1-.6-.7-.8-1.7-.8-2.9zm1.3.1c0 .9.2 1.5.6 2 .3.5.8.8 1.4.8.8 0 1.4-.4 1.8-1.1v-3.5a1.9 1.9 0 00-1.8-1c-.6 0-1 .2-1.4.7-.4.5-.6 1.2-.6 2.1zm12.4 3c-.5.6-1.2.8-2.2.8-.8 0-1.4-.2-1.8-.7-.4-.4-.7-1.1-.7-2v-4.9h1.3v4.9c0 1 .5 1.7 1.4 1.7 1 0 1.6-.4 2-1.1v-5.5h1.2V32h-1.2v-.7zm8.3-1.3a1 1 0 00-.4-.8l-1.4-.5a6.5 6.5 0 01-1.5-.5c-.4-.2-.7-.4-.8-.7a1.7 1.7 0 01-.3-1c0-.5.2-1 .8-1.5a3 3 0 012-.6c.8 0 1.5.2 2 .6.6.5.8 1 .8 1.7h-1.3c0-.3-.1-.6-.4-.9-.3-.2-.7-.4-1.1-.4-.5 0-.9.1-1.1.3a1 1 0 00-.4.8c0 .3.1.6.3.7l1.4.5a6.9 6.9 0 011.5.5c.4.2.7.4.9.7.2.3.3.6.3 1a2 2 0 01-.8 1.6c-.5.4-1.2.6-2.1.6-.6 0-1.1 0-1.6-.3-.4-.2-.8-.5-1-.9-.3-.3-.5-.8-.5-1.2h1.3c0 .4.2.8.5 1 .4.3.8.4 1.3.4a2 2 0 001.2-.3.9.9 0 00.4-.8zm5.4-7.3v1.8h1.4v1h-1.4v4.7l.2.6c.2.2.4.3.7.3l.6-.1v1l-1 .1c-.6 0-1-.1-1.3-.5a2.2 2.2 0 01-.4-1.5v-4.6h-1.4v-1h1.4v-1.8h1.2zm14.4 9.3H202v-1l3.5-3.8c.5-.6 1-1 1.1-1.4l.3-1.2c0-.5-.2-1-.5-1.2-.3-.4-.7-.5-1.2-.5a2 2 0 00-1.5.5c-.4.4-.6.9-.6 1.5H202c0-1 .3-1.7.9-2.2.6-.6 1.4-1 2.4-1 .9 0 1.6.3 2.2.8.5.5.8 1.2.8 2 0 1-.6 2.2-2 3.5l-2.6 3h5v1zm8.5-4.3c0 1.5-.3 2.6-.8 3.4-.5.7-1.3 1-2.4 1-1 0-1.9-.3-2.4-1a5.6 5.6 0 01-.8-3.2v-1.7c0-1.5.3-2.6.8-3.3.5-.7 1.3-1.1 2.4-1.1 1 0 1.9.3 2.4 1s.8 1.8.8 3.2v1.7zm-1.3-1.7c0-1.1-.1-2-.5-2.4-.3-.5-.7-.8-1.4-.8s-1.1.3-1.4.8c-.3.5-.5 1.2-.5 2.3v2c0 1 .2 1.9.5 2.4s.8.8 1.4.8c.6 0 1.1-.2 1.4-.7.3-.5.5-1.3.5-2.3V26zm10.3 6h-6.6v-1l3.5-3.8 1-1.4.3-1.2c0-.5-.1-1-.4-1.3-.4-.3-.8-.5-1.3-.5a2 2 0 00-1.5.6 2 2 0 00-.5 1.5h-1.3c0-1 .3-1.7.9-2.3.6-.5 1.4-.8 2.4-.8s1.7.2 2.2.7c.5.5.8 1.2.8 2 0 1-.6 2.2-1.9 3.5l-2.7 3h5v1zm8.4-4.3c0 1.5-.2 2.6-.7 3.4-.6.7-1.4 1-2.5 1-1 0-1.8-.3-2.3-1-.6-.7-.8-1.8-.8-3.2v-1.7c0-1.5.2-2.6.7-3.3.5-.7 1.3-1.1 2.4-1.1 1.1 0 2 .3 2.4 1 .5.7.8 1.8.8 3.2v1.7zm-1.3-1.7c0-1.1-.1-2-.4-2.4-.3-.5-.8-.8-1.5-.8-.6 0-1 .3-1.4.8-.3.5-.5 1.2-.5 2.3v2c0 1 .2 1.9.5 2.4s.8.8 1.4.8c.7 0 1.1-.3 1.4-.7.4-.5.5-1.3.5-2.3V26z" fill="#3C4043"/><defs><filter id="filter0_d" x="1186.6" y="593.5" width="150.6" height="41.2" filterUnits="userSpaceOnUse" color-interpolation-filters="sRGB"><feFlood flood-opacity="0" result="BackgroundImageFix"/><feColorMatrix in="SourceAlpha" values="0 0 0 0 0 0 0 0 0 0 0 0 0 0 0 0 0 0 127 0"/><feOffset dy="1.3"/><feGaussianBlur stdDeviation="2.6"/><feColorMatrix values="0 0 0 0 0 0 0 0 0 0 0 0 0 0 0 0 0 0 0.15 0"/><feBlend in2="BackgroundImageFix" result="effect1_dropShadow"/><feBlend in="SourceGraphic" in2="effect1_dropShadow" result="shape"/></filter></defs></svg>