<svg><defs>
    <g id="calendar" fill="none"><path d="M11.4 28h33.2v14.93a1.66 1.66 0 01-1.67 1.66H13.07a1.66 1.66 0 01-1.66-1.66V28zm24.9-13.27h6.63a1.66 1.66 0 011.66 1.66v8.3H11.41v-8.3a1.66 1.66 0 011.66-1.66h6.63V11.4h3.32v3.32h9.96V11.4h3.32v3.32z" fill="#5F6368"/></g>
    <g id="clock-three" fill="none"><path d="M28 44.8a16.8 16.8 0 110-33.6 16.8 16.8 0 010 33.6zM29.68 28v-8.4h-3.36v11.76H36.4V28h-6.72z" fill="#5F6368"/></g>
    <g id="timeline" fill="none"><path d="M23.5 10H28v36h-4.5v-6.75H19v-4.5h4.5v-4.5h-9v-4.5h9v-4.5H10v-4.5h13.5V10zM37 16.75v4.5h-4.5v-4.5H37zM41.5 25.75v4.5h-9v-4.5h9zM46 39.25v-4.5H32.5v4.5H46z" fill="#5F6368"/></g>
</defs></svg>
