<svg width="330" height="204" fill="none" xmlns="http://www.w3.org/2000/svg"><rect x="12" width="305" height="204" rx="2.89" fill="#fff"/><path d="M31.25 181.04h2.58v1.11h-2.58v2.92h-1.18v-2.92H27.5v-1.1h2.57v-2.7h1.18v2.7zm12.53 2.55H39.9l-.86 2.41h-1.26l3.53-9.24h1.06l3.54 9.24h-1.25l-.88-2.41zm-3.5-1h3.13l-1.57-4.33-1.57 4.33zm6.4-.08a4 4 0 01.75-2.54c.5-.64 1.16-.97 1.96-.97s1.45.28 1.92.83v-3.58h1.17V186H51.4l-.06-.74a2.4 2.4 0 01-1.96.87c-.8 0-1.44-.33-1.95-.98-.5-.65-.75-1.5-.75-2.55v-.1zm1.18.13c0 .78.16 1.39.48 1.83.32.44.77.66 1.33.66.75 0 1.3-.33 1.64-1v-3.16c-.36-.65-.9-.97-1.62-.97-.58 0-1.03.22-1.35.67-.32.44-.48 1.1-.48 1.97zm6.16-.13a4 4 0 01.75-2.54c.5-.64 1.15-.97 1.96-.97.8 0 1.44.28 1.91.83v-3.58h1.18V186h-1.08l-.06-.74a2.4 2.4 0 01-1.96.87c-.8 0-1.45-.33-1.95-.98-.5-.65-.75-1.5-.75-2.55v-.1zm1.18.13c0 .78.16 1.39.48 1.83.32.44.76.66 1.33.66.75 0 1.29-.33 1.63-1v-3.16c-.35-.65-.89-.97-1.62-.97-.57 0-1.02.22-1.34.67-.32.44-.48 1.1-.48 1.97zM69.1 186a2.46 2.46 0 01-.16-.72c-.55.56-1.2.85-1.96.85-.68 0-1.23-.2-1.67-.57a1.87 1.87 0 01-.65-1.46c0-.72.27-1.27.82-1.67.54-.4 1.3-.6 2.3-.6h1.14v-.53c0-.41-.13-.74-.37-.98-.25-.25-.6-.37-1.09-.37-.42 0-.77.1-1.05.32-.28.21-.43.47-.43.77h-1.18c0-.35.12-.68.36-1 .25-.32.58-.57 1-.76.41-.18.87-.28 1.37-.28.8 0 1.41.2 1.86.6.45.4.68.94.7 1.63v3.16c0 .64.08 1.14.24 1.5v.11h-1.23zm-1.95-.9c.37 0 .72-.09 1.05-.28.33-.2.57-.44.72-.74v-1.41H68c-1.44 0-2.16.42-2.16 1.26 0 .37.12.66.37.86.24.21.56.31.94.31zm11.33-4.91a3.47 3.47 0 00-.58-.05c-.77 0-1.3.33-1.57.99V186h-1.17v-6.87h1.14l.02.8c.38-.62.93-.93 1.64-.93.22 0 .4.03.52.1v1.09zm3.8 5.94a3 3 0 01-2.27-.92 3.42 3.42 0 01-.87-2.45v-.22c0-.68.13-1.29.38-1.82.27-.54.63-.96 1.1-1.26.46-.3.97-.46 1.52-.46.9 0 1.59.3 2.08.89.5.59.74 1.43.74 2.52v.5h-4.65c.02.67.21 1.22.6 1.64.37.41.85.62 1.44.62.41 0 .76-.09 1.05-.25.29-.17.54-.4.76-.68l.71.56a2.88 2.88 0 01-2.59 1.33zm-.14-6.16c-.48 0-.87.17-1.2.52a2.5 2.5 0 00-.6 1.45h3.45v-.1c-.03-.59-.2-1.05-.48-1.38-.3-.33-.68-.49-1.17-.49zm5.3-.84l.02.76c.5-.59 1.19-.88 2.04-.88.96 0 1.62.36 1.96 1.1a2.64 2.64 0 012.19-1.1c1.51 0 2.28.8 2.3 2.39v4.6H94.8v-4.53c0-.5-.12-.86-.34-1.1-.22-.25-.6-.37-1.13-.37-.44 0-.8.13-1.09.4-.28.25-.45.6-.5 1.04V186h-1.18v-4.5c0-1-.49-1.5-1.46-1.5-.77 0-1.3.33-1.58.99V186h-1.18v-6.87h1.11zM99 186h-1.17v-6.87h1.17V186zm-1.27-8.69a.7.7 0 01.18-.48c.11-.13.29-.2.52-.2.23 0 .4.07.52.2s.17.29.17.48-.05.35-.17.48c-.12.12-.3.19-.52.19-.23 0-.4-.07-.52-.2a.69.69 0 01-.18-.47zm4.27 1.82l.04.87a2.5 2.5 0 012.06-1c1.45 0 2.18.82 2.2 2.46V186h-1.18v-4.54c0-.5-.12-.87-.35-1.1-.22-.24-.56-.36-1.03-.36-.38 0-.72.1-1 .3-.3.2-.52.48-.68.8v4.9h-1.17v-6.87H102zm5.78 3.38a4 4 0 01.75-2.54c.5-.64 1.15-.97 1.96-.97.8 0 1.44.28 1.9.83v-3.58h1.18V186h-1.08l-.05-.74a2.4 2.4 0 01-1.97.87c-.8 0-1.44-.33-1.94-.98-.5-.65-.75-1.5-.75-2.55v-.1zm1.17.13c0 .78.16 1.39.48 1.83.33.44.77.66 1.34.66.74 0 1.28-.33 1.63-1v-3.16c-.35-.65-.9-.97-1.62-.97-.58 0-1.03.22-1.35.67-.32.44-.48 1.1-.48 1.97zm9.3 3.49a3 3 0 01-2.27-.92 3.42 3.42 0 01-.88-2.45v-.22c0-.68.13-1.29.39-1.82.26-.54.63-.96 1.1-1.26.46-.3.97-.46 1.51-.46.9 0 1.6.3 2.09.89.5.59.74 1.43.74 2.52v.5h-4.65c.01.67.21 1.22.59 1.64.38.41.86.62 1.44.62.42 0 .77-.09 1.06-.25.29-.17.54-.4.75-.68l.72.56a2.88 2.88 0 01-2.59 1.33zm-.15-6.16c-.47 0-.87.17-1.19.52a2.5 2.5 0 00-.6 1.45h3.45v-.1c-.04-.59-.2-1.05-.49-1.38-.29-.33-.67-.49-1.17-.49zm7.51.22a3.49 3.49 0 00-.57-.05c-.77 0-1.3.33-1.57.99V186h-1.18v-6.87h1.15l.02.8c.38-.62.93-.93 1.63-.93.23 0 .4.03.52.1v1.09z" fill="#5699FF"/><path d="M32 24.9h-2.06V29h-1.86V18.34h3.75c1.23 0 2.18.27 2.85.82.67.56 1 1.35 1 2.4a3 3 0 01-.51 1.8c-.35.47-.82.84-1.44 1.1l2.4 4.44v.1h-1.99L32 24.9zm-2.06-1.5h1.9c.63 0 1.11-.15 1.47-.46.35-.32.52-.75.52-1.3 0-.57-.16-1.01-.49-1.33-.32-.3-.8-.47-1.45-.48h-1.95v3.57zm10.82 5.75a3.7 3.7 0 01-2.74-1.07 3.89 3.89 0 01-1.05-2.84v-.22c0-.79.15-1.5.45-2.11a3.4 3.4 0 013.13-1.98 3.1 3.1 0 012.5 1.03c.6.69.9 1.66.9 2.92v.72h-5.19c.06.66.27 1.17.65 1.55.39.39.87.58 1.45.58.82 0 1.48-.33 2-1l.96.92c-.32.48-.75.84-1.28 1.1-.53.27-1.12.4-1.78.4zm-.21-6.8c-.49 0-.88.18-1.19.52-.3.34-.48.82-.57 1.43h3.4v-.13c-.05-.6-.2-1.05-.48-1.35-.28-.3-.67-.46-1.16-.46zM47 21.09l.05.82a2.85 2.85 0 012.29-.97c1.06 0 1.78.4 2.17 1.21a2.81 2.81 0 012.44-1.21c.87 0 1.52.24 1.94.72.43.49.65 1.2.66 2.14V29h-1.78v-5.16c0-.5-.1-.87-.33-1.1-.22-.24-.58-.35-1.09-.35-.4 0-.73.1-1 .33-.25.21-.43.5-.53.85V29h-1.77v-5.21c-.03-.94-.5-1.4-1.43-1.4-.71 0-1.22.29-1.52.87V29h-1.77v-7.92H47zM60.27 29H58.5v-7.92h1.78V29zm-1.89-9.98c0-.28.09-.5.26-.68.18-.18.43-.28.75-.28s.57.1.74.28c.18.18.27.4.27.68 0 .27-.09.49-.27.67-.17.18-.42.26-.74.26s-.57-.08-.75-.26a.94.94 0 01-.26-.67zm5.49 2.06l.05.91a2.85 2.85 0 012.3-1.06c1.66 0 2.5.94 2.53 2.83V29h-1.78v-5.13c0-.5-.11-.88-.33-1.12-.22-.24-.57-.36-1.06-.36-.72 0-1.26.32-1.6.97V29h-1.79v-7.92h1.68zm6.36 3.9c0-1.22.29-2.2.85-2.94a2.72 2.72 0 012.28-1.11c.84 0 1.52.3 2.04.88v-4.06h1.78V29h-1.61l-.1-.82c-.52.64-1.23.97-2.12.97-.93 0-1.68-.38-2.26-1.12a4.9 4.9 0 01-.86-3.05zm1.78.15c0 .8.16 1.44.47 1.9.3.44.75.67 1.32.67.73 0 1.26-.33 1.6-.98v-3.38a1.66 1.66 0 00-1.58-.95c-.58 0-1.02.23-1.34.68a3.65 3.65 0 00-.47 2.06zm10.51 4.02a3.7 3.7 0 01-2.74-1.07 3.89 3.89 0 01-1.05-2.84v-.22c0-.79.15-1.5.46-2.11a3.4 3.4 0 013.13-1.98 3.1 3.1 0 012.5 1.03c.59.69.88 1.66.88 2.92v.72h-5.17c.05.66.27 1.17.65 1.55.38.39.87.58 1.45.58.81 0 1.48-.33 1.99-1l.96.92c-.32.48-.74.84-1.28 1.1-.52.27-1.12.4-1.78.4zm-.2-6.8c-.5 0-.9.18-1.2.52-.3.34-.48.82-.57 1.43h3.4v-.13c-.04-.6-.2-1.05-.48-1.35-.28-.3-.66-.46-1.16-.46zm8.92.35a4.4 4.4 0 00-.72-.06c-.82 0-1.37.32-1.65.94V29h-1.78v-7.92h1.7l.04.88a2 2 0 011.79-1.03c.25 0 .46.03.63.1v1.67zm5.57 4.15a.8.8 0 00-.4-.73c-.26-.16-.69-.31-1.3-.44a6.68 6.68 0 01-1.51-.48c-.89-.43-1.33-1.05-1.33-1.87 0-.68.28-1.25.86-1.71.58-.46 1.3-.7 2.2-.7.94 0 1.7.24 2.29.71.59.47.88 1.08.88 1.83h-1.78c0-.35-.13-.63-.38-.85-.26-.23-.6-.35-1.01-.35-.4 0-.71.1-.96.27a.86.86 0 00-.37.73c0 .27.12.48.35.63.23.16.69.31 1.39.47.7.15 1.24.33 1.64.55a1.93 1.93 0 011.18 1.85c0 .7-.3 1.28-.89 1.73a3.8 3.8 0 01-2.32.66 4.1 4.1 0 01-1.74-.36c-.5-.23-.9-.55-1.18-.96A2.29 2.29 0 0192 26.5h1.73c.03.42.18.75.48.98.29.22.68.33 1.16.33.47 0 .83-.08 1.07-.26a.84.84 0 00.37-.7z" fill="#3C4043"/><rect x="28" y="90" width="274" height="31" rx="1.89" fill="#F5F5F5"/><g opacity=".25" clip-path="url(#clip0)" stroke="#5F6368" stroke-width="1.93" stroke-linecap="round" stroke-linejoin="round"><path d="M49.62 103.1a4.34 4.34 0 10-8.67 0c0 5.05-2.17 6.5-2.17 6.5h13s-2.16-1.45-2.16-6.5zM46.54 112.49a1.44 1.44 0 01-2.5 0"/></g><rect x="28" y="129" width="274" height="31" rx="1.89" fill="#F5F5F5"/><g opacity=".25" stroke="#5F6368" stroke-width="1.93" stroke-linecap="round" stroke-linejoin="round"><path d="M49.62 141.63a4.34 4.34 0 10-8.67 0c0 5.06-2.17 6.5-2.17 6.5h13s-2.16-1.44-2.16-6.5zM46.54 151.03a1.44 1.44 0 01-2.5 0"/></g><rect y="44" width="330" height="38" rx="2.27" fill="#DDEBFF"/><path d="M55.41 68.62h-1.65v-8l-2.44.84v-1.4l3.88-1.43h.21v9.99zM86.77 64.87c0-1.14.26-2.06.79-2.74a2.54 2.54 0 012.13-1.04c.78 0 1.41.27 1.9.82v-3.79h1.66v10.5h-1.5l-.09-.77c-.5.6-1.16.9-1.99.9-.86 0-1.57-.34-2.1-1.04-.54-.7-.8-1.64-.8-2.84zm1.66.14c0 .75.14 1.34.43 1.76.29.42.7.63 1.24.63.67 0 1.17-.3 1.49-.9v-3.16c-.31-.6-.8-.9-1.48-.9-.54 0-.95.22-1.24.65-.3.42-.44 1.06-.44 1.92zm10.97 3.61a2.56 2.56 0 01-.2-.69c-.52.55-1.17.83-1.93.83-.75 0-1.35-.22-1.82-.64-.47-.42-.7-.95-.7-1.57 0-.79.29-1.4.87-1.81a4.26 4.26 0 012.51-.64h1.02v-.48c0-.39-.1-.7-.32-.92-.21-.23-.54-.35-.98-.35-.37 0-.68.1-.93.29a.87.87 0 00-.36.72H94.9c0-.4.14-.79.4-1.14.27-.35.64-.63 1.1-.83.46-.2.98-.3 1.55-.3.87 0 1.56.22 2.07.65.52.44.78 1.05.8 1.84v3.33c0 .67.09 1.2.28 1.6v.11h-1.7zm-1.83-1.2c.33 0 .64-.08.93-.24.29-.15.5-.37.65-.64v-1.4h-.9c-.6 0-1.07.11-1.38.33-.31.21-.46.52-.46.9 0 .33.1.58.31.77.21.19.5.28.85.28zm7.46-1.18l1.5-5.02h1.78l-2.94 8.52c-.45 1.25-1.22 1.87-2.3 1.87-.24 0-.5-.04-.8-.13V70.2l.31.02c.42 0 .74-.08.95-.23.21-.15.38-.4.5-.77l.24-.63-2.6-7.37h1.8l1.56 5.02zM147.4 65c0 1.15-.26 2.06-.77 2.74a2.5 2.5 0 01-2.11 1.02c-.87 0-1.54-.32-2.03-.94l-.08.8h-1.5v-10.5h1.66v3.81a2.4 2.4 0 011.93-.84c.9 0 1.61.33 2.13 1 .51.67.77 1.6.77 2.81v.1zm-1.66-.15c0-.8-.14-1.4-.42-1.8-.29-.4-.7-.6-1.23-.6-.72 0-1.23.31-1.52.94v3.05c.3.64.8.96 1.53.96.52 0 .92-.19 1.2-.58.29-.39.43-.97.44-1.75v-.22zm6.32 3.9c-1.06 0-1.91-.32-2.57-.98a3.63 3.63 0 01-.97-2.66v-.2c0-.74.14-1.4.42-1.98a3.17 3.17 0 012.93-1.85c1 0 1.78.33 2.33.97.55.64.82 1.55.82 2.73v.67h-4.83c.05.6.25 1.1.6 1.45.37.35.82.53 1.36.53.76 0 1.38-.3 1.86-.92l.9.85c-.3.44-.7.79-1.2 1.03-.48.25-1.04.37-1.65.37zm-.2-6.33c-.46 0-.83.16-1.1.48a2.5 2.5 0 00-.54 1.33h3.16v-.12a2 2 0 00-.44-1.26 1.38 1.38 0 00-1.08-.43zm5.04 6.2v-6.17h-1.12v-1.23h1.12v-.67c0-.82.23-1.46.69-1.9.45-.45 1.1-.67 1.91-.67.3 0 .6.04.93.12l-.04 1.3c-.18-.04-.4-.06-.64-.06-.79 0-1.19.41-1.19 1.23v.65h1.5v1.23h-1.5v6.17h-1.66zm4.07-3.77c0-.72.15-1.37.43-1.95.29-.58.7-1.03 1.21-1.34a3.39 3.39 0 011.8-.47c1 0 1.8.32 2.42.96.62.64.96 1.5 1.01 2.56V65c0 .73-.13 1.38-.42 1.95a3.08 3.08 0 01-1.2 1.34c-.52.31-1.12.47-1.8.47a3.22 3.22 0 01-2.51-1.04 4.01 4.01 0 01-.94-2.78v-.09zm1.66.15a3 3 0 00.47 1.79c.32.43.76.64 1.32.64s1-.22 1.3-.66c.32-.43.47-1.07.47-1.92 0-.74-.16-1.34-.48-1.77a1.53 1.53 0 00-1.3-.66c-.55 0-.98.22-1.3.65a3.21 3.21 0 00-.48 1.93zm10.5-2.26a4.1 4.1 0 00-.68-.05c-.76 0-1.27.29-1.54.87v5.06h-1.66v-7.4h1.59l.04.83c.4-.64.95-.96 1.66-.96.24 0 .44.03.6.1l-.01 1.55zm4.16 6.02c-1.05 0-1.9-.33-2.56-1a3.63 3.63 0 01-.98-2.65v-.2c0-.74.15-1.4.43-1.98a3.17 3.17 0 012.93-1.85c1 0 1.78.33 2.33.97.55.64.82 1.55.82 2.73v.67h-4.83c.05.6.25 1.1.6 1.45.37.35.82.53 1.36.53.76 0 1.38-.3 1.86-.92l.9.85a3 3 0 01-1.2 1.03c-.49.25-1.04.37-1.66.37zm-.2-6.34c-.45 0-.82.16-1.1.48a2.5 2.5 0 00-.53 1.33h3.16v-.12a2 2 0 00-.44-1.26 1.38 1.38 0 00-1.08-.43zm12.1 4.19c0-.3-.12-.52-.37-.68-.24-.15-.64-.29-1.2-.4a6.23 6.23 0 01-1.42-.46c-.83-.4-1.25-.98-1.25-1.74 0-.64.27-1.17.8-1.6a3.2 3.2 0 012.06-.64c.88 0 1.6.22 2.14.65.55.44.82 1 .82 1.7h-1.66c0-.31-.12-.58-.36-.79a1.35 1.35 0 00-.94-.32c-.37 0-.66.09-.9.25a.8.8 0 00-.34.68c0 .26.1.45.32.6.22.14.65.28 1.3.43.65.14 1.16.3 1.53.5.38.2.65.44.83.72.18.28.27.61.27 1.01 0 .67-.27 1.2-.82 1.62-.56.41-1.28.62-2.17.62-.6 0-1.15-.11-1.62-.33a2.66 2.66 0 01-1.1-.9c-.27-.39-.4-.8-.4-1.24h1.6c.03.4.18.7.45.9.28.22.64.32 1.09.32.44 0 .77-.08 1-.24a.78.78 0 00.34-.66zm5.17-7.18v1.8h1.3v1.22h-1.3v4.13c0 .29.05.5.16.62.12.12.32.18.6.18.2 0 .39-.02.58-.07v1.29c-.37.1-.74.16-1.09.16-1.28 0-1.91-.7-1.91-2.12v-4.19h-1.22v-1.23h1.22v-1.8h1.66zm7 9.19a2.57 2.57 0 01-.2-.69c-.52.55-1.17.83-1.94.83a2.6 2.6 0 01-1.81-.64c-.47-.42-.7-.95-.7-1.57 0-.79.28-1.4.87-1.81a4.25 4.25 0 012.51-.64h1.02v-.48c0-.39-.1-.7-.32-.92-.21-.23-.54-.35-.98-.35-.38 0-.69.1-.93.29a.87.87 0 00-.36.72h-1.66c0-.4.13-.79.4-1.14.27-.35.64-.63 1.1-.83.46-.2.98-.3 1.55-.3.86 0 1.56.22 2.07.65.52.44.78 1.05.8 1.84v3.33c0 .67.09 1.2.27 1.6v.11h-1.7zm-1.83-1.2c.33 0 .64-.08.93-.24.29-.15.5-.37.65-.64v-1.4h-.9c-.6 0-1.07.11-1.38.33-.31.21-.47.52-.47.9 0 .33.1.58.32.77.21.19.5.28.85.28zm8.85-4.68a4.12 4.12 0 00-.67-.05c-.76 0-1.28.29-1.54.87v5.06h-1.66v-7.4h1.59l.04.83c.4-.64.95-.96 1.66-.96.24 0 .44.03.6.1l-.02 1.55zm3.48-3.31v1.8h1.3v1.22h-1.3v4.13c0 .29.05.5.16.62.12.12.32.18.6.18.2 0 .39-.02.58-.07v1.29c-.37.1-.74.16-1.09.16-1.28 0-1.91-.7-1.91-2.12v-4.19h-1.22v-1.23h1.22v-1.8h1.66zm10.48 9.19a2.54 2.54 0 01-.19-.69c-.53.55-1.17.83-1.94.83a2.6 2.6 0 01-1.82-.64c-.47-.42-.7-.95-.7-1.57 0-.79.3-1.4.87-1.81a4.25 4.25 0 012.52-.64h1.02v-.48c0-.39-.1-.7-.32-.92-.22-.23-.54-.35-.98-.35-.38 0-.69.1-.93.29a.87.87 0 00-.36.72h-1.66c0-.4.13-.79.4-1.14.27-.35.63-.63 1.1-.83.46-.2.97-.3 1.55-.3.86 0 1.55.22 2.07.65.51.44.78 1.05.79 1.84v3.33c0 .67.1 1.2.28 1.6v.11h-1.7zm-1.82-1.2c.33 0 .63-.08.92-.24.3-.15.51-.37.66-.64v-1.4h-.9c-.61 0-1.07.11-1.38.33-.31.21-.47.52-.47.9 0 .33.1.58.31.77.22.19.5.28.86.28zm7.06-8v1.8h1.3v1.23h-1.3v4.13c0 .29.05.5.16.62.12.12.32.18.6.18.2 0 .4-.02.59-.07v1.29c-.38.1-.75.16-1.1.16-1.27 0-1.91-.7-1.91-2.12v-4.19h-1.22v-1.23h1.22v-1.8h1.66zM265.44 68.62h-1.66v-8l-2.44.84v-1.4l3.88-1.43h.22v9.99zm10.15 0h-6.7v-1.14l3.32-3.62c.48-.53.82-.98 1.02-1.33.2-.36.3-.72.3-1.08 0-.47-.13-.86-.4-1.15-.26-.3-.62-.44-1.07-.44-.54 0-.95.17-1.25.5-.3.32-.44.77-.44 1.34h-1.67c0-.6.14-1.15.41-1.63.28-.49.68-.87 1.19-1.14.51-.27 1.1-.4 1.77-.4.97 0 1.73.24 2.29.73.56.48.84 1.15.84 2.01 0 .5-.14 1.02-.43 1.57a8.82 8.82 0 01-1.37 1.85l-2.43 2.6h4.62v1.33zm2.37-1.75c.31 0 .55.09.72.27.17.17.25.39.25.65a.9.9 0 01-.25.65c-.17.17-.41.26-.72.26a.96.96 0 01-.7-.26.86.86 0 01-.26-.65.9.9 0 01.25-.65c.17-.18.4-.27.71-.27zm0-5.8c.31 0 .55.09.72.26.17.18.25.4.25.66a.9.9 0 01-.25.65c-.17.17-.41.25-.72.25a.96.96 0 01-.7-.25.86.86 0 01-.26-.65.9.9 0 01.25-.66c.17-.17.4-.26.71-.26zm9.1 3.36c0 1.43-.27 2.51-.8 3.24-.54.72-1.36 1.09-2.45 1.09-1.07 0-1.88-.36-2.43-1.06a5.22 5.22 0 01-.84-3.15v-1.73c0-1.43.27-2.5.8-3.22.54-.71 1.36-1.07 2.46-1.07 1.09 0 1.9.35 2.43 1.05.54.7.81 1.74.83 3.13v1.72zm-1.66-1.86c0-.93-.13-1.62-.39-2.05-.25-.44-.66-.66-1.21-.66-.55 0-.94.21-1.2.63a3.88 3.88 0 00-.4 1.92v2.26c0 .93.13 1.62.39 2.08.26.45.67.68 1.22.68.53 0 .93-.2 1.18-.63.26-.42.4-1.08.4-1.98v-2.25zm9.62 1.86c0 1.43-.27 2.51-.81 3.24-.53.72-1.35 1.09-2.44 1.09-1.08 0-1.89-.36-2.44-1.06a5.22 5.22 0 01-.83-3.15v-1.73c0-1.43.27-2.5.8-3.22.54-.71 1.36-1.07 2.45-1.07 1.1 0 1.9.35 2.44 1.05.54.7.81 1.74.82 3.13v1.72zm-1.67-1.86c0-.93-.12-1.62-.38-2.05-.25-.44-.66-.66-1.22-.66-.54 0-.94.21-1.2.63a3.88 3.88 0 00-.4 1.92v2.26c0 .93.14 1.62.4 2.08.25.45.66.68 1.22.68.53 0 .93-.2 1.18-.63.26-.42.4-1.08.4-1.98v-2.25zm13.2 2.43c0 1.14-.25 2.05-.78 2.74a2.5 2.5 0 01-2.09 1.02c-.8 0-1.46-.27-1.94-.8v3.5h-1.67V61.22h1.54l.06.76c.5-.6 1.15-.9 2-.9.9 0 1.6.34 2.11 1.02.52.67.77 1.6.77 2.8v.1zm-1.65-.15c0-.73-.15-1.32-.44-1.75-.3-.44-.71-.65-1.26-.65-.68 0-1.17.28-1.46.84v3.28c.3.57.79.86 1.47.86.53 0 .94-.21 1.24-.64.3-.42.45-1.07.45-1.94zm4.63-3.63l.05.78c.52-.61 1.23-.91 2.13-.91.99 0 1.66.38 2.03 1.13A2.62 2.62 0 01316 61.1c.81 0 1.42.22 1.82.67.4.45.6 1.12.61 2v4.86h-1.66v-4.81c0-.47-.1-.82-.3-1.03-.21-.22-.55-.33-1.03-.33-.37 0-.68.1-.93.3-.23.2-.4.47-.5.8l.01 5.07h-1.66v-4.87c-.02-.87-.47-1.3-1.33-1.3-.67 0-1.14.27-1.42.81v5.36h-1.66v-7.4h1.57z" fill="#5699FF"/><g clip-path="url(#clip1)" stroke="#5699FF" stroke-width="2.32" stroke-linecap="round" stroke-linejoin="round"><path d="M26.08 59.84a5.22 5.22 0 00-10.43 0c0 6.08-2.6 7.82-2.6 7.82h15.64s-2.6-1.74-2.6-7.82zM22.37 71.14a1.74 1.74 0 01-3.01 0"/></g><rect opacity=".2" x="69" y="103" width="74" height="6" rx="3" fill="#5F6368"/><rect opacity=".2" x="69" y="141" width="74" height="6" rx="3" fill="#5F6368"/><rect opacity=".2" x="240" y="141" width="53" height="6" rx="3" fill="#5F6368"/><rect opacity=".2" x="240" y="103" width="53" height="6" rx="3" fill="#5F6368"/><defs><clipPath id="clip0"><path fill="#fff" transform="translate(36.61 97.31)" d="M0 0h17.34v17.34H0z"/></clipPath><clipPath id="clip1"><path fill="#fff" transform="translate(10.43 52.88)" d="M0 0h20.87v20.87H0z"/></clipPath></defs></svg>