<svg width="335" height="217" fill="none" xmlns="http://www.w3.org/2000/svg"><rect x="30" width="258" height="178" rx="3" fill="#fff"/><path fill="#E1E1E1" d="M204 31v147h-1V31zM117 31v147h-1V31z"/><path fill="#E1E1E1" d="M288 61H30v-1h258zM288 32H30v-1h258zM288 131H30v-1h258z"/><path d="M40.24 42.18l2.556 6.38 2.557-6.38h1.337V50h-1.03v-3.045l.096-3.288L43.188 50h-.79l-2.561-6.316.102 3.27V50h-1.031v-7.82h1.332zm7.852 4.86c0-.569.111-1.08.333-1.536.226-.454.537-.805.935-1.052.4-.247.857-.37 1.37-.37.79 0 1.43.273 1.917.82.49.549.736 1.277.736 2.187v.07c0 .565-.11 1.074-.328 1.525a2.447 2.447 0 01-.929 1.047 2.56 2.56 0 01-1.386.376c-.788 0-1.427-.273-1.917-.821-.487-.548-.73-1.273-.73-2.176v-.07zm1 .119c0 .644.148 1.162.445 1.552.3.39.702.585 1.203.585.505 0 .906-.197 1.203-.59.298-.398.446-.953.446-1.666 0-.637-.152-1.152-.456-1.546a1.433 1.433 0 00-1.203-.596c-.491 0-.887.195-1.188.585-.3.39-.45.949-.45 1.676zm6.477-2.97l.032.73c.444-.559 1.024-.838 1.74-.838 1.228 0 1.848.693 1.859 2.079V50h-.994v-3.846c-.004-.419-.1-.728-.29-.929-.186-.2-.478-.3-.875-.3-.323 0-.606.085-.85.257a1.75 1.75 0 00-.568.677V50h-.994v-5.812h.94zM41.916 79h-1v-6.623l-2.003.736v-.902l2.847-1.069h.156V79zm8.035 0h-5.124v-.714l2.707-3.008c.4-.455.676-.824.827-1.107a1.85 1.85 0 00.23-.886c0-.408-.123-.743-.37-1.004-.247-.262-.576-.392-.988-.392-.494 0-.88.141-1.155.424-.272.28-.408.67-.408 1.17h-.994c0-.719.231-1.3.693-1.745.466-.444 1.087-.666 1.864-.666.727 0 1.302.192 1.724.575.423.38.634.886.634 1.52 0 .77-.49 1.686-1.472 2.75l-2.095 2.272h3.927V79zM41.916 149h-1v-6.623l-2.003.736v-.902l2.847-1.069h.156V149zm6.719-3.438a2.42 2.42 0 01-.747.597c-.286.15-.601.225-.945.225-.451 0-.845-.111-1.182-.333a2.173 2.173 0 01-.773-.934 3.218 3.218 0 01-.274-1.338c0-.522.098-.993.295-1.412.2-.419.484-.74.849-.962.365-.222.791-.333 1.278-.333.774 0 1.382.29 1.826.87.448.577.672 1.365.672 2.364v.29c0 1.522-.301 2.633-.903 3.335-.601.698-1.509 1.056-2.723 1.074h-.193v-.838h.21c.82-.014 1.45-.227 1.89-.639.44-.415.68-1.07.72-1.966zm-1.531 0c.333 0 .64-.102.919-.306.282-.204.488-.456.617-.757v-.397c0-.652-.141-1.182-.424-1.59-.283-.408-.641-.613-1.074-.613-.437 0-.788.169-1.053.505-.265.333-.398.774-.398 1.322 0 .533.127.974.382 1.321.258.344.601.515 1.031.515zM128.916 79h-.999v-6.623l-2.004.736v-.902l2.847-1.069h.156V79zm4.355-4.394h.747c.469-.007.838-.13 1.107-.37.268-.24.402-.564.402-.972 0-.917-.456-1.375-1.369-1.375-.43 0-.774.123-1.032.37-.254.244-.381.568-.381.972h-.994c0-.619.226-1.133.677-1.541.455-.412 1.031-.618 1.73-.618.737 0 1.316.195 1.735.586.419.39.628.933.628 1.627 0 .34-.111.67-.333.988a1.973 1.973 0 01-.897.715c.43.136.761.361.994.677.236.315.354.7.354 1.154 0 .702-.229 1.259-.687 1.67-.459.412-1.055.618-1.789.618s-1.332-.198-1.794-.596c-.458-.397-.687-.922-.687-1.573h.999c0 .411.134.74.402.988.269.247.629.37 1.08.37.48 0 .847-.125 1.101-.376.254-.25.382-.61.382-1.08 0-.454-.14-.803-.419-1.047-.28-.243-.683-.368-1.209-.376h-.747v-.81zM130.774 149h-5.124v-.714l2.707-3.008c.401-.455.677-.824.827-1.107.154-.286.231-.581.231-.886 0-.408-.123-.743-.371-1.004-.247-.262-.576-.392-.988-.392-.494 0-.879.141-1.155.424-.272.279-.408.67-.408 1.171h-.993c0-.72.23-1.302.692-1.746.466-.444 1.087-.666 1.864-.666.727 0 1.302.192 1.724.575.423.38.634.886.634 1.52 0 .77-.49 1.687-1.472 2.75l-2.094 2.272h3.926V149zm5.956-3.335c0 1.163-.198 2.028-.596 2.594-.397.566-1.018.848-1.863.848-.835 0-1.452-.275-1.854-.827-.401-.555-.608-1.382-.623-2.481v-1.327c0-1.149.199-2.003.597-2.562.397-.558 1.02-.838 1.869-.838.841 0 1.461.271 1.858.811.398.537.602 1.368.612 2.492v1.29zm-.993-1.359c0-.842-.118-1.454-.355-1.837-.236-.387-.61-.58-1.122-.58-.509 0-.879.191-1.112.574-.233.384-.353.973-.36 1.767v1.59c0 .845.122 1.47.365 1.875.247.401.62.601 1.118.601.49 0 .854-.189 1.09-.569.24-.38.365-.977.376-1.794v-1.627zM215.916 79h-.999v-6.623l-2.004.736v-.902l2.847-1.069h.156V79zm7.105-2.626h1.085v.81h-1.085V79h-.999v-1.815h-3.561v-.586l3.502-5.42h1.058v5.195zm-3.432 0h2.433v-3.835l-.118.214-2.315 3.62zM217.774 149h-5.124v-.714l2.707-3.008c.401-.455.677-.824.827-1.107.154-.286.231-.581.231-.886 0-.408-.123-.743-.371-1.004-.247-.262-.576-.392-.988-.392-.494 0-.879.141-1.155.424-.272.279-.408.67-.408 1.171h-.993c0-.72.23-1.302.692-1.746.466-.444 1.087-.666 1.864-.666.727 0 1.302.192 1.724.575.423.38.634.886.634 1.52 0 .77-.49 1.687-1.472 2.75l-2.094 2.272h3.926V149zm4.318 0h-.999v-6.623l-2.003.736v-.902l2.847-1.069h.155V149zM131.311 43.028h-2.514V50h-1.026v-6.972h-2.508v-.848h6.048v.848zm4.077 6.397c-.387.455-.955.682-1.703.682-.619 0-1.092-.179-1.418-.537-.322-.361-.485-.895-.489-1.6v-3.782h.994v3.755c0 .88.358 1.321 1.074 1.321.759 0 1.264-.283 1.515-.849v-4.227h.993V50h-.945l-.021-.575zm4.893.682c-.788 0-1.429-.257-1.923-.773-.494-.52-.741-1.212-.741-2.079v-.182c0-.577.109-1.09.327-1.542.222-.454.53-.809.924-1.063a2.325 2.325 0 011.289-.387c.756 0 1.343.249 1.762.747.419.497.628 1.21.628 2.137v.414h-3.937c.015.573.181 1.037.5 1.391.322.35.73.526 1.224.526.351 0 .649-.071.892-.215.244-.143.457-.333.639-.569l.607.473c-.487.748-1.217 1.122-2.191 1.122zm-.124-5.21c-.401 0-.737.147-1.01.44-.272.29-.44.7-.504 1.225h2.911v-.075c-.029-.505-.165-.895-.408-1.17-.244-.28-.573-.42-.989-.42zM214.594 47.535l.151 1.03.22-.928 1.547-5.457h.87l1.509 5.457.215.945.166-1.053 1.214-5.35h1.037L219.627 50h-.94l-1.611-5.699-.124-.596-.123.596L215.158 50h-.94l-1.89-7.82h1.031l1.235 5.355zm10.162 2.572c-.787 0-1.428-.257-1.923-.773-.494-.52-.741-1.212-.741-2.079v-.182c0-.577.109-1.09.328-1.542.222-.454.53-.809.924-1.063a2.323 2.323 0 011.289-.387c.755 0 1.343.249 1.762.747.418.497.628 1.21.628 2.137v.414h-3.937c.014.573.181 1.037.499 1.391.323.35.731.526 1.225.526.351 0 .648-.071.892-.215.243-.143.456-.333.639-.569l.607.473c-.487.748-1.218 1.122-2.192 1.122zm-.123-5.21c-.401 0-.738.147-1.01.44-.272.29-.44.7-.505 1.225h2.911v-.075c-.028-.505-.164-.895-.408-1.17-.243-.28-.573-.42-.988-.42zm3.303 2.149c0-.892.211-1.608.634-2.148.422-.545.976-.817 1.659-.817.681 0 1.22.233 1.617.698V41.75h.994V50h-.913l-.049-.623c-.397.487-.95.73-1.659.73-.673 0-1.223-.275-1.649-.827-.423-.551-.634-1.27-.634-2.159v-.075zm.994.113c0 .659.136 1.174.408 1.547.272.372.648.558 1.128.558.63 0 1.09-.283 1.38-.849v-2.669c-.297-.548-.754-.822-1.369-.822-.487 0-.867.188-1.139.564-.272.376-.408.933-.408 1.67z" fill="#75797E"/><path d="M0 86h153v28H0V86z" fill="#D5F0FF"/><rect opacity=".4" x="6" y="93" width="74" height="5" rx="2.5" fill="#517FD3"/><rect opacity=".25" x="6" y="103" width="38" height="4" rx="2" fill="#517FD3"/><path d="M204 86h94v28h-94V86z" fill="#D5F0FF"/><rect opacity=".4" x="228" y="93" width="43" height="5" rx="2.5" fill="#517FD3"/><rect opacity=".25" x="228" y="103" width="25" height="4" rx="2" fill="#517FD3"/><g filter="url(#filter0_d)"><path d="M98 144a3 3 0 013-3h228a3 3 0 013 3v60a3 3 0 01-3 3H101a3 3 0 01-3-3v-60z" fill="#fff"/></g><path d="M117.992 161.991c-.093.986-.457 1.756-1.092 2.311-.635.55-1.479.825-2.533.825-.736 0-1.386-.174-1.949-.521-.558-.351-.99-.848-1.294-1.491-.305-.643-.464-1.39-.477-2.241v-.863c0-.872.155-1.64.464-2.304.309-.665.751-1.177 1.327-1.537.579-.359 1.248-.539 2.005-.539 1.02 0 1.841.277 2.463.831.622.555.984 1.338 1.086 2.349h-1.6c-.076-.664-.271-1.143-.584-1.435-.309-.296-.764-.444-1.365-.444-.698 0-1.235.256-1.612.768-.372.508-.563 1.255-.571 2.241v.819c0 .998.178 1.76.533 2.285.36.525.884.787 1.574.787.631 0 1.105-.142 1.422-.425.317-.284.518-.756.603-1.416h1.6zm5.452 2.336c-.452.533-1.096.8-1.929.8-.745 0-1.31-.218-1.695-.654-.381-.436-.571-1.066-.571-1.891v-4.45h1.542v4.43c0 .872.362 1.308 1.085 1.308.749 0 1.255-.269 1.518-.806v-4.932h1.542V165h-1.454l-.038-.673zm6.913-1.193a.698.698 0 00-.343-.629c-.224-.144-.599-.27-1.123-.38-.525-.111-.963-.25-1.314-.419-.771-.373-1.156-.912-1.156-1.619 0-.593.25-1.088.749-1.485.5-.398 1.135-.597 1.905-.597.821 0 1.483.203 1.987.609.507.407.761.933.761 1.581h-1.542a.943.943 0 00-.33-.737c-.22-.198-.512-.298-.876-.298-.339 0-.616.078-.832.235a.744.744 0 00-.317.628c0 .237.099.421.298.553.199.131.601.264 1.206.4.605.131 1.079.289 1.422.476.347.182.603.402.768.66.169.258.254.571.254.939 0 .618-.256 1.12-.768 1.505-.512.381-1.183.571-2.012.571-.563 0-1.065-.102-1.505-.305a2.468 2.468 0 01-1.028-.838 1.984 1.984 0 01-.368-1.149h1.498c.021.364.159.646.413.845.253.194.59.292 1.009.292.406 0 .715-.076.927-.229a.726.726 0 00.317-.609zm4.799-6.672v1.67h1.212v1.142h-1.212v3.834c0 .263.051.453.152.572.106.114.292.171.559.171.177 0 .357-.021.539-.063v1.193c-.351.097-.69.146-1.015.146-1.185 0-1.778-.654-1.778-1.961v-3.892h-1.13v-1.142h1.13v-1.67h1.543zm1.917 5.04c0-.672.133-1.278.4-1.815a2.893 2.893 0 011.123-1.244c.483-.292 1.037-.438 1.663-.438.927 0 1.678.298 2.254.895.579.597.893 1.388.939 2.374l.006.362c0 .677-.131 1.282-.393 1.815a2.864 2.864 0 01-1.117 1.238c-.483.292-1.041.438-1.676.438-.969 0-1.746-.322-2.33-.965-.579-.647-.869-1.509-.869-2.583v-.077zm1.542.134c0 .706.146 1.261.438 1.663.292.398.698.597 1.219.597.52 0 .925-.204 1.212-.61.292-.406.438-1.001.438-1.784 0-.694-.15-1.244-.45-1.65-.297-.406-.701-.609-1.213-.609-.503 0-.903.201-1.199.603-.297.397-.445.994-.445 1.79zm7.598-3.504l.045.717c.482-.563 1.142-.844 1.98-.844.919 0 1.547.351 1.886 1.054.499-.703 1.201-1.054 2.107-1.054.757 0 1.32.209 1.688.628.373.419.563 1.037.572 1.854V165h-1.543v-4.469c0-.436-.095-.755-.285-.958-.191-.203-.506-.305-.946-.305-.351 0-.639.095-.863.286a1.473 1.473 0 00-.464.736l.006 4.71h-1.542v-4.52c-.021-.808-.434-1.212-1.238-1.212-.618 0-1.056.252-1.314.755V165h-1.542v-6.868h1.453zm12.81 3.383c0-1.058.245-1.906.736-2.545.491-.644 1.149-.965 1.974-.965.728 0 1.316.254 1.765.762v-3.517h1.543V165h-1.397l-.076-.711c-.461.559-1.077.838-1.847.838-.804 0-1.456-.324-1.955-.971-.495-.648-.743-1.528-.743-2.641zm1.542.133c0 .699.134 1.245.4 1.638.271.389.654.584 1.149.584.631 0 1.092-.281 1.384-.844v-2.933c-.283-.55-.741-.825-1.371-.825-.499 0-.884.199-1.155.597-.271.393-.407.988-.407 1.783zM170.753 165c-.067-.131-.127-.345-.177-.641a2.402 2.402 0 01-1.803.768c-.69 0-1.253-.197-1.689-.59a1.893 1.893 0 01-.653-1.46c0-.732.27-1.293.812-1.682.546-.394 1.325-.591 2.336-.591h.946v-.45c0-.356-.1-.639-.298-.851-.199-.216-.502-.324-.908-.324-.351 0-.639.089-.863.267a.804.804 0 00-.337.666h-1.542c0-.376.124-.728.374-1.053.25-.33.588-.589 1.016-.775a3.603 3.603 0 011.441-.279c.804 0 1.445.203 1.923.609.478.402.724.969.736 1.701v3.098c0 .618.087 1.111.261 1.479V165h-1.575zm-1.694-1.111c.304 0 .59-.074.857-.222.27-.148.473-.347.609-.597v-1.295h-.832c-.571 0-1 .1-1.288.299-.288.199-.432.48-.432.844 0 .296.097.533.292.711.199.173.464.26.794.26zm6.557-7.427v1.67h1.212v1.142h-1.212v3.834c0 .263.051.453.152.572.106.114.292.171.559.171.177 0 .357-.021.539-.063v1.193c-.351.097-.69.146-1.015.146-1.185 0-1.778-.654-1.778-1.961v-3.892h-1.13v-1.142h1.13v-1.67h1.543zm5.421 8.665c-.978 0-1.771-.307-2.381-.92-.605-.618-.907-1.439-.907-2.463v-.191c0-.685.131-1.297.393-1.834a3.035 3.035 0 011.117-1.263 2.942 2.942 0 011.6-.451c.935 0 1.657.298 2.164.895.512.597.769 1.441.769 2.533v.622h-4.488c.046.567.235 1.015.565 1.345.334.33.753.496 1.256.496.707 0 1.283-.286 1.727-.857l.832.793a2.8 2.8 0 01-1.105.959 3.457 3.457 0 01-1.542.336zm-.184-5.884c-.424 0-.766.148-1.029.444-.258.296-.423.709-.495 1.238h2.939v-.114c-.034-.517-.171-.906-.413-1.168-.241-.267-.575-.4-1.002-.4zm7.991 3.891a.698.698 0 00-.343-.629c-.224-.144-.598-.27-1.123-.38-.525-.111-.963-.25-1.314-.419-.77-.373-1.155-.912-1.155-1.619 0-.593.249-1.088.749-1.485.499-.398 1.134-.597 1.904-.597.821 0 1.483.203 1.987.609.508.407.762.933.762 1.581h-1.543a.943.943 0 00-.33-.737c-.22-.198-.512-.298-.876-.298-.339 0-.616.078-.832.235a.744.744 0 00-.317.628c0 .237.1.421.298.553.199.131.601.264 1.206.4.606.131 1.08.289 1.422.476.347.182.603.402.768.66.17.258.254.571.254.939 0 .618-.256 1.12-.768 1.505-.512.381-1.183.571-2.012.571-.563 0-1.064-.102-1.504-.305a2.477 2.477 0 01-1.029-.838 1.984 1.984 0 01-.368-1.149h1.498c.021.364.159.646.413.845.254.194.59.292 1.009.292.406 0 .715-.076.927-.229a.726.726 0 00.317-.609z" fill="#3C4043"/><path d="M120.75 180.2h1.6c.172 0 .338.063.46.176.122.112.19.265.19.424v9.6a.576.576 0 01-.19.424.678.678 0 01-.46.176h-9.7a.678.678 0 01-.46-.176.576.576 0 01-.19-.424v-9.6c0-.159.068-.312.19-.424a.678.678 0 01.46-.176h1.6V179h1.3v1.2h3.9V179h1.3v1.2zm-7.45 2.4v7.2h8.4v-7.2h-8.4zM133.99 189v-8.531h2.408c.743 0 1.399.164 1.969.492.571.328 1.01.795 1.319 1.4.312.606.47 1.301.474 2.086v.545c0 .805-.156 1.51-.469 2.115a3.248 3.248 0 01-1.33 1.395c-.574.324-1.244.49-2.009.498h-2.362zm1.125-7.605v6.685h1.184c.867 0 1.541-.269 2.021-.809.485-.539.727-1.306.727-2.302v-.498c0-.969-.229-1.721-.686-2.256-.453-.539-1.097-.813-1.933-.82h-1.313zm9.211 7.722c-.859 0-1.558-.281-2.097-.844-.54-.566-.809-1.322-.809-2.267v-.199c0-.629.119-1.19.357-1.682a2.816 2.816 0 011.008-1.16 2.54 2.54 0 011.406-.422c.825 0 1.465.271 1.922.814.457.543.686 1.321.686 2.332v.452h-4.295c.016.625.197 1.13.545 1.517.351.383.797.574 1.336.574.383 0 .707-.078.972-.234.266-.156.498-.363.698-.621l.662.516c-.531.816-1.328 1.224-2.391 1.224zm-.135-5.683c-.437 0-.804.16-1.101.48-.297.316-.481.762-.551 1.336h3.176v-.082c-.031-.551-.18-.977-.445-1.277-.266-.305-.625-.457-1.079-.457zm7.782 5.566c-.063-.125-.114-.348-.153-.668-.504.523-1.105.785-1.804.785-.625 0-1.139-.176-1.541-.527a1.728 1.728 0 01-.598-1.348c0-.66.25-1.172.75-1.535.504-.367 1.211-.551 2.121-.551h1.055v-.498c0-.379-.114-.679-.34-.902-.227-.227-.561-.34-1.002-.34-.387 0-.711.098-.973.293-.261.195-.392.432-.392.709h-1.09c0-.316.111-.621.334-.914a2.31 2.31 0 01.914-.703c.387-.172.81-.258 1.271-.258.731 0 1.303.184 1.717.551.414.363.629.865.645 1.506v2.918c0 .582.074 1.044.222 1.388V189h-1.136zm-1.799-.826c.34 0 .662-.088.967-.264.304-.176.525-.404.662-.685v-1.301h-.85c-1.328 0-1.992.388-1.992 1.166 0 .34.113.605.34.797.226.191.517.287.873.287zm4.148-2.397c0-.972.231-1.754.692-2.343.461-.594 1.064-.891 1.81-.891.742 0 1.33.254 1.764.762V180h1.084v9h-.996l-.053-.68c-.434.532-1.037.797-1.811.797-.734 0-1.333-.301-1.798-.902-.461-.602-.692-1.387-.692-2.356v-.082zm1.084.123c0 .719.149 1.282.446 1.688.296.406.707.609 1.23.609.688 0 1.189-.308 1.506-.926v-2.912c-.324-.597-.822-.896-1.494-.896-.532 0-.946.205-1.242.615-.297.41-.446 1.018-.446 1.822zm7.131 3.1h-1.084v-9h1.084v9zm2.918 0h-1.084v-6.34h1.084V189zm-1.172-8.021c0-.176.053-.325.158-.446.11-.121.27-.181.481-.181.211 0 .371.06.48.181.11.121.164.27.164.446a.616.616 0 01-.164.439c-.109.117-.269.176-.48.176-.211 0-.371-.059-.481-.176a.634.634 0 01-.158-.439zm3.938 1.681l.035.797c.484-.609 1.117-.914 1.898-.914 1.34 0 2.016.756 2.028 2.268V189h-1.084v-4.195c-.004-.457-.11-.795-.317-1.014-.203-.219-.521-.328-.955-.328-.351 0-.66.094-.926.281a1.928 1.928 0 00-.621.738V189h-1.084v-6.34h1.026zm8.226 6.457c-.859 0-1.558-.281-2.097-.844-.539-.566-.809-1.322-.809-2.267v-.199c0-.629.119-1.19.357-1.682a2.824 2.824 0 011.008-1.16 2.54 2.54 0 011.406-.422c.825 0 1.465.271 1.922.814.457.543.686 1.321.686 2.332v.452h-4.295c.016.625.197 1.13.545 1.517.351.383.797.574 1.336.574.383 0 .707-.078.973-.234.265-.156.498-.363.697-.621l.662.516c-.531.816-1.328 1.224-2.391 1.224zm-.135-5.683c-.437 0-.804.16-1.101.48-.297.316-.481.762-.551 1.336h3.176v-.082c-.031-.551-.18-.977-.445-1.277-.266-.305-.625-.457-1.079-.457zM292.643 185.01c0 .836-.141 1.566-.422 2.191-.282.621-.68 1.096-1.196 1.424-.515.328-1.117.492-1.804.492-.672 0-1.268-.164-1.787-.492-.52-.332-.924-.803-1.213-1.412-.285-.613-.432-1.322-.44-2.127v-.615c0-.821.143-1.545.428-2.174.285-.629.687-1.109 1.207-1.442.523-.335 1.121-.503 1.793-.503.684 0 1.285.166 1.805.498.523.328.925.806 1.207 1.435.281.625.422 1.354.422 2.186v.539zm-1.12-.551c0-1.012-.203-1.787-.609-2.326-.406-.543-.975-.815-1.705-.815-.711 0-1.271.272-1.682.815-.406.539-.615 1.289-.627 2.25v.627c0 .98.205 1.752.616 2.314.414.559.982.838 1.705.838.726 0 1.289-.264 1.687-.791.399-.531.604-1.291.615-2.279v-.633zm5.18 3.773c.387 0 .725-.117 1.014-.351.289-.235.449-.527.48-.879h1.026c-.02.363-.145.709-.375 1.037-.231.328-.539.59-.926.785a2.637 2.637 0 01-1.219.293c-.863 0-1.551-.287-2.062-.861-.508-.578-.762-1.367-.762-2.367v-.182c0-.617.113-1.166.34-1.646.226-.481.551-.854.972-1.12.426-.265.928-.398 1.506-.398.711 0 1.301.213 1.77.639.472.425.724.978.756 1.658h-1.026a1.478 1.478 0 00-.468-1.008 1.434 1.434 0 00-1.032-.398c-.551 0-.978.199-1.283.597-.301.395-.451.967-.451 1.717v.205c0 .731.15 1.293.451 1.688.301.394.731.591 1.289.591zm5.209-7.107v1.535h1.184v.838h-1.184v3.932c0 .254.053.445.158.574.106.125.285.187.539.187.125 0 .297-.023.516-.07V189a3.15 3.15 0 01-.832.117c-.484 0-.85-.146-1.096-.439-.246-.293-.369-.709-.369-1.248v-3.932h-1.154v-.838h1.154v-1.535h1.084zm8.883 7.875h-1.09v-7.225l-2.185.803v-.984l3.105-1.166h.17V189zm7.752-2.865h1.183v.885h-1.183V189h-1.09v-1.98h-3.885v-.639l3.821-5.912h1.154v5.666zm-3.744 0h2.654v-4.184l-.129.235-2.525 3.949z" fill="#75797E"/><g filter="url(#filter1_d)" fill-rule="evenodd" clip-rule="evenodd"><path d="M180.349 210.83c.21.19.355.326.804.752.44.418.653.615.847.78.081.069.15.251.178.523a3.48 3.48 0 01-.037.884.525.525 0 00.511.619c.293.003.519.007 1.117.018l.299.005c1.625.028 2.454.02 3.05-.055.636-.08 1.292-.848 1.858-1.813.481.854 1.147 1.687 1.819 1.795.214.034.472.045.772.038a10.839 10.839 0 001.107-.084.525.525 0 00.438-.66 5.183 5.183 0 01-.147-.852 2.061 2.061 0 01-.004-.269c.008-.137.01-.214.014-.391l.003-.124c.008-.189.033-.368.115-.759.036-.17.207-.494.476-.896.08-.12.168-.245.261-.374a17.859 17.859 0 01.815-1.034c.415-.594.857-1.567 1.02-2.135.156-.547.28-1.553.357-2.543.042-.561.058-1.013.058-1.723v-.227-.311a32.122 32.122 0 00-.029-.972c-.045-1.139-.669-1.875-1.589-2.017-.782-.121-1.735.529-1.735.529s-.212-.732-.355-.958c-.233-.363-.832-.826-1.29-.916-.471-.092-1.029-.081-1.542.009-.449.081-.897.482-1.156.914-.185.309-.011-.016-.196-.335-.256-.44-.853-.834-1.421-.95a3.24 3.24 0 00-1.537.088c-.648.194-.752.687-.777.546-.087-.474-.095-.442-.148-.78-.2-1.254-.423-2.121-.762-2.878.019.044-.124-.283-.176-.395a6.491 6.491 0 00-.28-.541c-.306-.523-.657-.915-1.097-1.138-.764-.386-1.908-.198-2.451.435-.539.63-.629 1.682-.493 2.985.052.506.233 1.429.398 2.111a99.114 99.114 0 01.235.988c.073.302.136.55.212.823-.008-.028.136.482.166.595l.021.075a22.534 22.534 0 01.34 1.517c.124.658.125.521.005.38-.082-.096-.16-.184-.235-.266a4.127 4.127 0 00-.39-.375c-.889-.726-1.433-1.047-2.18-1.118-1.226-.118-2.389.748-2.563 1.917-.108.716-.073 1.046.258 1.679.182.342.491.755 1.066 1.466l.071.087c.706.871.783.967.951 1.211.454.659 1.56 2.551 1.761 2.805l1.187 1.315z" fill="#000"/><path d="M177.266 204.836l-.07-.086c-.528-.652-.818-1.04-.954-1.296-.214-.409-.226-.519-.149-1.033.091-.605.745-1.092 1.426-1.027.471.045.883.288 1.615.886.079.065.174.158.284.276.064.07.133.147.207.234.111.13.486.589.431.522.081.098.139.174.206.267.131.188.206.292.306.426-.047-.063.301.418.374.488.39.372.955.059.92-.437a1.921 1.921 0 00-.066-.329c-.161-1.147-.218-1.515-.346-2.194a23.532 23.532 0 00-.357-1.591l-.022-.081c-.032-.119-.178-.637-.168-.602a20.181 20.181 0 01-.202-.786l-.032-.133a86.015 86.015 0 00-.204-.859c-.154-.637-.328-1.522-.374-1.97-.106-1.014-.033-1.868.246-2.194.217-.254.835-.356 1.18-.181.225.114.45.366.664.731.08.138.156.285.234.453l.17.382c.294.658.497 1.443.683 2.614a53.35 53.35 0 00.263 1.504c.422 2.29.391 2.116.397 2.299.022.666 1.006.681 1.049.016.014-.211.009-.399-.016-.94l-.006-.152c-.022-.499-.021-.785.009-.948.054-.297.32-.63.566-.704a2.216 2.216 0 011.026-.066c.29.06.628.283.725.449.117.202.217.509.294.89a8.8 8.8 0 01.135.988l.025.334.008.107.007.063a.704.704 0 00.025.095c.01.193.01.193.785.264.231-.28.231-.28.225-.329a5.43 5.43 0 00.094-.697l.044-.452c.052-.476.117-.778.197-.911.099-.166.448-.396.604-.424.393-.07.824-.077 1.157-.013.151.03.519.314.606.45.179.282.353 1.192.451 2.095-.016.059-.016.059.225.402.826-.094.826-.094.803-.243.022-.053.039-.115.064-.21.059-.224.098-.354.156-.499.04-.101.083-.187.127-.256.169-.265.606-.446.989-.387.412.064.675.373.7 1.021a26.987 26.987 0 01.028 1.239v.23c0 .684-.015 1.111-.055 1.643-.071.915-.19 1.88-.32 2.334-.132.463-.527 1.331-.839 1.783a18.618 18.618 0 00-.834 1.057c-.102.14-.197.276-.285.407-.341.51-.56.925-.631 1.266-.093.443-.126.678-.136.933l-.004.142a8.93 8.93 0 01-.013.353c-.007.127-.005.262.005.405.014.204 0 .483 0 .483s-.177-.016-.375-.012a3.323 3.323 0 01-.581-.025c-.201-.032-.741-.709-1.018-1.236-.423-.807-1.451-.768-1.872-.055-.38.647-.923 1.284-1.085 1.304-.524.066-1.336.074-2.9.047l-.299-.005c-.601-.011-.578.09-.565-.018.035-.308.031-.25 0-.559-.052-.517-.212-.938-.544-1.218a21.69 21.69 0 01-.792-.73 25.455 25.455 0 00-.802-.747l-1.122-1.247c-.123-.158-1.204-2.008-1.697-2.724-.192-.278-.264-.368-1-1.276zm13.31.007v4.843c0 .7 1.05.7 1.05 0v-4.843c0-.7-1.05-.7-1.05 0zm-2.844-.002l.023 4.862c.003.7 1.053.695 1.05-.005l-.023-4.862c-.003-.7-1.053-.695-1.05.005zm-1.692 4.835l-.029-4.796c-.004-.7-1.054-.694-1.05.006l.029 4.797c.005.7 1.055.693 1.05-.007z" fill="#fff"/></g><path opacity=".9" fill="#4E80C1" d="M210 95h8v2h-8z"/><path opacity=".9" stroke="#4E80C1" stroke-width="1.5" d="M210.75 99.75h10.5v4.5h-10.5z"/><path fill-rule="evenodd" clip-rule="evenodd" d="M218.026 22.166a.634.634 0 00.163-.516v-5.68l2.694-3.814a.668.668 0 00-.096-.871.548.548 0 00-.348-.137h-7.874a.553.553 0 00-.349.137.67.67 0 00-.095.87l2.694 3.815v3.185a.651.651 0 00.163.516l2.255 2.495a.523.523 0 00.793 0z" fill="#BCBCBC" opacity=".8"/><path d="M248.218 18.175c-.389 0-.737.159-1.003.406l-3.648-2.188c.026-.121.046-.243.046-.37 0-.126-.02-.247-.046-.368l3.607-2.168c.276.264.639.427 1.044.427.847 0 1.534-.708 1.534-1.582 0-.874-.687-1.582-1.534-1.582-.848 0-1.535.708-1.535 1.582 0 .127.02.248.046.37l-3.607 2.167a1.502 1.502 0 00-1.043-.427c-.848 0-1.535.708-1.535 1.582 0 .873.687 1.582 1.535 1.582.404 0 .767-.164 1.043-.427l3.643 2.188c-.026.111-.041.227-.041.348 0 .85.67 1.535 1.494 1.535.823 0 1.493-.686 1.493-1.535 0-.85-.668-1.54-1.493-1.54z" fill="#B3B3B3" opacity=".8"/><g opacity=".8"><path fill="#B3B3B3" d="M267.148 17.805h12.853v1.512h-12.853zM267.148 12.512h12.853v1.512h-12.853z"/><circle cx="271.685" cy="13.268" r="2.268" fill="#B3B3B3"/><circle cx="271.685" cy="13.268" r=".756" fill="#fff"/><circle cx="275.466" cy="18.561" r="2.268" fill="#B3B3B3"/><circle cx="275.465" cy="18.561" r=".756" fill="#fff"/></g><g opacity=".35" fill="#4C4C4C"><path d="M85.705 14.091l.921-.92 3.415 3.414-.92.921-3.416-3.415z"/><path d="M89.12 15.664l.921.921L86.626 20l-.92-.921 3.414-3.415z"/></g><g opacity=".35" fill="#4C4C4C"><path d="M42.336 18.909l-.921.92L38 16.416l.92-.921 3.416 3.415z"/><path d="M38.921 17.336L38 16.415 41.415 13l.92.921-3.414 3.415z"/></g><path opacity=".6" d="M54.298 13.028h-2.514V20h-1.026v-6.972H48.25v-.848h6.048v.848zm.798 4.013c0-.57.11-1.082.333-1.537.225-.454.537-.805.934-1.052.401-.247.858-.37 1.37-.37.791 0 1.43.273 1.917.82.491.549.736 1.277.736 2.187v.07c0 .565-.109 1.074-.327 1.525a2.447 2.447 0 01-.93 1.047 2.56 2.56 0 01-1.385.376c-.788 0-1.427-.273-1.918-.821-.487-.548-.73-1.273-.73-2.176v-.07zm.999.118c0 .644.148 1.162.446 1.552.3.39.701.585 1.203.585.505 0 .906-.197 1.203-.59.297-.398.446-.953.446-1.665 0-.638-.153-1.154-.457-1.547a1.433 1.433 0 00-1.203-.596c-.49 0-.886.195-1.187.585-.3.39-.451.949-.451 1.676zm5.89-.113c0-.892.21-1.608.633-2.148.423-.545.976-.817 1.66-.817.68 0 1.22.233 1.616.698V11.75h.994V20h-.913l-.048-.623c-.398.487-.95.73-1.66.73-.673 0-1.223-.275-1.649-.827-.422-.551-.634-1.27-.634-2.159v-.075zm.993.113c0 .659.136 1.174.408 1.547.272.372.648.558 1.128.558.63 0 1.09-.283 1.38-.848v-2.67c-.297-.548-.753-.822-1.37-.822-.486 0-.866.188-1.138.564-.272.376-.408.933-.408 1.67zM72.617 20c-.058-.115-.104-.319-.14-.612-.462.48-1.013.72-1.654.72-.573 0-1.044-.162-1.413-.484a1.584 1.584 0 01-.548-1.235c0-.605.23-1.075.688-1.408.462-.336 1.11-.504 1.944-.504h.967v-.457c0-.347-.104-.623-.312-.827-.207-.208-.513-.312-.918-.312-.355 0-.652.09-.892.269-.24.179-.36.396-.36.65h-.998c0-.29.102-.57.306-.838.207-.272.487-.487.837-.645a2.837 2.837 0 011.166-.236c.67 0 1.194.168 1.574.505.38.333.576.793.59 1.38v2.675c0 .534.069.958.205 1.273V20h-1.042zm-1.65-.757c.312 0 .608-.08.887-.242.28-.161.482-.37.607-.628V17.18h-.779c-1.217 0-1.826.357-1.826 1.069 0 .312.104.555.312.73.207.176.474.264.8.264zm6.454-.699l1.354-4.356h1.063l-2.336 6.709c-.362.967-.936 1.45-1.724 1.45l-.188-.016-.37-.07v-.805l.268.021c.336 0 .598-.068.784-.204.19-.136.346-.385.467-.747l.22-.59-2.073-5.748h1.085l1.45 4.356zM108.031 16.342c0 .767-.129 1.436-.387 2.01-.258.568-.623 1.003-1.096 1.304-.472.301-1.024.451-1.654.451-.616 0-1.162-.15-1.638-.45-.476-.305-.847-.737-1.112-1.295-.261-.562-.396-1.212-.403-1.95v-.564c0-.752.131-1.416.392-1.993.262-.576.631-1.017 1.107-1.32a2.974 2.974 0 011.643-.463c.627 0 1.178.152 1.655.457.479.3.848.74 1.106 1.316.258.573.387 1.24.387 2.003v.494zm-1.026-.505c0-.927-.186-1.638-.559-2.132-.372-.498-.893-.746-1.563-.746-.651 0-1.165.248-1.541.746-.373.494-.564 1.182-.575 2.063v.574c0 .899.188 1.606.564 2.122.38.512.901.768 1.563.768.666 0 1.182-.242 1.547-.725.365-.487.553-1.184.564-2.09v-.58zm5.342 3.46c.354 0 .664-.108.929-.323a1.13 1.13 0 00.44-.805h.94c-.018.332-.132.65-.344.95-.211.3-.494.54-.848.72a2.424 2.424 0 01-1.117.268c-.792 0-1.422-.263-1.891-.79-.465-.53-.698-1.252-.698-2.17v-.166c0-.565.104-1.068.311-1.509a2.38 2.38 0 01.892-1.026c.39-.243.85-.365 1.38-.365.652 0 1.193.195 1.622.585.434.39.665.897.693 1.52h-.94a1.354 1.354 0 00-.429-.923 1.316 1.316 0 00-.946-.365c-.505 0-.897.182-1.176.547-.276.362-.414.886-.414 1.574v.188c0 .67.138 1.185.414 1.547.276.362.67.542 1.182.542zm5.368-6.516v1.407h1.085v.768h-1.085v3.605c0 .232.049.408.145.526.097.114.262.172.494.172.115 0 .273-.022.473-.065V20a2.876 2.876 0 01-.763.107c-.444 0-.778-.134-1.004-.402-.226-.269-.338-.65-.338-1.144v-3.604h-1.058v-.769h1.058v-1.407h.993zm2.474 4.26c0-.57.111-1.082.333-1.537.226-.454.537-.805.935-1.052.401-.247.857-.37 1.369-.37.792 0 1.431.273 1.918.82.49.549.735 1.277.735 2.187v.07c0 .565-.109 1.074-.327 1.525a2.451 2.451 0 01-.929 1.047 2.56 2.56 0 01-1.386.376c-.788 0-1.427-.273-1.918-.821-.487-.548-.73-1.273-.73-2.176v-.07zm.999.118c0 .644.149 1.162.446 1.552.301.39.702.585 1.203.585.505 0 .906-.197 1.203-.59.297-.398.446-.953.446-1.665 0-.638-.152-1.154-.457-1.547a1.433 1.433 0 00-1.203-.596c-.49 0-.886.195-1.187.585-.301.39-.451.949-.451 1.676zm11.051 0c0 .888-.204 1.602-.612 2.143-.408.537-.956.805-1.644.805-.734 0-1.301-.26-1.702-.778l-.049.671h-.913v-8.25h.994v3.078c.401-.498.954-.747 1.66-.747.705 0 1.258.267 1.659.8.405.534.607 1.264.607 2.192v.086zm-.993-.113c0-.677-.131-1.2-.392-1.569-.262-.368-.638-.553-1.128-.553-.656 0-1.127.305-1.413.913v2.514c.304.609.779.913 1.423.913.477 0 .847-.184 1.112-.553.265-.369.398-.924.398-1.665zm5.255 3.061c-.787 0-1.428-.257-1.922-.773-.495-.52-.742-1.212-.742-2.079v-.182c0-.577.11-1.09.328-1.542.222-.455.53-.809.924-1.063a2.323 2.323 0 011.289-.387c.755 0 1.343.249 1.762.747.419.497.628 1.21.628 2.137v.414h-3.937c.014.573.181 1.037.5 1.391.322.35.73.526 1.224.526.351 0 .648-.071.892-.215.243-.143.456-.332.639-.569l.607.473c-.487.748-1.218 1.122-2.192 1.122zm-.123-5.21c-.401 0-.738.147-1.01.44-.272.29-.44.7-.505 1.226h2.911v-.076c-.028-.505-.164-.895-.408-1.17-.243-.28-.573-.42-.988-.42zm6.948.183a2.986 2.986 0 00-.489-.037c-.652 0-1.094.277-1.327.832V20h-.993v-5.812h.966l.017.672c.325-.52.787-.779 1.385-.779.194 0 .34.025.441.075v.924zm9.856 4.92h-5.124v-.714l2.707-3.008c.401-.455.677-.824.827-1.107a1.85 1.85 0 00.231-.886c0-.408-.123-.743-.37-1.004-.247-.262-.577-.392-.989-.392-.494 0-.879.141-1.154.424-.273.28-.409.67-.409 1.17h-.993c0-.719.231-1.3.693-1.745.465-.444 1.086-.666 1.863-.666.727 0 1.302.192 1.724.575.423.38.634.886.634 1.52 0 .77-.49 1.687-1.471 2.75l-2.095 2.272h3.926V20zm6.55-3.335c0 1.163-.198 2.028-.596 2.594-.397.566-1.018.848-1.864.848-.834 0-1.452-.275-1.853-.827-.401-.555-.608-1.382-.623-2.481v-1.327c0-1.15.199-2.003.597-2.562.397-.558 1.02-.838 1.869-.838.841 0 1.461.27 1.858.811.398.537.602 1.368.612 2.493v1.289zm-.993-1.36c0-.84-.118-1.453-.355-1.836-.236-.387-.61-.58-1.122-.58-.509 0-.879.191-1.112.574-.233.384-.353.973-.36 1.768v1.59c0 .844.122 1.47.365 1.874.247.4.62.601 1.117.601.491 0 .854-.19 1.091-.569.24-.38.365-.977.376-1.794v-1.627zM166.723 20h-5.124v-.714l2.707-3.008c.401-.455.677-.824.827-1.107a1.85 1.85 0 00.231-.886c0-.408-.123-.743-.37-1.004-.247-.262-.577-.392-.989-.392-.494 0-.879.141-1.154.424-.273.28-.409.67-.409 1.17h-.993c0-.719.231-1.3.693-1.745.465-.444 1.086-.666 1.863-.666.727 0 1.302.192 1.724.575.423.38.634.886.634 1.52 0 .77-.49 1.687-1.471 2.75l-2.095 2.272h3.926V20zm6.55-3.335c0 1.163-.198 2.028-.596 2.594-.397.566-1.018.848-1.864.848-.834 0-1.452-.275-1.853-.827-.401-.555-.608-1.382-.623-2.481v-1.327c0-1.15.199-2.003.597-2.562.397-.558 1.02-.838 1.869-.838.841 0 1.461.27 1.858.811.398.537.602 1.368.612 2.493v1.289zm-.993-1.36c0-.84-.118-1.453-.355-1.836-.236-.387-.61-.58-1.122-.58-.509 0-.879.191-1.112.574-.233.384-.353.973-.36 1.768v1.59c0 .844.122 1.47.365 1.874.247.4.62.601 1.117.601.491 0 .854-.19 1.091-.569.24-.38.365-.977.376-1.794v-1.627z" fill="#3C4043"/><defs><filter id="filter0_d" x="92.5" y="136" width="242" height="74" filterUnits="userSpaceOnUse" color-interpolation-filters="sRGB"><feFlood flood-opacity="0" result="BackgroundImageFix"/><feColorMatrix in="SourceAlpha" values="0 0 0 0 0 0 0 0 0 0 0 0 0 0 0 0 0 0 127 0"/><feOffset dx="-1.5" dy="-1"/><feGaussianBlur stdDeviation="2"/><feColorMatrix values="0 0 0 0 0.174392 0 0 0 0 0.184317 0 0 0 0 0.204167 0 0 0 0.2 0"/><feBlend in2="BackgroundImageFix" result="effect1_dropShadow"/><feBlend in="SourceGraphic" in2="effect1_dropShadow" result="shape"/></filter><filter id="filter1_d" x="173.923" y="191.461" width="23.235" height="24.581" filterUnits="userSpaceOnUse" color-interpolation-filters="sRGB"><feFlood flood-opacity="0" result="BackgroundImageFix"/><feColorMatrix in="SourceAlpha" values="0 0 0 0 0 0 0 0 0 0 0 0 0 0 0 0 0 0 127 0"/><feOffset dy=".539"/><feGaussianBlur stdDeviation=".539"/><feColorMatrix values="0 0 0 0 0 0 0 0 0 0 0 0 0 0 0 0 0 0 0.298656 0"/><feBlend in2="BackgroundImageFix" result="effect1_dropShadow"/><feBlend in="SourceGraphic" in2="effect1_dropShadow" result="shape"/></filter></defs></svg>